<svg width="75" height="98" viewBox="0 0 75 98" fill="none" xmlns="http://www.w3.org/2000/svg">
<path d="M36.2951 83.5116C34.696 83.0447 33.097 82.5777 31.4979 82.1108C32.0605 79.6291 32.7548 77.1686 33.5881 74.7252C34.6357 71.6538 29.777 70.3355 28.7365 73.3878C27.9123 75.803 27.23 78.2414 26.6634 80.6989L20.1956 78.8089C17.081 77.8992 15.7516 82.7528 18.8582 83.6605C21.1386 84.3267 23.4189 84.9929 25.6993 85.6591C25.178 88.9237 24.861 92.2245 24.7664 95.5717C24.6759 98.8111 29.7076 98.8081 29.7982 95.5717C29.8787 92.7016 30.1393 89.8747 30.563 87.0801C32.0282 87.5078 33.4925 87.9355 34.9577 88.3642C38.0724 89.2729 39.4027 84.4183 36.2951 83.5116Z" fill="#F39200"/>
<path d="M45.123 43.8061C44.8684 43.7165 44.6138 43.6259 44.3582 43.5354C44.1368 43.4569 43.9275 43.4176 43.7252 43.3985C42.6635 43.0896 41.6018 42.7796 40.5401 42.4707C40.7575 41.9152 41.0976 41.0487 41.0221 40.7257C41.0614 40.6914 41.1037 40.6683 41.1419 40.6311C41.1872 40.5868 41.2335 40.5435 41.2788 40.4992C42.3384 39.4788 42.111 37.9914 41.2788 36.9418L41.1238 36.7466C40.4505 35.8972 38.9481 35.8248 38.0756 36.3531C36.549 37.2769 36.081 39.3017 35.6503 41.0467C34.4064 40.6844 33.1626 40.3211 31.9187 39.9588C28.8041 39.0511 27.4737 43.9047 30.5813 44.8104C31.8433 45.1787 33.1062 45.5461 34.3682 45.9144C33.9888 47.4581 33.6356 49.0079 33.3145 50.5657C32.6644 53.7266 37.514 55.0782 38.1661 51.9031C38.4811 50.3695 38.8324 48.8439 39.2047 47.3243C40.7313 47.7691 42.2579 48.2139 43.7846 48.6587C46.9284 49.5745 48.1431 44.8738 45.123 43.8061Z" fill="#F39200"/>
<path d="M19.2353 52.8169C17.2578 52.2875 15.2803 51.7582 13.3029 51.2289C13.5836 49.6952 13.8372 48.1545 14.0365 46.5967C14.4451 43.3935 9.41033 43.4236 9.00477 46.5967C8.86187 47.7167 8.68072 48.8297 8.47844 49.9377C6.69319 49.4597 4.90695 48.9817 3.12068 48.5037C-0.0110632 47.6654 -1.34646 52.518 1.78327 53.3553C3.65206 53.8554 5.52184 54.3556 7.39163 54.8557C7.09074 56.0241 6.77066 57.1884 6.41643 58.3437C5.46342 61.4463 10.3191 62.7727 11.2681 59.6812C11.6273 58.5108 11.9484 57.3344 12.2452 56.1549C14.1291 56.6591 16.013 57.1633 17.8968 57.6675C21.0286 58.5068 22.365 53.6552 19.2353 52.8169Z" fill="#F39200"/>
<path d="M68.9608 66.0737C68.7575 65.7546 68.5542 65.4346 68.352 65.1156C67.4624 63.7148 65.8834 63.7057 64.7905 64.3941C64.71 64.378 64.6295 64.3629 64.549 64.3468C64.9566 62.7678 65.3178 61.1727 65.6167 59.5535C66.2376 58.5774 66.2708 57.4271 65.6227 56.1752C64.6838 54.3638 61.375 54.6265 61.0248 56.776C60.6584 59.0202 60.1895 61.2392 59.6199 63.429C58.0057 63.1522 56.3915 62.8765 54.7703 62.639C51.6033 62.1761 50.2357 67.0237 53.4329 67.4906C55.0159 67.7221 56.5918 67.9918 58.1677 68.2615C57.6354 69.8173 57.0507 71.358 56.3955 72.8766C55.1265 75.8191 59.4599 78.3843 60.7399 75.4166C61.6285 73.3566 62.4206 71.2805 63.121 69.1802C64.1203 69.3775 65.1226 69.5566 66.1189 69.7689C68.1507 70.2027 70.2046 68.03 68.9608 66.0737Z" fill="#F39200"/>
<path d="M72.8191 32.0199C71.1838 31.6727 69.5585 31.2863 67.9393 30.8828C68.4908 29.4095 69.0262 27.9312 69.5304 26.4387C70.5699 23.3644 65.7123 22.045 64.6788 25.1013C64.1706 26.6058 63.6292 28.0952 63.0727 29.5795C61.5189 29.1337 59.9691 28.6708 58.4284 28.1727C55.3409 27.1724 54.0176 32.029 57.091 33.0253C58.4586 33.4681 59.8332 33.8837 61.2119 34.2852C60.6061 35.7394 59.9832 37.1885 59.325 38.6236C57.9856 41.547 62.3209 44.1061 63.6694 41.1636C64.5117 39.326 65.3078 37.4693 66.0776 35.6035C67.4362 35.9477 68.8008 36.2727 70.1714 36.5766C70.1855 36.5807 70.1966 36.5867 70.2117 36.5897C70.6343 36.6843 71.058 36.7779 71.4807 36.8725C74.6346 37.5417 75.9891 32.7254 72.8191 32.0199Z" fill="#F39200"/>
<path d="M28.5761 20.5484C26.4104 20.2818 24.2559 19.9638 22.1043 19.6196C22.1425 19.4858 22.1807 19.3509 22.219 19.2171C22.4031 18.571 22.5732 16.9055 22.8701 16.1145C23.807 15.3326 24.2075 13.9831 23.5242 12.869C23.495 12.8217 23.4659 12.7734 23.4367 12.7261C22.6497 11.4441 20.5656 10.9409 19.4848 12.2169C18.0507 13.9106 17.6321 16.5211 17.0947 18.7531C15.1212 18.3848 13.1508 17.9974 11.1865 17.5707C8.02955 16.8844 6.68101 21.7339 9.84899 22.4223C11.8073 22.8479 13.7717 23.2324 15.7401 23.5967C15.1907 25.5269 14.6423 27.456 14.0928 29.3862C13.2052 32.5059 18.0588 33.8383 18.9444 30.7236C19.5391 28.6345 20.1328 26.5463 20.7276 24.4581C23.335 24.8757 25.9505 25.2562 28.5761 25.5792C31.7823 25.9747 31.7531 20.9389 28.5761 20.5484Z" fill="#F39200"/>
<path d="M56.8348 8.0688C54.7356 7.56965 52.6373 7.07049 50.5381 6.57135C51.004 5.38889 51.4689 4.20644 51.9349 3.02399C53.1214 0.00998019 48.2577 -1.29726 47.0833 1.68656C46.5952 2.92537 46.1082 4.16418 45.6201 5.40199L39.9785 4.06052C36.8307 3.3118 35.4872 8.16238 38.6411 8.91211C40.3469 9.31767 42.0526 9.72324 43.7583 10.1288C43.064 11.8939 42.3686 13.658 41.6742 15.4222C40.4877 18.4362 45.3514 19.7434 46.5258 16.7596C47.2423 14.9391 47.9598 13.1186 48.6764 11.2982C50.9497 11.8386 53.2231 12.379 55.4974 12.9204C58.6452 13.6701 59.9887 8.81953 56.8348 8.0688Z" fill="#F39200"/>
</svg>
