<svg width="61" height="52" viewBox="0 0 61 52" fill="none" xmlns="http://www.w3.org/2000/svg">
<path d="M28.0591 21.9751C25.9883 20.7882 23.5306 21.3929 21.923 22.8728C21.6301 22.9616 21.3408 23.0731 21.0667 23.2308C19.2638 24.27 18.4487 26.322 18.9245 28.3315C19.8985 32.4506 25.0555 33.9868 28.3984 31.6818C31.7763 29.3519 31.6936 24.0584 28.0591 21.9751ZM25.346 26.8754C25.3322 26.8679 25.3184 26.8591 25.3047 26.8516C25.3134 26.8466 25.3084 26.8191 25.2446 26.7214C25.2947 26.7953 25.3247 26.8416 25.346 26.8754ZM25.2584 26.8228C25.2509 26.8178 25.2421 26.8128 25.2346 26.8078C25.1144 26.6763 25.1206 26.6788 25.2546 26.8166C25.2534 26.8178 25.2571 26.8216 25.2584 26.8228Z" fill="#F39200"/>
<path d="M58.4777 17.5918C52.1927 2.19222 32.5162 -3.40548 17.6875 2.0232C6.38323 6.16106 -2.53726 18.8163 0.655345 30.396C0.651589 30.6126 0.667859 30.838 0.716688 31.0734C7.76795 65.114 72.8719 52.8619 58.4777 17.5918ZM53.7339 20.7782C54.1195 21.9225 54.3937 23.0268 54.5815 24.0985C50.4023 24.2049 46.2294 24.2274 42.0527 24.4077C41.6921 22.099 40.822 19.878 39.4723 17.9649C42.7789 16.46 46.2069 15.0127 49.3156 13.1898C51.1986 15.2593 52.7223 17.7759 53.7339 20.7782ZM19.2513 33.8691C13.0752 28.508 16.2252 21.0223 22.8395 18.1615C22.9459 18.1152 23.0098 18.0463 23.0949 17.9887C25.5426 17.1586 28.3245 17.1361 31.0664 18.1915C37.1311 20.5278 38.5308 28.9011 34.0049 33.3495C30.0222 37.267 23.443 37.5086 19.2513 33.8691ZM7.46621 33.5035C5.75347 28.831 5.61326 24.6443 6.60985 21.021C7.87187 21.91 9.24781 22.6825 10.6638 23.2446C10.4522 24.1498 10.327 25.0988 10.3158 26.0942C10.312 26.4472 10.3809 26.7665 10.4998 27.0557C10.4973 28.9086 10.8253 30.7729 11.4977 32.4994C10.9593 32.9125 10.4422 33.357 9.89759 33.7614C9.35798 34.162 8.80211 34.5389 8.23746 34.9032C7.96202 34.4525 7.70659 33.9843 7.46621 33.5035ZM32.0981 5.72787C31.8264 6.1836 31.5835 6.65936 31.3594 7.1276C30.7935 8.30574 30.3277 9.52644 29.9571 10.7797C29.5916 12.0142 31.5409 12.9081 32.0893 11.6786C32.5738 10.5906 33.1297 9.54146 33.7808 8.54361C34.3204 7.71729 35.014 6.95983 35.4121 6.05714C39.4736 6.69441 43.346 8.20683 46.5699 10.6758C43.5576 12.252 40.6605 14.2077 37.7696 15.998C36.8118 15.069 35.7251 14.2502 34.4781 13.6155C30.4692 11.576 25.5639 11.4282 21.2207 12.8017C21.2432 12.3359 21.2645 11.8702 21.287 11.4044C21.3459 10.1449 21.4773 9.0657 20.974 7.89132C20.8914 7.69726 20.7437 7.55328 20.5721 7.44311C24.1992 6.15856 28.1743 5.5601 32.0981 5.72787ZM18.5001 8.26567C18.1658 9.29732 18.251 10.2801 18.3048 11.4032C18.3449 12.2483 18.3836 13.0946 18.4237 13.9397C15.499 15.4208 13.0489 17.6682 11.6316 20.5453C10.3108 19.7315 9.03372 18.8927 7.78297 17.9562C9.9314 13.6418 13.8264 10.3452 18.5001 8.26567ZM9.53076 36.7574C10.6238 36.2191 11.7443 35.6131 12.7108 34.8769C12.8436 35.081 12.9775 35.2838 13.1228 35.4804C14.709 37.6376 16.746 39.2452 19.0034 40.3306C19.056 41.4199 19.0973 42.5154 19.1862 43.6046C15.3826 42.1523 12.0047 39.8912 9.53076 36.7574ZM21.9932 44.5136C21.9957 44.4973 22.0044 44.486 22.007 44.4685C22.1284 43.4807 22.1697 42.4816 22.2098 41.4825C24.6499 42.0822 27.2128 42.121 29.6855 41.6189C29.4513 42.9135 29.3549 44.337 29.6867 45.5815C27.0775 45.5264 24.4746 45.1771 21.9932 44.5136ZM32.972 45.4939C32.8593 44.794 32.5588 44.163 32.3923 43.4481C32.1982 42.6155 32.1519 41.7767 32.1707 40.9253C34.4769 40.074 36.6228 38.7143 38.4019 36.8225C39.0955 36.0851 39.6727 35.2788 40.1747 34.4387C40.8107 35.2212 41.4467 36.0037 42.0828 36.7862C43.1056 38.0432 44.081 39.6095 45.3605 40.6036C46.6876 41.6352 48.8849 40.3532 47.867 38.6705C46.9969 37.2332 45.5859 36.0713 44.4152 34.8719C43.4124 33.8428 42.4083 32.8136 41.4054 31.7857C41.9488 30.2132 42.2192 28.5656 42.2267 26.9104C46.4497 27.0094 50.7128 27.2447 54.8607 27.9283C54.4563 38.4602 44.1098 44.6651 32.972 45.4939Z" fill="#F39200"/>
</svg>
