<svg width="22" height="22" viewBox="0 0 22 22" fill="none" xmlns="http://www.w3.org/2000/svg">
<g clip-path="url(#clip0_173_1012)">
<path fill-rule="evenodd" clip-rule="evenodd" d="M11 16.5C14.0376 16.5 16.5 14.0376 16.5 11C16.5 7.96243 14.0376 5.5 11 5.5C7.96243 5.5 5.5 7.96243 5.5 11C5.5 14.0376 7.96243 16.5 11 16.5ZM11 14.6667C13.025 14.6667 14.6667 13.025 14.6667 11C14.6667 8.97496 13.025 7.33333 11 7.33333C8.97496 7.33333 7.33333 8.97496 7.33333 11C7.33333 13.025 8.97496 14.6667 11 14.6667Z" fill="white"/>
<path d="M16.4997 4.5835C15.9934 4.5835 15.583 4.99391 15.583 5.50016C15.583 6.00642 15.9934 6.41683 16.4997 6.41683C17.0059 6.41683 17.4163 6.00642 17.4163 5.50016C17.4163 4.99391 17.0059 4.5835 16.4997 4.5835Z" fill="white"/>
<path fill-rule="evenodd" clip-rule="evenodd" d="M1.51646 3.91956C0.916992 5.09607 0.916992 6.63622 0.916992 9.7165V12.2832C0.916992 15.3634 0.916992 16.9036 1.51646 18.0801C2.04376 19.115 2.88515 19.9564 3.92005 20.4837C5.09656 21.0832 6.63671 21.0832 9.71699 21.0832H12.2837C15.3639 21.0832 16.9041 21.0832 18.0806 20.4837C19.1155 19.9564 19.9569 19.115 20.4842 18.0801C21.0837 16.9036 21.0837 15.3634 21.0837 12.2832V9.7165C21.0837 6.63622 21.0837 5.09607 20.4842 3.91956C19.9569 2.88466 19.1155 2.04327 18.0806 1.51597C16.9041 0.916504 15.3639 0.916504 12.2837 0.916504H9.71699C6.63671 0.916504 5.09656 0.916504 3.92005 1.51597C2.88515 2.04327 2.04376 2.88466 1.51646 3.91956ZM12.2837 2.74984H9.71699C8.14659 2.74984 7.07905 2.75127 6.2539 2.81868C5.45013 2.88435 5.03909 3.00338 4.75236 3.14948C4.06243 3.50102 3.50151 4.06194 3.14996 4.75187C3.00387 5.03861 2.88484 5.44964 2.81917 6.25341C2.75175 7.07856 2.75032 8.14611 2.75032 9.7165V12.2832C2.75032 13.8536 2.75175 14.9211 2.81917 15.7462C2.88484 16.5501 3.00387 16.9611 3.14996 17.2478C3.50151 17.9377 4.06243 18.4986 4.75236 18.8502C5.03909 18.9963 5.45013 19.1154 6.2539 19.181C7.07905 19.2484 8.14659 19.2498 9.71699 19.2498H12.2837C13.8541 19.2498 14.9215 19.2484 15.7467 19.181C16.5506 19.1154 16.9616 18.9963 17.2483 18.8502C17.9382 18.4986 18.4991 17.9377 18.8507 17.2478C18.9968 16.9611 19.1158 16.5501 19.1815 15.7462C19.2489 14.9211 19.2503 13.8536 19.2503 12.2832V9.7165C19.2503 8.14611 19.2489 7.07856 19.1815 6.25341C19.1158 5.44964 18.9968 5.03861 18.8507 4.75187C18.4991 4.06194 17.9382 3.50102 17.2483 3.14948C16.9616 3.00338 16.5506 2.88435 15.7467 2.81868C14.9215 2.75127 13.8541 2.74984 12.2837 2.74984Z" fill="white"/>
</g>
<defs>
<clipPath id="clip0_173_1012">
<rect width="22" height="22" fill="white"/>
</clipPath>
</defs>
</svg>
