<svg width="18" height="18" viewBox="0 0 18 18" fill="none" xmlns="http://www.w3.org/2000/svg">
<path d="M8.30727 15.9522C8.25952 15.9522 8.21229 15.9423 8.16855 15.9232C8.12481 15.904 8.08549 15.8761 8.05309 15.841L1.19969 8.42759C1.15401 8.37816 1.12372 8.31649 1.11254 8.25012C1.10136 8.18375 1.10977 8.11557 1.13674 8.0539C1.16371 7.99224 1.20807 7.93977 1.2644 7.90293C1.32072 7.86609 1.38657 7.84647 1.45387 7.84646H4.75272C4.80225 7.84647 4.8512 7.8571 4.89627 7.87764C4.94135 7.89817 4.98149 7.92814 5.014 7.96551L7.30443 10.6006C7.55196 10.0714 8.03114 9.19041 8.87202 8.11685C10.1151 6.52973 12.4274 4.19558 16.3834 2.08847C16.4598 2.04776 16.5488 2.03719 16.6326 2.05886C16.7165 2.08052 16.7892 2.13285 16.8364 2.20551C16.8836 2.27817 16.9018 2.36587 16.8874 2.45131C16.8731 2.53674 16.8272 2.61369 16.7589 2.66696C16.7438 2.67877 15.2185 3.87992 13.4631 6.08004C11.8476 8.1047 9.69995 11.4153 8.64318 15.6893C8.62461 15.7644 8.58144 15.8311 8.52053 15.8787C8.45963 15.9264 8.38451 15.9523 8.30717 15.9523L8.30727 15.9522Z" fill="#543EE8"/>
</svg>
