<svg width="43" height="43" viewBox="0 0 43 43" fill="none" xmlns="http://www.w3.org/2000/svg">
<g id="Frame">
<path id="Vector" d="M21.5 37.4449L30.3682 28.5765C35.2661 23.6788 35.2661 15.7379 30.3682 10.84C25.4705 5.9422 17.5295 5.9422 12.6317 10.84C7.73387 15.7379 7.73387 23.6788 12.6317 28.5765L21.5 37.4449ZM21.5 42.5125L10.0979 31.1105C3.8007 24.8131 3.8007 14.6034 10.0979 8.30623C16.3951 2.00903 26.6048 2.00903 32.9022 8.30623C39.1993 14.6034 39.1993 24.8131 32.9022 31.1105L21.5 42.5125ZM21.5 23.2917C23.4791 23.2917 25.0833 21.6874 25.0833 19.7083C25.0833 17.7293 23.4791 16.125 21.5 16.125C19.5209 16.125 17.9167 17.7293 17.9167 19.7083C17.9167 21.6874 19.5209 23.2917 21.5 23.2917ZM21.5 26.875C17.542 26.875 14.3333 23.6663 14.3333 19.7083C14.3333 15.7503 17.542 12.5417 21.5 12.5417C25.458 12.5417 28.6667 15.7503 28.6667 19.7083C28.6667 23.6663 25.458 26.875 21.5 26.875Z" fill="white"/>
</g>
</svg>
