<svg width="30" height="30" viewBox="0 0 30 30" fill="none" xmlns="http://www.w3.org/2000/svg">
<g clip-path="url(#clip0_513_6781)">
<path d="M27.4288 5.62501L17.1525 0.487515C15.8425 -0.163735 14.1525 -0.163735 12.845 0.490015L2.57129 5.62501L7.50004 8.08877V11.25C7.50004 15.3863 10.8638 18.75 15 18.75C19.1363 18.75 22.5 15.3863 22.5 11.25V8.08877L25 6.83877V15H27.5V5.62501H27.4288ZM13.9625 2.72627C14.5638 2.42752 15.4375 2.42627 16.0375 2.72627L21.8388 5.62626L16.0363 8.52501C15.4375 8.82502 14.565 8.82502 13.9638 8.52501L8.16254 5.62626L13.9613 2.72752L13.9625 2.72627ZM20.0013 11.25C20.0013 14.0075 17.7588 16.25 15.0013 16.25C12.2438 16.25 10.0013 14.0075 10.0013 11.25V9.33877L12.8463 10.7613C13.5013 11.0888 14.2525 11.2525 15.0025 11.2525C15.7525 11.2525 16.5025 11.0888 17.1563 10.7613L20.0013 9.33877V11.25ZM25.0013 25.625V30H22.5013V25.625C22.5013 24.03 21.3 22.7088 19.7525 22.5238L15.0188 28.2025L10.2813 22.5188C8.71879 22.6913 7.50004 24.0188 7.50004 25.625V30H5.00004V25.625C5.00004 22.5238 7.52379 20 10.625 20H11.435L15.0175 24.2975L18.5988 20H19.3738C22.475 20 24.9988 22.5238 24.9988 25.625H25.0013Z" fill="#6FC081"/>
</g>
<defs>
<clipPath id="clip0_513_6781">
<rect width="30" height="30" fill="white"/>
</clipPath>
</defs>
</svg>
