<svg width="24" height="24" viewBox="0 0 24 24" fill="none" xmlns="http://www.w3.org/2000/svg">
<g id="Facebook_f_logo__2019_ 1" clip-path="url(#clip0_283_2787)">
<g id="Layer_x0020_1">
<path id="Vector" d="M24 12C24 5.37308 18.6269 0 12 0C5.37308 0 0 5.37308 0 12C0 17.989 4.38757 22.9537 10.1252 23.8549V15.4696H7.07749V12H10.1252V9.35565C10.1252 6.34847 11.9173 4.68626 14.6579 4.68626C15.9707 4.68626 17.3444 4.92083 17.3444 4.92083V7.874H15.8307C14.3406 7.874 13.8748 8.79876 13.8748 9.74884V12H17.2026L16.6711 15.4696H13.8748V23.8549C19.6124 22.9554 24 17.9907 24 12Z" fill="#1977F3"/>
<path id="Vector_2" d="M16.671 15.4695L17.2026 12H13.8748V9.74883C13.8748 8.80044 14.3388 7.87399 15.8306 7.87399H17.3443V4.92082C17.3443 4.92082 15.9707 4.68625 14.6578 4.68625C11.9172 4.68625 10.1251 6.34678 10.1251 9.35564V12H7.07739V15.4695H10.1251V23.8549C10.736 23.9511 11.362 24 11.9999 24C12.6378 24 13.2639 23.9494 13.8748 23.8549V15.4695H16.671Z" fill="#FEFEFE"/>
</g>
</g>
<defs>
<clipPath id="clip0_283_2787">
<rect width="24" height="24" fill="white"/>
</clipPath>
</defs>
</svg>
