<svg width="21" height="21" viewBox="0 0 21 21" fill="none" xmlns="http://www.w3.org/2000/svg">
<path d="M10.4994 0.65625C9.45511 0.65625 8.45359 1.07109 7.71517 1.80952C6.97674 2.54794 6.5619 3.54946 6.5619 4.59375V5.25H6.01721C5.46473 5.24942 4.9333 5.46195 4.53358 5.84334C4.13385 6.22473 3.89662 6.74559 3.87128 7.2975L3.35284 18.0928C3.33955 18.3831 3.38518 18.6731 3.48697 18.9453C3.58876 19.2174 3.74462 19.4662 3.94514 19.6765C4.14565 19.8869 4.38668 20.0544 4.6537 20.1691C4.92071 20.2838 5.20818 20.3432 5.49878 20.3438H15.5C15.7906 20.3432 16.0781 20.2838 16.3451 20.1691C16.6121 20.0544 16.8531 19.8869 17.0537 19.6765C17.2542 19.4662 17.41 19.2174 17.5118 18.9453C17.6136 18.6731 17.6593 18.3831 17.646 18.0928L17.1275 7.2975C17.1022 6.74559 16.865 6.22473 16.4652 5.84334C16.0655 5.46195 15.5341 5.24942 14.9816 5.25H14.4369V4.59375C14.4369 3.54946 14.0221 2.54794 13.2836 1.80952C12.5452 1.07109 11.5437 0.65625 10.4994 0.65625ZM7.8744 4.59375C7.8744 3.89756 8.15096 3.22988 8.64324 2.73759C9.13553 2.24531 9.80321 1.96875 10.4994 1.96875C11.1956 1.96875 11.8633 2.24531 12.3556 2.73759C12.8478 3.22988 13.1244 3.89756 13.1244 4.59375V5.25H7.8744V4.59375ZM15.815 7.35656L16.3335 18.1584C16.3376 18.2713 16.3194 18.3839 16.28 18.4897C16.2406 18.5956 16.1807 18.6926 16.1038 18.7753C16.0252 18.856 15.9314 18.9202 15.8277 18.9641C15.724 19.0081 15.6126 19.0309 15.5 19.0312H5.49878C5.38618 19.0309 5.27478 19.0081 5.17111 18.9641C5.06744 18.9202 4.97358 18.856 4.89503 18.7753C4.81809 18.6926 4.75821 18.5956 4.7188 18.4897C4.67939 18.3839 4.66122 18.2713 4.66534 18.1584L5.18378 7.35656C5.1939 7.14242 5.28616 6.94041 5.44138 6.79253C5.59659 6.64464 5.80283 6.56226 6.01721 6.5625H14.9816C15.196 6.56226 15.4022 6.64464 15.5574 6.79253C15.7126 6.94041 15.8049 7.14242 15.815 7.35656Z" fill="white"/>
<path d="M7.45459 8.65594C7.81703 8.65594 8.11084 8.36213 8.11084 7.99969C8.11084 7.63726 7.81703 7.34344 7.45459 7.34344C7.09215 7.34344 6.79834 7.63726 6.79834 7.99969C6.79834 8.36213 7.09215 8.65594 7.45459 8.65594Z" fill="white"/>
<path d="M13.5444 8.65594C13.9069 8.65594 14.2007 8.36213 14.2007 7.99969C14.2007 7.63726 13.9069 7.34344 13.5444 7.34344C13.182 7.34344 12.8882 7.63726 12.8882 7.99969C12.8882 8.36213 13.182 8.65594 13.5444 8.65594Z" fill="white"/>
</svg>
