<svg width="30" height="30" viewBox="0 0 30 30" fill="none" xmlns="http://www.w3.org/2000/svg">
<g clip-path="url(#clip0_513_6803)">
<path d="M22.4928 2.85755C20.1078 0.727545 16.9053 -0.287455 13.6953 0.0737951C8.63029 0.646295 4.48779 4.72755 3.84404 9.77755C3.37653 13.4413 4.64904 16.9775 7.33529 19.4788C9.05404 21.0775 10.0003 23.1038 10.0003 25.1863V30H20.0003V25.3938C20.0003 23.1238 20.8803 21.05 22.4153 19.7038C24.8528 17.5688 26.2503 14.4875 26.2503 11.25C26.2503 8.05005 24.8803 4.9913 22.4928 2.85755ZM17.5003 27.5H12.5003L12.4903 25H17.5203L17.5003 27.5ZM20.7665 17.8238C19.3853 19.035 18.4065 20.6663 17.9003 22.5H12.099C11.5728 20.7125 10.539 19.0438 9.03904 17.6488C6.95028 15.7038 5.96029 12.95 6.32529 10.095C6.82404 6.17255 10.0428 3.0038 13.9765 2.5588C16.5103 2.27255 18.944 3.0413 20.8265 4.72255C22.684 6.38255 23.7503 8.7613 23.7503 11.25C23.7503 13.7663 22.6628 16.1625 20.7665 17.8238ZM12.5003 10C12.5003 10.4725 12.839 10.8725 13.3053 10.95L17.1065 11.5838C18.784 11.8625 20.0003 13.3 20.0003 15C20.0003 17.0675 18.3178 18.75 16.2503 18.75V20H13.7503V18.75C11.6828 18.75 10.0003 17.0675 10.0003 15H12.5003C12.5003 15.6888 13.0603 16.25 13.7503 16.25H16.2503C16.9403 16.25 17.5003 15.6888 17.5003 15C17.5003 14.5275 17.1615 14.1275 16.6953 14.05L12.894 13.4163C11.2165 13.1375 10.0003 11.7 10.0003 10C10.0003 7.93255 11.6828 6.25005 13.7503 6.25005V5.00005H16.2503V6.25005C18.3178 6.25005 20.0003 7.93255 20.0003 10H17.5003C17.5003 9.3113 16.9403 8.75005 16.2503 8.75005H13.7503C13.0603 8.75005 12.5003 9.3113 12.5003 10Z" fill="#6FC081"/>
</g>
<defs>
<clipPath id="clip0_513_6803">
<rect width="30" height="30" fill="white"/>
</clipPath>
</defs>
</svg>
