<svg width="30" height="30" viewBox="0 0 30 30" fill="none" xmlns="http://www.w3.org/2000/svg">
<g clip-path="url(#clip0_513_6773)">
<path d="M24.875 3.86369C24.7213 3.20326 24.4349 2.58099 24.0332 2.03472C23.6314 1.48845 23.1228 1.02961 22.5382 0.686081C21.9536 0.342557 21.3052 0.121536 20.6325 0.0364596C19.9597 -0.0486171 19.2767 0.00402851 18.625 0.191195L16.47 0.807445C15.9241 0.964345 15.4213 1.24397 15 1.62494C14.5787 1.24397 14.0759 0.964345 13.53 0.807445L11.375 0.191195C10.7237 0.00500401 10.0413 -0.046891 9.3693 0.0386595C8.6973 0.12421 8.04969 0.345422 7.46579 0.688867C6.88189 1.03231 6.37386 1.49083 5.97255 2.03659C5.57124 2.58234 5.28502 3.20396 5.13125 3.86369C3.6935 4.12527 2.39286 4.88239 1.45542 6.00344C0.517972 7.12449 0.00299498 8.53859 0 9.99994L0 18.7499C0.00198482 20.4069 0.661102 21.9955 1.83277 23.1672C3.00445 24.3388 4.59301 24.998 6.25 24.9999H13.75V27.4999H10C9.66848 27.4999 9.35054 27.6316 9.11612 27.8661C8.8817 28.1005 8.75 28.4184 8.75 28.7499C8.75 29.0815 8.8817 29.3994 9.11612 29.6338C9.35054 29.8682 9.66848 29.9999 10 29.9999H20C20.3315 29.9999 20.6495 29.8682 20.8839 29.6338C21.1183 29.3994 21.25 29.0815 21.25 28.7499C21.25 28.4184 21.1183 28.1005 20.8839 27.8661C20.6495 27.6316 20.3315 27.4999 20 27.4999H16.25V24.9999H23.75C25.407 24.998 26.9956 24.3388 28.1672 23.1672C29.3389 21.9955 29.998 20.4069 30 18.7499V9.99994C29.9973 8.53949 29.4832 7.1261 28.547 6.00518C27.6108 4.88425 26.3116 4.12657 24.875 3.86369ZM16.25 4.41369C16.2501 4.14221 16.3386 3.87815 16.5021 3.66143C16.6656 3.4447 16.8952 3.2871 17.1562 3.21244L19.3125 2.59619C19.6846 2.48976 20.0763 2.47118 20.4568 2.5419C20.8374 2.61263 21.1962 2.77073 21.5053 3.00376C21.8143 3.23679 22.0649 3.53838 22.2376 3.88478C22.4102 4.23117 22.5 4.61292 22.5 4.99994V9.92245C22.4983 10.4649 22.3207 10.9921 21.9939 11.4251C21.6671 11.858 21.2087 12.1733 20.6875 12.3237L16.25 13.5912V4.41369ZM8.5 2.99994C8.80841 2.76776 9.16656 2.61043 9.54618 2.54036C9.92581 2.47029 10.3165 2.48941 10.6875 2.59619L12.8438 3.21244C13.1048 3.2871 13.3344 3.4447 13.4979 3.66143C13.6614 3.87815 13.7499 4.14221 13.75 4.41369V13.5912L9.3125 12.3237C8.79131 12.1733 8.33292 11.858 8.00612 11.4251C7.67932 10.9921 7.50173 10.4649 7.5 9.92245V4.99994C7.49873 4.61161 7.58853 4.22839 7.7622 3.88105C7.93587 3.53371 8.18857 3.23193 8.5 2.99994ZM27.5 18.7499C27.5 19.7445 27.1049 20.6983 26.4017 21.4016C25.6984 22.1049 24.7446 22.4999 23.75 22.4999H6.25C5.25544 22.4999 4.30161 22.1049 3.59835 21.4016C2.89509 20.6983 2.5 19.7445 2.5 18.7499V9.99994C2.5032 9.22712 2.7451 8.47416 3.19261 7.84407C3.64011 7.21398 4.27136 6.73755 5 6.47994V9.92245C5.00306 11.0079 5.35802 12.063 6.01162 12.9296C6.66522 13.7962 7.58221 14.4275 8.625 14.7287L12.9387 15.9624C14.2869 16.3467 15.7156 16.3467 17.0637 15.9624L21.3775 14.7287C22.4198 14.427 23.3363 13.7956 23.9894 12.929C24.6425 12.0625 24.9971 11.0075 25 9.92245V6.47994C25.7286 6.73755 26.3599 7.21398 26.8074 7.84407C27.2549 8.47416 27.4968 9.22712 27.5 9.99994V18.7499Z" fill="#DF4343"/>
</g>
<defs>
<clipPath id="clip0_513_6773">
<rect width="30" height="30" fill="white"/>
</clipPath>
</defs>
</svg>
