<svg width="22" height="22" viewBox="0 0 22 22" fill="none" xmlns="http://www.w3.org/2000/svg">
<path fill-rule="evenodd" clip-rule="evenodd" d="M6.919 19.8C15.2207 19.8 19.7615 13.0279 19.7615 7.15588C19.7615 6.9631 19.7615 6.77178 19.7483 6.58117C20.6316 5.95303 21.3939 5.17312 22 4.28073C21.1772 4.64029 20.3027 4.87609 19.4084 4.98005C20.35 4.42447 21.0551 3.55163 21.3928 2.5217C20.5062 3.03937 19.5371 3.40472 18.5262 3.60075C16.8168 1.81163 13.9579 1.72495 12.1396 3.40793C10.9681 4.49309 10.4698 6.11105 10.8339 7.65432C7.205 7.47454 3.8236 5.78726 1.5312 3.01154C0.3333 5.04215 0.946 7.63891 2.9293 8.94284C2.211 8.92226 1.5081 8.73186 0.88 8.38747V8.44387C0.8811 10.559 2.3958 12.3802 4.5012 12.7993C3.8368 12.978 3.1394 13.0039 2.464 12.875C3.0547 14.6858 4.7498 15.926 6.6803 15.9618C5.082 17.1986 3.1075 17.8701 1.0747 17.868C0.7161 17.8669 0.3575 17.8463 0 17.8041C2.0647 19.108 4.466 19.8 6.919 19.7967" fill="white"/>
</svg>
