<svg width="28" height="28" viewBox="0 0 28 28" fill="none" xmlns="http://www.w3.org/2000/svg">
<g clip-path="url(#clip0_63_1520)">
<path d="M28.0003 9.16575C28.0003 15.0574 28.0003 20.9564 28.0003 26.848C27.8326 27.446 27.4534 27.8251 26.8482 27.9928C18.2805 27.9928 9.71277 27.9928 1.14506 27.9928C0.547148 27.8251 0.160689 27.446 -0.00701904 26.848C-0.00701904 20.9564 -0.00701904 15.0574 -0.00701904 9.16575C0.080481 9.09284 0.160689 9.00534 0.255481 8.93971C1.50965 8.05742 2.75652 7.17513 4.01069 6.29284C4.15652 6.19075 4.21486 6.09596 4.20756 5.91367C4.20027 5.1043 4.20027 4.29492 4.20027 3.48555C4.20027 2.73451 4.55756 2.38451 5.30131 2.38451C6.62111 2.38451 7.9409 2.38451 9.26798 2.37721C9.41381 2.37721 9.58152 2.34076 9.69819 2.26055C10.4055 1.7793 11.1055 1.28346 11.7909 0.780339C13.0961 -0.174869 14.868 -0.189453 16.1805 0.758464C16.8659 1.2543 17.5513 1.75013 18.2513 2.22409C18.3826 2.31159 18.5649 2.37721 18.7253 2.37721C20.0669 2.3918 21.4013 2.38451 22.743 2.38451C23.4138 2.38451 23.7857 2.75638 23.793 3.43451C23.793 4.25117 23.8003 5.07513 23.793 5.8918C23.793 6.0668 23.8367 6.18346 23.9899 6.30013C25.193 7.13867 26.3888 7.9845 27.5774 8.83763C27.7305 8.93242 27.8617 9.05638 28.0003 9.16575ZM5.14819 3.32513C5.1409 3.39076 5.13361 3.43451 5.13361 3.47826C5.13361 6.46784 5.13361 9.46471 5.1409 12.4543C5.1409 12.5564 5.20652 12.6803 5.28673 12.746C7.58361 14.6564 9.87319 16.5668 12.1774 18.4699C13.2711 19.3741 14.6857 19.3741 15.794 18.4918C16.0857 18.2585 16.3701 18.0178 16.6544 17.7772C18.6524 16.122 20.6503 14.4595 22.6482 12.8116C22.8013 12.6803 22.8669 12.5564 22.8669 12.3522C22.8596 9.44284 22.8596 6.53346 22.8596 3.6168C22.8596 3.52201 22.8596 3.42721 22.8596 3.31784C16.9461 3.32513 11.0617 3.32513 5.14819 3.32513ZM26.2357 27.0595C22.9836 24.3616 19.7899 21.7147 16.6034 19.0678C14.8534 20.4314 13.1253 20.4168 11.4044 19.0678C8.19611 21.7293 5.00965 24.3762 1.76486 27.0595C9.9534 27.0595 18.0471 27.0595 26.2357 27.0595ZM10.6899 18.4553C7.43048 15.7501 4.20027 13.0741 0.948189 10.3762C0.948189 15.7793 0.948189 21.1314 0.948189 26.5345C4.20756 23.8293 7.43777 21.1533 10.6899 18.4553ZM17.3107 18.4553C20.5701 21.1605 23.8003 23.8366 27.0451 26.5272C27.0451 21.1241 27.0451 15.772 27.0451 10.3762C23.793 13.0814 20.5628 15.7574 17.3107 18.4553ZM26.768 9.39909C25.7763 8.69909 24.8065 8.01367 23.8149 7.31367C23.8149 8.84492 23.8149 10.3251 23.8149 11.8491C24.8138 11.0178 25.7763 10.2158 26.768 9.39909ZM1.23256 9.39909C2.22423 10.223 3.18673 11.0178 4.18569 11.8491C4.18569 10.3178 4.18569 8.83763 4.18569 7.31367C3.18673 8.01367 2.22423 8.6918 1.23256 9.39909ZM16.7419 2.36992C16.7492 2.34805 16.7565 2.33346 16.7638 2.31159C16.2971 1.98346 15.8451 1.63346 15.3565 1.3418C14.6857 0.948047 13.9492 0.882422 13.1982 1.10846C12.4471 1.33451 11.9003 1.88867 11.2732 2.31888C11.2659 2.32617 11.2805 2.34805 11.2805 2.36992C13.0961 2.36992 14.919 2.36992 16.7419 2.36992Z" fill="#543EE8"/>
<path d="M14.9628 12.6584C14.4815 13.0886 13.942 13.3584 13.3076 13.4459C12.0243 13.6209 10.9451 12.7677 10.8357 11.4844C10.7045 9.99691 11.6013 8.40003 12.9284 7.71462C13.7524 7.2917 14.7878 7.45941 15.4513 8.11566C15.517 8.18128 15.5753 8.24691 15.6628 8.3417C15.6993 8.18857 15.7211 8.06462 15.7503 7.94795C15.8232 7.65628 16.0493 7.49586 16.3118 7.56149C16.5743 7.61982 16.7274 7.85316 16.6618 8.14482C16.392 9.42816 16.1222 10.7042 15.8524 11.9802C15.7795 12.3302 15.8743 12.4761 16.2243 12.5052C16.7565 12.549 17.1868 12.3521 17.5149 11.9365C18.3753 10.8427 18.5138 9.62503 18.018 8.36357C17.5076 7.06566 16.5159 6.31462 15.1232 6.12503C12.644 5.77503 9.96072 7.58336 9.34822 10.0115C8.85238 11.9729 9.9753 13.9709 11.9149 14.5469C13.3732 14.9771 14.8461 15.1157 16.3336 14.7365C17.2743 14.4959 18.0909 14.0365 18.718 13.2854C18.8857 13.0886 19.0826 13.0084 19.3232 13.1177C19.542 13.2198 19.6222 13.4094 19.5711 13.6354C19.5493 13.7375 19.4763 13.8323 19.4107 13.9125C18.5503 14.9261 17.4274 15.4875 16.1368 15.7354C14.4743 16.049 12.8409 15.8959 11.2732 15.3052C8.65551 14.3136 7.53988 11.2584 8.88155 8.70628C9.8878 6.78857 11.4555 5.53441 13.6503 5.21357C15.9763 4.87816 17.894 5.81149 18.7836 7.76566C19.5565 9.45732 19.3961 11.0979 18.2076 12.5782C17.7847 13.1104 17.2159 13.3948 16.5378 13.4459C15.8524 13.4896 15.2982 13.3073 14.9628 12.6584ZM13.8399 8.40732C13.7378 8.43649 13.5628 8.45837 13.4097 8.52399C12.4034 8.9542 11.6159 10.3761 11.769 11.4625C11.8638 12.1261 12.3305 12.549 12.994 12.5417C13.4607 12.5344 13.8982 12.3886 14.2336 12.0532C14.5034 11.7834 14.7659 11.499 14.9847 11.1927C15.5097 10.4563 15.4586 9.55941 14.8753 8.8667C14.6128 8.56045 14.292 8.43649 13.8399 8.40732Z" fill="#543EE8"/>
</g>
<defs>
<clipPath id="clip0_63_1520">
<rect width="28" height="28" fill="white"/>
</clipPath>
</defs>
</svg>
