<svg width="21" height="20" viewBox="0 0 21 20" fill="none" xmlns="http://www.w3.org/2000/svg">
<path fill-rule="evenodd" clip-rule="evenodd" d="M10.5 15C13.2614 15 15.5 12.7614 15.5 10C15.5 7.23857 13.2614 5 10.5 5C7.73857 5 5.5 7.23857 5.5 10C5.5 12.7614 7.73857 15 10.5 15ZM10.5 13.3333C12.3409 13.3333 13.8333 11.8409 13.8333 10C13.8333 8.15905 12.3409 6.66667 10.5 6.66667C8.65905 6.66667 7.16667 8.15905 7.16667 10C7.16667 11.8409 8.65905 13.3333 10.5 13.3333Z" fill="#011C1A"/>
<path d="M15.4996 4.1665C15.0393 4.1665 14.6663 4.5396 14.6663 4.99984C14.6663 5.46007 15.0393 5.83317 15.4996 5.83317C15.9598 5.83317 16.3329 5.46007 16.3329 4.99984C16.3329 4.5396 15.9598 4.1665 15.4996 4.1665Z" fill="#011C1A"/>
<path fill-rule="evenodd" clip-rule="evenodd" d="M1.87871 3.56355C1.33374 4.6331 1.33374 6.03324 1.33374 8.83349V11.1668C1.33374 13.9671 1.33374 15.3672 1.87871 16.4367C2.35807 17.3776 3.12297 18.1425 4.06379 18.6218C5.13335 19.1668 6.53348 19.1668 9.33374 19.1668H11.6671C14.4673 19.1668 15.8675 19.1668 16.937 18.6218C17.8778 18.1425 18.6427 17.3776 19.1221 16.4367C19.6671 15.3672 19.6671 13.9671 19.6671 11.1668V8.83349C19.6671 6.03324 19.6671 4.6331 19.1221 3.56355C18.6427 2.62273 17.8778 1.85783 16.937 1.37846C15.8675 0.833496 14.4673 0.833496 11.6671 0.833496H9.33374C6.53348 0.833496 5.13335 0.833496 4.06379 1.37846C3.12297 1.85783 2.35807 2.62273 1.87871 3.56355ZM11.6671 2.50016H9.33374C7.9061 2.50016 6.93561 2.50146 6.18547 2.56275C5.45477 2.62245 5.08111 2.73065 4.82044 2.86347C4.19323 3.18305 3.6833 3.69299 3.36371 4.32019C3.2309 4.58086 3.12269 4.95453 3.06299 5.68523C3.00171 6.43537 3.00041 7.40586 3.00041 8.83349V11.1668C3.00041 12.5945 3.00171 13.5649 3.06299 14.3151C3.12269 15.0458 3.2309 15.4195 3.36371 15.6802C3.6833 16.3073 4.19323 16.8172 4.82044 17.1368C5.08111 17.2697 5.45477 17.3779 6.18547 17.4376C6.93561 17.4988 7.9061 17.5002 9.33374 17.5002H11.6671C13.0947 17.5002 14.0652 17.4988 14.8153 17.4376C15.5461 17.3779 15.9197 17.2697 16.1804 17.1368C16.8076 16.8172 17.3175 16.3073 17.6371 15.6802C17.7699 15.4195 17.8782 15.0458 17.9378 14.3151C17.9991 13.5649 18.0004 12.5945 18.0004 11.1668V8.83349C18.0004 7.40586 17.9991 6.43537 17.9378 5.68523C17.8782 4.95453 17.7699 4.58086 17.6371 4.32019C17.3175 3.69299 16.8076 3.18305 16.1804 2.86347C15.9197 2.73065 15.5461 2.62245 14.8153 2.56275C14.0652 2.50146 13.0947 2.50016 11.6671 2.50016Z" fill="#011C1A"/>
</svg>