<svg width="24" height="24" viewBox="0 0 24 24" fill="none" xmlns="http://www.w3.org/2000/svg">
<g id="linkedin-icon 1" clip-path="url(#clip0_283_2793)">
<path id="Vector" d="M12 0C5.37253 0 0 5.37253 0 12C0 18.6274 5.37253 24 12 24C18.6274 24 24 18.6274 24 12C24 5.37253 18.6273 0 12 0ZM8.79836 17.8014H6.16364V9.2894H8.79836V17.8014ZM7.46845 8.17468C6.60798 8.17468 5.91041 7.47143 5.91041 6.60407C5.91041 5.73661 6.60807 5.03341 7.46845 5.03341C8.32882 5.03341 9.02638 5.73661 9.02638 6.60407C9.02643 7.47148 8.32887 8.17468 7.46845 8.17468ZM18.672 17.8014H16.05V13.3333C16.05 12.1078 15.5845 11.4238 14.6155 11.4238C13.5609 11.4238 13.01 12.1362 13.01 13.3333V17.8014H10.483V9.2894H13.01V10.4358C13.01 10.4358 13.7701 9.02976 15.575 9.02976C17.3799 9.02976 18.672 10.1318 18.672 12.4117L18.672 17.8014Z" fill="#0077B5"/>
</g>
<defs>
<clipPath id="clip0_283_2793">
<rect width="24" height="24" fill="white"/>
</clipPath>
</defs>
</svg>
