<svg width="43" height="43" viewBox="0 0 43 43" fill="none" xmlns="http://www.w3.org/2000/svg">
<path d="M16.78 19.1388C18.4577 22.0891 20.9109 24.5422 23.8612 26.22L25.446 24.0013C25.9729 23.2639 26.9674 23.036 27.7629 23.4705C30.2835 24.8474 33.069 25.6841 35.9747 25.9141C36.9065 25.9879 37.625 26.7655 37.625 27.7002V35.6961C37.625 36.6147 36.9302 37.3844 36.0164 37.4783C35.067 37.5759 34.1092 37.625 33.1458 37.625C17.8084 37.625 5.375 25.1915 5.375 9.85417C5.375 8.89073 5.42413 7.93298 5.52172 6.98349C5.61562 6.06972 6.38539 5.375 7.304 5.375H15.2998C16.2345 5.375 17.0121 6.09353 17.0859 7.02529C17.3159 9.93099 18.1526 12.7166 19.5295 15.2371C19.964 16.0325 19.7361 17.0272 18.9987 17.554L16.78 19.1388ZM12.2626 17.9618L15.6667 15.5303C14.7015 13.4467 14.04 11.237 13.7014 8.95833H8.97458C8.96376 9.25632 8.95833 9.55496 8.95833 9.85417C8.95833 23.2125 19.7875 34.0417 33.1458 34.0417C33.445 34.0417 33.7437 34.0363 34.0417 34.0254V29.2986C31.763 28.96 29.5534 28.2985 27.4697 27.3333L25.0382 30.7375C24.0546 30.3553 23.1046 29.9056 22.1941 29.3943L22.09 29.335C18.579 27.3385 15.6616 24.421 13.665 20.91L13.6058 20.8059C13.0944 19.8954 12.6448 18.9454 12.2626 17.9618Z" fill="white"/>
</svg>
