<svg width="21" height="20" viewBox="0 0 21 20" fill="none" xmlns="http://www.w3.org/2000/svg">
<g clip-path="url(#clip0_63_1487)">
<path fill-rule="evenodd" clip-rule="evenodd" d="M6.45667 17.9998C14.0037 17.9998 18.1317 11.8434 18.1317 6.50517C18.1317 6.32992 18.1317 6.15599 18.1197 5.98271C18.9227 5.41167 19.6157 4.70266 20.1667 3.8914C19.4187 4.21827 18.6237 4.43263 17.8107 4.52714C18.6667 4.02207 19.3077 3.22858 19.6147 2.29228C18.8087 2.76289 17.9277 3.09502 17.0087 3.27323C15.4547 1.64676 12.8557 1.56796 11.2027 3.09794C10.1377 4.08445 9.68467 5.55532 10.0157 6.95829C6.71667 6.79486 3.64267 5.26097 1.55867 2.73759C0.469668 4.5836 1.02667 6.94429 2.82967 8.12968C2.17667 8.11097 1.53767 7.93788 0.966668 7.6248V7.67606C0.967668 9.59889 2.34467 11.2545 4.25867 11.6355C3.65467 11.798 3.02067 11.8215 2.40667 11.7044C2.94367 13.3505 4.48467 14.478 6.23967 14.5105C4.78667 15.6349 2.99167 16.2454 1.14367 16.2434C0.817668 16.2425 0.491668 16.2237 0.166668 16.1853C2.04367 17.3707 4.22667 17.9998 6.45667 17.9969" fill="#011C1A"/>
</g>
<defs>
<clipPath id="clip0_63_1487">
<rect width="20" height="20" fill="white" transform="translate(0.166668)"/>
</clipPath>
</defs>
</svg>