<svg width="28" height="28" viewBox="0 0 28 28" fill="none" xmlns="http://www.w3.org/2000/svg">
<g clip-path="url(#clip0_63_1510)">
<path d="M0 7.69459C0.0373957 7.36737 0.0654424 7.04951 0.130885 6.7223C0.280467 5.93699 0.635726 5.23582 1.20601 4.65619C1.95392 3.88958 2.68314 3.08557 3.48715 2.3844C4.7212 1.31863 6.04875 1.31863 7.23606 2.43115C8.49816 3.60911 9.70417 4.85252 10.8821 6.11462C11.7609 7.04951 11.7516 8.48924 10.9008 9.46153C10.2745 10.1814 9.58264 10.8358 8.90017 11.5089C8.76928 11.6398 8.74124 11.724 8.82538 11.8922C9.4985 13.2665 10.4614 14.4258 11.4898 15.529C12.5462 16.6602 13.7149 17.6792 15.0237 18.5113C15.3977 18.745 15.7997 18.9507 16.211 19.1751C16.6598 18.717 17.0992 18.2682 17.5386 17.8288C17.8377 17.539 18.1369 17.2398 18.4548 16.9781C19.4083 16.1928 20.8481 16.1741 21.7362 17.0248C23.0357 18.2682 24.3165 19.5397 25.5506 20.8485C26.4668 21.8208 26.4761 23.2886 25.5973 24.2889C24.7746 25.2145 23.9145 26.1119 23.0077 26.9347C22.0541 27.8041 20.8574 28.0191 19.5953 27.9163C17.2301 27.72 15.1265 26.757 13.0885 25.6258C10.5923 24.2422 8.36728 22.4939 6.41336 20.3998C4.02938 17.8475 2.06611 15.0148 0.832053 11.724C0.411352 10.6114 0.0841402 9.46153 0.0373957 8.26487C0.0373957 8.19943 0.00934892 8.14333 0 8.07789C0 7.94701 0 7.82547 0 7.69459ZM1.60801 7.92831C1.63606 8.24617 1.66411 8.56404 1.7015 8.8819C1.7202 9.02213 1.74825 9.17172 1.78564 9.31195C2.21569 11.2378 3.0197 13.0141 4.05743 14.6876C6.79666 19.1283 10.4427 22.6061 15.1452 24.9246C16.5943 25.6352 18.0902 26.2148 19.7169 26.355C20.7078 26.4392 21.5866 26.2148 22.3065 25.4762C22.9235 24.8405 23.5406 24.2141 24.1576 23.5877C24.8214 22.9053 24.8214 22.335 24.1576 21.6525C23.7088 21.1944 23.2414 20.7363 22.7927 20.2782C22.1569 19.6425 21.5212 18.9974 20.8761 18.371C20.3806 17.8943 19.8384 17.8849 19.3242 18.3337C19.2307 18.4084 19.1466 18.4926 19.0718 18.5767C18.4454 19.2031 17.8284 19.8295 17.202 20.4465C16.7626 20.8766 16.2765 20.9887 15.7623 20.727C15.2294 20.4652 14.6965 20.1847 14.1917 19.8575C12.4995 18.7824 11.0317 17.4362 9.72287 15.931C8.80668 14.8746 7.97463 13.7714 7.38564 12.4906C6.9182 11.4902 6.99299 11.1724 7.78765 10.4058C8.41402 9.79809 9.0404 9.19041 9.63873 8.55469C10.0968 8.06854 10.0781 7.57305 9.65743 7.05886C9.60134 6.99342 9.55459 6.93733 9.48915 6.87188C8.37663 5.78741 7.3015 4.70293 6.21703 3.62781C6.10484 3.51562 5.96461 3.41278 5.82437 3.33799C5.35693 3.09492 4.89883 3.20711 4.42204 3.67455C3.81436 4.27288 3.22538 4.88991 2.60835 5.47889C1.90718 6.15202 1.57062 6.95602 1.60801 7.92831Z" fill="#543EE8"/>
<path d="M15.6688 0C16.2952 0.16828 16.9402 0.308514 17.5573 0.495493C19.586 1.11252 21.3903 2.1409 22.9796 3.54324C24.6718 5.02972 25.9806 6.79666 26.8781 8.86277C27.3643 9.97529 27.7008 11.1252 27.9065 12.3219C27.9813 12.7519 27.7382 13.1072 27.3362 13.21C26.9249 13.3129 26.5135 13.1072 26.392 12.6865C26.2237 12.1068 26.1209 11.4992 25.9432 10.9195C25.1579 8.30184 23.6715 6.14224 21.568 4.42204C19.801 2.97295 17.8003 2.04741 15.5566 1.62671C14.9489 1.51452 14.6685 1.22471 14.6872 0.757262C14.7059 0.355259 14.9583 0.149583 15.2855 0C15.407 0 15.5379 0 15.6688 0Z" fill="#543EE8"/>
<path d="M14.4536 5.86142C14.463 5.35657 14.9024 4.98262 15.4166 5.08546C18.698 5.74923 21.0072 7.61901 22.316 10.7042C22.5591 11.2651 22.6807 11.8821 22.8302 12.4804C22.9518 12.9479 22.6807 13.3592 22.2506 13.4714C21.8393 13.5743 21.4279 13.3219 21.2877 12.8731C21.11 12.2748 20.9885 11.6484 20.7361 11.0875C19.6423 8.68479 17.7725 7.21701 15.1828 6.67477C14.706 6.56259 14.4536 6.28212 14.4536 5.86142Z" fill="#543EE8"/>
</g>
<defs>
<clipPath id="clip0_63_1510">
<rect width="28" height="28" fill="white"/>
</clipPath>
</defs>
</svg>
