<svg width="28" height="28" viewBox="0 0 28 28" fill="none" xmlns="http://www.w3.org/2000/svg">
<g clip-path="url(#clip0_65_12)">
<path d="M12.8552 28.0001C12.3156 27.9418 11.7688 27.9053 11.2292 27.8324C9.56669 27.6209 7.93335 27.2928 6.46044 26.4543C5.99377 26.1918 5.55627 25.8345 5.19898 25.4334C4.52085 24.6678 4.54273 23.7199 5.1771 22.9178C5.72398 22.2397 6.46044 21.8314 7.24794 21.4959C8.31981 21.0439 9.44273 20.7887 10.6386 20.5991C10.5511 20.4824 10.4854 20.3949 10.4198 20.3001C9.2021 18.6959 7.96252 17.1209 6.78127 15.4876C5.81148 14.1459 5.13335 12.6584 4.8344 11.0105C3.93023 6.06678 7.24794 1.19595 12.1771 0.233448C17.2302 -0.750927 22.1375 2.50845 23.1219 7.52511C23.5813 9.88761 23.1729 12.1116 22.0063 14.2116C21.2042 15.6626 20.1906 16.9751 19.1698 18.2803C18.5792 19.0387 17.9813 19.797 17.3688 20.5845C17.8281 20.672 18.2511 20.7522 18.6667 20.847C19.7021 21.0803 20.7156 21.3793 21.6198 21.9407C22.0281 22.1887 22.4219 22.4949 22.7427 22.8449C23.5011 23.6689 23.4792 24.6824 22.7427 25.5282C22.2615 26.0824 21.649 26.447 20.9854 26.7459C19.6438 27.3512 18.2219 27.6501 16.7709 27.8324C16.2313 27.898 15.6844 27.9418 15.1448 28.0001C14.3865 28.0001 13.6209 28.0001 12.8552 28.0001ZM14 23.2241C14.0511 23.1584 14.0875 23.122 14.1167 23.0782C15.4073 21.3866 16.7198 19.7095 17.9959 18.0032C18.9584 16.7126 19.9354 15.4293 20.8031 14.073C21.9698 12.2428 22.4292 10.2303 22.1011 8.05011C21.4084 3.46366 16.8292 0.320948 12.2792 1.3272C7.78023 2.31886 4.98023 6.73761 5.99377 11.222C6.32919 12.7168 7.03648 14.0366 7.93335 15.247C9.21669 16.9824 10.5511 18.6741 11.8636 20.3876C12.5781 21.3137 13.2781 22.2543 14 23.2241ZM13.9927 26.9209C14.4959 26.8918 15.3563 26.8699 16.2094 26.7897C17.5438 26.6657 18.8563 26.4105 20.1177 25.9293C20.7375 25.6887 21.3427 25.4116 21.824 24.9303C22.3271 24.4272 22.3417 23.9241 21.8167 23.4428C21.5323 23.1803 21.2042 22.9543 20.8615 22.772C19.5781 22.0939 18.1781 21.8168 16.7563 21.6272C16.6615 21.6126 16.5229 21.7074 16.4573 21.7876C15.8156 22.6407 15.1886 23.4939 14.5542 24.3543C14.1823 24.8574 13.825 24.8574 13.4531 24.347C12.8261 23.4866 12.1844 22.6334 11.5646 21.773C11.4625 21.6345 11.3604 21.5907 11.2 21.6199C10.3542 21.8022 9.50106 21.9407 8.66981 22.1668C7.8094 22.4001 6.97815 22.7355 6.29273 23.3407C5.63648 23.9241 5.62919 24.4855 6.3146 25.0251C6.74481 25.3605 7.24065 25.6449 7.74377 25.8564C9.62502 26.6293 11.6229 26.848 13.9927 26.9209Z" fill="#543EE8"/>
<path d="M17.8281 9.34813C17.8209 11.4481 16.1 13.1544 13.9927 13.1544C11.8781 13.1544 10.1646 11.4263 10.1719 9.30439C10.1792 7.20439 11.9073 5.50543 14.0219 5.51272C16.1219 5.52001 17.8354 7.24084 17.8281 9.34813ZM14 12.0606C15.5021 12.0606 16.7344 10.8356 16.7344 9.34084C16.7344 7.83876 15.5094 6.61376 14.0146 6.60647C12.5052 6.59918 11.2656 7.83147 11.2656 9.34084C11.2729 10.8429 12.4979 12.0606 14 12.0606Z" fill="#543EE8"/>
<path d="M21.1094 9.11478C21.1094 9.19499 21.1094 9.25333 21.1094 9.31895C21.1021 9.68353 20.8761 9.93874 20.5553 9.93145C20.249 9.92416 20.023 9.68353 20.0157 9.33353C20.0084 8.63353 19.899 7.95541 19.6584 7.30645C19.0167 5.59291 17.8355 4.40437 16.1365 3.72624C15.7938 3.5877 15.6334 3.38353 15.6625 3.11374C15.7136 2.73458 16.0709 2.5377 16.4646 2.69083C17.8136 3.19395 18.9219 4.0252 19.7605 5.19187C20.6136 6.35853 21.0511 7.67833 21.1094 9.11478Z" fill="#543EE8"/>
<path d="M14.598 2.77839C14.6053 3.06276 14.3646 3.31797 14.073 3.33255C13.7667 3.34714 13.5115 3.09922 13.5115 2.80026C13.5042 2.49401 13.7521 2.24609 14.0584 2.24609C14.3428 2.24609 14.5907 2.48672 14.598 2.77839Z" fill="#543EE8"/>
</g>
<defs>
<clipPath id="clip0_65_12">
<rect width="28" height="28" fill="white"/>
</clipPath>
</defs>
</svg>
