<svg width="21" height="20" viewBox="0 0 21 20" fill="none" xmlns="http://www.w3.org/2000/svg">
<path fill-rule="evenodd" clip-rule="evenodd" d="M10.3337 19.1668C15.3963 19.1668 19.5004 15.0627 19.5004 10.0002C19.5004 4.93755 15.3963 0.833496 10.3337 0.833496C5.27113 0.833496 1.16708 4.93755 1.16708 10.0002C1.16708 15.0627 5.27113 19.1668 10.3337 19.1668ZM4.62029 14.8502C3.50957 13.5431 2.83943 11.8499 2.83943 10.0002V9.99833C5.84463 9.96833 8.31347 9.56999 10.5356 8.81508C10.7227 9.21725 10.9043 9.628 11.0801 10.0472C10.7967 10.1411 10.5179 10.2459 10.2436 10.3614C8.03522 11.2909 6.17156 12.8845 4.62029 14.8502ZM5.83886 15.9974C7.09111 16.9375 8.64738 17.4945 10.3337 17.4945C11.3494 17.4945 12.3178 17.2924 13.2012 16.9263C12.8061 15.0308 12.2937 13.256 11.6892 11.6016C11.4173 11.6888 11.151 11.7877 10.8902 11.8975C8.96374 12.7084 7.28243 14.1376 5.83886 15.9974ZM13.3274 11.2306C13.8737 12.7517 14.3445 14.3667 14.7229 16.0753C16.2071 15.0012 17.2821 13.3966 17.6697 11.5396C16.0957 11.1326 14.6522 11.0505 13.3274 11.2306ZM12.715 9.63866C14.2954 9.36783 16.0001 9.42241 17.8268 9.86116C17.7986 8.31195 17.3003 6.87759 16.4687 5.69466C15.0302 6.71108 13.6067 7.55156 12.093 8.21181C12.3077 8.67691 12.5152 9.15258 12.715 9.63866ZM9.78849 7.30721C7.83153 7.9454 5.65913 8.28735 3.02641 8.32916C3.54812 6.0382 5.11953 4.14654 7.20796 3.18684C8.12492 4.42735 8.99483 5.8007 9.78849 7.30721ZM11.3589 6.71369C12.7401 6.1181 14.0392 5.35924 15.3572 4.4387C14.0282 3.2374 12.2664 2.50585 10.3337 2.50585C9.83491 2.50585 9.34749 2.55459 8.87591 2.64756C9.75899 3.8863 10.5945 5.24176 11.3589 6.71369Z" fill="#011C1A"/>
</svg>