<svg width="20" height="20" viewBox="0 0 20 20" fill="none" xmlns="http://www.w3.org/2000/svg">
<g clip-path="url(#clip0_63_1484)">
<path d="M5.27116 10.652H7.46348V19.6774C7.46348 19.8556 7.60787 20 7.78606 20H11.5032C11.6814 20 11.8258 19.8556 11.8258 19.6774V10.6945H14.3461C14.5099 10.6945 14.6478 10.5715 14.6665 10.4088L15.0493 7.08606C15.0598 6.99465 15.0308 6.9031 14.9697 6.83452C14.9085 6.76587 14.8208 6.72658 14.7289 6.72658H11.8259V4.64374C11.8259 4.01587 12.164 3.69748 12.8308 3.69748C12.9259 3.69748 14.7289 3.69748 14.7289 3.69748C14.9071 3.69748 15.0515 3.55303 15.0515 3.3749V0.324968C15.0515 0.146774 14.9071 0.0023871 14.7289 0.0023871H12.1131C12.0946 0.00148387 12.0537 0 11.9933 0C11.5394 0 9.96181 0.0890967 8.71561 1.23555C7.33484 2.506 7.52677 4.02716 7.57265 4.2909V6.72652H5.27116C5.09297 6.72652 4.94858 6.8709 4.94858 7.0491V10.3294C4.94858 10.5075 5.09297 10.652 5.27116 10.652Z" fill="#011C1A"/>
</g>
<defs>
<clipPath id="clip0_63_1484">
<rect width="20" height="20" fill="white"/>
</clipPath>
</defs>
</svg>