<svg width="22" height="22" viewBox="0 0 22 22" fill="none" xmlns="http://www.w3.org/2000/svg">
<g clip-path="url(#clip0_173_1010)">
<path fill-rule="evenodd" clip-rule="evenodd" d="M11.0003 21.0832C16.5692 21.0832 21.0837 16.5687 21.0837 10.9998C21.0837 5.43097 16.5692 0.916504 11.0003 0.916504C5.43146 0.916504 0.916992 5.43097 0.916992 10.9998C0.916992 16.5687 5.43146 21.0832 11.0003 21.0832ZM4.71553 16.3349C3.49373 14.897 2.75659 13.0346 2.75659 10.9998V10.9978C6.06231 10.9648 8.77802 10.5267 11.2223 9.69625C11.4282 10.1386 11.628 10.5905 11.8213 11.0515C11.5095 11.1548 11.2029 11.2702 10.9011 11.3972C8.47195 12.4197 6.42192 14.1726 4.71553 16.3349ZM6.05595 17.5968C7.43343 18.6309 9.14532 19.2436 11.0003 19.2436C12.1176 19.2436 13.1828 19.0213 14.1545 18.6186C13.7199 16.5336 13.1563 14.5813 12.4913 12.7614C12.1923 12.8574 11.8993 12.9662 11.6124 13.0869C9.49333 13.9789 7.64389 15.551 6.05595 17.5968ZM14.2934 12.3533C14.8942 14.0266 15.4122 15.8031 15.8284 17.6825C17.461 16.501 18.6435 14.7359 19.0699 12.6932C17.3384 12.2455 15.7506 12.1552 14.2934 12.3533ZM13.6197 10.6022C15.3582 10.3043 17.2333 10.3643 19.2427 10.8469C19.2116 9.14281 18.6636 7.565 17.7487 6.26379C16.1665 7.38184 14.6006 8.30638 12.9355 9.03265C13.1716 9.54426 13.3999 10.0675 13.6197 10.6022ZM10.4005 8.03759C8.24789 8.7396 5.85826 9.11575 2.96226 9.16174C3.53614 6.64168 5.26469 4.56085 7.56196 3.50518C8.57062 4.86974 9.52752 6.38042 10.4005 8.03759ZM12.128 7.38471C13.6473 6.72956 15.0764 5.89482 16.5262 4.88222C15.0642 3.5608 13.1263 2.7561 11.0003 2.7561C10.4516 2.7561 9.91545 2.8097 9.39671 2.91198C10.3681 4.27459 11.2872 5.7656 12.128 7.38471Z" fill="white"/>
</g>
<defs>
<clipPath id="clip0_173_1010">
<rect width="22" height="22" fill="white"/>
</clipPath>
</defs>
</svg>
