<?xml version="1.0" encoding="UTF-8"?>
<svg xmlns="http://www.w3.org/2000/svg" id="Layer_1" data-name="Layer 1" viewBox="0 0 24 24">
  <path d="M12.003,11.774c3.5-.021,5.307-1.83,5.372-5.396-.06-3.446-1.967-5.356-5.378-5.378-3.452,.021-5.372,2.066-5.372,5.378,0,3.462,1.921,5.375,5.378,5.396Zm-.006-9.774c2.855,.019,4.328,1.498,4.378,4.378-.055,2.982-1.446,4.379-4.372,4.396-2.93-.017-4.321-1.411-4.378-4.387,.055-2.934,1.487-4.369,4.372-4.387Z"/>
  <path d="M11.997,14.294c-5.259,.033-8.089,2.867-8.185,8.197-.005,.276,.215,.504,.491,.509h.009c.272,0,.495-.218,.5-.491,.086-4.825,2.438-7.186,7.184-7.215,4.689,.03,7.109,2.458,7.191,7.215,.005,.276,.255,.505,.509,.491,.276-.005,.496-.232,.491-.509-.091-5.252-2.997-8.164-8.19-8.197Z"/>
</svg>
