<svg width="46" height="32" viewBox="0 0 46 32" fill="none" xmlns="http://www.w3.org/2000/svg">
<path d="M45.0979 25.2986C43.9616 25.0304 42.7524 24.908 41.5209 24.8665C41.4531 24.3312 41.3732 23.7989 41.2568 23.2819C40.8581 21.507 38.3537 22.3084 38.5956 24.0155C38.637 24.31 38.6876 24.6014 38.7352 24.8938C37.4005 24.9576 36.082 25.076 34.8404 25.1822C33.5786 25.2905 33.5371 27.2212 34.8404 27.1807C36.2702 27.1362 37.699 27.1473 39.1278 27.2151C39.3271 28.3666 39.5143 29.5191 39.6196 30.697C39.7339 31.979 41.5664 32.0094 41.6373 30.697C41.6939 29.6416 41.7203 28.5498 41.699 27.4569C42.718 27.6036 43.7359 27.7625 44.761 27.7848C46.1746 27.8141 46.5004 25.6295 45.0979 25.2986Z" fill="#E96262"/>
<path d="M41.4612 14.3702C39.9343 14.3955 38.4074 14.3996 36.8804 14.3996C36.9118 13.7702 36.9341 13.1398 36.8926 12.5164C36.7863 10.9379 34.543 10.9349 34.4367 12.5164C34.3952 13.1367 34.4165 13.7651 34.4489 14.3915C33.3378 14.3854 32.2268 14.3813 31.1157 14.3712C30.1848 14.3631 30.2131 15.7221 31.1157 15.799C32.2531 15.8961 33.3884 15.9973 34.5248 16.0975C34.548 16.9212 34.5683 17.7449 34.7747 18.5463C35.0014 19.4246 36.3279 19.4256 36.5556 18.5463C36.7448 17.8127 36.7772 17.0578 36.7995 16.3029C38.3547 16.4476 39.909 16.5974 41.4622 16.7684C42.9689 16.9333 43.0367 14.3439 41.4612 14.3702Z" fill="#E96262"/>
<path d="M26.5744 17.4393C25.3338 17.5061 24.1185 17.5486 22.9073 17.5718C22.9376 17.0021 22.9083 16.4355 22.7171 15.9305C22.3477 14.9541 20.7641 14.7234 20.496 15.9305C20.3756 16.4719 20.3948 17.0234 20.4292 17.5759C19.3202 17.5577 18.2061 17.5212 17.0707 17.4352C16.1034 17.3624 15.8828 18.9429 16.84 19.1362C17.9986 19.3709 19.2048 19.5531 20.4201 19.7029C20.3604 20.3424 20.2855 20.9839 20.3482 21.6092C20.4312 22.4258 21.4917 22.8367 21.9622 22.0464C22.3457 21.4038 22.5137 20.6601 22.627 19.9153C23.9586 20.0084 25.2872 20.0509 26.5733 19.9902C28.2096 19.9113 28.2156 17.3512 26.5744 17.4393Z" fill="#E96262"/>
<path d="M28.2278 2.98955C26.7444 3.07758 25.263 3.10691 23.7826 3.09882C23.8889 2.51799 23.9931 1.93718 24.0103 1.34928C24.0508 -0.0997409 22.0998 -0.175641 21.6354 1.02749C21.4057 1.62349 21.2701 2.31462 21.1942 3.0371C20.0953 2.99056 18.9964 2.92882 17.8985 2.83269C16.7895 2.73555 16.5142 4.64093 17.6324 4.79575C18.8031 4.95765 19.9739 5.08211 21.1446 5.19038C21.1952 6.13042 21.3257 7.04416 21.5059 7.82229C21.7679 8.95561 23.4204 8.65104 23.4689 7.55719C23.5013 6.82863 23.5053 6.1021 23.5296 5.37455C25.09 5.46866 26.6543 5.52431 28.2268 5.52228C29.865 5.52026 29.8478 2.89241 28.2278 2.98955Z" fill="#E96262"/>
<path d="M11.6501 7.88708C10.1646 7.66953 8.67514 7.45096 7.18059 7.27894C7.25952 6.40568 7.24434 5.54862 7.0622 4.7644C6.81125 3.6827 4.97266 3.59568 4.78647 4.7644C4.66504 5.52332 4.68933 6.28424 4.70653 7.04822C3.45888 6.96322 2.20819 6.92882 0.955473 6.98346C-0.320514 7.03912 -0.316466 8.8929 0.955473 8.96272C2.19503 9.03153 3.42043 9.11652 4.63469 9.24705C4.54868 10.1264 4.40701 10.9976 4.2694 11.8759C4.1419 12.6915 5.35009 13.416 5.74776 12.4993C6.13025 11.6179 6.49959 10.5969 6.77786 9.53746C8.1692 9.76514 9.54941 10.0758 10.9215 10.5301C12.6377 11.0978 13.3652 8.13803 11.6501 7.88708Z" fill="#E96262"/>
</svg>
