<svg width="47" height="39" viewBox="0 0 47 39" fill="none" xmlns="http://www.w3.org/2000/svg">
<path d="M45.182 25.5958C40.2967 25.7577 35.409 25.9223 30.5237 26.087C30.7735 24.241 31.0228 22.3923 31.2725 20.5435C31.4013 19.578 31.9832 17.806 30.9818 17.0767C29.9233 16.3061 27.8494 17.3781 26.7904 17.672C24.9389 18.1823 23.0902 18.698 21.2414 19.211C21.2358 16.8767 21.233 14.5452 21.2274 12.2109C21.2274 11.8514 20.8707 11.5719 20.5224 11.6733C18.9425 12.1202 17.3625 12.5705 15.7826 13.0202C14.9297 13.2616 14.0218 13.629 13.1493 13.7662C12.6005 13.8541 11.8684 13.9062 11.4131 13.4397C11.1991 13.223 11.1991 12.5621 11.1331 12.2737C10.3787 8.99018 9.6383 5.69873 8.86206 2.41843C8.77416 2.04822 8.29418 1.95241 8.03652 2.2017C4.95063 5.18619 2.31497 8.49672 0.0490384 12.1393C-0.0579327 12.3147 0.024385 12.4765 0.158797 12.5533C0.0462444 12.6737 0.0271784 12.8988 0.205309 13.0276C6.11616 17.3614 12.2796 21.3691 18.2676 25.5986C21.227 27.6859 24.1733 29.7951 27.1053 31.9211C30.0209 34.0386 32.8654 36.4552 35.9346 38.3449C35.943 38.7235 36.2746 39.1318 36.6862 38.9593C41.8622 36.7868 45.3839 31.7922 45.7927 26.2074C45.8155 25.8865 45.4945 25.5879 45.182 25.5958Z" fill="#BBAEED"/>
<path d="M46.2331 22.3253C42.2468 22.6341 38.2545 22.8973 34.2723 23.2517C34.4235 20.2831 34.7402 17.3428 35.1932 14.402C35.2472 14.0513 34.997 13.7662 34.6319 13.8406C33.285 14.1155 31.9339 14.3671 30.5763 14.5848C29.4935 14.7582 26.5704 15.6903 25.71 15.2517C24.5589 14.6652 24.7645 12.4402 24.631 11.3007C24.4543 9.79153 24.3343 8.27812 24.2324 6.76239C24.2087 6.41124 23.8696 6.21218 23.5529 6.37217C21.9744 7.17027 20.3801 7.93255 18.755 8.63159C17.6765 9.09575 14.4376 11.0249 13.4125 10.2171C12.9856 9.88036 12.8037 7.89628 12.6753 7.41444C12.426 6.481 12.1768 5.54757 11.9168 4.61738C11.4791 3.05235 11.0996 1.4701 10.3457 0.0250625C10.322 -0.0200514 10.2448 -4.93064e-05 10.248 0.0515759C10.4657 3.84672 11.9856 7.67862 12.7781 11.3942C12.8284 11.6286 13.1218 11.7965 13.3488 11.7184C16.8012 10.5282 20.1331 9.10598 23.3883 7.46002C23.6176 10.2975 23.9315 13.1248 24.3505 15.941C24.378 16.1242 24.6156 16.301 24.7994 16.2828C27.9662 15.9684 31.092 15.474 34.21 14.8508C33.7482 17.8348 33.4096 20.8323 33.1571 23.8419C33.1333 24.1233 33.424 24.3963 33.6975 24.3824C37.8787 24.1703 42.0557 23.8471 46.2336 23.5773C47.0345 23.5243 47.0349 22.263 46.2331 22.3253Z" fill="#011C1A"/>
</svg>
