<svg width="69" height="69" viewBox="0 0 69 69" fill="none" xmlns="http://www.w3.org/2000/svg">
<g clip-path="url(#clip0_513_19540)">
<path d="M69.0001 34.706C68.7997 34.8618 68.5771 35.0065 68.3879 35.1846C60.1956 43.3769 51.9922 51.5692 43.7999 59.7615C43.6329 59.9285 43.4548 60.0954 43.21 60.318C43.21 43.0987 43.21 25.9683 43.21 8.73779C51.803 8.73779 60.396 8.73779 68.989 8.73779C69.0001 17.3976 69.0001 26.0462 69.0001 34.706Z" fill="#011C1A" fill-opacity="0.08"/>
<path d="M0.166992 8.76025C8.77112 8.76025 17.3085 8.76025 25.9571 8.76025C25.9571 8.994 25.9571 9.22775 25.9571 9.4615C25.9571 17.6204 25.9571 25.7793 25.946 33.9382C25.946 34.2721 25.8013 34.6951 25.5675 34.9288C17.2639 43.277 8.93808 51.5917 0.612225 59.9175C0.489786 60.04 0.356216 60.1513 0.166992 60.3294C0.166992 43.0877 0.166992 25.9574 0.166992 8.76025Z" fill="#011C1A" fill-opacity="0.08"/>
</g>
<defs>
<clipPath id="clip0_513_19540">
<rect width="69" height="69" fill="white"/>
</clipPath>
</defs>
</svg>
