<svg width="85" height="90" viewBox="0 0 85 90" fill="none" xmlns="http://www.w3.org/2000/svg">
<path d="M30.1661 37.4141L38.8938 14.5435L53.4785 30.7949L68.2572 30.5378L60.5359 43.1811L70.2513 63.0887L48.4268 56.5876L29.9428 74.015L28.6606 49.7955L15.1699 41.1531L30.1661 37.4141Z" fill="#FFDA2A"/>
<path d="M62.7471 37.283C62.7167 37.1824 62.6291 37.0913 62.5648 36.9966C62.5005 37.0433 62.3719 37.1018 62.3824 37.1369C62.4128 37.2374 62.4993 37.3285 62.5648 37.4232C62.6291 37.3753 62.7576 37.318 62.7471 37.283Z" fill="white"/>
<path d="M63.6463 37.0586C63.5692 37.1159 63.5037 37.1626 63.4395 37.2105C63.5692 37.2573 63.6931 37.3216 63.831 37.3438C63.8789 37.352 63.9572 37.2585 64.0227 37.2105C63.8953 37.1579 63.7691 37.1077 63.6463 37.0586Z" fill="white"/>
<path d="M61.1914 56.0173C61.2697 56.0746 61.334 56.1214 61.3983 56.1693C61.4626 56.0746 61.5502 55.9835 61.5806 55.8829C61.5911 55.8479 61.4637 55.7906 61.3983 55.7427C61.3293 55.8362 61.2592 55.9285 61.1914 56.0173Z" fill="white"/>
<path d="M65.2657 54.294C65.2587 54.3069 65.7028 54.4355 65.7741 54.4589C65.8677 54.46 65.9553 54.4635 66.043 54.4659L65.8256 54.0206C65.5941 54.0147 65.3814 54.0533 65.2657 54.294Z" fill="white"/>
<path d="M59.2746 39.7047C59.1963 39.6474 59.132 39.6007 59.0677 39.5527C59.0034 39.6474 58.9158 39.7386 58.8854 39.8391C58.8749 39.8742 59.0034 39.9314 59.0677 39.9794C59.1378 39.8859 59.2068 39.7935 59.2746 39.7047Z" fill="white"/>
<path d="M30.2155 71.6412C30.2155 71.5722 30.2435 71.4951 30.2108 71.4343C30.1804 71.3782 30.0191 71.2742 29.79 71.1479L29.8321 71.9334C30.0086 71.9042 30.1325 71.7861 30.2155 71.6412Z" fill="white"/>
<path d="M33.9854 63.84C34.2321 63.7909 34.4997 63.7897 34.7323 63.7196C34.9112 63.6658 34.8726 63.5162 34.6341 63.4531C34.2847 63.3596 33.9445 63.3771 33.7084 63.6494C33.6663 63.7418 33.6675 63.8014 33.7096 63.833C33.6628 63.8026 33.5752 63.8026 33.4571 63.8447C33.3391 63.8867 33.2619 64.0013 33.1941 64.0936C33.1824 64.1088 33.3063 64.1789 33.3741 64.228C33.4863 64.1614 33.6453 64.11 33.7037 64.0235C33.7622 63.9358 33.761 63.8704 33.7178 63.8365C33.7645 63.8657 33.851 63.8668 33.9854 63.84Z" fill="white"/>
<path d="M36.3841 60.9075C36.3046 60.8888 36.1597 61.0255 36.0439 61.091C36.0439 61.1541 36.0439 61.2172 36.0439 61.2815C36.1947 61.2418 36.3607 61.2196 36.4928 61.1588C36.6471 61.0887 36.6097 60.9589 36.3841 60.9075Z" fill="white"/>
<path d="M35.7844 61.2923C35.4653 61.4816 35.2257 61.7435 34.9521 61.9749C35.1029 62.0287 35.2549 62.0813 35.4115 62.1362C36.0789 62.1561 36.0298 61.8194 36.0567 61.4805C36.0742 61.2794 35.9924 61.1684 35.7844 61.2923Z" fill="white"/>
<path d="M37.9847 18.1703C38.1214 18.1481 38.2465 18.0838 38.3762 18.0371C38.3119 17.9903 38.2324 17.8956 38.1845 17.9038C38.0478 17.926 37.9227 17.9903 37.793 18.0371C37.8584 18.085 37.9367 18.1785 37.9847 18.1703Z" fill="white"/>
<path d="M43.0383 52.5468C42.974 52.5001 42.8946 52.4054 42.8466 52.4136C42.7099 52.4358 42.5848 52.5001 42.4551 52.5468C42.5194 52.5947 42.5988 52.6883 42.6468 52.6801C42.7847 52.6579 42.9086 52.5947 43.0383 52.5468Z" fill="white"/>
<path d="M55.6545 40.4668C55.5329 40.5159 55.4055 40.5673 55.2793 40.6187C55.3436 40.6655 55.4231 40.7602 55.471 40.752C55.6077 40.7298 55.7328 40.6655 55.8625 40.6187C55.7971 40.5708 55.7316 40.5229 55.6545 40.4668Z" fill="white"/>
<path d="M57.222 53.9447C57.8287 54.0066 57.5306 53.6069 57.6136 53.4059C57.5739 53.2048 57.7433 52.8857 57.4149 52.853C56.8118 52.7922 57.0619 53.1861 57.0385 53.3988C57.0175 53.5905 56.8959 53.912 57.222 53.9447Z" fill="white"/>
<path d="M30.106 44.8058C30.1165 44.7707 29.9891 44.7134 29.9237 44.6655C29.8536 44.7579 29.7834 44.8502 29.7168 44.9402C29.7951 44.9975 29.8594 45.0442 29.9237 45.0922C29.9891 44.9975 30.0756 44.9063 30.106 44.8058Z" fill="white"/>
<path d="M29.5384 66.3871C29.612 66.3894 29.688 66.3905 29.7675 66.3847C29.9229 66.373 30.0632 66.255 30.2105 66.1848C29.9393 66.0504 29.7967 65.7874 29.501 65.6846L29.5384 66.3871Z" fill="white"/>
<path d="M30.4083 51.8282C30.545 51.8059 30.6701 51.7417 30.7999 51.6949C30.7356 51.6482 30.6701 51.6002 30.593 51.543C30.4714 51.5921 30.344 51.6435 30.2178 51.6949C30.2809 51.7428 30.3604 51.8363 30.4083 51.8282Z" fill="white"/>
<path d="M40.708 55.956C40.7723 56.0028 40.8518 56.0974 40.8997 56.0893C41.0365 56.0671 41.1615 56.0039 41.2913 55.956C41.2258 55.9081 41.1475 55.8146 41.0996 55.8228C40.9616 55.845 40.8366 55.9081 40.708 55.956Z" fill="white"/>
<path d="M43.8282 53.1255C43.9497 53.0764 44.0771 53.025 44.2034 52.9736C44.1391 52.9268 44.0596 52.8322 44.0117 52.8403C43.8749 52.8625 43.7499 52.9256 43.6201 52.9736C43.6856 53.0203 43.751 53.0683 43.8282 53.1255Z" fill="white"/>
<path d="M49.2426 28.4141C49.3197 28.3568 49.3852 28.3101 49.4495 28.2622C49.3197 28.2154 49.1958 28.1511 49.0579 28.1289C49.01 28.1207 48.9317 28.2142 48.8662 28.2622C48.9936 28.3136 49.121 28.365 49.2426 28.4141Z" fill="white"/>
<path d="M51.4063 55.255C51.5279 55.2059 51.6553 55.1544 51.7815 55.103C51.7172 55.0562 51.6377 54.9616 51.5898 54.9697C51.453 54.9919 51.328 55.0551 51.1982 55.103C51.2637 55.1509 51.3292 55.1977 51.4063 55.255Z" fill="white"/>
<path d="M49.7415 56.5946C49.8117 56.5023 49.8818 56.4099 49.9484 56.3199C49.8701 56.2627 49.8058 56.2159 49.7415 56.168C49.6773 56.2626 49.5896 56.3538 49.5592 56.4543C49.5487 56.4894 49.6773 56.5479 49.7415 56.5946Z" fill="white"/>
<path d="M41.6579 49.6935C41.977 49.593 42.2049 49.3381 42.4773 49.1476C42.3031 49.0658 42.1629 48.9466 42.0074 48.9361C41.624 48.9104 41.2652 48.9466 41.2839 49.344C41.2933 49.5497 41.3716 49.7835 41.6579 49.6935Z" fill="white"/>
<path d="M25.3453 35.2005C29.6338 23.9634 33.9222 12.7274 38.2118 1.49017C37.5608 1.66199 36.9098 1.8338 36.2587 2.00562C43.0076 9.52591 49.3614 17.938 56.7414 24.8271C59.0265 26.9614 61.1946 26.2566 64.4124 26.2005C69.7306 26.1082 75.0488 26.0158 80.3682 25.9235C80.0316 25.3367 79.695 24.7511 79.3583 24.1644C76.6981 28.5218 74.0366 32.8792 71.3764 37.2366C69.733 39.9285 67.4409 41.9447 68.4402 44.9299C70.2508 50.3335 73.6603 55.6271 76.1581 60.7431C78.2047 64.9369 80.2513 69.1318 82.2991 73.3256C82.7386 72.7529 83.1793 72.1813 83.6187 71.6086C77.5279 69.7946 71.4371 67.9805 65.3463 66.1653C61.6482 65.0631 57.95 63.9621 54.2518 62.861C52.7825 62.4239 51.6827 61.8032 50.2941 62.3421C48.812 62.9183 47.0202 65.429 45.8923 66.4926C42.8241 69.3855 39.7559 72.2783 36.6877 75.1712C32.1467 79.4526 27.6058 83.7341 23.0649 88.0155C23.73 88.2914 24.395 88.566 25.0601 88.8419C24.464 77.579 24.9467 65.6989 23.2461 54.5611C22.7376 51.2334 20.1872 50.5929 17.2885 48.7356C12.4273 45.6219 7.56732 42.5081 2.70613 39.3932C2.61262 40.105 2.52029 40.8168 2.42678 41.5298C9.79512 39.6924 17.1623 37.855 24.5306 36.0176C25.9893 35.654 25.371 33.3982 23.9088 33.764C16.5405 35.6015 9.1733 37.4389 1.80496 39.2763C0.791578 39.5287 0.707424 40.8881 1.52561 41.4129C5.94381 44.2426 10.3608 47.0736 14.779 49.9033C16.7614 51.1727 19.2732 52.3333 21.0311 53.9089C21.8645 54.6558 20.6384 52.4654 20.8558 53.5793C21.0042 54.3414 20.9435 55.2332 20.9844 56.007C21.5641 66.9519 22.1427 77.8981 22.7224 88.8431C22.7762 89.8553 23.9614 90.3836 24.7176 89.6694C28.8425 85.7807 32.9661 81.892 37.0909 78.0033C40.1322 75.1361 43.1735 72.269 46.2148 69.4007C47.8933 67.8181 49.684 65.4558 51.6698 64.2578C52.5079 63.7517 50.0194 64.1491 51.415 64.4565C52.3898 64.6715 53.3576 65.0351 54.3137 65.3203C58.1475 66.4622 61.9813 67.6042 65.8162 68.7461C71.5435 70.4526 77.2708 72.1579 82.9981 73.8633C84.0384 74.173 84.7443 73.0205 84.3177 72.1463C79.8972 63.089 75.4778 54.0328 71.0573 44.9755C70.7884 44.425 70.3735 43.8195 70.2052 43.2293C69.8931 42.1399 69.7961 44.5804 70.2438 43.5764C71.1122 41.6291 72.5546 39.7917 73.6661 37.9718C76.2364 33.7629 78.8066 29.5539 81.3769 25.3449C81.8363 24.5934 81.2448 23.5706 80.367 23.5858C75.5877 23.6688 70.8083 23.7518 66.0278 23.8348C63.9134 23.871 61.1888 24.3619 59.0907 23.9552C57.9558 23.7354 60.0024 24.5957 59.0966 23.9575C58.5391 23.5648 58.0376 22.777 57.5923 22.2814C51.0316 14.9715 44.4721 7.66278 37.9114 0.352888C37.2733 -0.358933 36.2494 0.105088 35.9583 0.868337C31.6699 12.1055 27.3814 23.3415 23.0918 34.5787C22.5541 35.986 24.8135 36.5938 25.3453 35.2005Z" fill="#3D3D3D"/>
<path d="M30.7591 38.014C32.6246 34.151 34.109 30.122 35.6589 26.1246C37.3841 21.6771 39.6083 17.1058 40.5282 12.4235C40.7456 11.3177 39.2273 10.5335 38.6254 11.6217C36.5554 15.3631 35.4263 19.6399 33.9956 23.6606C32.3744 28.2156 30.6177 32.7484 29.3226 37.4085C29.0923 38.243 30.3629 38.8345 30.7591 38.014Z" fill="#3D3D3D"/>
<path d="M59.6181 43.1288C62.6349 50.1302 66.4464 57.0988 70.528 63.5379C71.31 64.771 73.1579 63.6886 72.4835 62.3947C68.9442 55.6061 65.1677 48.7486 61.1165 42.2534C60.5087 41.2797 59.1868 42.1271 59.6181 43.1288Z" fill="#3D3D3D"/>
</svg>
