<svg width="159" height="137" viewBox="0 0 159 137" fill="none" xmlns="http://www.w3.org/2000/svg">
<circle cx="90.1316" cy="68.5" r="63.5" transform="rotate(-90 90.1316 68.5)" stroke="#FFCD20" stroke-width="10"/>
<path d="M41.0121 66.6351C44.6476 70.1818 46.7237 75.3095 42.5862 79.4957C37.8899 84.2497 32.1751 80.977 27.3663 78.463C26.4994 78.0095 25.1599 79.021 25.8769 79.9541C25.9144 80.0031 25.9584 80.0471 25.9975 80.0961C25.1615 80.6442 24.7232 81.6525 25.4907 82.7259C27.9432 86.1568 34.2462 92.4689 28.4027 96.0662C23.6363 98.9995 18.2132 95.2032 13.9959 93.0986C12.9758 92.5896 11.8449 93.6549 12.2653 94.5897C11.6217 95.2097 11.3104 96.2554 11.752 97.125C13.8704 101.287 19.7042 106.259 14.4408 110.695C10.0084 114.43 4.99758 110.977 1.88516 107.4C1.1486 106.553 -0.256068 107.454 0.0405083 108.475C2.14099 115.686 11.1507 118.843 17.1849 114.247C22.1029 110.501 21.8503 104.359 19.0915 99.5265C23.2957 101.492 28.0295 101.944 31.9649 98.7352C36.4575 95.0743 35.6444 89.5405 32.9752 85.0703C37.3782 86.5745 42.332 85.8795 45.9903 82.1386C51.2114 76.8006 50.5563 66.8537 43.7237 63.1161C41.5352 61.9186 39.1463 64.8161 41.0121 66.6351Z" fill="#011C1A"/>
</svg>
