<svg width="136" height="136" viewBox="0 0 136 136" fill="none" xmlns="http://www.w3.org/2000/svg">
<mask id="mask0_513_6194" style="mask-type:alpha" maskUnits="userSpaceOnUse" x="0" y="0" width="136" height="136">
<circle cx="68" cy="68" r="68" fill="#D9D9D9"/>
</mask>
<g mask="url(#mask0_513_6194)">
<circle cx="29.8079" cy="5.58909" r="1.86301" transform="rotate(90 29.8079 5.58909)" fill="#6FC081"/>
<circle cx="42.8489" cy="5.58909" r="1.86301" transform="rotate(90 42.8489 5.58909)" fill="#6FC081"/>
<circle cx="55.8909" cy="5.58909" r="1.86301" transform="rotate(90 55.8909 5.58909)" fill="#6FC081"/>
<circle cx="68.9319" cy="5.58909" r="1.86301" transform="rotate(90 68.9319 5.58909)" fill="#6FC081"/>
<circle cx="81.9729" cy="5.58909" r="1.86301" transform="rotate(90 81.9729 5.58909)" fill="#6FC081"/>
<circle cx="95.0139" cy="5.58909" r="1.86301" transform="rotate(90 95.0139 5.58909)" fill="#6FC081"/>
<circle cx="108.055" cy="5.58909" r="1.86301" transform="rotate(90 108.055 5.58909)" fill="#6FC081"/>
<circle cx="121.096" cy="5.58909" r="1.86301" transform="rotate(90 121.096 5.58909)" fill="#6FC081"/>
<circle cx="134.137" cy="5.58909" r="1.86301" transform="rotate(90 134.137 5.58909)" fill="#6FC081"/>
<circle cx="16.7669" cy="5.58909" r="1.86301" transform="rotate(90 16.7669 5.58909)" fill="#6FC081"/>
<circle cx="2.79421" cy="5.58909" r="1.86301" transform="rotate(90 2.79421 5.58909)" fill="#6FC081"/>
<circle cx="29.8079" cy="19.5617" r="1.86301" transform="rotate(90 29.8079 19.5617)" fill="#6FC081"/>
<circle cx="42.8489" cy="19.5617" r="1.86301" transform="rotate(90 42.8489 19.5617)" fill="#6FC081"/>
<circle cx="55.8909" cy="19.5617" r="1.86301" transform="rotate(90 55.8909 19.5617)" fill="#6FC081"/>
<circle cx="68.9319" cy="19.5617" r="1.86301" transform="rotate(90 68.9319 19.5617)" fill="#6FC081"/>
<circle cx="81.9729" cy="19.5617" r="1.86301" transform="rotate(90 81.9729 19.5617)" fill="#6FC081"/>
<circle cx="95.0139" cy="19.5617" r="1.86301" transform="rotate(90 95.0139 19.5617)" fill="#6FC081"/>
<circle cx="108.055" cy="19.5617" r="1.86301" transform="rotate(90 108.055 19.5617)" fill="#6FC081"/>
<circle cx="121.096" cy="19.5617" r="1.86301" transform="rotate(90 121.096 19.5617)" fill="#6FC081"/>
<circle cx="134.137" cy="19.5617" r="1.86301" transform="rotate(90 134.137 19.5617)" fill="#6FC081"/>
<circle cx="16.7669" cy="19.5617" r="1.86301" transform="rotate(90 16.7669 19.5617)" fill="#6FC081"/>
<circle cx="2.79421" cy="19.5617" r="1.86301" transform="rotate(90 2.79421 19.5617)" fill="#6FC081"/>
<circle cx="29.8079" cy="33.5344" r="1.86301" transform="rotate(90 29.8079 33.5344)" fill="#6FC081"/>
<circle cx="42.8489" cy="33.5344" r="1.86301" transform="rotate(90 42.8489 33.5344)" fill="#6FC081"/>
<circle cx="55.8909" cy="33.5344" r="1.86301" transform="rotate(90 55.8909 33.5344)" fill="#6FC081"/>
<circle cx="68.9319" cy="33.5344" r="1.86301" transform="rotate(90 68.9319 33.5344)" fill="#6FC081"/>
<circle cx="81.9729" cy="33.5344" r="1.86301" transform="rotate(90 81.9729 33.5344)" fill="#6FC081"/>
<circle cx="95.0139" cy="33.5344" r="1.86301" transform="rotate(90 95.0139 33.5344)" fill="#6FC081"/>
<circle cx="108.055" cy="33.5344" r="1.86301" transform="rotate(90 108.055 33.5344)" fill="#6FC081"/>
<circle cx="121.096" cy="33.5344" r="1.86301" transform="rotate(90 121.096 33.5344)" fill="#6FC081"/>
<circle cx="134.137" cy="33.5344" r="1.86301" transform="rotate(90 134.137 33.5344)" fill="#6FC081"/>
<circle cx="16.7669" cy="33.5344" r="1.86301" transform="rotate(90 16.7669 33.5344)" fill="#6FC081"/>
<circle cx="2.79421" cy="33.5344" r="1.86301" transform="rotate(90 2.79421 33.5344)" fill="#6FC081"/>
<circle cx="29.8079" cy="47.5071" r="1.86301" transform="rotate(90 29.8079 47.5071)" fill="#6FC081"/>
<circle cx="42.8489" cy="47.5071" r="1.86301" transform="rotate(90 42.8489 47.5071)" fill="#6FC081"/>
<circle cx="55.8909" cy="47.5071" r="1.86301" transform="rotate(90 55.8909 47.5071)" fill="#6FC081"/>
<circle cx="68.9319" cy="47.5071" r="1.86301" transform="rotate(90 68.9319 47.5071)" fill="#6FC081"/>
<circle cx="81.9729" cy="47.5071" r="1.86301" transform="rotate(90 81.9729 47.5071)" fill="#6FC081"/>
<circle cx="95.0139" cy="47.5071" r="1.86301" transform="rotate(90 95.0139 47.5071)" fill="#6FC081"/>
<circle cx="108.055" cy="47.5071" r="1.86301" transform="rotate(90 108.055 47.5071)" fill="#6FC081"/>
<circle cx="121.096" cy="47.5071" r="1.86301" transform="rotate(90 121.096 47.5071)" fill="#6FC081"/>
<circle cx="134.137" cy="47.5071" r="1.86301" transform="rotate(90 134.137 47.5071)" fill="#6FC081"/>
<circle cx="16.7669" cy="47.5071" r="1.86301" transform="rotate(90 16.7669 47.5071)" fill="#6FC081"/>
<circle cx="2.79421" cy="47.5071" r="1.86301" transform="rotate(90 2.79421 47.5071)" fill="#6FC081"/>
<circle cx="29.8079" cy="61.4797" r="1.86301" transform="rotate(90 29.8079 61.4797)" fill="#6FC081"/>
<circle cx="42.8489" cy="61.4797" r="1.86301" transform="rotate(90 42.8489 61.4797)" fill="#6FC081"/>
<circle cx="55.8909" cy="61.4797" r="1.86301" transform="rotate(90 55.8909 61.4797)" fill="#6FC081"/>
<circle cx="68.9319" cy="61.4797" r="1.86301" transform="rotate(90 68.9319 61.4797)" fill="#6FC081"/>
<circle cx="81.9729" cy="61.4797" r="1.86301" transform="rotate(90 81.9729 61.4797)" fill="#6FC081"/>
<circle cx="95.0139" cy="61.4797" r="1.86301" transform="rotate(90 95.0139 61.4797)" fill="#6FC081"/>
<circle cx="108.055" cy="61.4797" r="1.86301" transform="rotate(90 108.055 61.4797)" fill="#6FC081"/>
<circle cx="121.096" cy="61.4797" r="1.86301" transform="rotate(90 121.096 61.4797)" fill="#6FC081"/>
<circle cx="134.137" cy="61.4797" r="1.86301" transform="rotate(90 134.137 61.4797)" fill="#6FC081"/>
<circle cx="16.7669" cy="61.4797" r="1.86301" transform="rotate(90 16.7669 61.4797)" fill="#6FC081"/>
<circle cx="2.79421" cy="61.4797" r="1.86301" transform="rotate(90 2.79421 61.4797)" fill="#6FC081"/>
<circle cx="29.8079" cy="75.4519" r="1.86301" transform="rotate(90 29.8079 75.4519)" fill="#6FC081"/>
<circle cx="42.8489" cy="75.4519" r="1.86301" transform="rotate(90 42.8489 75.4519)" fill="#6FC081"/>
<circle cx="55.8909" cy="75.4519" r="1.86301" transform="rotate(90 55.8909 75.4519)" fill="#6FC081"/>
<circle cx="68.9319" cy="75.4519" r="1.86301" transform="rotate(90 68.9319 75.4519)" fill="#6FC081"/>
<circle cx="81.9729" cy="75.4519" r="1.86301" transform="rotate(90 81.9729 75.4519)" fill="#6FC081"/>
<circle cx="95.0139" cy="75.4519" r="1.86301" transform="rotate(90 95.0139 75.4519)" fill="#6FC081"/>
<circle cx="108.055" cy="75.4519" r="1.86301" transform="rotate(90 108.055 75.4519)" fill="#6FC081"/>
<circle cx="121.096" cy="75.4519" r="1.86301" transform="rotate(90 121.096 75.4519)" fill="#6FC081"/>
<circle cx="134.137" cy="75.4519" r="1.86301" transform="rotate(90 134.137 75.4519)" fill="#6FC081"/>
<circle cx="16.7669" cy="75.4519" r="1.86301" transform="rotate(90 16.7669 75.4519)" fill="#6FC081"/>
<circle cx="2.79421" cy="75.4519" r="1.86301" transform="rotate(90 2.79421 75.4519)" fill="#6FC081"/>
<circle cx="29.8079" cy="89.4245" r="1.86301" transform="rotate(90 29.8079 89.4245)" fill="#6FC081"/>
<circle cx="42.8489" cy="89.4245" r="1.86301" transform="rotate(90 42.8489 89.4245)" fill="#6FC081"/>
<circle cx="55.8909" cy="89.4245" r="1.86301" transform="rotate(90 55.8909 89.4245)" fill="#6FC081"/>
<circle cx="68.9319" cy="89.4245" r="1.86301" transform="rotate(90 68.9319 89.4245)" fill="#6FC081"/>
<circle cx="81.9729" cy="89.4245" r="1.86301" transform="rotate(90 81.9729 89.4245)" fill="#6FC081"/>
<circle cx="95.0139" cy="89.4245" r="1.86301" transform="rotate(90 95.0139 89.4245)" fill="#6FC081"/>
<circle cx="108.055" cy="89.4245" r="1.86301" transform="rotate(90 108.055 89.4245)" fill="#6FC081"/>
<circle cx="121.096" cy="89.4245" r="1.86301" transform="rotate(90 121.096 89.4245)" fill="#6FC081"/>
<circle cx="134.137" cy="89.4245" r="1.86301" transform="rotate(90 134.137 89.4245)" fill="#6FC081"/>
<circle cx="16.7669" cy="89.4245" r="1.86301" transform="rotate(90 16.7669 89.4245)" fill="#6FC081"/>
<circle cx="2.79421" cy="89.4245" r="1.86301" transform="rotate(90 2.79421 89.4245)" fill="#6FC081"/>
<circle cx="29.8079" cy="103.397" r="1.86301" transform="rotate(90 29.8079 103.397)" fill="#6FC081"/>
<circle cx="42.8489" cy="103.397" r="1.86301" transform="rotate(90 42.8489 103.397)" fill="#6FC081"/>
<circle cx="55.8909" cy="103.397" r="1.86301" transform="rotate(90 55.8909 103.397)" fill="#6FC081"/>
<circle cx="68.9319" cy="103.397" r="1.86301" transform="rotate(90 68.9319 103.397)" fill="#6FC081"/>
<circle cx="81.9729" cy="103.397" r="1.86301" transform="rotate(90 81.9729 103.397)" fill="#6FC081"/>
<circle cx="95.0139" cy="103.397" r="1.86301" transform="rotate(90 95.0139 103.397)" fill="#6FC081"/>
<circle cx="108.055" cy="103.397" r="1.86301" transform="rotate(90 108.055 103.397)" fill="#6FC081"/>
<circle cx="121.096" cy="103.397" r="1.86301" transform="rotate(90 121.096 103.397)" fill="#6FC081"/>
<circle cx="134.137" cy="103.397" r="1.86301" transform="rotate(90 134.137 103.397)" fill="#6FC081"/>
<circle cx="16.7669" cy="103.397" r="1.86301" transform="rotate(90 16.7669 103.397)" fill="#6FC081"/>
<circle cx="2.79421" cy="103.397" r="1.86301" transform="rotate(90 2.79421 103.397)" fill="#6FC081"/>
<circle cx="29.8079" cy="117.37" r="1.86301" transform="rotate(90 29.8079 117.37)" fill="#6FC081"/>
<circle cx="42.8489" cy="117.37" r="1.86301" transform="rotate(90 42.8489 117.37)" fill="#6FC081"/>
<circle cx="55.8909" cy="117.37" r="1.86301" transform="rotate(90 55.8909 117.37)" fill="#6FC081"/>
<circle cx="68.9319" cy="117.37" r="1.86301" transform="rotate(90 68.9319 117.37)" fill="#6FC081"/>
<circle cx="81.9729" cy="117.37" r="1.86301" transform="rotate(90 81.9729 117.37)" fill="#6FC081"/>
<circle cx="95.0139" cy="117.37" r="1.86301" transform="rotate(90 95.0139 117.37)" fill="#6FC081"/>
<circle cx="108.055" cy="117.37" r="1.86301" transform="rotate(90 108.055 117.37)" fill="#6FC081"/>
<circle cx="121.096" cy="117.37" r="1.86301" transform="rotate(90 121.096 117.37)" fill="#6FC081"/>
<circle cx="134.137" cy="117.37" r="1.86301" transform="rotate(90 134.137 117.37)" fill="#6FC081"/>
<circle cx="16.7669" cy="117.37" r="1.86301" transform="rotate(90 16.7669 117.37)" fill="#6FC081"/>
<circle cx="2.79421" cy="117.37" r="1.86301" transform="rotate(90 2.79421 117.37)" fill="#6FC081"/>
<circle cx="29.8079" cy="131.342" r="1.86301" transform="rotate(90 29.8079 131.342)" fill="#6FC081"/>
<circle cx="42.8489" cy="131.342" r="1.86301" transform="rotate(90 42.8489 131.342)" fill="#6FC081"/>
<circle cx="55.8909" cy="131.342" r="1.86301" transform="rotate(90 55.8909 131.342)" fill="#6FC081"/>
<circle cx="68.9319" cy="131.342" r="1.86301" transform="rotate(90 68.9319 131.342)" fill="#6FC081"/>
<circle cx="81.9729" cy="131.342" r="1.86301" transform="rotate(90 81.9729 131.342)" fill="#6FC081"/>
<circle cx="95.0139" cy="131.342" r="1.86301" transform="rotate(90 95.0139 131.342)" fill="#6FC081"/>
<circle cx="108.055" cy="131.342" r="1.86301" transform="rotate(90 108.055 131.342)" fill="#6FC081"/>
<circle cx="121.096" cy="131.342" r="1.86301" transform="rotate(90 121.096 131.342)" fill="#6FC081"/>
<circle cx="134.137" cy="131.342" r="1.86301" transform="rotate(90 134.137 131.342)" fill="#6FC081"/>
<circle cx="16.7669" cy="131.342" r="1.86301" transform="rotate(90 16.7669 131.342)" fill="#6FC081"/>
<circle cx="2.79421" cy="131.342" r="1.86301" transform="rotate(90 2.79421 131.342)" fill="#6FC081"/>
</g>
</svg>
