<svg width="329" height="567" viewBox="0 0 329 567" fill="none" xmlns="http://www.w3.org/2000/svg">
<circle cx="283.5" cy="283.5" r="283" stroke="#011C1A" stroke-opacity="0.15"/>
<path fill-rule="evenodd" clip-rule="evenodd" d="M326.365 438.034C287.27 457.516 238.557 467.184 200.54 445.639C162.362 424.003 137.488 377.103 141.758 333.413C145.484 295.284 201.603 288.616 219.208 254.602C238.831 216.689 207.508 154.607 244.924 134.091C280.751 114.445 317.897 160.353 353.052 181.21C387.523 201.661 436.22 213.074 444.264 252.357C452.232 291.266 409.344 318.679 388.065 352.191C368.428 383.118 359.142 421.7 326.365 438.034Z" fill="white"/>
<g clip-path="url(#clip0_2181_155)">
<path d="M157.701 204.625C149.127 207.532 144.84 222.922 156.329 224.974C165.075 226.171 169.876 214.543 164.903 208.045C165.075 208.216 165.075 208.387 165.246 208.558C164.732 207.532 164.046 206.506 163.017 206.164C161.645 204.796 159.587 203.941 157.701 204.625ZM159.244 208.558C159.759 208.729 160.102 209.071 160.616 209.242C160.959 209.755 161.473 209.926 161.645 210.439C161.645 210.268 161.473 210.268 161.473 210.097C168.161 228.053 141.925 220.015 159.244 208.558ZM159.073 208.558H158.901C158.901 208.558 158.901 208.558 159.073 208.558Z" fill="#543EE8" fill-opacity="0.08"/>
<path d="M131.465 195.561C130.779 190.431 127.521 184.446 121.691 184.617C104.371 180.342 96.8265 201.205 108.83 212.32C120.147 220.699 133.351 207.703 131.465 195.561ZM126.492 202.744C113.46 228.565 93.397 185.13 121.005 188.379C127.692 189.405 128.207 197.443 126.492 202.744Z" fill="#543EE8" fill-opacity="0.08"/>
<path d="M193.882 246.521C191.653 222.409 157.015 239.339 159.073 257.807C162.159 285.168 197.483 268.067 193.882 246.521ZM187.023 247.718C186.852 255.926 179.307 270.119 169.704 265.673C160.101 255.926 172.276 241.733 183.251 240.878C187.195 240.365 187.195 244.982 187.023 247.718Z" fill="#543EE8" fill-opacity="0.08"/>
<path d="M148.098 245.495C147.755 239.851 142.268 235.747 137.123 234.55C119.633 226.513 104.2 249.257 119.118 262.082C129.578 270.29 148.269 257.636 148.098 245.495ZM135.751 240.364C138.838 240.878 140.21 243.101 142.096 244.982C143.468 253.703 130.779 264.647 123.234 257.636C113.288 249.599 124.434 234.037 135.751 240.364Z" fill="#543EE8" fill-opacity="0.08"/>
<path d="M203.828 190.773C203.485 189.063 202.799 187.353 202.113 185.814C202.285 185.985 202.285 186.156 202.456 186.327C202.285 186.156 202.285 185.985 202.113 185.643C201.942 185.301 201.77 184.959 201.428 184.446C193.883 172.989 174.334 185.643 178.621 197.785C183.937 212.149 205.714 205.309 203.828 190.773ZM196.969 195.904C184.108 209.071 178.278 184.104 195.597 185.301C198.855 187.695 199.37 192.826 196.969 195.904Z" fill="#543EE8" fill-opacity="0.08"/>
</g>
<defs>
<clipPath id="clip0_2181_155">
<rect width="101" height="92" fill="white" transform="translate(103 180)"/>
</clipPath>
</defs>
</svg>
