<svg width="137" height="159" viewBox="0 0 137 159" fill="none" xmlns="http://www.w3.org/2000/svg">
<circle cx="68.5" cy="90.1316" r="63.5" stroke="#FFCD20" stroke-width="10"/>
<path d="M70.3651 41.0121C66.8184 44.6476 61.6908 46.7237 57.5045 42.5862C52.7505 37.8899 56.0232 32.1751 58.5372 27.3663C58.9908 26.4994 57.9793 25.1599 57.0461 25.8769C56.9972 25.9144 56.9531 25.9584 56.9042 25.9975C56.356 25.1615 55.3478 24.7232 54.2743 25.4907C50.8434 27.9432 44.5314 34.2462 40.9341 28.4027C38.0007 23.6363 41.7971 18.2132 43.9016 13.9959C44.4106 12.9758 43.3453 11.8449 42.4105 12.2653C41.7906 11.6217 40.7448 11.3104 39.8753 11.752C35.7135 13.8704 30.7409 19.7042 26.305 14.4408C22.5706 10.0084 26.0227 4.99758 29.6005 1.88516C30.4472 1.1486 29.5466 -0.256068 28.5254 0.0405086C21.3144 2.14099 18.1576 11.1507 22.7533 17.1849C26.4991 22.1029 32.6415 21.8503 37.4738 19.0915C35.5079 23.2957 35.056 28.0295 38.265 31.9649C41.926 36.4575 47.4598 35.6444 51.9299 32.9752C50.4257 37.3782 51.1207 42.332 54.8616 45.9903C60.1997 51.2114 70.1465 50.5563 73.8841 43.7237C75.0816 41.5352 72.1842 39.1463 70.3651 41.0121Z" fill="#011C1A"/>
</svg>
