<svg width="188" height="188" viewBox="0 0 188 188" fill="none" xmlns="http://www.w3.org/2000/svg">
<mask id="mask0_513_5995" style="mask-type:alpha" maskUnits="userSpaceOnUse" x="0" y="0" width="188" height="188">
<circle cx="94" cy="94" r="94" fill="#D9D9D9"/>
</mask>
<g mask="url(#mask0_513_5995)">
<circle cx="41.2059" cy="7.72616" r="2.57534" transform="rotate(90 41.2059 7.72616)" fill="#6FC081"/>
<circle cx="59.2332" cy="7.72616" r="2.57534" transform="rotate(90 59.2332 7.72616)" fill="#6FC081"/>
<circle cx="77.2606" cy="7.72616" r="2.57534" transform="rotate(90 77.2606 7.72616)" fill="#6FC081"/>
<circle cx="95.2879" cy="7.72616" r="2.57534" transform="rotate(90 95.2879 7.72616)" fill="#6FC081"/>
<circle cx="113.315" cy="7.72616" r="2.57534" transform="rotate(90 113.315 7.72616)" fill="#6FC081"/>
<circle cx="131.343" cy="7.72616" r="2.57534" transform="rotate(90 131.343 7.72616)" fill="#6FC081"/>
<circle cx="149.37" cy="7.72616" r="2.57534" transform="rotate(90 149.37 7.72616)" fill="#6FC081"/>
<circle cx="167.397" cy="7.72616" r="2.57534" transform="rotate(90 167.397 7.72616)" fill="#6FC081"/>
<circle cx="185.425" cy="7.72616" r="2.57534" transform="rotate(90 185.425 7.72616)" fill="#6FC081"/>
<circle cx="23.1786" cy="7.72616" r="2.57534" transform="rotate(90 23.1786 7.72616)" fill="#6FC081"/>
<circle cx="3.86313" cy="7.72616" r="2.57534" transform="rotate(90 3.86313 7.72616)" fill="#6FC081"/>
<circle cx="41.2059" cy="27.0411" r="2.57534" transform="rotate(90 41.2059 27.0411)" fill="#6FC081"/>
<circle cx="59.2332" cy="27.0411" r="2.57534" transform="rotate(90 59.2332 27.0411)" fill="#6FC081"/>
<circle cx="77.2606" cy="27.0411" r="2.57534" transform="rotate(90 77.2606 27.0411)" fill="#6FC081"/>
<circle cx="95.2879" cy="27.0411" r="2.57534" transform="rotate(90 95.2879 27.0411)" fill="#6FC081"/>
<circle cx="113.315" cy="27.0411" r="2.57534" transform="rotate(90 113.315 27.0411)" fill="#6FC081"/>
<circle cx="131.343" cy="27.0411" r="2.57534" transform="rotate(90 131.343 27.0411)" fill="#6FC081"/>
<circle cx="149.37" cy="27.0411" r="2.57534" transform="rotate(90 149.37 27.0411)" fill="#6FC081"/>
<circle cx="167.397" cy="27.0411" r="2.57534" transform="rotate(90 167.397 27.0411)" fill="#6FC081"/>
<circle cx="185.425" cy="27.0411" r="2.57534" transform="rotate(90 185.425 27.0411)" fill="#6FC081"/>
<circle cx="23.1786" cy="27.0411" r="2.57534" transform="rotate(90 23.1786 27.0411)" fill="#6FC081"/>
<circle cx="3.86313" cy="27.0411" r="2.57534" transform="rotate(90 3.86313 27.0411)" fill="#6FC081"/>
<circle cx="41.2059" cy="46.3563" r="2.57534" transform="rotate(90 41.2059 46.3563)" fill="#6FC081"/>
<circle cx="59.2332" cy="46.3563" r="2.57534" transform="rotate(90 59.2332 46.3563)" fill="#6FC081"/>
<circle cx="77.2606" cy="46.3563" r="2.57534" transform="rotate(90 77.2606 46.3563)" fill="#6FC081"/>
<circle cx="95.2879" cy="46.3563" r="2.57534" transform="rotate(90 95.2879 46.3563)" fill="#6FC081"/>
<circle cx="113.315" cy="46.3563" r="2.57534" transform="rotate(90 113.315 46.3563)" fill="#6FC081"/>
<circle cx="131.343" cy="46.3563" r="2.57534" transform="rotate(90 131.343 46.3563)" fill="#6FC081"/>
<circle cx="149.37" cy="46.3563" r="2.57534" transform="rotate(90 149.37 46.3563)" fill="#6FC081"/>
<circle cx="167.397" cy="46.3563" r="2.57534" transform="rotate(90 167.397 46.3563)" fill="#6FC081"/>
<circle cx="185.425" cy="46.3563" r="2.57534" transform="rotate(90 185.425 46.3563)" fill="#6FC081"/>
<circle cx="23.1786" cy="46.3563" r="2.57534" transform="rotate(90 23.1786 46.3563)" fill="#6FC081"/>
<circle cx="3.86313" cy="46.3563" r="2.57534" transform="rotate(90 3.86313 46.3563)" fill="#6FC081"/>
<circle cx="41.2059" cy="65.6712" r="2.57534" transform="rotate(90 41.2059 65.6712)" fill="#6FC081"/>
<circle cx="59.2332" cy="65.6712" r="2.57534" transform="rotate(90 59.2332 65.6712)" fill="#6FC081"/>
<circle cx="77.2606" cy="65.6712" r="2.57534" transform="rotate(90 77.2606 65.6712)" fill="#6FC081"/>
<circle cx="95.2879" cy="65.6712" r="2.57534" transform="rotate(90 95.2879 65.6712)" fill="#6FC081"/>
<circle cx="113.315" cy="65.6712" r="2.57534" transform="rotate(90 113.315 65.6712)" fill="#6FC081"/>
<circle cx="131.343" cy="65.6712" r="2.57534" transform="rotate(90 131.343 65.6712)" fill="#6FC081"/>
<circle cx="149.37" cy="65.6712" r="2.57534" transform="rotate(90 149.37 65.6712)" fill="#6FC081"/>
<circle cx="167.397" cy="65.6712" r="2.57534" transform="rotate(90 167.397 65.6712)" fill="#6FC081"/>
<circle cx="185.425" cy="65.6712" r="2.57534" transform="rotate(90 185.425 65.6712)" fill="#6FC081"/>
<circle cx="23.1786" cy="65.6712" r="2.57534" transform="rotate(90 23.1786 65.6712)" fill="#6FC081"/>
<circle cx="3.86313" cy="65.6712" r="2.57534" transform="rotate(90 3.86313 65.6712)" fill="#6FC081"/>
<circle cx="41.2059" cy="84.9864" r="2.57534" transform="rotate(90 41.2059 84.9864)" fill="#6FC081"/>
<circle cx="59.2332" cy="84.9864" r="2.57534" transform="rotate(90 59.2332 84.9864)" fill="#6FC081"/>
<circle cx="77.2606" cy="84.9864" r="2.57534" transform="rotate(90 77.2606 84.9864)" fill="#6FC081"/>
<circle cx="95.2879" cy="84.9864" r="2.57534" transform="rotate(90 95.2879 84.9864)" fill="#6FC081"/>
<circle cx="113.315" cy="84.9864" r="2.57534" transform="rotate(90 113.315 84.9864)" fill="#6FC081"/>
<circle cx="131.343" cy="84.9864" r="2.57534" transform="rotate(90 131.343 84.9864)" fill="#6FC081"/>
<circle cx="149.37" cy="84.9864" r="2.57534" transform="rotate(90 149.37 84.9864)" fill="#6FC081"/>
<circle cx="167.397" cy="84.9864" r="2.57534" transform="rotate(90 167.397 84.9864)" fill="#6FC081"/>
<circle cx="185.425" cy="84.9864" r="2.57534" transform="rotate(90 185.425 84.9864)" fill="#6FC081"/>
<circle cx="23.1786" cy="84.9864" r="2.57534" transform="rotate(90 23.1786 84.9864)" fill="#6FC081"/>
<circle cx="3.86313" cy="84.9864" r="2.57534" transform="rotate(90 3.86313 84.9864)" fill="#6FC081"/>
<circle cx="41.2059" cy="104.301" r="2.57534" transform="rotate(90 41.2059 104.301)" fill="#6FC081"/>
<circle cx="59.2332" cy="104.301" r="2.57534" transform="rotate(90 59.2332 104.301)" fill="#6FC081"/>
<circle cx="77.2606" cy="104.301" r="2.57534" transform="rotate(90 77.2606 104.301)" fill="#6FC081"/>
<circle cx="95.2879" cy="104.301" r="2.57534" transform="rotate(90 95.2879 104.301)" fill="#6FC081"/>
<circle cx="113.315" cy="104.301" r="2.57534" transform="rotate(90 113.315 104.301)" fill="#6FC081"/>
<circle cx="131.343" cy="104.301" r="2.57534" transform="rotate(90 131.343 104.301)" fill="#6FC081"/>
<circle cx="149.37" cy="104.301" r="2.57534" transform="rotate(90 149.37 104.301)" fill="#6FC081"/>
<circle cx="167.397" cy="104.301" r="2.57534" transform="rotate(90 167.397 104.301)" fill="#6FC081"/>
<circle cx="185.425" cy="104.301" r="2.57534" transform="rotate(90 185.425 104.301)" fill="#6FC081"/>
<circle cx="23.1786" cy="104.301" r="2.57534" transform="rotate(90 23.1786 104.301)" fill="#6FC081"/>
<circle cx="3.86313" cy="104.301" r="2.57534" transform="rotate(90 3.86313 104.301)" fill="#6FC081"/>
<circle cx="41.2059" cy="123.617" r="2.57534" transform="rotate(90 41.2059 123.617)" fill="#6FC081"/>
<circle cx="59.2332" cy="123.617" r="2.57534" transform="rotate(90 59.2332 123.617)" fill="#6FC081"/>
<circle cx="77.2606" cy="123.617" r="2.57534" transform="rotate(90 77.2606 123.617)" fill="#6FC081"/>
<circle cx="95.2879" cy="123.617" r="2.57534" transform="rotate(90 95.2879 123.617)" fill="#6FC081"/>
<circle cx="113.315" cy="123.617" r="2.57534" transform="rotate(90 113.315 123.617)" fill="#6FC081"/>
<circle cx="131.343" cy="123.617" r="2.57534" transform="rotate(90 131.343 123.617)" fill="#6FC081"/>
<circle cx="149.37" cy="123.617" r="2.57534" transform="rotate(90 149.37 123.617)" fill="#6FC081"/>
<circle cx="167.397" cy="123.617" r="2.57534" transform="rotate(90 167.397 123.617)" fill="#6FC081"/>
<circle cx="185.425" cy="123.617" r="2.57534" transform="rotate(90 185.425 123.617)" fill="#6FC081"/>
<circle cx="23.1786" cy="123.617" r="2.57534" transform="rotate(90 23.1786 123.617)" fill="#6FC081"/>
<circle cx="3.86313" cy="123.617" r="2.57534" transform="rotate(90 3.86313 123.617)" fill="#6FC081"/>
<circle cx="41.2059" cy="142.931" r="2.57534" transform="rotate(90 41.2059 142.931)" fill="#6FC081"/>
<circle cx="59.2332" cy="142.931" r="2.57534" transform="rotate(90 59.2332 142.931)" fill="#6FC081"/>
<circle cx="77.2606" cy="142.931" r="2.57534" transform="rotate(90 77.2606 142.931)" fill="#6FC081"/>
<circle cx="95.2879" cy="142.931" r="2.57534" transform="rotate(90 95.2879 142.931)" fill="#6FC081"/>
<circle cx="113.315" cy="142.931" r="2.57534" transform="rotate(90 113.315 142.931)" fill="#6FC081"/>
<circle cx="131.343" cy="142.931" r="2.57534" transform="rotate(90 131.343 142.931)" fill="#6FC081"/>
<circle cx="149.37" cy="142.931" r="2.57534" transform="rotate(90 149.37 142.931)" fill="#6FC081"/>
<circle cx="167.397" cy="142.931" r="2.57534" transform="rotate(90 167.397 142.931)" fill="#6FC081"/>
<circle cx="185.425" cy="142.931" r="2.57534" transform="rotate(90 185.425 142.931)" fill="#6FC081"/>
<circle cx="23.1786" cy="142.931" r="2.57534" transform="rotate(90 23.1786 142.931)" fill="#6FC081"/>
<circle cx="3.86313" cy="142.931" r="2.57534" transform="rotate(90 3.86313 142.931)" fill="#6FC081"/>
<circle cx="41.2059" cy="162.247" r="2.57534" transform="rotate(90 41.2059 162.247)" fill="#6FC081"/>
<circle cx="59.2332" cy="162.247" r="2.57534" transform="rotate(90 59.2332 162.247)" fill="#6FC081"/>
<circle cx="77.2606" cy="162.247" r="2.57534" transform="rotate(90 77.2606 162.247)" fill="#6FC081"/>
<circle cx="95.2879" cy="162.247" r="2.57534" transform="rotate(90 95.2879 162.247)" fill="#6FC081"/>
<circle cx="113.315" cy="162.247" r="2.57534" transform="rotate(90 113.315 162.247)" fill="#6FC081"/>
<circle cx="131.343" cy="162.247" r="2.57534" transform="rotate(90 131.343 162.247)" fill="#6FC081"/>
<circle cx="149.37" cy="162.247" r="2.57534" transform="rotate(90 149.37 162.247)" fill="#6FC081"/>
<circle cx="167.397" cy="162.247" r="2.57534" transform="rotate(90 167.397 162.247)" fill="#6FC081"/>
<circle cx="185.425" cy="162.247" r="2.57534" transform="rotate(90 185.425 162.247)" fill="#6FC081"/>
<circle cx="23.1786" cy="162.247" r="2.57534" transform="rotate(90 23.1786 162.247)" fill="#6FC081"/>
<circle cx="3.86313" cy="162.247" r="2.57534" transform="rotate(90 3.86313 162.247)" fill="#6FC081"/>
<circle cx="41.2059" cy="181.562" r="2.57534" transform="rotate(90 41.2059 181.562)" fill="#6FC081"/>
<circle cx="59.2332" cy="181.562" r="2.57534" transform="rotate(90 59.2332 181.562)" fill="#6FC081"/>
<circle cx="77.2606" cy="181.562" r="2.57534" transform="rotate(90 77.2606 181.562)" fill="#6FC081"/>
<circle cx="95.2879" cy="181.562" r="2.57534" transform="rotate(90 95.2879 181.562)" fill="#6FC081"/>
<circle cx="113.315" cy="181.562" r="2.57534" transform="rotate(90 113.315 181.562)" fill="#6FC081"/>
<circle cx="131.343" cy="181.562" r="2.57534" transform="rotate(90 131.343 181.562)" fill="#6FC081"/>
<circle cx="149.37" cy="181.562" r="2.57534" transform="rotate(90 149.37 181.562)" fill="#6FC081"/>
<circle cx="167.397" cy="181.562" r="2.57534" transform="rotate(90 167.397 181.562)" fill="#6FC081"/>
<circle cx="185.425" cy="181.562" r="2.57534" transform="rotate(90 185.425 181.562)" fill="#6FC081"/>
<circle cx="23.1786" cy="181.562" r="2.57534" transform="rotate(90 23.1786 181.562)" fill="#6FC081"/>
<circle cx="3.86313" cy="181.562" r="2.57534" transform="rotate(90 3.86313 181.562)" fill="#6FC081"/>
</g>
</svg>
