<svg width="136" height="147" viewBox="0 0 136 147" fill="none" xmlns="http://www.w3.org/2000/svg">
<path d="M42.2459 111.692C43.2186 107.18 43.9511 94.1164 42.6134 89.6989C40.9841 84.315 37.7305 79.5374 36.0742 74.1608C33.9562 67.2872 34.7096 59.4189 38.757 53.4738C43.9744 45.8113 53.5663 42.4033 62.7356 41.0411C70.3258 39.9128 75.8396 40.2681 83.0121 42.9987C90.1834 45.7292 95.7548 51.6669 97.5433 59.1285C100.05 69.5865 91.5934 80.5738 83.5585 87.723C76.4816 94.0196 67.4225 108.807 65.7553 118.132L42.2459 111.692Z" fill="#FFDA2A"/>
<path d="M37.8575 72.7371C37.784 72.8338 37.7105 72.9306 37.6406 73.0249C37.7227 73.085 37.7901 73.134 37.8575 73.1842C37.9248 73.085 38.0167 72.9894 38.0486 72.8841C38.0596 72.8473 37.9261 72.7873 37.8575 72.7371Z" fill="white"/>
<path d="M36.7395 73.2675C36.5962 73.2908 36.4651 73.3581 36.3291 73.4071C36.3977 73.4574 36.4651 73.5064 36.5472 73.5664C36.6746 73.5149 36.8081 73.461 36.9404 73.4071C36.873 73.3581 36.7897 73.2589 36.7395 73.2675Z" fill="white"/>
<path d="M84.9143 74.0897C84.8151 74.102 84.7526 74.2686 84.7109 74.3188C84.9951 74.5454 85.2573 74.7537 85.5182 74.9619C85.6162 74.7769 85.8135 74.5858 85.7914 74.4094C85.7436 74.0223 85.2928 74.0444 84.9143 74.0897Z" fill="white"/>
<path d="M83.3682 55.5466C83.4355 55.5968 83.5188 55.6948 83.5691 55.6862C83.7124 55.6629 83.8435 55.5968 83.9795 55.5466C83.9121 55.4976 83.8288 55.3983 83.7785 55.4069C83.634 55.4302 83.5041 55.4963 83.3682 55.5466Z" fill="white"/>
<path d="M69.3184 76.0863C69.4543 76.1353 69.5842 76.2026 69.7287 76.2259C69.779 76.2345 69.861 76.1353 69.9296 76.0863C69.7973 76.0324 69.6638 75.9785 69.5364 75.927C69.4531 75.987 69.3857 76.0373 69.3184 76.0863Z" fill="white"/>
<path d="M83.9795 56.4396C84.1118 56.4935 84.2453 56.5474 84.3727 56.5989C84.4548 56.5388 84.5222 56.4898 84.5896 56.4396C84.4536 56.3906 84.3237 56.3232 84.1792 56.3C84.1302 56.2914 84.0469 56.3894 83.9795 56.4396Z" fill="white"/>
<path d="M84.5889 57.3327C84.7212 57.3866 84.8547 57.4405 84.9821 57.4919C85.0642 57.4319 85.1316 57.3829 85.1989 57.3327C85.063 57.2837 84.9331 57.2163 84.7885 57.193C84.7395 57.1845 84.6575 57.2825 84.5889 57.3327Z" fill="white"/>
<path d="M69.4374 107.275C69.408 107.399 69.4558 107.473 69.5428 107.517C69.6003 107.398 69.6591 107.279 69.7179 107.161C69.5807 107.19 69.4484 107.229 69.4374 107.275Z" fill="white"/>
<path d="M89.5905 63.6599C89.5795 63.6966 89.7142 63.7566 89.7816 63.8069C89.8551 63.7101 89.9286 63.6133 89.9984 63.519C89.9176 63.459 89.849 63.41 89.7816 63.3597C89.7142 63.4602 89.6223 63.5557 89.5905 63.6599Z" fill="white"/>
<path d="M69.9364 41.0336C69.9498 41.1597 70.0515 41.2822 70.1336 41.3986C70.1495 41.4207 70.3051 41.4268 70.3271 41.4047C70.5966 41.1291 71.1602 41.0103 71.1638 40.6097C71.1357 40.557 71.1099 40.5178 71.0854 40.47C70.8674 40.4627 70.6505 40.4492 70.4313 40.4468C70.1728 40.5975 69.9033 40.7396 69.9364 41.0336Z" fill="white"/>
<path d="M88.6109 63.8619C88.5276 63.8423 88.3757 63.9857 88.2557 64.0543C88.2557 64.1192 88.2557 64.1841 88.2557 64.249C88.2067 64.216 88.1136 64.216 87.9886 64.2601C87.8649 64.3042 87.784 64.4242 87.7117 64.521C87.6995 64.5381 87.8293 64.6104 87.9004 64.6619C88.018 64.592 88.1846 64.5381 88.2459 64.4475C88.3071 64.3544 88.3071 64.2858 88.2606 64.2503C88.4174 64.2098 88.5889 64.1866 88.7273 64.1229C88.8865 64.0518 88.8473 63.9158 88.6109 63.8619Z" fill="white"/>
<path d="M95.2796 55.7694C95.3531 55.6726 95.4266 55.5746 95.4965 55.4815C95.4144 55.4215 95.347 55.3725 95.2796 55.3223C95.211 55.4215 95.1204 55.517 95.0885 55.6224C95.0775 55.6591 95.2123 55.7204 95.2796 55.7694Z" fill="white"/>
<path d="M35.8076 62.6259C35.8787 62.719 35.9522 62.817 36.0244 62.9138C36.0918 62.8636 36.2266 62.8036 36.2155 62.7668C36.1837 62.6615 36.0918 62.5659 36.0244 62.4667C35.9571 62.5169 35.8885 62.5671 35.8076 62.6259Z" fill="white"/>
<path d="M45.4941 65.3698C45.6264 65.4237 45.76 65.4776 45.8874 65.529C45.9694 65.469 46.0368 65.42 46.1042 65.3698C45.9682 65.3196 45.8384 65.2534 45.6938 65.2301C45.6436 65.2216 45.5615 65.3196 45.4941 65.3698Z" fill="white"/>
<path d="M46.4593 78.5865C46.093 78.4885 45.7365 78.5069 45.4891 78.7923C45.3997 78.9896 45.4903 79.0496 45.7794 78.992C46.0379 78.9406 46.3184 78.9393 46.5622 78.8671C46.7484 78.8107 46.708 78.6527 46.4593 78.5865Z" fill="white"/>
<path d="M51.6015 61.3504C51.4655 61.3002 51.3357 61.234 51.1911 61.2107C51.1409 61.2022 51.0588 61.3002 50.9902 61.3504C51.1225 61.4043 51.2561 61.4582 51.3835 61.5096C51.4655 61.4496 51.5341 61.4006 51.6015 61.3504Z" fill="white"/>
<path d="M51.4268 113.921C51.3251 113.804 51.1414 113.833 51.0667 114.005C51.0532 114.038 51.1034 114.085 51.1671 114.136L51.5971 114.253C51.5444 114.141 51.5113 114.019 51.4268 113.921Z" fill="white"/>
<path d="M45.0032 62.3123C45.0191 62.3821 45.3156 62.4177 45.4834 62.4679C45.7811 62.4863 46.0469 62.4385 45.9857 62.1763C45.9685 62.1065 45.6782 62.0489 45.503 62.0269C45.2115 61.9889 44.9407 62.0502 45.0032 62.3123Z" fill="white"/>
<path d="M40.6064 59.5644C40.4704 59.5154 40.3406 59.448 40.196 59.4247C40.1458 59.4161 40.0637 59.5154 39.9951 59.5644C40.1274 59.6183 40.2609 59.6722 40.3883 59.7236C40.4704 59.6636 40.539 59.6146 40.6064 59.5644Z" fill="white"/>
<path d="M38.7734 60.0118C38.8408 60.0608 38.9241 60.16 38.9743 60.1514C39.1177 60.1281 39.2487 60.0608 39.3847 60.0118C39.3173 59.9615 39.234 59.8635 39.1838 59.8721C39.0405 59.8954 38.9094 59.9615 38.7734 60.0118Z" fill="white"/>
<path d="M39.3848 61.3507C39.5207 61.4009 39.6506 61.467 39.7951 61.4903C39.8454 61.4989 39.9287 61.4009 39.9961 61.3507C39.8637 61.2968 39.7302 61.2429 39.6028 61.1914C39.5207 61.2514 39.4521 61.3017 39.3848 61.3507Z" fill="white"/>
<path d="M51.6152 114.258L51.9999 114.363C51.9607 114.327 51.9215 114.29 51.87 114.271C51.7512 114.23 51.6655 114.231 51.6152 114.258Z" fill="white"/>
<path d="M40.4053 64.1695C40.4555 64.1781 40.5376 64.0789 40.6062 64.0299C40.4739 63.976 40.3403 63.9221 40.2129 63.8706C40.1308 63.9306 40.0635 63.9796 39.9961 64.0299C40.1308 64.0801 40.2619 64.1462 40.4053 64.1695Z" fill="white"/>
<path d="M41.2379 81.2252C40.841 81.2938 40.1733 81.0268 40.1072 81.4849C40.0815 81.6674 40.7307 81.9761 41.1436 82.0938C41.538 82.2052 41.8087 82.0092 41.8418 81.6466C41.8761 81.2865 41.7708 81.1223 41.2379 81.2252Z" fill="white"/>
<path d="M71.6472 51.1572C71.6153 51.0518 71.5235 50.9563 71.4561 50.8571C71.3887 50.9073 71.3201 50.9563 71.2393 51.0163C71.3103 51.1094 71.3826 51.2074 71.4561 51.3042C71.5235 51.2552 71.6582 51.1939 71.6472 51.1572Z" fill="white"/>
<path d="M63.2845 66.6721C63.2588 66.7334 63.4536 66.8449 63.5479 66.9318C63.6386 66.9318 63.7292 66.9318 63.8199 66.9318C63.7635 66.8167 63.7317 66.6893 63.6447 66.5876C63.543 66.4712 63.358 66.4994 63.2845 66.6721Z" fill="white"/>
<path d="M64.125 80.3285C64.0515 80.4253 63.978 80.5233 63.9082 80.6164C63.9903 80.6764 64.0577 80.7254 64.125 80.7756C64.1924 80.6764 64.2843 80.5808 64.3161 80.4755C64.3272 80.4387 64.1924 80.3787 64.125 80.3285Z" fill="white"/>
<path d="M64.021 83.8173C64.1643 83.7941 64.2954 83.7267 64.4314 83.6777C64.364 83.6275 64.2954 83.5785 64.2145 83.5184C64.0871 83.5699 63.9536 83.6238 63.8213 83.6777C63.8874 83.7267 63.9707 83.8247 64.021 83.8173Z" fill="white"/>
<path d="M64.2135 48.2429C64.0861 48.2944 63.9526 48.3483 63.8203 48.4022C63.8877 48.4524 63.971 48.5504 64.0212 48.5418C64.1645 48.5186 64.2956 48.4524 64.4316 48.4022C64.363 48.352 64.2944 48.3029 64.2135 48.2429Z" fill="white"/>
<path d="M64.425 67.8249C64.3797 67.8604 64.3785 67.9291 64.441 68.0209C64.501 68.1116 64.6664 68.1704 64.7987 68.2231C64.8219 68.2316 64.9212 68.1373 64.9922 68.0846C64.8967 67.9989 64.8232 67.8764 64.6982 67.8323C64.572 67.7882 64.4789 67.7882 64.4299 67.8212C64.3417 67.4819 64.7301 66.9699 63.8199 66.9319C63.9117 67.27 63.5197 67.7845 64.425 67.8249Z" fill="white"/>
<path d="M61.175 51.3875C61.0317 51.4108 60.9006 51.4781 60.7646 51.5271C60.832 51.5761 60.9006 51.6264 60.9815 51.6864C61.1089 51.6349 61.2424 51.581 61.3747 51.5271C61.3073 51.4781 61.2253 51.3801 61.175 51.3875Z" fill="white"/>
<path d="M68.707 91.2681C68.571 91.2191 68.4412 91.1517 68.2966 91.1285C68.2464 91.1199 68.1643 91.2191 68.0957 91.2681C68.228 91.322 68.3615 91.3747 68.4889 91.4274C68.571 91.3673 68.6396 91.3183 68.707 91.2681Z" fill="white"/>
<path d="M67.4854 76.0863C67.5527 76.1353 67.636 76.2345 67.6862 76.2259C67.8296 76.2026 67.9607 76.1353 68.0966 76.0863C68.028 76.036 67.9607 75.987 67.8786 75.927C67.75 75.9797 67.6177 76.0324 67.4854 76.0863Z" fill="white"/>
<path d="M60.7646 115.382C60.6286 115.331 60.4988 115.265 60.3542 115.242C60.304 115.233 60.2207 115.331 60.1533 115.382C60.2856 115.435 60.4191 115.488 60.5466 115.541C60.6299 115.481 60.6972 115.431 60.7646 115.382Z" fill="white"/>
<path d="M65.2429 108.543C65.1927 108.535 65.1094 108.634 65.042 108.683C65.1743 108.737 65.3078 108.79 65.4352 108.842C65.5173 108.782 65.5847 108.733 65.6521 108.683C65.5173 108.634 65.3862 108.567 65.2429 108.543Z" fill="white"/>
<path d="M67.9815 45.353C67.9496 45.2476 67.859 45.1521 67.7904 45.0529C67.7218 45.1019 67.5883 45.1631 67.5993 45.1999C67.6311 45.3052 67.723 45.4008 67.7904 45.5C67.8578 45.4498 67.9925 45.3897 67.9815 45.353Z" fill="white"/>
<path d="M67.2169 51.3116C67.0931 51.3557 67.0123 51.4758 66.9412 51.5726C66.929 51.5897 67.0588 51.662 67.1299 51.7134C67.2475 51.6436 67.4141 51.5897 67.4753 51.4991C67.5366 51.406 67.5366 51.3374 67.49 51.3018C67.6468 51.2614 67.8183 51.2381 67.9568 51.1744C68.1185 51.1009 68.0781 50.9649 67.8416 50.911C67.7583 50.8927 67.6064 51.0348 67.4851 51.1034C67.4851 51.1683 67.4851 51.2332 67.4851 51.2982C67.4361 51.2675 67.343 51.2675 67.2169 51.3116Z" fill="white"/>
<path d="M58.9326 63.1367C59.1739 63.2274 59.4153 63.318 59.6186 63.3952C59.8453 63.2849 59.9996 63.2114 60.154 63.1367C59.9016 63.062 59.6542 62.9493 59.3932 62.9284C59.2523 62.9174 59.087 63.0632 58.9326 63.1367Z" fill="white"/>
<path d="M55.6114 57.563C55.4877 57.6071 55.4068 57.7271 55.3358 57.8239C55.3235 57.8398 55.4534 57.9133 55.5244 57.9648C55.642 57.895 55.8086 57.841 55.8699 57.7504C55.9311 57.6573 55.9311 57.5887 55.8846 57.5532C56.0414 57.5127 56.2129 57.4895 56.3513 57.4258C56.513 57.3523 56.4726 57.2163 56.2362 57.1624C56.1529 57.144 56.0009 57.2861 55.8797 57.3547C55.8797 57.4196 55.8797 57.4846 55.8797 57.5495C55.8294 57.5189 55.7363 57.5189 55.6114 57.563Z" fill="white"/>
<path d="M50.1134 85.2482C49.9896 85.2923 49.9088 85.4123 49.8377 85.5091C49.8255 85.525 49.9553 85.5985 50.0264 85.65C50.144 85.5802 50.3106 85.5263 50.3718 85.4356C50.4331 85.3437 50.4319 85.2751 50.3865 85.2396C51.2931 85.1992 50.901 84.6847 50.9929 84.3466C50.0827 84.3845 50.4711 84.8978 50.3829 85.2359C50.3326 85.2029 50.2383 85.2028 50.1134 85.2482Z" fill="white"/>
<path d="M53.2336 98.274C53.0903 98.2972 52.9592 98.3634 52.8232 98.4136C52.8918 98.4626 52.9592 98.5128 53.0401 98.5729C53.1687 98.5214 53.301 98.4675 53.4333 98.4136C53.3672 98.3634 53.2838 98.2654 53.2336 98.274Z" fill="white"/>
<path d="M51.3474 83.9558C51.2641 83.9375 51.1122 84.0796 50.9922 84.1482C50.9922 84.2143 50.9922 84.2805 50.9922 84.3479C51.1502 84.3062 51.3242 84.2829 51.4626 84.2192C51.6243 84.1445 51.5839 84.0097 51.3474 83.9558Z" fill="white"/>
<path d="M49.7695 75.6404C49.7021 75.5914 49.6188 75.4922 49.5686 75.5008C49.4253 75.524 49.2942 75.5902 49.1582 75.6404C49.2256 75.6907 49.2942 75.7396 49.375 75.7997C49.5037 75.747 49.6372 75.6931 49.7695 75.6404Z" fill="white"/>
<path d="M55.8789 76.9793C55.9463 77.0295 56.0296 77.1275 56.0798 77.1189C56.2231 77.0957 56.3542 77.0295 56.4902 76.9793C56.4228 76.9291 56.3395 76.8311 56.2893 76.8396C56.1447 76.8629 56.0149 76.9303 55.8789 76.9793Z" fill="white"/>
<path d="M58.627 97.2964C58.5535 97.3932 58.48 97.4899 58.4102 97.5843C58.4922 97.6443 58.5596 97.6933 58.627 97.7435C58.6944 97.6443 58.7862 97.5487 58.8181 97.4434C58.8291 97.4066 58.6944 97.3466 58.627 97.2964Z" fill="white"/>
<path d="M58.0157 106.674C57.9422 106.771 57.8687 106.868 57.7988 106.962C57.8809 107.022 57.9483 107.071 58.0157 107.121C58.083 107.022 58.1749 106.926 58.2068 106.821C58.2178 106.784 58.0843 106.723 58.0157 106.674Z" fill="white"/>
<path d="M57.4063 77.6494C57.3328 77.7462 57.2593 77.843 57.1895 77.9373C57.2715 77.9973 57.3389 78.0463 57.4063 78.0965C57.4737 77.9973 57.5655 77.9018 57.5974 77.7964C57.6084 77.7597 57.4737 77.6984 57.4063 77.6494Z" fill="white"/>
<path d="M55.4685 79.7981C55.6118 79.7749 55.7429 79.7087 55.8789 79.6585C55.8115 79.6095 55.7282 79.5103 55.678 79.5188C55.5346 79.5421 55.4036 79.6095 55.2676 79.6585C55.3362 79.7087 55.4183 79.8067 55.4685 79.7981Z" fill="white"/>
<path d="M68.5061 60.3179C68.3628 60.3412 68.2317 60.4073 68.0957 60.4575C68.1631 60.5065 68.2317 60.5568 68.3125 60.6168C68.4399 60.5654 68.5735 60.5114 68.7058 60.4575C68.6396 60.4085 68.5563 60.3105 68.5061 60.3179Z" fill="white"/>
<path d="M72.6771 77.6494C72.6097 77.7486 72.5178 77.8442 72.486 77.9495C72.475 77.9863 72.6097 78.0463 72.6771 78.0965C72.7506 77.9998 72.8241 77.903 72.8939 77.8087C72.8131 77.7486 72.7457 77.6984 72.6771 77.6494Z" fill="white"/>
<path d="M86.0122 64.6165C86.1555 64.5933 86.2866 64.5271 86.4226 64.4769C86.3552 64.4279 86.2866 64.3777 86.2057 64.3176C86.0783 64.3691 85.9448 64.423 85.8125 64.4769C85.8787 64.5259 85.962 64.6251 86.0122 64.6165Z" fill="white"/>
<path d="M86.4218 61.7979C86.2859 61.7489 86.156 61.6815 86.0114 61.6582C85.9612 61.6497 85.8791 61.7489 85.8105 61.7979C85.9428 61.8518 86.0764 61.9057 86.2038 61.9571C86.2859 61.8971 86.3545 61.8469 86.4218 61.7979Z" fill="white"/>
<path d="M67.4854 59.5644C67.554 59.6134 67.6213 59.6636 67.7034 59.7236C67.8308 59.6722 67.9643 59.6183 68.0966 59.5644C68.028 59.5154 67.946 59.4161 67.8957 59.4247C67.7512 59.4492 67.6201 59.5154 67.4854 59.5644Z" fill="white"/>
<path d="M81.3342 76.8396C81.1909 76.8629 81.0598 76.9291 80.9238 76.9793C80.9912 77.0295 81.0745 77.1275 81.1247 77.1189C81.2681 77.0957 81.3991 77.0295 81.5351 76.9793C81.4677 76.9303 81.3844 76.8311 81.3342 76.8396Z" fill="white"/>
<path d="M78.7865 45.9459C78.7191 45.9961 78.5843 46.0562 78.5954 46.0929C78.6272 46.1983 78.7179 46.2938 78.7865 46.3931C78.8538 46.3441 78.9224 46.2938 79.0033 46.2338C78.9335 46.1395 78.86 46.0427 78.7865 45.9459Z" fill="white"/>
<path d="M44.2238 93.0199C43.9641 92.9574 43.708 92.8521 43.4434 92.841C43.3442 92.8361 43.2438 92.8447 43.1445 92.841C43.158 92.9831 43.169 93.1314 43.1813 93.2771C43.2156 93.2771 43.2511 93.2784 43.2854 93.2771C43.6345 93.2649 44.0474 93.3715 44.2238 93.0199Z" fill="white"/>
<path d="M77.8501 76.0704C77.8685 75.872 78.0045 75.6147 77.6541 75.4996C77.5708 75.4726 77.2842 75.5939 77.2793 75.6564C77.2633 75.8548 77.131 76.0962 77.4875 76.2456C77.6076 76.1905 77.844 76.1366 77.8501 76.0704Z" fill="white"/>
<path d="M70.5391 83.2306C70.6064 83.2796 70.6897 83.3789 70.74 83.3703C70.8833 83.347 71.0144 83.2809 71.1503 83.2306C71.0817 83.1804 70.9997 83.0824 70.9494 83.091C70.8049 83.1143 70.675 83.1816 70.5391 83.2306Z" fill="white"/>
<path d="M48.7631 46.9224C48.4128 47.0376 48.5475 47.2948 48.5671 47.4933C48.5732 47.5594 48.8097 47.6133 48.9297 47.6685C49.2874 47.519 49.1551 47.2777 49.1392 47.0792C49.1331 47.0168 48.8464 46.8955 48.7631 46.9224Z" fill="white"/>
<path d="M71.1504 50.1883C71.2178 50.2385 71.2864 50.2875 71.3672 50.3475C71.4946 50.2961 71.6282 50.2422 71.7605 50.1883C71.6931 50.1381 71.6098 50.04 71.5595 50.0486C71.4162 50.0719 71.2851 50.1381 71.1504 50.1883Z" fill="white"/>
<path d="M69.2299 62.18C69.1478 62.12 69.0804 62.071 69.013 62.0208C68.9444 62.12 68.8538 62.2155 68.8219 62.3209C68.8109 62.3576 68.9457 62.4177 69.013 62.4679C69.0853 62.3699 69.1588 62.2731 69.2299 62.18Z" fill="white"/>
<path d="M71.1705 90.3591C71.1766 90.4253 71.4131 90.4792 71.5331 90.5343C71.8908 90.3848 71.7585 90.1435 71.7426 89.945C71.7377 89.8838 71.4511 89.7613 71.3678 89.7882C71.0162 89.9034 71.1509 90.1607 71.1705 90.3591Z" fill="white"/>
<path d="M72.486 91.638C72.5178 91.7433 72.6097 91.8389 72.6771 91.9381C72.7445 91.8879 72.8792 91.8279 72.8682 91.7911C72.8363 91.6857 72.7445 91.5902 72.6771 91.491C72.6097 91.5412 72.475 91.6012 72.486 91.638Z" fill="white"/>
<path d="M72.6771 51.7513C72.6097 51.8003 72.475 51.8616 72.486 51.8983C72.5178 52.0037 72.6097 52.0992 72.6771 52.1985C72.7457 52.1482 72.8131 52.0992 72.8939 52.0392C72.8241 51.9449 72.7506 51.8481 72.6771 51.7513Z" fill="white"/>
<path d="M75.7828 41.0888C75.6995 41.0704 75.5476 41.2125 75.4275 41.2811C75.4275 41.346 75.4275 41.411 75.4275 41.4759C75.3785 41.4428 75.2854 41.4428 75.1605 41.4869C75.0368 41.531 74.9559 41.6511 74.8836 41.7478C74.8714 41.7638 75.0012 41.8373 75.0723 41.8887C75.1899 41.8189 75.3565 41.765 75.4177 41.6743C75.479 41.5812 75.479 41.5126 75.4324 41.4771C75.5892 41.4367 75.7607 41.4134 75.8992 41.3497C76.0584 41.2787 76.0192 41.1439 75.7828 41.0888Z" fill="white"/>
<path d="M73.3389 42.8748C73.2556 42.8564 73.1037 42.9985 72.9824 43.0671C72.9824 43.1333 72.9824 43.1994 72.9824 43.2668C73.1404 43.2251 73.3144 43.2019 73.4528 43.1382C73.6145 43.0647 73.5753 42.9299 73.3389 42.8748Z" fill="white"/>
<path d="M72.3721 43.7089C72.3231 43.6759 72.23 43.6758 72.1038 43.72C71.9801 43.7641 71.8993 43.8841 71.827 43.9809C71.8147 43.998 71.9446 44.0703 72.0156 44.1218C72.1332 44.0519 72.2998 43.998 72.3611 43.9074C72.4223 43.8155 72.4211 43.7469 72.3758 43.7114C72.7947 43.7212 72.9969 43.573 72.9822 43.2655C72.562 43.2557 72.3599 43.4027 72.3721 43.7089Z" fill="white"/>
<path d="M38.0835 109.25C39.1358 101.157 37.5089 91.2965 34.5407 83.7283C30.8216 74.2467 27.4834 65.3971 30.0645 55.0543C35.4203 33.5882 63.6766 26.8457 82.7171 30.8221C91.6108 32.6805 100.794 37.2963 105.255 45.5959C110.847 56.0012 107.305 68.4523 101.575 77.9389C96.2352 86.7811 88.9268 92.1565 81.8204 99.2873C76.2368 104.891 72.0484 111.62 69.2664 119.008C68.758 120.358 70.8822 120.899 71.4077 119.598C75.0154 110.67 80.4349 103.287 87.7201 97.0247C94.4639 91.2279 100.192 85.142 104.574 77.3251C111.742 64.5384 113.715 48.15 101.948 37.3711C81.8069 18.921 34.8102 25.2127 27.9391 54.4675C26.1359 62.1422 26.9517 70.318 29.7141 77.6596C31.5786 82.6135 33.8841 87.2086 34.9131 92.448C36.0095 98.028 36.2325 103.81 37.7454 109.296C37.8005 109.498 38.0602 109.432 38.0835 109.25Z" fill="#3D3D3D"/>
<path d="M72.7308 114.225C74.6382 115.193 79.3202 116.772 80.2157 118.781C81.3096 121.235 79.1021 120.783 77.2769 120.424C70.3665 119.065 63.4807 116.37 56.634 114.599C50.0949 112.907 43.5336 111.301 37.0251 109.496C36.7691 109.425 29.6333 107.796 29.7669 106.636C29.8869 105.589 36.1468 106.369 36.932 106.406C38.3922 106.476 38.6801 104.226 37.275 103.868C34.6841 103.21 23.4935 101.956 26.9285 107.959C28.2172 110.212 31.711 111.059 33.9356 111.725C41.5393 114.005 49.3427 115.689 57.0518 117.564C63.7551 119.194 70.6642 121.921 77.4557 122.97C79.0421 123.215 81.2876 123.409 82.553 122.151C86.9435 117.783 75.7015 113.554 73.3715 112.704C72.4883 112.38 71.8917 113.8 72.7308 114.225Z" fill="#3D3D3D"/>
<path d="M31.7366 108.434C27.1648 110.907 26.2987 116.324 29.4862 120.293C29.5634 119.694 29.6406 119.096 29.7178 118.498C25.7218 120.35 25.2844 124.971 27.6365 128.4C31.521 134.062 40.629 137.066 46.8252 139.243C52.8988 141.376 62.3707 144.9 68.9087 142.728C73.1301 141.325 75.427 137.177 73.304 133.12C72.9488 133.738 72.5935 134.358 72.2383 134.977C78.6586 134.118 83.2059 125.767 77.7251 120.823C76.8541 120.037 75.2702 121.074 76.0113 122.145C78.8326 126.224 77.4471 131.804 71.91 132.553C71.0745 132.665 70.8466 133.746 71.1725 134.366C70.6163 136.189 70.0602 138.01 69.504 139.833C67.8355 140.577 66.1303 140.866 64.3883 140.699C62.5741 140.659 60.7353 140.283 58.9529 139.962C55.4065 139.325 51.909 138.395 48.4949 137.248C44.837 136.021 41.2636 134.519 37.8397 132.739C36.5669 132.077 35.2708 131.406 34.058 130.64C31.9743 129.326 23.7054 123.898 30.873 120.472C31.5957 120.126 31.5308 119.195 31.1045 118.677C28.8737 115.167 29.4458 112.37 32.8195 110.287C34.0262 109.614 32.9506 107.779 31.7366 108.434Z" fill="#3D3D3D"/>
<path d="M29.9524 119.106C42.3533 128.571 56.9457 133.767 72.5292 134.448C74.0936 134.517 74.0899 132.085 72.5292 132.017C57.3794 131.355 43.1287 126.543 30.5894 118.015C29.9034 117.549 29.3227 118.626 29.9524 119.106Z" fill="#3D3D3D"/>
<path d="M34.7412 132.211C33.7146 138.174 36.9683 144.352 42.917 146.323C48.715 148.244 57.3735 145.7 62.3691 142.599C63.3736 141.976 62.7391 140.272 61.5434 140.64C57.2032 141.979 53.2096 143.927 48.6207 144.424C41.5829 145.188 35.3513 139.753 36.0569 132.39C36.1279 131.644 34.8686 131.466 34.7412 132.211Z" fill="#3D3D3D"/>
<path d="M47.5231 113.632C59.8077 98.2044 45.4921 77.7294 51.1431 60.5521C52.0998 57.6452 53.8541 54.2457 56.6373 52.6961C62.1046 49.6519 67.8193 55.2625 70.5266 59.6615C73.4948 64.4844 74.3597 72.1139 69.9325 76.4443C67.9859 78.3492 63.5084 80.308 61.2324 77.7723C57.8697 74.0237 63.7865 65.8124 66.3431 63.6294C68.803 61.5285 72.3849 60.4676 75.5039 59.6542C80.9956 58.2234 87.2861 58.548 88.7672 65.391C89.806 70.1881 86.567 74.4733 83.4395 77.7147C72.9044 88.6333 58.3805 98.8267 58.7284 115.671C58.7603 117.22 61.1454 117.227 61.1405 115.671C61.0927 102.109 71.5728 92.0413 80.8596 83.422C85.5123 79.1038 91.3973 74.1278 91.3495 67.1721C91.2392 50.9137 68.6744 56.1751 62.2528 64.8164C59.5798 68.4143 55.5213 76.1087 60.2303 79.8425C63.5697 82.491 68.8079 80.7601 71.5323 78.0467C76.9126 72.6872 75.9988 63.6098 72.0321 57.764C68.7564 52.9362 62.6313 47.355 56.369 50.1688C49.4121 53.2951 47.8282 62.348 47.5648 69.0329C46.9952 83.5188 55.0276 99.5801 46.5738 112.902C46.2173 113.468 47.0907 114.175 47.5231 113.632Z" fill="#3D3D3D"/>
<path d="M34.2889 124.95C43.9127 131.784 55.4499 136.562 67.5066 135.844C68.4523 135.788 68.4315 134.479 67.5066 134.389C55.6447 133.257 44.7604 131.064 34.4041 124.752C34.2767 124.674 34.1701 124.866 34.2889 124.95Z" fill="#3D3D3D"/>
<path d="M56.8754 126.716C52.2485 125.051 47.6216 123.213 43.1748 121.117C39.6786 119.47 36.4237 117.283 32.8319 115.877C32.2942 115.666 31.8286 116.487 32.2635 116.853C38.8002 122.345 48.5686 125.304 56.748 127.177C57.0518 127.246 57.1633 126.818 56.8754 126.716Z" fill="#3D3D3D"/>
<path d="M79.0955 19.2959C79.708 13.3656 80.3278 7.45854 81.3115 1.57354C81.5749 -0.00183959 79.1714 -0.685404 78.8933 0.907123C77.8361 6.98445 77.035 13.123 76.8745 19.2959C76.8377 20.7512 78.9509 20.6888 79.0955 19.2959Z" fill="#3D3D3D"/>
<path d="M104.205 25.077C106.005 22.0451 107.932 18.8857 108.88 15.4667C109.149 14.5014 107.809 13.9648 107.289 14.7954C105.448 17.7379 104.103 20.9879 102.354 23.9953C101.658 25.1897 103.5 26.2628 104.205 25.077Z" fill="#3D3D3D"/>
<path d="M119.7 47.6477C124.79 46.1728 129.878 44.5202 134.513 41.9207C135.578 41.3229 134.865 39.494 133.666 39.9092C128.757 41.6108 123.984 43.6162 119.003 45.1193C117.393 45.6056 118.072 48.1193 119.7 47.6477Z" fill="#3D3D3D"/>
<path d="M119.577 79.725C124.628 79.9125 129.021 81.5699 133.878 82.61C134.891 82.8268 135.382 81.5663 134.564 80.9831C130.372 77.9953 124.599 77.3644 119.577 77.3522C118.046 77.3485 118.054 79.6687 119.577 79.725Z" fill="#3D3D3D"/>
<path d="M98.343 101.089C103.533 105.799 108.117 111.072 112.423 116.592C113.203 117.59 114.884 116.288 114.183 115.235C110.216 109.286 105.35 104.147 99.8988 99.5323C98.8306 98.6282 97.2822 100.126 98.343 101.089Z" fill="#3D3D3D"/>
<path d="M23.5751 88.6137C17.7966 90.3251 10.5641 92.4297 6.05114 96.5948C5.56848 97.0394 6.07074 97.8933 6.69427 97.6985C9.36604 96.8667 11.7757 95.3428 14.3139 94.1778C17.4892 92.72 20.7526 91.5085 24.0847 90.4598C25.2533 90.0911 24.7621 88.2622 23.5751 88.6137Z" fill="#3D3D3D"/>
<path d="M17.9071 69.5499C12.6419 68.7537 6.49355 67.1121 1.18921 67.8851C0.368448 68.0052 0.603652 69.0869 1.18921 69.3245C6.10155 71.3164 12.4043 71.1461 17.6265 71.6178C18.7964 71.7231 19.0831 69.7276 17.9071 69.5499Z" fill="#3D3D3D"/>
<path d="M25.2084 41.8485C22.4643 40.0135 19.7117 38.1821 17.0117 36.2833C14.3804 34.4335 11.8397 31.9736 8.91068 30.6457C8.06174 30.2611 7.35857 31.1835 7.93678 31.9087C9.87477 34.3416 12.9018 36.0615 15.456 37.7949C18.3531 39.7611 21.3091 41.5839 24.3864 43.2536C25.3149 43.7559 26.0744 42.428 25.2084 41.8485Z" fill="#3D3D3D"/>
<path d="M49.7406 21.1175C47.4854 15.0316 45.2766 8.87828 42.5644 2.97735C42.0083 1.76703 39.9319 2.62822 40.3949 3.89244C42.6306 9.98814 45.4065 15.9062 48.0954 21.8108C48.5144 22.7296 50.0959 22.0754 49.7406 21.1175Z" fill="#3D3D3D"/>
<path d="M91.1442 85.0893C101.154 77.1843 107.192 62.2794 101.572 50.1677C96.0541 38.2764 80.9913 31.8695 68.6112 36.5038C67.6986 36.8456 67.7267 38.443 68.8599 38.3462C80.6678 37.3331 92.8433 39.0151 98.8459 50.7128C104.498 61.727 98.6634 76.1614 90.2916 84.2367C89.7171 84.7892 90.5513 85.5573 91.1442 85.0893Z" fill="#3D3D3D"/>
</svg>
