<svg width="79" height="50" viewBox="0 0 79 50" fill="none" xmlns="http://www.w3.org/2000/svg">
<g id="Group 70">
<g id="Group 68">
<g id="Group 64">
<ellipse id="Ellipse 2102" cx="2" cy="2.00156" rx="2" ry="2.00156" fill="white" fill-opacity="0.39"/>
<ellipse id="Ellipse 2103" cx="17" cy="2.00156" rx="2" ry="2.00156" fill="white" fill-opacity="0.39"/>
<ellipse id="Ellipse 2104" cx="32" cy="2.00156" rx="2" ry="2.00156" fill="white" fill-opacity="0.39"/>
</g>
<g id="Group 65">
<ellipse id="Ellipse 2102_2" cx="2" cy="17.0133" rx="2" ry="2.00156" fill="white" fill-opacity="0.39"/>
<ellipse id="Ellipse 2103_2" cx="17" cy="17.0133" rx="2" ry="2.00156" fill="white" fill-opacity="0.39"/>
<ellipse id="Ellipse 2104_2" cx="32" cy="17.0133" rx="2" ry="2.00156" fill="white" fill-opacity="0.39"/>
</g>
<g id="Group 66">
<ellipse id="Ellipse 2102_3" cx="2" cy="32.025" rx="2" ry="2.00156" fill="white" fill-opacity="0.39"/>
<ellipse id="Ellipse 2103_3" cx="17" cy="32.025" rx="2" ry="2.00156" fill="white" fill-opacity="0.39"/>
<ellipse id="Ellipse 2104_3" cx="32" cy="32.025" rx="2" ry="2.00156" fill="white" fill-opacity="0.39"/>
</g>
<g id="Group 67">
<ellipse id="Ellipse 2102_4" cx="2" cy="47.0367" rx="2" ry="2.00156" fill="white" fill-opacity="0.39"/>
<ellipse id="Ellipse 2103_4" cx="17" cy="47.0367" rx="2" ry="2.00156" fill="white" fill-opacity="0.39"/>
<ellipse id="Ellipse 2104_4" cx="32" cy="47.0367" rx="2" ry="2.00156" fill="white" fill-opacity="0.39"/>
</g>
</g>
<g id="Group 69">
<g id="Group 64_2">
<ellipse id="Ellipse 2102_5" cx="47" cy="2.00156" rx="2" ry="2.00156" fill="white" fill-opacity="0.39"/>
<ellipse id="Ellipse 2103_5" cx="62" cy="2.00156" rx="2" ry="2.00156" fill="white" fill-opacity="0.39"/>
<ellipse id="Ellipse 2104_5" cx="77" cy="2.00156" rx="2" ry="2.00156" fill="white" fill-opacity="0.39"/>
</g>
<g id="Group 65_2">
<ellipse id="Ellipse 2102_6" cx="47" cy="17.0133" rx="2" ry="2.00156" fill="white" fill-opacity="0.39"/>
<ellipse id="Ellipse 2103_6" cx="62" cy="17.0133" rx="2" ry="2.00156" fill="white" fill-opacity="0.39"/>
<ellipse id="Ellipse 2104_6" cx="77" cy="17.0133" rx="2" ry="2.00156" fill="white" fill-opacity="0.39"/>
</g>
<g id="Group 66_2">
<ellipse id="Ellipse 2102_7" cx="47" cy="32.025" rx="2" ry="2.00156" fill="white" fill-opacity="0.39"/>
<ellipse id="Ellipse 2103_7" cx="62" cy="32.025" rx="2" ry="2.00156" fill="white" fill-opacity="0.39"/>
<ellipse id="Ellipse 2104_7" cx="77" cy="32.025" rx="2" ry="2.00156" fill="white" fill-opacity="0.39"/>
</g>
<g id="Group 67_2">
<ellipse id="Ellipse 2102_8" cx="47" cy="47.0367" rx="2" ry="2.00156" fill="white" fill-opacity="0.39"/>
<ellipse id="Ellipse 2103_8" cx="62" cy="47.0367" rx="2" ry="2.00156" fill="white" fill-opacity="0.39"/>
<ellipse id="Ellipse 2104_8" cx="77" cy="47.0367" rx="2" ry="2.00156" fill="white" fill-opacity="0.39"/>
</g>
</g>
</g>
</svg>
