<svg width="1920" height="225" viewBox="0 0 1920 225" fill="none" xmlns="http://www.w3.org/2000/svg">
<path fill-rule="evenodd" clip-rule="evenodd" d="M1197.55 224H0V101.69C0 101.69 104.5 209.211 232.5 209.211C295.181 209.211 360.74 183.427 427.65 157.112C497.375 129.689 568.568 101.69 639.5 101.69C698.995 101.69 776.902 125.786 863.615 152.605C967.772 184.82 1084.63 220.965 1197.55 224ZM1227.51 224C1217.56 224.278 1207.57 224.269 1197.55 224H1227.51ZM1920 67.1825V224H1227.51C1230.18 223.925 1232.84 223.83 1235.5 223.714C1345.49 218.909 1434 155.655 1515.06 97.7254C1594.29 41.1036 1666.4 -10.4318 1744.5 2.66951C1902.5 29.1749 1920 67.1825 1920 67.1825Z" fill="white"/>
</svg>