<svg width="117" height="135" viewBox="0 0 117 135" fill="none" xmlns="http://www.w3.org/2000/svg">
<circle cx="58.6985" cy="76.6209" r="52.7923" stroke="#FFCD20" stroke-width="10"/>
<path d="M60.2721 35.1797C57.2797 38.2469 52.9537 39.9984 49.4218 36.5078C45.4109 32.5455 48.172 27.724 50.2931 23.667C50.6757 22.9356 49.8223 21.8055 49.035 22.4104C48.9937 22.442 48.9566 22.4791 48.9153 22.5121C48.4528 21.8068 47.6022 21.437 46.6965 22.0845C43.8019 24.1536 38.4766 29.4714 35.4416 24.5413C32.9668 20.52 36.1697 15.9446 37.9453 12.3866C38.3747 11.526 37.4759 10.5718 36.6872 10.9265C36.1642 10.3835 35.2819 10.1209 34.5483 10.4935C31.037 12.2807 26.8417 17.2026 23.0993 12.7619C19.9487 9.02243 22.8612 4.79487 25.8796 2.16897C26.594 1.54755 25.8342 0.362451 24.9726 0.612668C18.8888 2.38481 16.2255 9.98616 20.1028 15.0771C23.2631 19.2263 28.4453 19.0132 32.5222 16.6857C30.8636 20.2327 30.4823 24.2265 33.1898 27.5467C36.2784 31.3371 40.9472 30.651 44.7186 28.3991C43.4495 32.1138 44.0359 36.2933 47.192 39.3797C51.6956 43.7847 60.0876 43.232 63.241 37.4674C64.2513 35.621 61.8068 33.6055 60.2721 35.1797Z" fill="#011C1A"/>
</svg>
