<svg width="108" height="121" viewBox="0 0 108 121" fill="none" xmlns="http://www.w3.org/2000/svg">
<path d="M-8.93508 114.749C-22.8097 114.144 -37.1689 110.23 -46.7455 99.5669C-55.7611 89.5271 -57.8395 73.5754 -57.1496 60.5534C-55.5095 29.5701 -23.3869 19.8721 2.6534 18.6151C22.8394 17.6411 68.3609 17.8164 69.3237 47.0931C69.8934 64.4346 50.8942 64.1817 38.517 64.2079C31.9064 64.2217 20.8951 65.8168 22.8144 75.1342C23.339 77.6845 25.1732 79.8442 26.3939 82.0677C28.2581 85.4619 29.6278 89.1065 30.4416 92.8938C32.0692 100.472 31.9227 110.615 22.9208 113.084C15.9546 114.994 7.70152 114.58 0.522545 114.486C-8.22518 114.371 -16.9166 113.551 -25.5466 112.128C-29.0798 111.546 -30.5997 116.953 -27.039 117.539C-11.0773 120.169 6.53088 121.863 22.5703 118.878C35.1867 116.53 38.1439 104.709 36.2346 93.4209C35.6211 89.7951 34.5519 86.2795 33.0583 82.9178C31.5822 79.5938 26.3738 73.951 30.9674 70.5844C33.6542 68.615 40.2209 69.847 43.3522 69.8733C47.6804 69.9096 52.0298 69.8695 56.2903 69.0094C67.9703 66.6481 75.8779 57.5636 74.8287 45.4155C72.167 14.5962 29.2797 12.1924 6.30173 12.8597C-21.1696 13.6572 -56.6075 22.2847 -62.06 54.2045C-64.5677 68.8842 -62.2177 88.3979 -53.0781 100.541C-42.6489 114.398 -25.6581 119.457 -8.9376 119.392C-5.93531 119.381 -5.95783 114.879 -8.93508 114.749Z" fill="#6FC081" fill-opacity="0.42"/>
<path d="M96.6997 19.494C85.8987 8.52651 70.5429 3.25182 55.5941 1.2311C38.2063 -1.12016 19.2435 -0.169872 2.32523 4.65534C-11.9551 8.72809 -25.4955 16.7759 -33.4958 29.6127C-42.2084 43.5925 -41.4209 61.4861 -34.9606 76.2372C-28.4903 91.0108 -15.0187 100.2 0.280716 104.138C14.4872 107.795 33.5075 109.137 44.5089 97.57C44.6916 97.3784 44.6603 97.1468 44.5401 96.9803C47.6275 93.3996 48.5715 88.831 45.7207 84.6343C41.8045 78.8689 34.4477 77.985 28.2441 76.5101C25.5999 75.8816 22.8066 75.1855 20.4617 73.7582C17.1063 71.7162 13.6157 67.1577 14.6874 62.9322C15.8418 58.3812 21.4508 56.2815 25.5498 56.0975C28.7136 55.956 31.9337 56.572 35.0324 57.0941C44.9984 58.7755 54.7089 61.7027 64.686 63.334C77.2937 65.3948 94.8743 66.2525 103.731 54.8931C112.454 43.7052 105.397 28.3256 96.6997 19.494ZM87.952 62.698C71.1589 66.2938 53.9176 59.7108 37.5727 56.6083C30.3449 55.2361 11.2833 53.0038 13.6495 66.2475C14.5572 71.3231 19.1871 74.6071 23.7119 76.2484C27.9086 77.7709 32.4646 77.9987 36.6738 79.4773C44.0519 82.0702 50.2605 89.5872 43.4234 96.8263C43.2543 97.0041 43.2693 97.2169 43.367 97.3809C32.7675 107.94 14.9053 106.752 1.43505 103.467C-13.1921 99.9 -26.4683 91.5767 -33.2367 77.7471C-40.7737 62.3488 -41.5374 43.0266 -31.6691 28.5322C-22.5796 15.1796 -7.58315 7.68892 7.8177 4.22714C36.2669 -2.16808 76.1106 -1.85881 97.2957 21.4885C103.206 28.0026 107.855 36.9469 106.447 45.9726C104.949 55.5617 96.8612 60.79 87.952 62.698Z" fill="#3C3C3B"/>
</svg>
