<svg width="79" height="49" viewBox="0 0 79 49" fill="none" xmlns="http://www.w3.org/2000/svg">
<circle cx="2" cy="2" r="2" fill="#6FC081"/>
<circle cx="17" cy="2" r="2" fill="#6FC081"/>
<circle cx="32" cy="2" r="2" fill="#6FC081"/>
<circle cx="2" cy="17" r="2" fill="#6FC081"/>
<circle cx="17" cy="17" r="2" fill="#6FC081"/>
<circle cx="32" cy="17" r="2" fill="#6FC081"/>
<circle cx="2" cy="32" r="2" fill="#6FC081"/>
<circle cx="17" cy="32" r="2" fill="#6FC081"/>
<circle cx="32" cy="32" r="2" fill="#6FC081"/>
<circle cx="2" cy="47" r="2" fill="#6FC081"/>
<circle cx="17" cy="47" r="2" fill="#6FC081"/>
<circle cx="32" cy="47" r="2" fill="#6FC081"/>
<circle cx="47" cy="2" r="2" fill="#6FC081"/>
<circle cx="62" cy="2" r="2" fill="#6FC081"/>
<circle cx="77" cy="2" r="2" fill="#6FC081"/>
<circle cx="47" cy="17" r="2" fill="#6FC081"/>
<circle cx="62" cy="17" r="2" fill="#6FC081"/>
<circle cx="77" cy="17" r="2" fill="#6FC081"/>
<circle cx="47" cy="32" r="2" fill="#6FC081"/>
<circle cx="62" cy="32" r="2" fill="#6FC081"/>
<circle cx="77" cy="32" r="2" fill="#6FC081"/>
<circle cx="47" cy="47" r="2" fill="#6FC081"/>
<circle cx="62" cy="47" r="2" fill="#6FC081"/>
<circle cx="77" cy="47" r="2" fill="#6FC081"/>
</svg>
