<svg width="112" height="107" viewBox="0 0 112 107" fill="none" xmlns="http://www.w3.org/2000/svg">
<path d="M109.926 5.6231C107.097 2.746 102.671 7.17433 105.499 10.0489C104.578 9.11242 99.9242 12.5154 98.3855 12.9498C96.351 13.5257 94.2589 13.7023 92.1555 13.7423C87.0135 13.8412 81.9342 12.6794 76.7972 12.6243C69.4855 12.5467 64.5615 15.6216 65.3077 23.4441C65.667 27.2013 66.9202 30.7269 68.3988 34.1637C70.2481 38.4606 71.952 43.3008 65.6081 44.514C63.5987 44.8983 61.2449 44.047 59.2517 43.8291C52.7964 43.1217 46.3686 44.8846 44.2853 51.7155C41.6874 60.2341 47.5368 66.6318 50.0295 74.2127C50.7006 76.2534 51.2527 78.5884 50.663 80.7393C49.1669 86.2006 44.4969 84.8384 40.3215 84.1598C35.5188 83.3798 30.6861 82.6837 25.8158 82.5222C18.926 82.2931 11.3239 83.6966 8.62211 90.9569C6.30466 97.1844 9.35452 103.496 15.0749 106.442C18.6506 108.283 21.8206 102.883 18.2336 101.037C14.8532 99.2952 12.7061 95.5643 15.0724 91.946C16.8753 89.1891 20.9493 88.8072 23.8289 88.7271C29.528 88.5681 35.3373 89.6461 40.9112 90.6226C47.3089 91.7432 53.1081 91.1697 55.9389 84.6105C58.9324 77.6744 55.5771 71.2041 52.5798 64.9579C50.7682 61.1844 47.5806 54.0304 52.2543 50.6726C55.8538 48.0872 62.8637 51.1433 67.1756 50.6738C72.8096 50.0603 77.4495 46.3694 77.0589 40.2672C76.7835 35.9666 74.0378 32.1893 72.7332 28.1929C72.2274 26.6417 70.9954 23.5117 71.4199 21.8227C72.5004 17.5183 78.2896 18.9206 81.1817 19.156C88.894 19.7832 96.8643 21.1041 104.092 17.4457C108.032 15.4551 114.342 10.1128 109.926 5.6231Z" fill="#F39200"/>
<path d="M97.4466 0.233032C90.5606 12.9496 77.4834 -0.678424 67.9807 1.27219C61.8434 2.5317 59.5247 9.21738 60.1945 14.7725C60.4574 16.961 61.3727 18.8102 61.901 20.9061C62.5008 23.2886 63.8517 28.2841 62.4982 30.6629C59.7764 35.4493 50.2549 32.5522 45.9493 33.4123C40.2827 34.5441 36.7884 39.2979 36.0284 44.8819C34.7727 54.1166 41.4784 59.4689 44.2917 67.4066C48.0464 77.9998 36.5055 76.4886 30.3531 76.277C25.3577 76.1055 20.3384 75.7712 15.3392 75.805C9.19184 75.8451 3.63545 77.5265 1.11768 83.6563C-1.82327 90.8127 1.56084 98.2045 5.24422 104.348C5.55472 104.865 6.36728 104.394 6.05553 103.874C2.80158 98.4474 -0.324662 92.1937 1.43565 85.6645C3.32867 78.6445 9.72765 76.7177 16.2506 76.744C24.0067 76.7741 33.0487 78.8123 40.6646 77.1446C44.9514 76.2057 47.1725 73.0907 45.9405 68.7375C44.9589 65.2669 42.3072 62.3135 40.5969 59.216C37.4306 53.4818 35.1946 46.4794 38.426 40.2244C43.5918 30.2234 54.5054 37.5426 61.9286 32.3218C65.8386 29.5724 65.0936 26.316 63.5812 22.4635C60.937 15.7278 58.4367 2.38772 69.9789 2.06471C75.5829 1.90821 80.8788 5.91962 86.464 6.35406C91.3568 6.73467 95.854 5.14087 98.2566 0.703784C98.5445 0.17544 97.7345 -0.299068 97.4466 0.233032Z" fill="#3C3C3B"/>
</svg>
