<svg width="706" height="516" viewBox="0 0 706 516" fill="none" xmlns="http://www.w3.org/2000/svg">
<path d="M342.827 283.123C421.009 283.123 484.389 219.744 484.389 141.561C484.389 63.3792 421.009 0 342.827 0C264.645 0 201.266 63.3792 201.266 141.561C201.266 219.744 264.645 283.123 342.827 283.123Z" fill="#EE9730"/>
<path d="M705.51 377.227L672.979 377.156L624.882 377.049L526.902 376.829C526.902 376.829 526.923 376.819 526.957 376.803L625.365 322.192L705.51 377.227Z" fill="#EDB188"/>
<path d="M705.51 377.227L672.978 377.156C663.365 358.806 635.241 348.435 627.407 343.325C617.631 336.938 625.364 322.192 625.364 322.192L705.51 377.227Z" fill="#EFBE97"/>
<path d="M624.882 377.051L526.902 376.831C526.902 376.831 526.923 376.821 526.957 376.804C528.232 376.228 552.537 365.424 571.219 369.417C587.755 372.951 616.199 370.577 624.882 377.051Z" fill="#E8A577"/>
<path d="M365.615 377.227L299.024 377.083L200.567 376.866L0 376.413C0 376.413 0.0411495 376.395 0.110362 376.359L201.553 264.572L365.615 377.227Z" fill="#EDB188"/>
<path d="M365.616 377.227L299.025 377.083C279.348 339.518 221.775 318.288 205.738 307.828C185.727 294.756 201.555 264.571 201.555 264.571L365.616 377.227Z" fill="#EFBE97"/>
<path d="M200.567 376.866L0 376.413C0 376.413 0.0411495 376.395 0.110362 376.359C2.72358 375.181 52.472 353.063 90.7145 361.239C124.568 368.471 182.794 363.613 200.567 376.866Z" fill="#E8A577"/>
<path d="M617.234 377.227L570.903 377.126L502.402 376.975L362.855 376.658C362.855 376.658 362.885 376.645 362.932 376.621L503.086 298.845L617.234 377.227Z" fill="#EFBE97"/>
<path d="M617.232 377.227L570.902 377.126C557.211 350.99 517.154 336.22 505.998 328.941C492.075 319.847 503.087 298.845 503.087 298.845L617.232 377.227Z" fill="#F5CDA9"/>
<path d="M502.402 376.976L362.855 376.66C362.855 376.66 362.885 376.647 362.932 376.623C364.75 375.804 399.364 360.414 425.971 366.103C449.526 371.136 490.035 367.754 502.402 376.976Z" fill="#EDB188"/>
<path d="M600.821 262.23C591.182 262.479 583.621 270.646 583.621 280.289V377.506H618.955V279.891C618.955 269.978 610.791 261.974 600.821 262.23Z" fill="#D3573B"/>
<path d="M601.288 262.225C595.749 262.225 591.258 270.134 591.258 279.891V377.506H611.318V279.891C611.318 270.134 606.827 262.225 601.288 262.225Z" fill="#F46640"/>
<path d="M601.283 262.225C599.207 262.225 597.523 270.134 597.523 279.891V377.506H605.043V279.891C605.043 270.134 603.36 262.225 601.283 262.225Z" fill="#F46640"/>
<path d="M594.071 275.405L591.765 277.429L591.297 273.089H591.293L590.826 277.433L588.516 275.405L590.676 278.811H590.678L591.292 279.779V279.771L591.295 279.779L591.915 278.811V278.804L594.071 275.405Z" fill="#F9A42D"/>
<path d="M614.065 275.405L611.759 277.429L611.291 273.089H611.288L610.82 277.433L608.508 275.405L610.67 278.811H610.672L611.284 279.779V279.771L611.289 279.779L611.909 278.811L611.907 278.804L614.065 275.405Z" fill="#F9A42D"/>
<path d="M604.067 282.094L601.761 284.118L601.293 279.779H601.29L600.822 284.122L598.512 282.094L600.672 285.499L600.674 285.501L601.288 286.466V286.46L601.291 286.466L601.911 285.499L601.909 285.493L604.067 282.094Z" fill="#F9A42D"/>
<path d="M604.067 298.75L601.761 300.774L601.293 296.434H601.29L600.822 300.778L598.512 298.75L600.672 302.156L600.674 302.158L601.288 303.124V303.116L601.291 303.124L601.911 302.156L601.909 302.149L604.067 298.75Z" fill="#F9A42D"/>
<path d="M604.067 315.408L601.761 317.432L601.293 313.092H601.29L600.822 317.436L598.512 315.408L600.672 318.812L600.674 318.814L601.288 319.781V319.774L601.291 319.781L601.911 318.812L601.909 318.807L604.067 315.408Z" fill="#F9A42D"/>
<path d="M594.071 290.864L591.765 292.888L591.297 288.548H591.293L590.826 292.891L588.516 290.864L590.676 294.27H590.678L591.292 295.237V295.23L591.295 295.237L591.915 294.27V294.263L594.071 290.864Z" fill="#F9A42D"/>
<path d="M614.065 290.864L611.759 292.888L611.291 288.548H611.288L610.82 292.891L608.508 290.864L610.67 294.27H610.672L611.284 295.237V295.23L611.289 295.237L611.909 294.27L611.907 294.263L614.065 290.864Z" fill="#F9A42D"/>
<path d="M594.071 306.322L591.765 308.346L591.297 304.007H591.293L590.826 308.35L588.516 306.322L590.676 309.727L590.678 309.729L591.292 310.696V310.688L591.295 310.696L591.915 309.727V309.721L594.071 306.322Z" fill="#F9A42D"/>
<path d="M614.065 306.322L611.759 308.346L611.291 304.007H611.288L610.82 308.35L608.508 306.322L610.67 309.727L610.672 309.729L611.284 310.696V310.688L611.289 310.696L611.909 309.727L611.907 309.721L614.065 306.322Z" fill="#F9A42D"/>
<path d="M568.88 288.77V282.532C568.88 278.536 565.889 274.956 561.899 274.747C557.644 274.524 554.125 277.908 554.125 282.113V294.07V296.612C554.125 303.357 559.593 308.825 566.338 308.825H568.88H585.132V294.07H574.181C571.254 294.07 568.88 291.698 568.88 288.77Z" fill="#D3573B"/>
<path d="M566.334 303.685C562.427 303.685 559.262 300.518 559.262 296.612V282.113C559.262 280.88 560.266 279.876 561.501 279.876C562.773 279.939 563.738 281.153 563.738 282.53V293.782C563.738 296.779 566.168 299.208 569.165 299.208H583.621V303.683L566.334 303.685Z" fill="#F46640"/>
<path d="M569.21 301.513L566.903 303.537L566.436 299.197H566.43L565.963 303.541L563.652 301.513L565.815 304.917V304.919L566.428 305.886V305.879L566.434 305.886L567.051 304.917V304.912L569.21 301.513Z" fill="#F9A42D"/>
<path d="M562.044 290.864L559.738 292.888L559.27 288.548H559.266L558.798 292.891L556.488 290.864L558.649 294.27H558.651L559.264 295.237V295.23L559.268 295.237L559.887 294.27L559.885 294.263L562.044 290.864Z" fill="#F9A42D"/>
<path d="M566.427 281.383L564.122 283.407L563.655 279.068H563.649L563.181 283.411L560.871 281.383L563.034 284.79L563.647 285.757V285.749L563.653 285.757L564.27 284.79V284.782L566.427 281.383Z" fill="#F9A42D"/>
<path d="M579.95 301.513L577.644 303.537L577.176 299.197H577.172L576.703 303.541L574.395 301.513L576.555 304.917L576.557 304.919L577.169 305.886V305.879L577.174 305.886L577.793 304.917L577.792 304.912L579.95 301.513Z" fill="#F9A42D"/>
<path d="M635.201 319.405V313.167C635.201 309.171 638.192 305.591 642.182 305.383C646.438 305.161 649.956 308.545 649.956 312.75V324.706V327.249C649.956 333.994 644.488 339.462 637.743 339.462H635.201H618.949V324.706H629.9C632.827 324.705 635.201 322.333 635.201 319.405Z" fill="#D3573B"/>
<path d="M637.743 334.319C641.649 334.319 644.816 331.153 644.816 327.247V312.748C644.816 311.515 643.811 310.51 642.577 310.51C641.305 310.574 640.339 311.788 640.339 313.165V324.417C640.339 327.413 637.91 329.843 634.913 329.843H618.949V334.319H637.743Z" fill="#F46640"/>
<path d="M634.879 332.148L637.183 334.172L637.651 329.832H637.657L638.124 334.175L640.435 332.148L638.272 335.554L637.659 336.521V336.514L637.653 336.521L637.036 335.554V335.547L634.879 332.148Z" fill="#F9A42D"/>
<path d="M642.039 321.498L644.346 323.522L644.813 319.183H644.817L645.285 323.526L647.597 321.498L645.434 324.905H645.432L644.821 325.872V325.864L644.815 325.872L644.196 324.905L644.198 324.897L642.039 321.498Z" fill="#F9A42D"/>
<path d="M637.656 312.018L639.963 314.042L640.43 309.702H640.434L640.902 314.046L643.212 312.018L641.049 315.425L640.436 316.392V316.384L640.432 316.392L639.813 315.425V315.419L637.656 312.018Z" fill="#F9A42D"/>
<path d="M624.129 332.148L626.435 334.172L626.903 329.832H626.909L627.376 334.175L629.686 332.148L627.524 335.554L626.91 336.521V336.514L626.905 336.521L626.288 335.554V335.547L624.129 332.148Z" fill="#F9A42D"/>
<path d="M594.071 323.938L591.765 325.962L591.297 321.622H591.293L590.826 325.965L588.516 323.938L590.676 327.344H590.678L591.292 328.311V328.304L591.295 328.311L591.915 327.344V327.337L594.071 323.938Z" fill="#F9A42D"/>
<path d="M614.065 323.938L611.759 325.962L611.291 321.622H611.288L610.82 325.965L608.508 323.938L610.67 327.344H610.672L611.284 328.311V328.304L611.289 328.311L611.909 327.344L611.907 327.337L614.065 323.938Z" fill="#F9A42D"/>
<path d="M604.067 330.627L601.761 332.651L601.293 328.311H601.29L600.822 332.655L598.512 330.627L600.672 334.031L600.674 334.033L601.288 335V334.993L601.291 335L601.911 334.031L601.909 334.026L604.067 330.627Z" fill="#F9A42D"/>
<path d="M604.067 347.283L601.761 349.309L601.293 344.967H601.29L600.822 349.31L598.512 347.283L600.672 350.689L600.674 350.691L601.288 351.656V351.649L601.291 351.656L601.911 350.689L601.909 350.683L604.067 347.283Z" fill="#F9A42D"/>
<path d="M604.067 363.94L601.761 365.964L601.293 361.624H601.29L600.822 365.968L598.512 363.94L600.672 367.345L600.674 367.347L601.288 368.314V368.306L601.291 368.314L601.911 367.345L601.909 367.339L604.067 363.94Z" fill="#F9A42D"/>
<path d="M594.071 339.396L591.765 341.42L591.297 337.08H591.293L590.826 341.424L588.516 339.396L590.676 342.803H590.678L591.292 343.77V343.762L591.295 343.77L591.915 342.803V342.795L594.071 339.396Z" fill="#F9A42D"/>
<path d="M614.065 339.396L611.759 341.42L611.291 337.08H611.288L610.82 341.424L608.508 339.396L610.67 342.803H610.672L611.284 343.77V343.762L611.289 343.77L611.909 342.803L611.907 342.795L614.065 339.396Z" fill="#F9A42D"/>
<path d="M594.071 354.855L591.765 356.879L591.297 352.539H591.293L590.826 356.883L588.516 354.855L590.676 358.261H590.678L591.292 359.228V359.221L591.295 359.228L591.915 358.261V358.254L594.071 354.855Z" fill="#F9A42D"/>
<path d="M614.065 354.855L611.759 356.879L611.291 352.539H611.288L610.82 356.883L608.508 354.855L610.67 358.261H610.672L611.284 359.228V359.221L611.289 359.228L611.909 358.261L611.907 358.254L614.065 354.855Z" fill="#F9A42D"/>
<path d="M602.855 256.224C602.855 256.224 603.201 250.65 601.289 246.985C599.378 250.65 599.724 256.224 599.724 256.224H602.855Z" fill="#3F1715"/>
<path d="M603.412 254.43C602.942 255.201 602.447 255.595 601.949 255.595H601.285H600.621C600.121 255.595 599.628 255.201 599.158 254.43L596.766 250.498L598.245 257.217C599.051 260.882 600.146 262.941 601.287 262.941C602.428 262.941 603.522 260.882 604.328 257.217L605.806 250.498L603.412 254.43Z" fill="#21120D"/>
<path d="M604.548 255.695C603.83 256.351 603.071 256.686 602.305 256.686H601.286H600.266C599.501 256.686 598.744 256.351 598.024 255.695L594.355 252.348L596.623 258.068C597.859 261.189 599.537 262.941 601.284 262.941C603.033 262.941 604.709 261.189 605.946 258.068L608.213 252.348L604.548 255.695Z" fill="#3F1715"/>
<path d="M606.066 256.912C605.013 257.459 603.9 257.737 602.779 257.737H601.286H599.794C598.673 257.737 597.56 257.459 596.507 256.912L591.133 254.127L594.453 258.886C596.266 261.482 598.722 262.941 601.285 262.941C603.847 262.941 606.305 261.482 608.116 258.886L611.438 254.127L606.066 256.912Z" fill="#21120D"/>
<path d="M561.871 271.95C561.871 271.95 562.09 268.405 560.876 266.075C559.66 268.403 559.879 271.95 559.879 271.95H561.871Z" fill="#3F1715"/>
<path d="M562.226 270.809C561.926 271.299 561.612 271.55 561.296 271.55H560.873H560.45C560.132 271.55 559.818 271.299 559.521 270.809L558 268.308L558.941 272.581C559.453 274.911 560.149 276.221 560.875 276.221C561.601 276.221 562.297 274.911 562.809 272.581L563.75 268.308L562.226 270.809Z" fill="#21120D"/>
<path d="M562.951 271.613C562.492 272.031 562.011 272.244 561.525 272.244H560.878H560.231C559.744 272.244 559.262 272.031 558.805 271.613L556.473 269.485L557.915 273.121C558.701 275.106 559.767 276.221 560.88 276.221C561.991 276.221 563.059 275.106 563.845 273.121L565.287 269.485L562.951 271.613Z" fill="#3F1715"/>
<path d="M563.913 272.388C563.243 272.736 562.536 272.913 561.824 272.913H560.873H559.925C559.212 272.913 558.505 272.736 557.836 272.388L554.418 270.616L556.53 273.643C557.682 275.295 559.244 276.221 560.873 276.221C562.503 276.221 564.065 275.293 565.217 273.643L567.329 270.616L563.913 272.388Z" fill="#21120D"/>
<path d="M643.812 301.049C643.812 301.049 644.097 296.457 642.522 293.439C640.947 296.457 641.231 301.049 641.231 301.049H643.812Z" fill="#3F1715"/>
<path d="M644.276 299.571C643.889 300.205 643.481 300.531 643.071 300.531H642.523H641.975C641.564 300.531 641.156 300.205 640.771 299.571L638.801 296.333L640.019 301.866C640.683 304.886 641.584 306.58 642.523 306.58C643.462 306.58 644.364 304.884 645.028 301.866L646.246 296.333L644.276 299.571Z" fill="#21120D"/>
<path d="M645.208 300.613C644.615 301.154 643.99 301.431 643.361 301.431H642.522H641.682C641.051 301.431 640.426 301.154 639.833 300.613L636.812 297.856L638.679 302.566C639.697 305.136 641.079 306.58 642.52 306.58C643.96 306.58 645.34 305.136 646.36 302.566L648.227 297.856L645.208 300.613Z" fill="#3F1715"/>
<path d="M646.457 301.616C645.589 302.065 644.675 302.295 643.751 302.295H642.522H641.293C640.371 302.295 639.454 302.065 638.586 301.616L634.16 299.322L636.895 303.243C638.388 305.381 640.412 306.582 642.522 306.582C644.632 306.582 646.656 305.381 648.148 303.243L650.883 299.322L646.457 301.616Z" fill="#21120D"/>
<path d="M404.402 199.91L349.588 184.274L342.82 220.619L362.269 231.577L368.242 260.927L368.408 307.682L375.258 345.025L350.067 340.721L349.203 349.752L344.955 384.526L350.067 390.957L401.495 366.32L420.298 304.88L424.109 264.011L404.402 199.91Z" fill="#421819"/>
<path d="M318.258 260.927L324.165 307.682L329.223 342.298L346.451 350.472L352.813 386.287L305.427 359.917L281.613 304.88L281.383 264.011L298.641 202.918L344.835 187.381L349.11 218.984L337.978 231.818L318.258 260.927Z" fill="#612423"/>
<path d="M235.829 308.99L264.322 306.141L271.125 344.322L242.278 339.351L247.945 384.878L203.125 378.116L199.635 341.145L125.258 338.699L126.064 314.508L152.916 274.401L173.572 229.243L198.737 186.894L199.898 188.086L246.216 186.307L252.196 247.116L235.829 308.99ZM152.555 306.698L200.226 306.158L192.472 245.941L196.718 243.641L199.055 253.697L152.555 306.698Z" fill="#421819"/>
<path d="M266.718 302.92L261.353 333.985L194.612 340.143L122.587 345.865L120.785 312.735L145.385 269.593L167.872 225.447L201.138 185.282L197.034 244.922L159.695 306.547L213.655 313.234L266.718 302.92Z" fill="#612423"/>
<path d="M549.424 308.99L577.917 306.141L584.72 344.322L555.872 339.351L561.538 384.878L516.719 378.116L513.228 341.145L438.852 338.699L439.658 314.508L466.51 274.401L487.165 229.243L512.33 186.894L513.492 188.086L559.81 186.307L565.79 247.116L549.424 308.99ZM466.151 306.698L513.821 306.158L506.068 245.941L510.314 243.641L512.65 253.697L466.151 306.698Z" fill="#421819"/>
<path d="M580.311 302.92L574.945 333.985L508.204 340.143L436.18 345.865L434.379 312.735L458.977 269.593L481.464 225.447L514.73 185.282L510.626 244.922L473.289 306.547L527.248 313.234L580.311 302.92Z" fill="#612423"/>
<path d="M99.681 189.272C87.7129 189.58 78.3281 199.719 78.3281 211.691V399.079H122.194V211.197C122.194 198.892 112.059 188.954 99.681 189.272Z" fill="#D3573B"/>
<path d="M100.257 189.264C93.3791 189.264 87.8047 199.083 87.8047 211.197V399.079H112.71V211.197C112.71 199.085 107.134 189.264 100.257 189.264Z" fill="#F46640"/>
<path d="M100.265 189.264C97.6871 189.264 95.5977 199.083 95.5977 211.197V399.079H104.934V211.197C104.932 199.085 102.842 189.264 100.265 189.264Z" fill="#F46640"/>
<path d="M91.2953 205.628L88.4333 208.14L87.8516 202.753H87.8478L87.2661 208.146L84.3984 205.628L87.0827 209.856V209.858L87.8441 211.057V211.047L87.8497 211.057L88.6185 209.856L88.6166 209.848L91.2953 205.628Z" fill="#F9A42D"/>
<path d="M116.118 205.628L113.254 208.14L112.674 202.753H112.668L112.088 208.146L109.219 205.628L111.903 209.856L111.905 209.858L112.666 211.057V211.047L112.672 211.057L113.439 209.856V209.848L116.118 205.628Z" fill="#F9A42D"/>
<path d="M103.703 213.932L100.84 216.444L100.26 211.057H100.254L99.6723 216.45L96.8047 213.932L99.489 218.159V218.161L100.25 219.36V219.351L100.256 219.36L101.025 218.159V218.152L103.703 213.932Z" fill="#F9A42D"/>
<path d="M103.703 234.611L100.84 237.123L100.26 231.736H100.254L99.6723 237.129L96.8047 234.611L99.489 238.839V238.841L100.25 240.04V240.03L100.256 240.04L101.025 238.839V238.831L103.703 234.611Z" fill="#F9A42D"/>
<path d="M103.703 255.291L100.84 257.803L100.26 252.416H100.254L99.6723 257.808L96.8047 255.291L99.489 259.518V259.52L100.25 260.719V260.71L100.256 260.719L101.025 259.518V259.511L103.703 255.291Z" fill="#F9A42D"/>
<path d="M91.2953 224.821L88.4333 227.333L87.8516 221.944H87.8478L87.2661 227.336L84.3984 224.821L87.0827 229.048V229.05L87.8441 230.249V230.24L87.8497 230.249L88.6185 229.048L88.6166 229.039L91.2953 224.821Z" fill="#F9A42D"/>
<path d="M116.118 224.821L113.254 227.333L112.674 221.944H112.668L112.088 227.336L109.219 224.821L111.903 229.048L111.905 229.05L112.666 230.249V230.24L112.672 230.249L113.439 229.048V229.039L116.118 224.821Z" fill="#F9A42D"/>
<path d="M91.2953 244.011L88.4333 246.523L87.8516 241.136H87.8478L87.2661 246.529L84.3984 244.011L87.0827 248.238V248.24L87.8441 249.439V249.43L87.8497 249.439L88.6185 248.238L88.6166 248.231L91.2953 244.011Z" fill="#F9A42D"/>
<path d="M116.118 244.011L113.254 246.523L112.674 241.136H112.668L112.088 246.529L109.219 244.011L111.903 248.238L111.905 248.24L112.666 249.439V249.43L112.672 249.439L113.439 248.238V248.231L116.118 244.011Z" fill="#F9A42D"/>
<path d="M60.0258 222.22V214.474C60.0258 209.515 56.3126 205.069 51.3593 204.811C46.0767 204.534 41.707 208.735 41.707 213.956V228.801V231.957C41.707 240.331 48.4954 247.12 56.8701 247.12H60.0258H80.202V228.803H66.6065C62.9719 228.799 60.0258 225.853 60.0258 222.22Z" fill="#D3573B"/>
<path d="M56.8684 240.737C52.0179 240.737 48.0859 236.805 48.0859 231.955V213.956C48.0859 212.426 49.3318 211.178 50.8656 211.178C52.4444 211.257 53.6435 212.764 53.6435 214.474V228.442C53.6435 232.163 56.6607 235.18 60.3814 235.18H78.3278V240.735L56.8684 240.737Z" fill="#F46640"/>
<path d="M60.43 238.04L57.5661 240.554L56.9862 235.165H56.9806L56.4007 240.558L53.5312 238.04L56.2155 242.267L56.2174 242.269L56.9787 243.468V243.461L56.9844 243.468L57.7513 242.267V242.26L60.43 238.04Z" fill="#F9A42D"/>
<path d="M51.5355 224.82L48.6716 227.333L48.0917 221.943H48.0861L47.5043 227.336L44.6367 224.82L47.321 229.048V229.05L48.0824 230.249V230.24L48.088 230.249L48.8568 229.048L48.8549 229.039L51.5355 224.82Z" fill="#F9A42D"/>
<path d="M56.9828 213.051L54.1208 215.563L53.5391 210.176H53.5353L52.9536 215.567L50.0859 213.051L52.7684 217.278L52.7702 217.28L53.5316 218.479V218.47L53.5372 218.479L54.306 217.278L54.3041 217.271L56.9828 213.051Z" fill="#F9A42D"/>
<path d="M73.762 238.04L70.8981 240.554L70.3183 235.165H70.3127L69.7328 240.558L66.8633 238.04L69.5476 242.267V242.269L70.3089 243.468V243.461L70.3145 243.468L71.0833 242.267V242.26L73.762 238.04Z" fill="#F9A42D"/>
<path d="M142.372 324.641V316.895C142.372 311.936 146.087 307.489 151.038 307.231C156.321 306.955 160.69 311.156 160.69 316.377V331.222V334.377C160.69 342.752 153.902 349.54 145.527 349.54H142.372H122.195V331.222H135.791C139.425 331.222 142.372 328.276 142.372 324.641Z" fill="#D3573B"/>
<path d="M145.527 343.158C150.378 343.158 154.31 339.226 154.31 334.376V316.377C154.31 314.846 153.064 313.599 151.53 313.599C149.951 313.677 148.752 315.185 148.752 316.895V330.863C148.752 334.583 145.735 337.6 142.014 337.6H122.195V343.156L145.527 343.158Z" fill="#F46640"/>
<path d="M141.969 340.461L144.833 342.975L145.413 337.585H145.418L145.998 342.978L148.868 340.461L146.183 344.69L145.422 345.889V345.882L145.416 345.889L144.647 344.69V344.681L141.969 340.461Z" fill="#F9A42D"/>
<path d="M150.859 327.241L153.721 329.753L154.301 324.366H154.307L154.889 329.757L157.756 327.241L155.072 331.469V331.47L154.311 332.67V332.66L154.305 332.67L153.536 331.469L153.538 331.461L150.859 327.241Z" fill="#F9A42D"/>
<path d="M145.414 315.471L148.278 317.984L148.858 312.596H148.863L149.443 317.989L152.311 315.471L149.629 319.699L149.627 319.701L148.865 320.9V320.89L148.86 320.9L148.093 319.699V319.691L145.414 315.471Z" fill="#F9A42D"/>
<path d="M128.633 340.461L131.497 342.975L132.077 337.585H132.082L132.664 342.978L135.532 340.461L132.847 344.69L132.086 345.889V345.882L132.08 345.889L131.311 344.69L131.313 344.681L128.633 340.461Z" fill="#F9A42D"/>
<path d="M91.2953 265.88L88.4333 268.394L87.8516 263.005H87.8478L87.2661 268.398L84.3984 265.88L87.0827 270.109V270.111L87.8441 271.31V271.301L87.8497 271.31L88.6185 270.109L88.6166 270.102L91.2953 265.88Z" fill="#F9A42D"/>
<path d="M116.118 265.88L113.254 268.394L112.674 263.005H112.668L112.088 268.398L109.219 265.88L111.903 270.109L111.905 270.111L112.666 271.31V271.301L112.672 271.31L113.439 270.109V270.102L116.118 265.88Z" fill="#F9A42D"/>
<path d="M103.703 274.185L100.84 276.698L100.26 271.31H100.254L99.6723 276.701L96.8047 274.185L99.489 278.413V278.415L100.25 279.614V279.605L100.256 279.614L101.025 278.413V278.406L103.703 274.185Z" fill="#F9A42D"/>
<path d="M103.703 294.863L100.84 297.377L100.26 291.988H100.254L99.6723 297.381L96.8047 294.863L99.489 299.092L100.25 300.293V300.284L100.256 300.293L101.025 299.092V299.085L103.703 294.863Z" fill="#F9A42D"/>
<path d="M103.703 315.542L100.84 318.056L100.26 312.667H100.254L99.6723 318.06L96.8047 315.542L99.489 319.77V319.772L100.25 320.973V320.963L100.256 320.973L101.025 319.77V319.762L103.703 315.542Z" fill="#F9A42D"/>
<path d="M91.2953 285.072L88.4333 287.584L87.8516 282.197H87.8478L87.2661 287.59L84.3984 285.072L87.0827 289.3V289.302L87.8441 290.501V290.491L87.8497 290.501L88.6185 289.3L88.6166 289.292L91.2953 285.072Z" fill="#F9A42D"/>
<path d="M116.118 285.072L113.254 287.584L112.674 282.197H112.668L112.088 287.59L109.219 285.072L111.903 289.3L111.905 289.302L112.666 290.501V290.491L112.672 290.501L113.439 289.3V289.292L116.118 285.072Z" fill="#F9A42D"/>
<path d="M91.2953 304.265L88.4333 306.777L87.8516 301.389H87.8478L87.2661 306.781L84.3984 304.265L87.0827 308.492V308.494L87.8441 309.693V309.684L87.8497 309.693L88.6185 308.492L88.6166 308.485L91.2953 304.265Z" fill="#F9A42D"/>
<path d="M116.118 304.265L113.254 306.777L112.674 301.389H112.668L112.088 306.781L109.219 304.265L111.903 308.492L111.905 308.494L112.666 309.693V309.684L112.672 309.693L113.439 308.492V308.485L116.118 304.265Z" fill="#F9A42D"/>
<path d="M91.2953 327.316L88.4333 329.828L87.8516 324.441H87.8478L87.2661 329.834L84.3984 327.316L87.0827 331.543V331.545L87.8441 332.744V332.735L87.8497 332.744L88.6185 331.543L88.6166 331.536L91.2953 327.316Z" fill="#F9A42D"/>
<path d="M116.118 327.316L113.254 329.828L112.674 324.441H112.668L112.088 329.834L109.219 327.316L111.903 331.543L111.905 331.545L112.666 332.744V332.735L112.672 332.744L113.439 331.543V331.536L116.118 327.316Z" fill="#F9A42D"/>
<path d="M103.703 335.619L100.84 338.132L100.26 332.744H100.254L99.6723 338.137L96.8047 335.619L99.489 339.847V339.849L100.25 341.048V341.039L100.256 341.048L101.025 339.847V339.84L103.703 335.619Z" fill="#F9A42D"/>
<path d="M103.703 356.299L100.84 358.811L100.26 353.424H100.254L99.6723 358.817L96.8047 356.299L99.489 360.526V360.528L100.25 361.727V361.718L100.256 361.727L101.025 360.526V360.519L103.703 356.299Z" fill="#F9A42D"/>
<path d="M103.703 376.978L100.84 379.491L100.26 374.103H100.254L99.6723 379.496L96.8047 376.978L99.489 381.206V381.208L100.25 382.407V382.397L100.256 382.407L101.025 381.206V381.198L103.703 376.978Z" fill="#F9A42D"/>
<path d="M91.2953 346.506L88.4333 349.02L87.8516 343.631H87.8478L87.2661 349.024L84.3984 346.506L87.0827 350.736V350.738L87.8441 351.937V351.927L87.8497 351.937L88.6185 350.736L88.6166 350.728L91.2953 346.506Z" fill="#F9A42D"/>
<path d="M116.118 346.506L113.254 349.02L112.674 343.631H112.668L112.088 349.024L109.219 346.506L111.903 350.736L111.905 350.738L112.666 351.937V351.927L112.672 351.937L113.439 350.736V350.728L116.118 346.506Z" fill="#F9A42D"/>
<path d="M91.2953 365.699L88.4333 368.211L87.8516 362.824H87.8478L87.2661 368.216L84.3984 365.699L87.0827 369.926V369.928L87.8441 371.127V371.118L87.8497 371.127L88.6185 369.926L88.6166 369.919L91.2953 365.699Z" fill="#F9A42D"/>
<path d="M116.118 365.699L113.254 368.211L112.674 362.824H112.668L112.088 368.216L109.219 365.699L111.903 369.926L111.905 369.928L112.666 371.127V371.118L112.672 371.127L113.439 369.926V369.919L116.118 365.699Z" fill="#F9A42D"/>
<path d="M102.21 181.815C102.21 181.815 102.638 174.894 100.265 170.345C97.8908 174.894 98.3192 181.815 98.3192 181.815H102.21Z" fill="#3F1715"/>
<path d="M102.905 179.588C102.324 180.545 101.708 181.034 101.089 181.034H100.264H99.4392C98.82 181.034 98.2046 180.543 97.6229 179.588L94.6523 174.707L96.4874 183.048C97.4882 187.597 98.8481 190.155 100.264 190.155C101.68 190.155 103.038 187.597 104.041 183.048L105.878 174.707L102.905 179.588Z" fill="#21120D"/>
<path d="M104.315 181.159C103.423 181.975 102.48 182.39 101.53 182.39H100.265H99.0005C98.0503 182.39 97.1094 181.973 96.2171 181.159L91.6641 177.002L94.4774 184.103C96.0132 187.977 98.0952 190.153 100.265 190.153C102.435 190.153 104.519 187.975 106.053 184.103L108.866 177.002L104.315 181.159Z" fill="#3F1715"/>
<path d="M106.198 182.668C104.89 183.347 103.51 183.694 102.118 183.694H100.264H98.4105C97.0187 183.694 95.6382 183.347 94.3307 182.668L87.6602 179.212L91.783 185.121C94.0333 188.344 97.0823 190.155 100.264 190.155C103.446 190.155 106.497 188.344 108.746 185.121L112.868 179.212L106.198 182.668Z" fill="#21120D"/>
<path d="M51.3242 201.339C51.3242 201.339 51.5973 196.937 50.0878 194.045C48.5782 196.937 48.8513 201.339 48.8513 201.339H51.3242Z" fill="#3F1715"/>
<path d="M51.7625 199.923C51.3921 200.531 51.0011 200.843 50.6083 200.843H50.0827H49.557C49.1623 200.843 48.7714 200.533 48.401 199.923L46.5117 196.819L47.679 202.123C48.315 205.016 49.1792 206.642 50.0808 206.642C50.9824 206.642 51.8448 205.016 52.4826 202.123L53.6499 196.819L51.7625 199.923Z" fill="#21120D"/>
<path d="M52.6587 200.922C52.0901 201.44 51.4915 201.705 50.8873 201.705H50.0829H49.2786C48.6743 201.705 48.0758 201.44 47.509 200.922L44.6133 198.279L46.4034 202.794C47.3799 205.258 48.7043 206.642 50.0848 206.642C51.4653 206.642 52.7897 205.258 53.7661 202.794L55.5563 198.279L52.6587 200.922Z" fill="#3F1715"/>
<path d="M53.8588 201.881C53.0264 202.312 52.1491 202.532 51.2643 202.532H50.0858H48.9073C48.0225 202.532 47.1452 202.312 46.3128 201.881L42.0703 199.683L44.6929 203.44C46.1239 205.49 48.0637 206.64 50.0858 206.64C52.1079 206.64 54.0477 205.488 55.4787 203.44L58.1013 199.683L53.8588 201.881Z" fill="#21120D"/>
<path d="M153.048 301.852C153.048 301.852 153.401 296.15 151.446 292.405C149.492 296.152 149.845 301.852 149.845 301.852H153.048Z" fill="#3F1715"/>
<path d="M153.624 300.018C153.145 300.806 152.638 301.21 152.127 301.21H151.446H150.767C150.257 301.21 149.752 300.808 149.271 300.018L146.824 295.999L148.336 302.867C149.161 306.614 150.279 308.72 151.446 308.72C152.614 308.72 153.732 306.616 154.557 302.867L156.069 295.999L153.624 300.018Z" fill="#21120D"/>
<path d="M154.784 301.311C154.049 301.983 153.273 302.325 152.491 302.325H151.449H150.407C149.625 302.325 148.849 301.981 148.114 301.311L144.363 297.888L146.681 303.737C147.945 306.928 149.661 308.72 151.447 308.72C153.236 308.72 154.951 306.928 156.215 303.737L158.533 297.888L154.784 301.311Z" fill="#3F1715"/>
<path d="M156.332 302.555C155.255 303.114 154.118 303.399 152.973 303.399H151.446H149.92C148.773 303.399 147.638 303.112 146.56 302.555L141.066 299.708L144.463 304.575C146.315 307.23 148.829 308.72 151.448 308.72C154.069 308.72 156.581 307.23 158.433 304.575L161.828 299.708L156.332 302.555Z" fill="#21120D"/>
<path d="M681.458 374.105C680.19 374.105 658.706 406.962 656.518 410.097C645.52 425.853 623.589 428.319 606.756 437.584C593.929 444.643 583.875 455.936 575.912 468.22C565.397 484.442 556.815 503.932 539.211 511.921C525.093 518.328 508.383 515.483 494.099 509.459C470.281 499.416 452.909 487.622 426.687 484.248C401.589 481.017 375.567 484.461 352.32 494.513C329.061 504.572 305.065 521.308 280.796 514.082C250.054 504.916 237.542 461.626 205.856 456.735C183.027 453.199 162.43 471.943 139.395 473.624C116.978 475.272 96.5008 460.407 82.2038 443.072C67.905 425.735 57.4877 405.31 42.0047 389.021C36.3911 383.134 30.4015 378.293 24.0508 374.105C24.047 374.105 678.564 374.105 681.458 374.105Z" fill="#EE9730"/>
<path d="M681.462 374.103C680.194 374.103 658.702 406.958 656.512 410.105C645.524 425.851 623.595 428.324 606.752 437.591C593.933 444.651 583.867 455.936 575.917 468.224C565.399 484.44 556.82 503.928 539.212 511.927C525.093 518.328 508.393 515.479 494.101 509.454C470.277 499.42 452.903 487.618 426.685 484.253C401.593 481.013 375.564 484.457 352.32 494.521C329.059 504.57 305.065 521.319 280.803 514.087C250.062 504.914 237.538 461.636 205.858 456.735C183.036 453.198 162.437 471.95 139.395 473.624C116.98 475.269 96.5064 460.414 82.2001 443.07C67.9087 425.743 57.4839 405.316 42.0047 389.021C36.3855 383.136 30.4052 378.299 24.0508 374.105C24.0508 374.105 41.7073 374.105 71.2272 374.105C74.7177 379.13 78.3186 384.075 82.2001 388.787C96.5064 406.115 116.98 420.984 139.395 419.342C162.435 417.651 183.034 398.915 205.858 402.437C237.538 407.336 250.062 450.631 280.803 459.79C305.065 467.021 329.061 450.289 352.32 440.223C375.564 430.174 401.595 426.731 426.685 429.955C452.903 433.336 470.277 445.122 494.101 455.171C508.393 461.196 525.093 464.03 539.212 457.629C556.822 449.645 565.399 430.158 575.917 413.926C583.869 401.638 593.933 390.353 606.752 383.293C613.529 379.569 621.105 376.954 628.494 374.105L681.462 374.103Z" fill="#F9A42D"/>
<path d="M362.582 77.2044H497.196C496.683 64.2169 486 53.8594 472.893 53.8594H472.887C467.504 41.7024 455.349 33.2155 441.199 33.2155C424.194 33.2155 410.061 45.4716 407.125 61.6261C406.513 61.5588 405.892 61.5157 405.26 61.5157C399.777 61.5157 394.911 64.1701 391.876 68.2574C390.835 68.0011 389.749 67.8608 388.63 67.8608C384.663 67.8608 381.105 69.5705 378.632 72.2885C376.98 71.4261 375.098 70.9342 373.108 70.9342C368.56 70.9342 364.604 73.4688 362.582 77.2044Z" fill="white"/>
<path d="M526.447 79.0956H345.832C345.166 79.0956 344.625 78.555 344.625 77.889C344.625 77.2231 345.166 76.6825 345.832 76.6825H526.447C527.113 76.6825 527.653 77.2231 527.653 77.889C527.655 78.555 527.115 79.0956 526.447 79.0956Z" fill="white"/>
<path d="M393.244 85.8896H327.019C326.353 85.8896 325.812 85.349 325.812 84.683C325.812 84.0171 326.353 83.4765 327.019 83.4765H393.244C393.91 83.4765 394.45 84.0171 394.45 84.683C394.45 85.3508 393.911 85.8896 393.244 85.8896Z" fill="white"/>
<path d="M470.729 85.8896H434.359C433.693 85.8896 433.152 85.349 433.152 84.683C433.152 84.0171 433.693 83.4765 434.359 83.4765H470.729C471.395 83.4765 471.935 84.0171 471.935 84.683C471.935 85.3508 471.395 85.8896 470.729 85.8896Z" fill="white"/>
<path d="M297.576 146.198H184.16C184.592 135.255 193.592 126.528 204.636 126.528H204.639C209.176 116.287 219.417 109.135 231.337 109.135C245.665 109.135 257.572 119.461 260.046 133.072C260.561 133.014 261.086 132.98 261.618 132.98C266.236 132.98 270.337 135.217 272.896 138.661C273.771 138.446 274.688 138.326 275.63 138.326C278.973 138.326 281.972 139.766 284.054 142.056C285.445 141.33 287.03 140.915 288.708 140.915C292.541 140.913 295.874 143.049 297.576 146.198Z" fill="white"/>
<path d="M159.514 147.791H311.687C312.248 147.791 312.704 147.337 312.704 146.774C312.704 146.213 312.25 145.756 311.687 145.756H159.514C158.953 145.756 158.496 146.211 158.496 146.774C158.496 147.337 158.953 147.791 159.514 147.791Z" fill="white"/>
<path d="M271.744 153.515H327.54C328.101 153.515 328.558 153.061 328.558 152.498C328.558 151.937 328.103 151.48 327.54 151.48H271.744C271.183 151.48 270.727 151.935 270.727 152.498C270.728 153.061 271.183 153.515 271.744 153.515Z" fill="white"/>
<path d="M206.459 153.515H237.101C237.662 153.515 238.119 153.061 238.119 152.498C238.119 151.937 237.664 151.48 237.101 151.48H206.459C205.898 151.48 205.441 151.935 205.441 152.498C205.443 153.061 205.898 153.515 206.459 153.515Z" fill="white"/>
</svg>
