<svg width="137" height="33" viewBox="0 0 137 33" fill="none" xmlns="http://www.w3.org/2000/svg">
<path d="M43.3933 29V5.2H59.3733V9.586H48.4933V14.924H57.3333V19.106H48.4933V24.614H59.7473V29H43.3933ZM73.5074 13.7V5.2H78.3014V29H74.1194L73.6434 26.586C72.4874 28.082 70.7874 29.204 68.2714 29.204C63.5794 29.204 60.1454 25.77 60.1454 20.228C60.1454 14.822 63.5794 11.32 68.2374 11.32C70.6514 11.32 72.3854 12.272 73.5074 13.7ZM69.3254 25.294C71.9434 25.294 73.5754 23.254 73.5754 20.296C73.5754 17.304 71.9434 15.23 69.3254 15.23C66.7074 15.23 65.0414 17.27 65.0414 20.262C65.0414 23.254 66.7074 25.294 69.3254 25.294ZM92.2858 20.262V11.524H97.0798V29H92.8298L92.3878 26.892C91.2658 28.252 89.7358 29.204 87.2538 29.204C83.6498 29.204 80.3178 27.402 80.3178 21.214V11.524H85.1118V20.568C85.1118 23.696 86.1318 25.226 88.5118 25.226C90.8918 25.226 92.2858 23.492 92.2858 20.262ZM109.423 11.32C113.197 11.32 116.427 13.326 116.427 19.31V29H111.633V19.786C111.633 16.828 110.511 15.264 108.097 15.264C105.615 15.264 104.187 17.032 104.187 20.058V29H99.3929V11.524H103.575L104.017 13.7C105.139 12.34 106.737 11.32 109.423 11.32ZM135.088 24.954H135.632V29H133.184C130.702 29 129.92 27.81 129.954 26.144C128.73 28.082 126.962 29.204 124.242 29.204C120.468 29.204 117.748 27.402 117.748 24.07C117.748 20.364 120.536 18.256 125.772 18.256H129.24V17.406C129.24 15.842 128.118 14.822 126.112 14.822C124.242 14.822 122.984 15.672 122.78 16.964H118.156C118.496 13.564 121.624 11.32 126.248 11.32C131.144 11.32 133.966 13.496 133.966 17.678V23.866C133.966 24.784 134.34 24.954 135.088 24.954ZM129.24 21.792V21.452H125.738C123.732 21.452 122.576 22.268 122.576 23.73C122.576 24.954 123.562 25.736 125.16 25.736C127.676 25.736 129.206 24.172 129.24 21.792Z" fill="white"/>
<path d="M27.5805 16.4997L26.7339 9.95337H22.3716L15.7549 16.4997H27.5805Z" fill="#543EE8"/>
<path d="M19.7418 9.95337H17.4277L10.8113 16.4997H13.1251L19.7418 9.95337Z" fill="#543EE8"/>
<path d="M16.1309 26.4398C10.8277 26.1593 6.61502 21.8167 6.61502 16.5C6.61502 11.0021 11.1199 6.54497 16.6766 6.54497C22.2333 6.54497 26.7382 11.0021 26.7382 16.5H33.3532C33.3532 7.38728 25.8869 0 16.6766 0C7.46635 0 0 7.38728 0 16.5C0 25.6127 7.46635 33 16.6766 33H22.7613L16.1309 26.4398Z" fill="#543EE8"/>
<path d="M23.8279 26.4534L30.4443 33H32.644L26.0276 26.4534H23.8279Z" fill="#543EE8"/>
<path d="M25.3911 33H27.815L21.1982 26.4534H18.7744L25.3911 33Z" fill="#543EE8"/>
</svg>
