<svg width="17" height="16" viewBox="0 0 17 16" fill="none" xmlns="http://www.w3.org/2000/svg">
<path d="M9.53427 1.12001C7.07296 0.746434 5.28231 0.986326 3.27405 2.64403C1.65719 3.97867 0.473331 6.01367 0.436938 8.14967C0.361926 12.545 4.97335 16.1174 9.16367 15.997C13.8137 15.8641 16.6516 9.97078 15.9104 5.88221C15.0845 1.33094 9.88484 -1.79732 5.81706 1.15046C4.14524 2.36181 5.64029 5.11128 7.47105 3.98015C13.8917 0.0126452 14.5965 14.7315 7.39159 12.3786C5.25261 11.6797 3.20721 9.65438 3.89793 7.24952C4.54185 5.00656 7.42797 3.4001 9.53427 2.80668C10.3037 2.58982 10.4285 1.25593 9.53427 1.12001Z" fill="#89CC86"/>
</svg>
