<svg width="15" height="34" viewBox="0 0 15 34" fill="none" xmlns="http://www.w3.org/2000/svg">
<path id="Vector" d="M13.8435 0.500114C9.8043 -0.466009 2.76391 -0.483263 1.91358 4.64557C1.41923 7.62958 3.03025 9.68629 5.31035 11.1096C2.8646 11.8878 0.890457 13.3826 0.896953 16.1023C0.904098 19.0068 2.68336 20.7265 5.01738 21.7702C1.99998 22.7813 -0.601025 24.3753 0.121982 27.6495C1.05286 31.8646 5.87551 34.3914 10.1388 33.9503C12.1942 33.7377 12.2176 30.6545 10.1388 30.8695C7.74571 31.1172 3.69804 30.0544 3.44794 27.2053C3.28554 25.3525 5.35842 25.119 6.96619 24.6181L11.5582 23.1868C13.3869 22.6168 12.9029 20.3617 11.1262 20.1608C8.64151 19.8799 3.58306 19.2403 4.40675 15.8435C4.99724 13.4078 9.28851 13.3813 11.4952 13.4467C13.3342 13.5015 13.6896 10.8687 11.9272 10.4207C9.52237 9.80952 5.9606 9.09725 5.33503 6.41946C4.36648 2.27154 10.5234 2.88215 12.9809 3.46996C15.0076 3.95549 15.8722 0.985641 13.8435 0.500114Z" fill="#3C3C3B"/>
</svg>
