<svg width="75" height="98" viewBox="0 0 75 98" fill="none" xmlns="http://www.w3.org/2000/svg">
<path d="M36.2946 83.5115C34.6956 83.0446 33.0965 82.5776 31.4974 82.1107C32.06 79.629 32.7543 77.1685 33.5876 74.7251C34.6352 71.6537 29.7766 70.3354 28.736 73.3877C27.9118 75.8029 27.2295 78.2413 26.6629 80.6988L20.1951 78.8088C17.0805 77.8991 15.7511 82.7527 18.8577 83.6605C21.1381 84.3267 23.4185 84.9928 25.6988 85.659C25.1775 88.9236 24.8605 92.2245 24.7659 95.5716C24.6754 98.811 29.7071 98.808 29.7977 95.5716C29.8782 92.7015 30.1388 89.8746 30.5625 87.08C32.0277 87.5077 33.492 87.9354 34.9572 88.3641C38.0719 89.2728 39.4022 84.4182 36.2946 83.5115Z" fill="#F39200"/>
<path d="M45.1225 43.8061C44.8679 43.7166 44.6133 43.626 44.3577 43.5354C44.1363 43.4569 43.927 43.4177 43.7247 43.3986C42.663 43.0896 41.6013 42.7797 40.5396 42.4707C40.757 41.9152 41.0971 41.0488 41.0216 40.7257C41.0609 40.6915 41.1032 40.6684 41.1414 40.6311C41.1867 40.5869 41.233 40.5436 41.2783 40.4993C42.338 39.4789 42.1105 37.9915 41.2783 36.9419L41.1233 36.7466C40.4501 35.8973 38.9476 35.8248 38.0751 36.3531C36.5485 37.277 36.0805 39.3017 35.6498 41.0467C34.4059 40.6845 33.1621 40.3212 31.9182 39.9589C28.8036 39.0512 27.4732 43.9048 30.5808 44.8105C31.8428 45.1788 33.1057 45.5461 34.3677 45.9144C33.9883 47.4582 33.6351 49.0079 33.3141 50.5658C32.664 53.7267 37.5135 55.0782 38.1656 51.9032C38.4806 50.3695 38.8319 48.8439 39.2042 47.3243C40.7308 47.7691 42.2574 48.2139 43.7841 48.6587C46.9279 49.5745 48.1426 44.8739 45.1225 43.8061Z" fill="#F39200"/>
<path d="M19.2353 52.817C17.2578 52.2876 15.2803 51.7583 13.3029 51.229C13.5836 49.6953 13.8372 48.1546 14.0365 46.5967C14.4451 43.3936 9.41033 43.4237 9.00477 46.5967C8.86187 47.7168 8.68072 48.8298 8.47844 49.9378C6.69319 49.4598 4.90695 48.9818 3.12068 48.5038C-0.0110632 47.6655 -1.34646 52.5181 1.78327 53.3554C3.65206 53.8555 5.52184 54.3557 7.39163 54.8558C7.09074 56.0242 6.77066 57.1885 6.41643 58.3438C5.46342 61.4464 10.3191 62.7728 11.2681 59.6813C11.6273 58.5109 11.9484 57.3345 12.2452 56.155C14.1291 56.6592 16.013 57.1634 17.8968 57.6676C21.0286 58.5069 22.365 53.6553 19.2353 52.817Z" fill="#F39200"/>
<path d="M68.9608 66.0735C68.7575 65.7545 68.5542 65.4345 68.352 65.1155C67.4624 63.7147 65.8834 63.7056 64.7905 64.3939C64.71 64.3778 64.6295 64.3627 64.549 64.3466C64.9566 62.7677 65.3178 61.1726 65.6167 59.5534C66.2376 58.5773 66.2708 57.427 65.6227 56.1751C64.6838 54.3637 61.375 54.6264 61.0248 56.7759C60.6584 59.0201 60.1895 61.2391 59.6199 63.4289C58.0057 63.1521 56.3915 62.8764 54.7703 62.6389C51.6033 62.176 50.2357 67.0235 53.4329 67.4905C55.0159 67.7219 56.5918 67.9916 58.1677 68.2613C57.6354 69.8171 57.0507 71.3579 56.3955 72.8764C55.1265 75.819 59.4599 78.3842 60.7399 75.4164C61.6285 73.3564 62.4206 71.2804 63.121 69.1801C64.1203 69.3774 65.1226 69.5565 66.1189 69.7688C68.1507 70.2026 70.2046 68.0299 68.9608 66.0735Z" fill="#F39200"/>
<path d="M72.8191 32.0198C71.1838 31.6726 69.5585 31.2862 67.9393 30.8826C68.4908 29.4093 69.0262 27.931 69.5304 26.4386C70.5699 23.3642 65.7123 22.0449 64.6788 25.1012C64.1706 26.6057 63.6292 28.095 63.0727 29.5794C61.5189 29.1336 59.9691 28.6707 58.4284 28.1726C55.3409 27.1722 54.0176 32.0289 57.091 33.0251C58.4586 33.4679 59.8332 33.8836 61.2119 34.2851C60.6061 35.7393 59.9832 37.1884 59.325 38.6234C57.9856 41.5469 62.3209 44.106 63.6694 41.1635C64.5117 39.3259 65.3078 37.4692 66.0776 35.6034C67.4362 35.9476 68.8008 36.2726 70.1714 36.5765C70.1855 36.5806 70.1966 36.5866 70.2117 36.5896C70.6343 36.6842 71.058 36.7778 71.4807 36.8724C74.6346 37.5416 75.9891 32.7253 72.8191 32.0198Z" fill="#F39200"/>
<path d="M28.5761 20.5484C26.4104 20.2818 24.2559 19.9638 22.1043 19.6196C22.1425 19.4858 22.1807 19.3509 22.219 19.2171C22.4031 18.571 22.5732 16.9055 22.8701 16.1145C23.807 15.3326 24.2075 13.9831 23.5242 12.869C23.495 12.8217 23.4659 12.7734 23.4367 12.7261C22.6497 11.4441 20.5656 10.9409 19.4848 12.2169C18.0507 13.9106 17.6321 16.5211 17.0947 18.7531C15.1212 18.3848 13.1508 17.9974 11.1865 17.5707C8.02955 16.8844 6.68101 21.7339 9.84899 22.4223C11.8073 22.8479 13.7717 23.2324 15.7401 23.5967C15.1907 25.5269 14.6423 27.456 14.0928 29.3862C13.2052 32.5059 18.0588 33.8383 18.9444 30.7236C19.5391 28.6345 20.1328 26.5463 20.7276 24.4581C23.335 24.8757 25.9505 25.2562 28.5761 25.5792C31.7823 25.9747 31.7531 20.9389 28.5761 20.5484Z" fill="#F39200"/>
<path d="M56.8343 8.0688C54.7351 7.56965 52.6368 7.07049 50.5376 6.57135C51.0035 5.38889 51.4685 4.20644 51.9344 3.02399C53.1209 0.00998019 48.2572 -1.29726 47.0828 1.68656C46.5947 2.92537 46.1077 4.16418 45.6196 5.40199L39.978 4.06052C36.8302 3.3118 35.4867 8.16238 38.6406 8.91211C40.3464 9.31767 42.0521 9.72324 43.7578 10.1288C43.0635 11.8939 42.3681 13.658 41.6737 15.4222C40.4872 18.4362 45.3509 19.7434 46.5253 16.7596C47.2418 14.9391 47.9594 13.1186 48.6759 11.2982C50.9492 11.8386 53.2226 12.379 55.4969 12.9204C58.6448 13.6701 59.9882 8.81953 56.8343 8.0688Z" fill="#F39200"/>
</svg>
