<svg width="30" height="30" viewBox="0 0 30 30" fill="none" xmlns="http://www.w3.org/2000/svg">
<g clip-path="url(#clip0_79_920)">
<path d="M30 28.3008C30 28.6523 30 29.0039 30 29.3555C29.8594 29.6426 29.6426 29.8594 29.3555 30C19.7871 30 10.2129 30 0.644531 30C0.357422 29.8594 0.140625 29.6484 0 29.3555C0 29.0039 0 28.6523 0 28.3008C0.0117188 28.2773 0.0351562 28.2539 0.0410156 28.2246C0.240234 27.2227 0.837891 26.5723 1.77539 26.1797C4.13672 25.1895 6.49219 24.1699 8.85352 23.1738C9.02344 23.1035 9.08789 23.0215 9.08789 22.834C9.07617 22.3652 9.09375 21.8965 9.07617 21.4277C9.07031 21.293 9.01172 21.1523 8.94727 21.0293C8.64258 20.4551 8.28516 19.9043 8.02734 19.3066C7.81641 18.8203 7.72266 18.2871 7.57031 17.7539C7.08984 17.7539 6.5918 17.7598 6.09375 17.7539C4.62305 17.7363 3.46875 16.5996 3.45703 15.1348C3.44531 13.8633 3.44531 12.5977 3.45703 11.3262C3.46289 10.0957 4.28906 9.07031 5.48438 8.77734C5.56641 8.75977 5.64844 8.73047 5.67773 8.71875C5.7832 7.95703 5.84766 7.22461 5.98242 6.50977C6.62695 3.14648 8.82422 0.9375 12.1582 0.28125C12.7852 0.164063 13.4297 0.09375 14.0625 0C14.6895 0 15.3105 0 15.9375 0C16.3887 0.0585938 16.8457 0.111328 17.2969 0.175781C20.8535 0.679688 23.2031 2.83594 23.9707 6.33984C24.1406 7.11914 24.2109 7.91602 24.3281 8.73047C24.3281 8.73047 24.3633 8.74805 24.3984 8.75391C25.8223 9.13477 26.5371 10.0723 26.543 11.5371C26.543 12.668 26.543 13.8047 26.543 14.9355C26.543 16.6582 25.4414 17.7598 23.7305 17.7598C23.2852 17.7598 22.8398 17.7598 22.3828 17.7598C22.248 18.6797 22.0488 19.5703 21.5156 20.2852C20.959 21.0352 20.8477 21.8262 20.918 22.6934C20.9238 22.752 20.9297 22.8105 20.918 22.8691C20.8887 23.0391 20.9766 23.1094 21.123 23.168C21.5273 23.332 21.9316 23.5078 22.3359 23.6836C24.3164 24.5273 26.2969 25.3711 28.2832 26.209C29.1797 26.5898 29.7598 27.2344 29.9531 28.207C29.959 28.2305 29.9824 28.2656 30 28.3008ZM20.2617 18.8965C19.7168 19.1367 19.1719 19.4297 18.5977 19.623C17.625 19.9453 16.6055 19.8164 15.6035 19.8047C15.4629 19.8047 15.3047 19.7109 15.1875 19.6172C14.8945 19.4004 14.7949 19.0078 14.9121 18.668C15.0352 18.3105 15.3457 18.082 15.7617 18.0703C16.2305 18.0586 16.6992 18.0645 17.168 18.0703C17.8711 18.0762 18.5098 17.877 19.0957 17.4785C19.5469 17.1738 19.998 16.8633 20.4609 16.5703C20.625 16.4648 20.6895 16.3477 20.6895 16.1484C20.6836 14.2031 20.6719 12.2637 20.6895 10.3184C20.6953 9.22266 20.3203 8.25 19.7695 7.3418C19.3359 6.62109 18.832 6.43945 18.0234 6.66797C17.4375 6.83789 16.8633 7.06055 16.2891 7.2832C15.4336 7.61719 14.584 7.62305 13.7227 7.29492C13.1133 7.06055 12.498 6.84375 11.8711 6.65625C11.291 6.48047 10.7402 6.55664 10.3418 7.07812C9.72656 7.88672 9.36328 8.83008 9.33398 9.80859C9.26367 12.1875 9.30469 14.5723 9.31641 16.9512C9.32227 18.0527 9.66211 19.0664 10.3301 19.9512C11.3906 21.3574 12.8379 22.0605 14.5723 22.166C16.4648 22.2832 18.1113 21.709 19.4062 20.2676C19.7871 19.8633 20.0801 19.3887 20.2617 18.8965ZM22.541 8.67188C22.4707 8.10938 22.4238 7.54688 22.3184 6.99609C21.8438 4.40625 20.3789 2.70703 17.7832 2.07422C16.2188 1.69336 14.6309 1.66992 13.043 1.91016C11.8418 2.0918 10.7109 2.47266 9.75 3.24609C8.54297 4.21289 7.95117 5.52539 7.68164 7.00195C7.57617 7.56445 7.53516 8.13281 7.45898 8.70117C7.50586 8.71875 7.55273 8.74219 7.59961 8.75977C7.66406 8.67188 7.76367 8.5957 7.79297 8.50195C8.03906 7.67578 8.32617 6.87305 8.8418 6.16992C9.65039 5.06836 10.7402 4.62305 12.0703 4.92773C12.8379 5.10352 13.5762 5.39062 14.3145 5.66016C14.7656 5.82422 15.1992 5.84766 15.6504 5.66602C16.1016 5.47852 16.5586 5.31445 17.0156 5.15039C17.7246 4.89844 18.4453 4.74023 19.1953 4.89844C20.1445 5.09766 20.8418 5.67188 21.2988 6.49219C21.6504 7.125 21.8906 7.82227 22.1719 8.49609C22.2363 8.63086 22.2656 8.77148 22.541 8.67188ZM19.1484 22.8281C16.377 24.3398 13.623 24.3457 10.8516 22.8281C10.7871 24.0117 10.8691 25.1543 11.4023 26.2266C11.8945 27.2227 12.6797 27.873 13.7695 28.1016C14.291 28.207 14.8359 28.2539 15.3633 28.2305C16.8457 28.1602 18 27.5273 18.6445 26.127C19.1309 25.0781 19.2129 23.9707 19.1484 22.8281ZM19.3652 28.2188C22.3066 28.2188 25.1895 28.2188 28.0723 28.2188C28.084 28.1953 28.0957 28.166 28.1074 28.1426C27.9258 28.0312 27.75 27.8906 27.5566 27.8086C25.5762 26.959 23.5957 26.1152 21.6152 25.2715C21.3574 25.1602 21.0996 25.0605 20.8242 24.9434C20.6074 26.168 20.1855 27.2637 19.3652 28.2188ZM9.18164 24.9785C9.13477 24.9727 9.12891 24.9668 9.11719 24.9727C6.83789 25.9395 4.56445 26.9062 2.29102 27.8789C2.14453 27.9434 2.02734 28.0723 1.89844 28.1719C1.91016 28.1895 1.92773 28.207 1.93945 28.2246C4.82227 28.2246 7.70508 28.2246 10.6348 28.2246C9.81445 27.2637 9.39258 26.168 9.18164 24.9785ZM7.54688 10.4824C7.00195 10.4824 6.48633 10.4648 5.9707 10.4883C5.54883 10.5117 5.21484 10.8809 5.21484 11.3203C5.20312 12.5977 5.20898 13.875 5.21484 15.1582C5.21484 15.5566 5.49609 15.9375 5.88281 15.9727C6.42773 16.0195 6.98438 15.9844 7.54688 15.9844C7.54688 14.1445 7.54688 12.334 7.54688 10.4824ZM22.4531 15.9961C22.9922 15.9961 23.5078 16.0195 24.0234 15.9902C24.4453 15.9668 24.7793 15.5918 24.7793 15.1582C24.791 13.8809 24.791 12.6035 24.7793 11.3203C24.7793 10.916 24.4922 10.5352 24.1113 10.5059C23.5664 10.4648 23.0098 10.4941 22.4473 10.4941C22.4531 12.3281 22.4531 14.1445 22.4531 15.9961Z" fill="#FFCD20"/>
</g>
<defs>
<clipPath id="clip0_79_920">
<rect width="30" height="30" fill="white"/>
</clipPath>
</defs>
</svg>
