<svg width="30" height="30" viewBox="0 0 30 30" fill="none" xmlns="http://www.w3.org/2000/svg">
<g clip-path="url(#clip0_79_923)">
<path d="M4.21875 30C3.71094 29.7656 3.55469 29.3671 3.5625 28.8203C3.58594 27.5468 3.57031 26.2656 3.57031 24.9921C3.57813 20.9765 6.39844 17.6953 10.3672 17.1015C10.9141 17.0156 11.4766 17.0234 12.0703 16.9843C12.0703 16.7578 12.0781 16.5234 12.0625 16.2812C12.0547 16.2109 11.9844 16.1328 11.9219 16.0859C10.2266 14.8984 9.41406 13.2656 9.42969 11.2031C9.4375 10.1328 9.42969 9.06245 9.42969 7.98433C9.42969 7.87495 9.42969 7.77339 9.42969 7.66402C9.36719 7.64058 9.32813 7.61714 9.28125 7.60933C8.36719 7.41402 7.77344 6.85933 7.5 5.97652C7.22656 5.08589 7.45313 4.29683 8.10938 3.64058C8.9375 2.82027 9.71094 1.92964 10.7109 1.29683C13.7891 -0.656296 17.7656 -0.289108 20.4297 2.19527C20.9297 2.66402 21.4063 3.14839 21.8828 3.63277C22.5313 4.28902 22.7656 5.07808 22.4922 5.9687C22.2266 6.85152 21.625 7.4062 20.7109 7.60152C20.6641 7.60933 20.6172 7.63277 20.5625 7.6562C20.5625 8.62495 20.5625 9.58589 20.5625 10.5546C20.5625 11.3515 20.5859 12.1562 20.3594 12.9296C19.9922 14.1875 19.2813 15.2187 18.2109 15.9765C18 16.125 17.8828 16.2812 17.9219 16.539C17.9375 16.6796 17.9219 16.8281 17.9219 16.9843C18.3906 17.0078 18.8516 17.0078 19.3047 17.0546C23.3203 17.4609 26.3828 20.8046 26.4219 24.8359C26.4375 26.164 26.4063 27.4843 26.4297 28.8125C26.4375 29.3593 26.2813 29.7578 25.7734 29.9921C18.6016 30 11.4063 30 4.21875 30ZM24.6094 24.0312C24.4063 22.7187 23.8672 21.6093 22.9766 20.6875C21.6094 19.2578 19.8984 18.6796 17.9453 18.7812C17.8672 18.789 17.7578 18.8984 17.7188 18.9843C17.3906 19.7343 16.8672 20.289 16.1094 20.5937C15.9219 20.6718 15.875 20.7656 15.875 20.9609C15.8828 22.0625 15.875 23.164 15.8828 24.2656C15.8828 24.625 15.75 24.914 15.4297 25.0937C14.8359 25.4296 14.1328 25.0156 14.125 24.3203C14.1172 23.2031 14.1172 22.0781 14.125 20.9609C14.125 20.7578 14.0625 20.6718 13.8828 20.6015C13.2656 20.3593 12.7266 19.9531 12.4766 19.3437C12.2578 18.8281 11.9453 18.75 11.4609 18.7734C8.83594 18.8906 6.95313 20.125 5.84375 22.5C5.625 22.9765 5.51563 23.5 5.34375 24.0468C6.25 24.0468 7.07031 24.0468 7.89063 24.0468C8.48438 24.0468 8.84375 24.4062 8.84375 24.9921C8.85156 25.4765 8.84375 25.9687 8.84375 26.4531C8.84375 27.0468 8.84375 27.6406 8.84375 28.2421C12.9609 28.2421 17.0469 28.2421 21.1563 28.2421C21.1563 27.1718 21.1563 26.125 21.1563 25.0703C21.1563 24.3828 21.4922 24.0468 22.1797 24.0468C22.9844 24.0312 23.7813 24.0312 24.6094 24.0312ZM14.9766 5.89839C16.7109 5.89839 18.4531 5.89839 20.1875 5.89839C20.4688 5.89839 20.6875 5.79683 20.7969 5.5312C20.8984 5.2812 20.8281 5.05464 20.6406 4.86714C20.1719 4.39839 19.7109 3.92183 19.2266 3.4687C16.9453 1.35933 13.5234 1.23433 11.1172 3.18745C10.5234 3.67183 10.0078 4.25777 9.45313 4.78902C9.23438 4.99995 9.08594 5.22652 9.21875 5.53902C9.35156 5.8437 9.60938 5.89839 9.92188 5.89839C11.6016 5.89839 13.2891 5.9062 14.9766 5.89839ZM11.1953 9.78902C11.1953 10.3828 11.1875 10.9375 11.1953 11.4921C11.2109 13.2968 12.5547 14.8906 14.3047 15.1953C16.1797 15.5234 17.9609 14.4921 18.5938 12.7265C18.9375 11.7734 18.7734 10.789 18.8203 9.78902C15.9844 11.7031 13.7422 11.5078 11.1953 9.78902ZM11.6016 7.66402C11.5938 7.68745 11.5781 7.7187 11.5703 7.74214C12.5703 8.74214 13.7344 9.46089 15.1953 9.38277C16.4844 9.31245 17.5703 8.68745 18.4844 7.66402C16.1406 7.66402 13.8672 7.66402 11.6016 7.66402ZM5.35156 25.8046C5.35156 26.6328 5.35156 27.4296 5.35156 28.2265C5.9375 28.2265 6.50781 28.2265 7.07031 28.2265C7.07031 27.4062 7.07031 26.6015 7.07031 25.8046C6.49219 25.8046 5.92969 25.8046 5.35156 25.8046ZM22.9375 25.8046C22.9375 26.6328 22.9375 27.4296 22.9375 28.2343C23.5234 28.2343 24.0859 28.2343 24.6563 28.2343C24.6563 27.4218 24.6563 26.6171 24.6563 25.8046C24.0781 25.8046 23.5156 25.8046 22.9375 25.8046ZM13.8359 16.9609C13.8359 17.2578 13.8281 17.5859 13.8359 17.914C13.8516 18.5234 14.3203 19.0156 14.9141 19.0625C15.5078 19.1093 16.0703 18.6953 16.1484 18.0937C16.2031 17.7031 16.1563 17.3046 16.1563 16.9609C15.3828 16.9609 14.6328 16.9609 13.8359 16.9609Z" fill="#6FC081"/>
</g>
<defs>
<clipPath id="clip0_79_923">
<rect width="30" height="30" fill="white"/>
</clipPath>
</defs>
</svg>
