<svg width="30" height="30" viewBox="0 0 30 30" fill="none" xmlns="http://www.w3.org/2000/svg">
<path d="M0 9.88285C0.046875 9.68754 0.078125 9.48441 0.132812 9.2891C0.421875 8.25785 1.00781 7.42973 1.86719 6.79691C2.125 6.6016 2.41406 6.57035 2.74219 6.67191C2.70312 6.32816 2.64062 6.01566 2.63281 5.70316C2.52344 2.67973 5.23438 0.570351 8.14844 1.42191C8.50781 1.52348 8.72656 1.74223 8.85156 2.09379C9.71875 4.61723 8.32812 7.18754 5.77344 7.74223C5.42969 7.82035 5.07031 7.82816 4.67969 7.87504C5.45312 8.74223 5.85938 9.73441 5.82031 10.8829C5.78125 12.0391 5.3125 13.0079 4.5 13.836C6.51562 15 7.19531 16.7266 6.70312 18.9766C6.74219 18.9922 6.79688 19.0235 6.85156 19.0391C8.26562 19.4766 9.17969 20.4297 9.71875 21.7891C9.77344 21.9297 9.89062 22.0782 10.0234 22.1407C13.3438 23.8125 16.6641 23.8125 19.9766 22.125C20.0781 22.0704 20.1875 21.9688 20.2188 21.8672C20.7422 20.4375 21.6953 19.4688 23.1641 19.0157C23.1875 19.0079 23.2188 18.9922 23.2422 18.9766C22.7422 16.75 23.4141 15.0157 25.4453 13.8438C24.6484 13.0235 24.1719 12.0547 24.1328 10.9063C24.0938 9.75004 24.4844 8.75004 25.2891 7.86723C24.9688 7.83598 24.6875 7.82816 24.4062 7.78129C21.75 7.37504 20.1484 4.6641 21.1484 1.9766C21.2578 1.67973 21.4844 1.51566 21.7812 1.42191C24.9844 0.453164 27.9297 3.15629 27.2344 6.42191C27.2188 6.48441 27.2109 6.55473 27.1953 6.6641C27.7734 6.45316 28.1406 6.7891 28.5 7.11723C30.4141 8.8516 30.4375 11.6563 28.5625 13.4297C28.5312 13.461 28.5 13.4922 28.4375 13.5625C28.9219 13.6954 29.0703 14.0782 29.2031 14.4688C29.9219 16.6016 29.0859 18.6954 27.1016 19.7422C27.0703 19.7579 27.0391 19.7813 26.9766 19.8204C27.2031 20.0469 27.4219 20.2657 27.6328 20.4766C27.9375 20.7891 27.9844 21.1407 27.8594 21.5547C27.3125 23.3438 25.8594 24.5391 24.0078 24.6797C22.9297 24.7579 21.9688 24.4141 21.125 23.75C20.9688 23.6329 20.8672 23.6172 20.6953 23.711C19.5156 24.336 18.2656 24.75 16.9453 24.9532C16.9062 24.961 16.875 24.9766 16.8047 24.9922C16.875 25.0704 16.9297 25.1407 16.9844 25.1954C17.6875 25.8829 18.3906 26.5704 19.0859 27.2657C19.3516 27.5235 19.4453 27.8438 19.3125 28.2032C19.1953 28.5391 18.9453 28.7266 18.6016 28.7813C18.2891 28.8282 18.0312 28.6954 17.8125 28.4844C16.9453 27.625 16.0781 26.7735 15.2031 25.9219C15.1328 25.8516 15.0625 25.7891 14.9297 25.6641C14.8125 25.8047 14.7109 25.9532 14.5938 26.0704C13.7734 26.8829 12.9453 27.7032 12.1094 28.5079C11.5781 29.0157 10.7812 28.7969 10.6172 28.1094C10.5312 27.7657 10.6562 27.4766 10.9062 27.2344C11.5781 26.5704 12.2578 25.9063 12.9297 25.25C13.0078 25.1797 13.1016 25.125 13.1875 25.0625C13.1719 25.0391 13.1562 25.0078 13.1406 24.9844C12.7656 24.9063 12.3828 24.836 12.0156 24.7422C11.0469 24.5079 10.1172 24.1563 9.24219 23.6875C9.08594 23.6016 8.99219 23.6329 8.85938 23.7266C6.35938 25.6485 2.92969 24.5 2.07812 21.461C1.98438 21.1172 2.03125 20.8047 2.27344 20.5391C2.5 20.2969 2.72656 20.0547 2.96875 19.8047C2.89844 19.7657 2.82812 19.7266 2.75781 19.6875C0.671875 18.5938 -0.0234375 16.1329 0.929688 14.0625C1.03125 13.8438 1.26562 13.6875 1.45312 13.4844C0.960938 13.0391 0.523438 12.4844 0.289062 11.8047C0.171875 11.4766 0.101563 11.1329 0.0078125 10.7969C0 10.5079 0 10.1954 0 9.88285ZM4.375 5.5391C4.375 5.6016 4.35938 5.74223 4.40625 5.86723C4.4375 5.95316 4.53906 6.05473 4.625 6.07035C6.21875 6.25004 7.53906 4.89848 7.34375 3.31254C7.3125 3.05473 7.19531 3.00004 6.97656 2.99223C5.53125 2.92191 4.38281 4.01566 4.375 5.5391ZM25.5625 5.49223C25.5703 4.01566 24.3906 2.89848 22.9375 2.99223C22.7344 3.00785 22.6328 3.05473 22.6016 3.2891C22.4062 4.75004 23.4922 6.04691 24.9688 6.08598C25.5547 6.1016 25.5625 6.09379 25.5625 5.49223ZM5.89062 20.6329C5.07812 20.6329 4.53125 20.8594 4.04688 21.25C3.92188 21.3516 3.91406 21.4297 3.98438 21.5704C4.70312 23.0313 6.58594 23.4063 7.82812 22.3516C7.9375 22.2579 7.99219 22.1875 7.90625 22.0391C7.42188 21.1641 6.71094 20.6719 5.89062 20.6329ZM1.75 10.3985C1.78906 11.3204 2.25781 12.0235 3.07031 12.5157C3.20312 12.5938 3.28125 12.5782 3.39062 12.461C4.5 11.2657 4.1875 9.37504 2.75781 8.59379C2.60938 8.51566 2.52344 8.52348 2.41406 8.65629C2 9.14066 1.76562 9.70316 1.75 10.3985ZM28.1875 10.5C28.1875 9.74223 27.9219 9.08598 27.5234 8.64066C27.4062 8.51566 27.3203 8.50785 27.1797 8.58598C25.75 9.37504 25.4375 11.2735 26.5625 12.4454C26.6172 12.5079 26.7812 12.5391 26.8438 12.5C27.6875 12.0391 28.1484 11.3204 28.1875 10.5ZM23.8203 22.961C24.6719 22.961 25.5547 22.3985 25.9688 21.5704C26.0391 21.4297 26.0078 21.3516 25.8984 21.25C24.6875 20.1797 22.7812 20.5625 22.0547 22.0157C21.9766 22.1641 22 22.25 22.1328 22.3594C22.6016 22.7344 23.1406 22.9453 23.8203 22.961ZM24.9375 18.4063C26.6328 18.6329 28.0469 17.0391 27.6328 15.4063C27.5859 15.2266 27.5 15.211 27.3438 15.211C25.6406 15.1797 24.4531 16.75 24.9375 18.4063ZM2.25781 15.9688C2.25 17.3907 3.375 18.4766 4.79688 18.4375C4.96875 18.4297 5.03125 18.375 5.0625 18.211C5.375 16.8438 4.49219 15.4844 3.10156 15.2579C2.25 15.1172 2.32031 15.125 2.25781 15.9688Z" fill="#DF4343"/>
<path d="M10.6485 16.3672C10.6485 15.8203 10.6563 15.2734 10.6406 14.7344C10.6406 14.6016 10.5938 14.4453 10.5078 14.3438C9.86721 13.5234 9.21877 12.7031 8.57034 11.8906C8.06252 11.25 8.28127 10.5781 9.06252 10.3594C10.0625 10.0859 11.0703 9.8125 12.0703 9.52344C12.2031 9.48438 12.3516 9.38281 12.4297 9.26562C13.0078 8.41406 13.5781 7.54688 14.1485 6.6875C14.625 5.97656 15.3125 5.97656 15.7891 6.6875C16.3516 7.53906 16.9141 8.39844 17.4922 9.24219C17.5781 9.375 17.7422 9.48438 17.8906 9.53125C18.8672 9.82031 19.8594 10.0859 20.8438 10.3594C21.6641 10.5938 21.875 11.25 21.3438 11.9219C20.7031 12.7344 20.0547 13.5391 19.4219 14.3516C19.3438 14.4531 19.2891 14.6094 19.2891 14.7422C19.3203 15.7969 19.375 16.8438 19.4063 17.8984C19.4297 18.7188 18.8672 19.1094 18.0938 18.8281C17.1328 18.4766 16.1797 18.1016 15.2188 17.7656C15.0625 17.7109 14.8516 17.7109 14.6953 17.7656C13.7422 18.1016 12.7891 18.4453 11.8516 18.8281C11.0625 19.1484 10.4219 18.6094 10.5 17.875C10.5469 17.3828 10.5078 16.8828 10.5078 16.3828C10.5703 16.3672 10.6094 16.3672 10.6485 16.3672ZM17.6094 16.7578C17.5781 15.9609 17.5547 15.2109 17.5156 14.4609C17.4922 14.1094 17.5781 13.8203 17.8047 13.5469C18.2422 13.0234 18.6563 12.4844 19.0781 11.9453C19.1328 11.8828 19.1719 11.8125 19.2266 11.7266C19.1485 11.7031 19.1016 11.6875 19.0547 11.6719C18.3672 11.4844 17.6875 11.2891 17 11.1016C16.6797 11.0156 16.4375 10.8516 16.2656 10.5703C15.9375 10.0547 15.5938 9.54688 15.25 9.03125C15.1641 8.89844 15.0703 8.76563 14.961 8.61719C14.6797 9.04688 14.4219 9.4375 14.1641 9.82031C13.25 11.1719 13.6719 10.875 12.0547 11.3359C11.6172 11.4609 11.1719 11.5859 10.6953 11.7188C11.1875 12.3359 11.6328 12.9219 12.1094 13.4922C12.3516 13.7891 12.4453 14.1016 12.4297 14.4844C12.4063 15.2187 12.4219 15.9609 12.4219 16.7031C12.461 16.6875 12.5547 16.6641 12.6406 16.625C13.2735 16.3906 13.8985 16.1641 14.5235 15.9219C14.836 15.7969 15.1172 15.8047 15.4297 15.9219C16.1328 16.2188 16.8438 16.4688 17.6094 16.7578Z" fill="#DF4343"/>
</svg>
