<svg width="45" height="37" viewBox="0 0 45 37" fill="none" xmlns="http://www.w3.org/2000/svg">
<path d="M5.42002 27.7747C3.10143 28.5658 0.865211 31.3129 0.354318 33.719C-0.124644 35.9737 2.64615 37.0223 3.94913 35.2342C4.47445 34.5142 4.82053 33.9116 5.46635 33.2957C6.09776 32.6921 6.91045 32.3172 7.66339 31.6281C9.32998 30.1047 7.59544 27.0311 5.42002 27.7747Z" fill="#FFCD20" fill-opacity="0.31"/>
<path d="M18.8311 26.139C18.2635 25.4263 17.3035 25.0431 16.3971 25.3088C15.1899 25.6632 14.3216 26.7179 13.5254 27.647C12.7271 28.5792 11.9556 29.535 11.5117 30.6856C11.18 31.5457 11.7332 32.6334 12.482 33.0711C13.3513 33.5799 14.301 33.3348 15.0416 32.7405C15.7224 32.1946 16.2632 31.4426 16.8926 30.8339C17.5858 30.1634 18.5798 29.5835 19.0124 28.71C19.4295 27.8674 19.4398 26.9033 18.8311 26.139Z" fill="#FFCD20" fill-opacity="0.31"/>
<path d="M14.8057 16.3549C14.336 15.5525 13.1577 14.9417 12.2348 15.3084C9.67721 16.3261 7.49868 19.3358 6.68187 21.9057C6.16686 23.527 8.52562 25.0483 9.66174 23.6403C10.3488 22.7884 11.0224 21.9232 11.8093 21.1579C12.6169 20.373 13.6789 19.9033 14.4504 19.1143C15.1559 18.3913 15.3197 17.2335 14.8057 16.3549Z" fill="#FFCD20" fill-opacity="0.31"/>
<path d="M28.4453 13.0876C26.5655 12.7466 25.0245 13.9198 23.566 15.0024C22.2373 15.9871 20.8324 17.1108 20.1237 18.6476C19.4223 20.169 20.8746 21.8531 22.4701 20.994C23.6968 20.3338 24.731 19.3615 25.933 18.6518C27.2865 17.8535 28.815 17.6063 29.7369 16.2621C30.4806 15.1765 29.7658 13.3265 28.4453 13.0876Z" fill="#FFCD20" fill-opacity="0.31"/>
<path d="M39.0927 14.5276C38.0039 14.0774 36.7143 14.7501 36.1746 15.7142C36.1046 15.8388 36.0757 15.9789 36.0304 16.1128C35.3176 16.7638 34.5379 17.3622 33.8169 17.9854C32.8528 18.8176 31.5529 19.6849 31.2871 20.9941C31.0688 22.0674 31.7496 22.9738 32.8476 23.0418C34.4174 23.1396 35.9336 21.711 37.1707 20.8725C38.4335 20.0155 40.4935 19.1143 40.752 17.4487C40.9673 16.053 40.3988 15.0683 39.0927 14.5276Z" fill="#FFCD20" fill-opacity="0.31"/>
<path d="M28.0734 0.370899C25.9114 1.82324 23.2941 3.15196 21.5502 5.11829C20.5047 6.29767 21.4936 8.74912 23.256 8.04973C25.7373 7.06503 27.9271 5.40051 30.3714 4.30353C33.0186 3.11488 30.5496 -1.29362 28.0734 0.370899Z" fill="#FFCD20" fill-opacity="0.31"/>
<path d="M40.6325 3.20346C38.4488 4.23555 36.0344 5.45612 34.1083 6.91155C32.5406 8.09608 33.3615 10.8617 35.5266 10.2766C38.0172 9.60301 40.6531 8.3402 42.95 7.16906C45.6044 5.81663 43.2766 1.95507 40.6325 3.20346Z" fill="#FFCD20" fill-opacity="0.31"/>
</svg>
