<svg width="49" height="80" viewBox="0 0 49 80" fill="none" xmlns="http://www.w3.org/2000/svg">
<circle cx="47" cy="2.84448" r="2" transform="rotate(90 47 2.84448)" fill="#6FC081" fill-opacity="0.22"/>
<circle cx="47" cy="17.8445" r="2" transform="rotate(90 47 17.8445)" fill="#6FC081" fill-opacity="0.22"/>
<circle cx="47" cy="32.8445" r="2" transform="rotate(90 47 32.8445)" fill="#6FC081" fill-opacity="0.22"/>
<circle cx="32" cy="2.84448" r="2" transform="rotate(90 32 2.84448)" fill="#6FC081" fill-opacity="0.22"/>
<circle cx="32" cy="17.8445" r="2" transform="rotate(90 32 17.8445)" fill="#6FC081" fill-opacity="0.22"/>
<circle cx="32" cy="32.8445" r="2" transform="rotate(90 32 32.8445)" fill="#6FC081" fill-opacity="0.22"/>
<circle cx="17" cy="2.84448" r="2" transform="rotate(90 17 2.84448)" fill="#6FC081" fill-opacity="0.22"/>
<circle cx="17" cy="17.8445" r="2" transform="rotate(90 17 17.8445)" fill="#6FC081" fill-opacity="0.22"/>
<circle cx="17" cy="32.8445" r="2" transform="rotate(90 17 32.8445)" fill="#6FC081" fill-opacity="0.22"/>
<circle cx="2" cy="2.84448" r="2" transform="rotate(90 2 2.84448)" fill="#6FC081" fill-opacity="0.22"/>
<circle cx="2" cy="17.8445" r="2" transform="rotate(90 2 17.8445)" fill="#6FC081" fill-opacity="0.22"/>
<circle cx="2" cy="32.8445" r="2" transform="rotate(90 2 32.8445)" fill="#6FC081" fill-opacity="0.22"/>
<circle cx="47" cy="47.8445" r="2" transform="rotate(90 47 47.8445)" fill="#6FC081" fill-opacity="0.22"/>
<circle cx="47" cy="62.8445" r="2" transform="rotate(90 47 62.8445)" fill="#6FC081" fill-opacity="0.22"/>
<circle cx="47" cy="77.8445" r="2" transform="rotate(90 47 77.8445)" fill="#6FC081" fill-opacity="0.22"/>
<circle cx="32" cy="47.8445" r="2" transform="rotate(90 32 47.8445)" fill="#6FC081" fill-opacity="0.22"/>
<circle cx="32" cy="62.8445" r="2" transform="rotate(90 32 62.8445)" fill="#6FC081" fill-opacity="0.22"/>
<circle cx="32" cy="77.8445" r="2" transform="rotate(90 32 77.8445)" fill="#6FC081" fill-opacity="0.22"/>
<circle cx="17" cy="47.8445" r="2" transform="rotate(90 17 47.8445)" fill="#6FC081" fill-opacity="0.22"/>
<circle cx="17" cy="62.8445" r="2" transform="rotate(90 17 62.8445)" fill="#6FC081" fill-opacity="0.22"/>
<circle cx="17" cy="77.8445" r="2" transform="rotate(90 17 77.8445)" fill="#6FC081" fill-opacity="0.22"/>
<circle cx="2" cy="47.8445" r="2" transform="rotate(90 2 47.8445)" fill="#6FC081" fill-opacity="0.22"/>
<circle cx="2" cy="62.8445" r="2" transform="rotate(90 2 62.8445)" fill="#6FC081" fill-opacity="0.22"/>
<circle cx="2" cy="77.8445" r="2" transform="rotate(90 2 77.8445)" fill="#6FC081" fill-opacity="0.22"/>
</svg>
