<svg width="183" height="40" viewBox="0 0 183 40" fill="none" xmlns="http://www.w3.org/2000/svg">
<g clip-path="url(#clip0_116_1347)">
<path d="M60.4331 5.79821V3.5693H50.3049V20.2059H60.4331V17.9769H52.9439V12.9307H59.1492V10.8444H52.9439V5.79821H60.4331ZM68.7602 3.5693H63.821V20.2059H68.7602C74.5554 20.2059 77.7294 16.5504 77.7294 11.8608C77.7294 7.20687 74.5554 3.5693 68.7602 3.5693ZM68.3501 18.0483H66.4778V5.72688H68.3501C72.8258 5.72688 74.9834 8.15193 74.9834 11.8608C74.9834 15.6054 72.8258 18.0483 68.3501 18.0483ZM86.8946 20.5446C90.6392 20.5446 93.3139 18.5475 93.3139 13.7688V3.5693H90.657V13.5013C90.657 16.8892 89.0522 18.1909 86.8946 18.1909C84.737 18.1909 83.1501 16.8892 83.1501 13.5013V3.5693H80.4932V13.7688C80.4932 18.5475 83.1679 20.5446 86.8946 20.5446ZM104.833 20.5446C106.83 20.5446 108.595 19.974 110.022 18.9577L108.631 16.8536C107.615 17.6916 106.313 18.1909 104.833 18.1909C101.142 18.1909 98.8237 15.2488 98.8237 11.843C98.8237 8.43723 101.142 5.5129 104.833 5.5129C106.313 5.5129 107.615 6.01218 108.631 6.85025L110.022 4.74616C108.595 3.72978 106.83 3.15918 104.833 3.15918C99.5726 3.15918 96.0599 7.01073 96.0599 11.843C96.0599 16.7109 99.5726 20.5446 104.833 20.5446ZM123.52 20.2059H126.391L119.811 3.5693H117.136L110.557 20.2059H113.41L114.997 15.9264L121.933 15.8907L123.52 20.2059ZM115.781 13.8223L118.474 6.47579L121.166 13.8223H115.781ZM137.981 3.5693H126.177V5.83387H130.777V20.2059H133.434V5.83387H137.981V3.5693ZM142.813 3.5693H140.174V20.2059H142.813V3.5693ZM154.867 20.5446C160.145 20.5446 163.676 16.6753 163.676 11.843C163.676 7.01073 160.145 3.15918 154.867 3.15918C149.554 3.15918 146.041 7.01073 146.041 11.843C146.041 16.6753 149.554 20.5446 154.867 20.5446ZM154.867 18.1909C151.141 18.1909 148.805 15.2488 148.805 11.843C148.805 8.40157 151.141 5.5129 154.867 5.5129C158.576 5.5129 160.912 8.40157 160.912 11.843C160.912 15.2488 158.576 18.1909 154.867 18.1909ZM178.191 3.5693V15.9798L169.311 3.5693H166.814V20.2059H169.4V7.83097L178.262 20.2059H180.74V3.5693H178.191Z" fill="black"/>
<path d="M35.5732 33.7672C35.364 33.4356 35.0318 33.2005 34.6494 33.1137C34.2671 33.0269 33.8659 33.0955 33.5341 33.3044C30.5086 35.2078 27.006 36.2157 23.4316 36.2114C12.9579 36.2114 4.43694 27.69 4.43694 17.2167C4.43694 10.7939 7.64686 4.85359 13.0242 1.32499C13.1865 1.21859 13.3263 1.08125 13.4354 0.920808C13.5446 0.760368 13.6211 0.579981 13.6605 0.389963C13.6999 0.199944 13.7015 0.00402033 13.6651 -0.186605C13.6287 -0.37723 13.5552 -0.558817 13.4486 -0.720984C13.3421 -0.883283 13.2047 -1.02302 13.0443 -1.13221C12.8838 -1.2414 12.7034 -1.3179 12.5134 -1.35735C12.3233 -1.39679 12.1274 -1.39841 11.9367 -1.3621C11.7461 -1.3258 11.5644 -1.25228 11.4022 -1.14575C5.18937 2.93038 1.48112 9.79551 1.48112 17.2171C1.48112 27.0052 7.92362 35.317 16.7902 38.1381C14.2823 38.8528 12.4758 40.0206 11.9544 41.3882H33.0772C32.6195 40.1875 31.1651 39.1403 29.1196 38.4178C31.2362 37.8534 33.2557 36.9731 35.1099 35.8068C35.4411 35.5971 35.6757 35.2648 35.7625 34.8826C35.8493 34.5004 35.7812 34.0994 35.5732 33.7672Z" fill="url(#paint0_linear_116_1347)"/>
<path d="M22.9521 0.559082C13.6962 0.559082 6.19162 8.06243 6.19162 17.3187C6.19162 26.5759 13.6962 34.0788 22.9521 34.0788C32.208 34.0788 39.7122 26.5759 39.7122 17.3187C39.7118 8.062 32.2076 0.559082 22.9521 0.559082ZM30.0405 22.472C30.0405 22.7355 29.9481 23.1465 29.8352 23.3839L28.6118 25.9655C28.4985 26.2033 28.2487 26.5447 28.0562 26.7256L24.0716 30.4454C23.8799 30.6251 23.9381 30.7731 24.2008 30.7731H24.6572C24.9198 30.7731 25.1358 30.9617 25.1358 31.1923C25.1358 31.4237 24.9198 31.6128 24.6572 31.6128H22.6989C22.5719 31.6122 22.4503 31.5614 22.3606 31.4715C22.2709 31.3816 22.2205 31.2598 22.2202 31.1328V26.0382C22.2202 25.7734 22.4354 25.5591 22.6989 25.5591H23.243C23.5065 25.5591 23.7221 25.3435 23.7221 25.0804V24.5363C23.7221 24.2724 23.5065 24.0568 23.243 24.0568H22.6989C22.5721 24.0566 22.4505 24.0061 22.3608 23.9165C22.2711 23.8269 22.2206 23.7054 22.2202 23.5786V20.5932C22.2202 20.3306 22.0042 20.115 21.7407 20.115H20.9305C20.6683 20.115 20.2756 19.9905 20.0613 19.8378L17.4845 18.0151C17.2693 17.8637 16.9836 17.5531 16.8501 17.3256L15.6443 15.2787C15.5108 15.052 15.1857 14.866 14.9222 14.866H14.346C14.0825 14.866 13.7737 14.6718 13.6595 14.4348L12.2624 11.5414C12.1499 11.3048 12.0549 10.8955 12.0549 10.6311V8.98168C12.0549 8.71818 11.8492 8.56547 11.5972 8.6429L11.0356 8.81571C13.467 5.41716 17.313 3.10126 21.7078 2.72911V4.71862C21.7078 4.98127 21.8836 5.32091 22.0992 5.47191L22.9962 6.10286C23.2118 6.25386 23.6032 6.37833 23.8667 6.37833H24.5763C24.8403 6.37833 25.0554 6.552 25.0554 6.76503C25.0554 6.9772 24.9066 7.307 24.7256 7.49907L23.7028 8.57702C23.5206 8.76737 23.5882 8.92436 23.8521 8.92479L24.5344 8.9265C24.6613 8.92729 24.7827 8.97816 24.8723 9.06805C24.9619 9.15794 25.0123 9.27956 25.0126 9.40645L25.0105 11.1269C25.0106 11.2537 25.061 11.3754 25.1507 11.4651C25.2403 11.5548 25.3619 11.6053 25.4887 11.6056H26.2587C26.5218 11.6056 26.7378 11.769 26.7378 11.9696C26.7378 12.1694 26.5218 12.3328 26.2587 12.3328H23.8975C23.6348 12.3328 23.2477 12.4637 23.0385 12.6232L22.0714 13.3611C21.8622 13.5206 21.6902 13.8667 21.6902 14.1302L21.6911 16.9915C21.6911 17.255 21.4759 17.4706 21.2124 17.4706H21.079C20.9521 17.4701 20.8305 17.4195 20.7408 17.3297C20.6512 17.24 20.6006 17.1184 20.6003 16.9915V15.3442C20.6002 15.2173 20.5497 15.0956 20.46 15.0058C20.3702 14.9161 20.2485 14.8656 20.1216 14.8655H18.8298C18.7029 14.8663 18.5815 14.9169 18.4916 15.0065C18.4017 15.096 18.3507 15.2173 18.3494 15.3442L18.3426 16.6737C18.3409 16.9372 18.509 17.2871 18.7147 17.4526L20.6208 18.9819C20.8257 19.1474 21.2094 19.2822 21.4725 19.2826L24.6563 19.2843C24.919 19.2847 25.3262 19.3848 25.5593 19.5067L29.6158 21.6267C29.8489 21.7482 30.0397 22.0635 30.0397 22.3278V22.4728H30.0405V22.472ZM28.8107 8.12488C28.5986 8.28101 28.2093 8.40891 27.9462 8.40891H27.74C27.6132 8.40846 27.4916 8.35783 27.4019 8.26806C27.3122 8.1783 27.2617 8.05671 27.2614 7.92982V6.3732C27.2613 6.24629 27.2108 6.1246 27.1211 6.03486C27.0313 5.94512 26.9096 5.89465 26.7827 5.89454H26.0893C25.9625 5.89409 25.841 5.84351 25.7514 5.75384C25.6617 5.66417 25.6111 5.54268 25.6107 5.41587V2.91989C27.8585 3.33346 29.9777 4.26947 31.7974 5.65242C31.7353 5.85775 28.8107 8.12488 28.8107 8.12488Z" fill="url(#paint1_linear_116_1347)"/>
<path d="M53.2271 28.6929C54.6088 28.6929 55.5326 29.2328 55.9985 30.3128L55.522 30.7019C55.3367 30.1778 55.0588 29.7966 54.6882 29.5584C54.3229 29.3202 53.8412 29.2011 53.243 29.2011C52.8089 29.2011 52.433 29.2699 52.1154 29.4075C51.7978 29.5399 51.5569 29.7199 51.3928 29.9475C51.2234 30.1804 51.1387 30.4398 51.1387 30.7257C51.1387 31.0063 51.2102 31.2392 51.3531 31.4245C51.4907 31.6098 51.729 31.7686 52.0678 31.901C52.4066 32.028 52.8724 32.1445 53.4653 32.2503C54.4182 32.4145 55.0959 32.6527 55.4982 32.965C55.8952 33.2721 56.0937 33.7009 56.0937 34.2514C56.0937 34.6432 55.9799 34.9926 55.7523 35.2996C55.5247 35.6014 55.2017 35.8343 54.7835 35.9984C54.36 36.1678 53.8783 36.2525 53.3383 36.2525C52.5707 36.2525 51.9222 36.099 51.3928 35.7919C50.8581 35.4849 50.4955 35.0535 50.3049 34.4976L50.7972 34.1164C50.9455 34.6458 51.2419 35.0482 51.6866 35.3234C52.1366 35.604 52.6924 35.7443 53.3542 35.7443C53.9894 35.7443 54.5082 35.6146 54.9106 35.3552C55.3182 35.0958 55.522 34.7385 55.522 34.2832C55.522 33.8914 55.3553 33.5818 55.0217 33.3541C54.6935 33.1212 54.1218 32.9359 53.3065 32.7983C52.6183 32.6765 52.0731 32.5309 51.6707 32.3615C51.2737 32.1921 50.9878 31.9804 50.8131 31.7263C50.6384 31.4774 50.5511 31.1625 50.5511 30.7813C50.5511 30.4054 50.6596 30.0587 50.8766 29.7411C51.0937 29.4181 51.406 29.164 51.8137 28.9787C52.216 28.7882 52.6871 28.6929 53.2271 28.6929ZM63.9551 35.6331H68.3623V36.1413H63.3993V28.804H63.9551V35.6331ZM77.796 28.6929C78.4842 28.6929 79.0824 28.8464 79.5906 29.1534C80.0988 29.4605 80.4905 29.8972 80.7658 30.4637C81.0411 31.0301 81.1787 31.6998 81.1787 32.4727C81.1787 33.2456 81.0411 33.9153 80.7658 34.4817C80.4905 35.0482 80.0988 35.4849 79.5906 35.7919C79.0824 36.099 78.4842 36.2525 77.796 36.2525C77.1078 36.2525 76.5095 36.099 76.0013 35.7919C75.4931 35.4849 75.1014 35.0482 74.8261 34.4817C74.5561 33.9153 74.4211 33.2456 74.4211 32.4727C74.4211 31.6998 74.5561 31.0301 74.8261 30.4637C75.1014 29.8972 75.4931 29.4605 76.0013 29.1534C76.5095 28.8464 77.1078 28.6929 77.796 28.6929ZM77.796 29.2011C77.2242 29.2011 76.7292 29.3334 76.311 29.5981C75.8928 29.8628 75.5699 30.2413 75.3423 30.7337C75.1199 31.226 75.0087 31.8057 75.0087 32.4727C75.0087 33.1397 75.1199 33.7194 75.3423 34.2117C75.5699 34.7041 75.8928 35.0826 76.311 35.3473C76.7292 35.612 77.2242 35.7443 77.796 35.7443C78.3677 35.7443 78.8653 35.612 79.2888 35.3473C79.7123 35.0826 80.0353 34.7041 80.2576 34.2117C80.4852 33.7194 80.5991 33.1397 80.5991 32.4727C80.5991 31.8057 80.4852 31.226 80.2576 30.7337C80.0353 30.2413 79.7123 29.8628 79.2888 29.5981C78.8653 29.3334 78.3677 29.2011 77.796 29.2011ZM91.4065 32.5521H94.4161V36.1413H93.9714L93.9475 34.8629C93.7517 35.3076 93.4393 35.6517 93.0105 35.8952C92.587 36.1334 92.0603 36.2525 91.4303 36.2525C90.7633 36.2525 90.1783 36.099 89.6754 35.7919C89.1778 35.4849 88.7913 35.0455 88.516 34.4738C88.2461 33.902 88.1111 33.235 88.1111 32.4727C88.1111 31.7104 88.2513 31.0433 88.5319 30.4716C88.8072 29.8999 89.1989 29.4605 89.7072 29.1534C90.2101 28.8464 90.795 28.6929 91.4621 28.6929C92.2085 28.6929 92.82 28.8411 93.2964 29.1376C93.7676 29.434 94.1222 29.8866 94.3605 30.4954L93.8523 30.7575C93.6829 30.2493 93.3943 29.8628 92.9867 29.5981C92.5844 29.3334 92.0762 29.2011 91.4621 29.2011C90.9115 29.2011 90.4298 29.3334 90.0168 29.5981C89.5986 29.8628 89.2757 30.2413 89.0481 30.7337C88.8204 31.226 88.7066 31.8057 88.7066 32.4727C88.7066 33.4891 88.9475 34.2885 89.4292 34.8708C89.9163 35.4531 90.5886 35.7443 91.4462 35.7443C91.9809 35.7443 92.4335 35.6384 92.8041 35.4267C93.1746 35.2149 93.4499 34.937 93.6299 34.5929C93.8046 34.2488 93.892 33.8782 93.892 33.4812V33.0762H91.4065V32.5521ZM106.939 36.1413L106.01 33.8385H102.5L101.587 36.1413H100.999L103.937 28.804H104.588L107.526 36.1413H106.939ZM102.714 33.3303H105.811L104.533 30.1302L104.271 29.352H104.255L103.993 30.1063L102.714 33.3303ZM120.089 28.804V36.1413H119.398L115.507 30.3843L114.959 29.4075H114.951L114.983 30.3287V36.1413H114.451V28.804H115.149L119.033 34.5532L119.588 35.5378L119.565 34.6167V28.804H120.089ZM142.085 28.804H142.641V36.1413H142.085V32.6712H137.55V36.1413H136.995V28.804H137.55V32.1471H142.085V28.804ZM151.074 35.6331H155.703V36.1413H150.518V28.804H155.528V29.3123H151.074V32.1471H154.591V32.6712H151.074V35.6331ZM168.393 36.1413H167.733L165.637 32.965H165.597H163.43V36.1413H162.874V28.804H165.597C166.333 28.804 166.918 28.9893 167.352 29.3599C167.786 29.7305 168.003 30.2387 168.003 30.8845C168.003 31.4192 167.847 31.8613 167.535 32.2106C167.223 32.5653 166.796 32.793 166.256 32.8936L168.393 36.1413ZM163.43 29.3123V32.4409H165.589C166.182 32.4409 166.638 32.3059 166.955 32.0359C167.268 31.7713 167.424 31.3874 167.424 30.8845C167.424 30.3816 167.268 29.9925 166.955 29.7172C166.638 29.4472 166.182 29.3123 165.589 29.3123H163.43ZM176.103 35.6331H180.74V36.1413H175.547V28.804H180.566V29.3123H176.103V32.1471H179.629V32.6712H176.103V35.6331Z" fill="black"/>
</g>
<defs>
<linearGradient id="paint0_linear_116_1347" x1="1.20824" y1="-0.328661" x2="3111.49" y2="1450.02" gradientUnits="userSpaceOnUse">
<stop stop-color="#288B58"/>
<stop offset="1" stop-color="#1522F1"/>
</linearGradient>
<linearGradient id="paint1_linear_116_1347" x1="4.65437" y1="3.42684" x2="3042.65" y2="1420.07" gradientUnits="userSpaceOnUse">
<stop stop-color="#288B58"/>
<stop offset="1" stop-color="#1522F1"/>
</linearGradient>
<clipPath id="clip0_116_1347">
<rect width="182.222" height="40" fill="white"/>
</clipPath>
</defs>
</svg>
