<svg width="98" height="40" viewBox="0 0 98 40" fill="none" xmlns="http://www.w3.org/2000/svg">
<g clip-path="url(#clip0_116_1297)">
<path fill-rule="evenodd" clip-rule="evenodd" d="M5.93777 12.7878V12.7374V7.07678L5.91327 7.07118C5.89132 7.02587 5.90765 6.85837 5.91225 6.81052L5.91684 6.77896L4.68404 6.34725L15.4485 5.37743C15.4811 5.20027 15.4924 4.97728 15.3698 4.88412C15.3479 4.86834 15.3086 4.85561 15.255 4.84492C15.2642 4.70492 15.2478 4.5639 15.1554 4.49518C14.6302 4.10165 3.57376 5.43699 3.3905 5.56936C3.35221 5.63707 3.32209 5.73583 3.29555 5.86158L2.43284 5.56019C2.26234 5.67474 1.9969 5.6503 1.82997 5.60652C1.05915 5.40645 -0.171607 5.26288 -0.524856 4.81743C-0.703523 4.37096 -0.0541971 4.25488 0.341422 4.16478C0.636988 4.09605 0.944294 4.04565 1.23527 3.9647C3.47217 3.34158 5.72388 2.74288 7.96998 2.14521C9.49477 1.73947 11.0196 1.33576 12.5479 0.946811C13.0824 0.811393 13.6204 0.675466 14.1575 0.548194C14.3371 0.50543 14.6434 0.421939 14.8461 0.396484L28.4176 3.93568C28.8143 4.04616 29.8173 4.19634 30.1037 4.42696C30.2324 4.53183 30.286 4.67641 30.3069 4.82252C30.0277 5.22114 27.1879 5.83917 26.7182 5.94608C25.7233 6.1711 23.8555 6.53256 23.0178 6.9999L22.8611 7.08543L22.8483 7.24579C22.8218 7.56448 22.8182 8.37496 22.8218 9.28776C20.4363 7.62303 17.2709 6.96732 13.6797 8.18048L13.6322 8.19779C12.8471 8.28841 12.0334 8.47016 11.1972 8.75321C9.15888 9.4415 7.25838 10.8955 5.93777 12.7878ZM26.1879 5.33874C26.5452 5.24252 26.9 5.14019 27.2246 5.02972L27.8985 4.7991L26.1879 5.33874Z" fill="#F16322"/>
<path fill-rule="evenodd" clip-rule="evenodd" d="M14.2759 4.1423C14.3086 3.96462 14.3188 3.74164 14.1958 3.64899C13.6694 3.25546 2.61407 4.58979 2.42979 4.72368C2.0066 5.5031 2.2792 10.6113 2.29655 12.0576H3.15671L3.15568 12.0286C3.13475 11.2747 3.13475 10.5171 3.12199 9.76266L3.11383 9.35335L3.22052 9.40121V7.58986L3.18223 6.07328L3.21133 5.13757L14.2759 4.1423Z" fill="#F16322"/>
<path fill-rule="evenodd" clip-rule="evenodd" d="M18.7206 25.771C20.0504 24.1179 21.8697 21.4401 22.1403 19.3513C22.7411 14.6972 19.2969 11.0618 15.1319 10.8368C8.5953 10.483 5.45383 17.2585 7.78007 21.8459C9.08127 24.4097 15.1192 28.6341 17.4475 29.8386C21.5348 32.8738 17.5485 32.7745 16.5429 32.0954C13.1258 29.7846 7.63969 26.7647 5.51662 23.1547C1.82689 16.8797 6.09294 10.2742 11.238 8.53468C21.9989 4.89519 28.9653 18.047 22.4241 24.8398C19.8789 27.7498 19.3709 28.5969 19.3709 28.5969C19.1448 28.5969 17.4475 27.3547 18.7206 25.771Z" fill="#F16322"/>
<path fill-rule="evenodd" clip-rule="evenodd" d="M11.6602 32.7369C13.3555 32.8224 16.0467 33.245 17.5889 33.946C19.6379 34.8776 18.8947 36.2838 16.7737 35.9773C15.692 35.821 14.4091 35.4091 13.7761 35.2691C12.6852 35.0288 11.5683 34.984 10.8705 34.619C9.91949 34.1227 9.4034 32.6249 11.6602 32.7369Z" fill="#F16322"/>
<path fill-rule="evenodd" clip-rule="evenodd" d="M11.6602 36.3209C13.3555 36.4059 16.0467 36.828 17.5889 37.5295C19.6379 38.4611 18.8947 39.8667 16.7737 39.5618C15.692 39.4045 14.4091 38.9926 13.7761 38.8521C12.6852 38.6118 11.5683 38.5675 10.8705 38.202C9.91949 37.7072 9.4034 36.2089 11.6602 36.3209Z" fill="#F16322"/>
<path fill-rule="evenodd" clip-rule="evenodd" d="M16.1917 19.9299L15.2315 20.4044L14.4974 20.7674C11.6878 22.1572 12.1875 22.3781 12.3636 19.6158L12.431 18.5482L12.4831 17.7332C12.6801 14.6114 12.2386 14.9342 14.5505 16.4671L15.4433 17.0586L16.1253 17.5107C18.7369 19.2421 18.6777 18.6994 16.1917 19.9299Z" fill="#F16322"/>
<path fill-rule="evenodd" clip-rule="evenodd" d="M31.0348 26.259H35.3657C39.0161 26.259 41.5394 23.7267 41.5394 20.467V20.4339C41.5394 17.1737 39.0161 14.6751 35.3657 14.6751H31.0348V26.259ZM35.3657 16.5282C37.8053 16.5282 39.3985 18.2001 39.3985 20.467V20.5001C39.3985 22.7671 37.8053 24.4054 35.3657 24.4054H33.0757V16.5282H35.3657ZM44.1275 26.259H46.1684V14.6751H44.1275V26.259ZM54.7806 26.457C56.8379 26.457 58.4806 25.6302 59.6251 24.6538V19.7889H54.6806V21.5595H57.65V23.7273C56.9369 24.2567 55.941 24.6044 54.846 24.6044C52.4738 24.6044 50.8964 22.8501 50.8964 20.4675V20.4345C50.8964 18.2163 52.5233 16.347 54.6637 16.347C56.14 16.347 57.0201 16.826 57.915 17.5876L59.21 16.0491C58.0145 15.0391 56.7705 14.4766 54.7459 14.4766C51.2451 14.4766 48.7555 17.2241 48.7555 20.4675V20.5006C48.7565 23.8759 51.1466 26.457 54.7806 26.457ZM62.3964 26.259H64.4373V14.6751H62.3964V26.259ZM70.3941 26.259H72.4523V16.5618H76.1364V14.6751H66.7115V16.5618H70.3941V26.259ZM75.8031 26.259L80.9145 14.5926H82.8058L87.9172 26.259H85.7589C84.0672 22.2402 83.6496 21.2332 81.8267 17.0251C80.2274 20.746 79.4576 22.5986 77.8935 26.259H75.8031ZM89.908 26.259H98.0552V24.4054H91.9489V14.6751H89.908V26.259Z" fill="#011C1A"/>
<path fill-rule="evenodd" clip-rule="evenodd" d="M31.7633 31.7628C31.7633 31.2679 32.213 30.8805 32.9195 30.8805C33.4774 30.8805 33.9818 31.0592 34.4861 31.4685L34.8435 30.9971C34.2927 30.5562 33.7271 30.3317 32.9348 30.3317C31.9026 30.3317 31.1512 30.9503 31.1512 31.8172C31.1512 32.7148 31.725 33.117 32.9741 33.3878C34.114 33.6276 34.3856 33.9132 34.3856 34.4243C34.3856 34.9736 33.9042 35.3524 33.1763 35.3524C32.4238 35.3524 31.8802 35.0973 31.3141 34.5867L30.9337 35.0352C31.5856 35.6151 32.2916 35.9012 33.1518 35.9012C34.2304 35.9012 35.0058 35.2979 35.0058 34.3617C35.0058 33.5268 34.4479 33.0854 33.2375 32.8227C32.0425 32.5676 31.7633 32.2815 31.7633 31.7628ZM47.5947 34.9655L47.1914 34.5709C46.6707 35.0663 46.1827 35.3519 45.4379 35.3519C44.2424 35.3519 43.3358 34.3703 43.3358 33.1083C43.3358 31.8473 44.2357 30.88 45.4379 30.88C46.174 30.88 46.6865 31.1895 47.1449 31.6228L47.5635 31.1743C47.0209 30.6636 46.4308 30.3154 45.4461 30.3154C43.8473 30.3154 42.6992 31.5764 42.6992 33.1236C42.6992 34.686 43.8554 35.9164 45.4221 35.9164C46.4073 35.9175 47.0275 35.5387 47.5947 34.9655ZM59.0972 33.3878V35.8243H59.7093V30.4091H59.0972V32.8151H55.9629V30.4091H55.3493V35.8238H55.9629V33.3873L59.0972 33.3878ZM73.2292 33.1088C73.2292 31.608 72.1195 30.3159 70.4671 30.3159C68.8147 30.3159 67.6901 31.6233 67.6901 33.1241C67.6901 34.6249 68.7998 35.917 70.4523 35.917C72.1042 35.9175 73.2292 34.6101 73.2292 33.1088ZM72.5922 33.1246C72.5922 34.3622 71.7085 35.3524 70.4665 35.3524C69.2261 35.3524 68.3261 34.3469 68.3261 33.1088C68.3261 31.8717 69.2108 30.8805 70.4517 30.8805C71.6927 30.8805 72.5922 31.8865 72.5922 33.1246ZM86.5067 33.1088C86.5067 31.608 85.398 30.3159 83.7461 30.3159C82.0937 30.3159 80.9691 31.6233 80.9691 33.1241C80.9691 34.6249 82.0789 35.917 83.7313 35.917C85.3832 35.9175 86.5067 34.6101 86.5067 33.1088ZM85.8717 33.1246C85.8717 34.3622 84.987 35.3524 83.7461 35.3524C82.5056 35.3524 81.6057 34.3469 81.6057 33.1088C81.6057 31.8717 82.4893 30.8805 83.7313 30.8805C84.9717 30.8805 85.8717 31.8865 85.8717 33.1246ZM94.488 35.8243H98.1568V35.2597H95.1006V30.4091H94.488V35.8243Z" fill="#011C1A"/>
</g>
<defs>
<clipPath id="clip0_116_1297">
<rect width="97.6" height="40" fill="white"/>
</clipPath>
</defs>
</svg>
