<svg width="133" height="40" viewBox="0 0 133 40" fill="none" xmlns="http://www.w3.org/2000/svg">
<path fill-rule="evenodd" clip-rule="evenodd" d="M0.614441 31.3768L0.892302 16.1743L4.35428 14.2397L17.3712 21.5644L17.787 37.4578C15.0174 39.6691 14.5964 39.4053 12.3858 38.4248L0.614441 31.3768ZM1.90317 29.4397L12.9029 35.935L12.9119 24.6441L2.12624 18.3662L1.90317 29.4397ZM6.46886 32.7112C6.03692 32.4602 5.54824 32.4931 5.37869 32.7845C5.20914 33.0753 5.42253 33.5147 5.85447 33.7656C6.28641 34.0165 6.77509 33.9837 6.94464 33.6929C7.11419 33.4021 6.9008 32.9621 6.46886 32.7112ZM0.892302 16.1743L14.1871 23.9139V38.5638L16.5408 36.7675L16.2643 22.1176L4.22792 15.3862L1.8819 16.7508L0.892302 16.1743Z" fill="url(#paint0_linear_116_1308)"/>
<path fill-rule="evenodd" clip-rule="evenodd" d="M36.1568 31.377L35.8802 16.1745L35.1047 16.6255L35.5772 16.2787L32.2887 14.061L32.2725 14.3216L19.3994 21.5651L18.9836 37.4586C21.7532 39.6698 22.1741 39.4061 24.3848 38.4256L36.1568 31.377ZM34.7385 16.8397L22.5842 23.914V38.5639L20.2304 36.7677L20.507 22.1178L32.5208 15.3992L34.7385 16.8397Z" fill="url(#paint1_linear_116_1308)"/>
<path fill-rule="evenodd" clip-rule="evenodd" d="M18.8372 0.845703L31.8915 8.68693L31.2713 9.04078L31.6272 12.0716L31.8393 12.6468L18.9732 20.2345L4.97316 12.6468C4.44 9.14822 4.87904 8.91597 6.83502 7.49544L18.8372 0.845703ZM17.4821 5.33891V10.8518L21.5771 7.99533L17.4821 5.33891ZM30.3417 9.56962L18.5271 16.3068L5.81448 8.98223L6.19678 11.9153L19.048 19.0006L30.6827 12.0974L30.3417 9.56962Z" fill="url(#paint2_linear_116_1308)"/>
<path fill-rule="evenodd" clip-rule="evenodd" d="M26.6895 26.2217L32.5665 22.8003V23.8194L26.6895 27.2407V26.2217Z" fill="white"/>
<path fill-rule="evenodd" clip-rule="evenodd" d="M26.6895 28.789L32.5665 25.3677V26.3868L26.6895 29.8081V28.789Z" fill="white"/>
<path fill-rule="evenodd" clip-rule="evenodd" d="M26.6895 31.3144L32.5665 27.8931V28.9134L26.6895 32.3342V31.3144Z" fill="white"/>
<path fill-rule="evenodd" clip-rule="evenodd" d="M42.1143 22.1705H47.9023C52.782 22.1705 56.1537 18.7839 56.1537 14.4238V14.3801C56.1537 10.0194 52.782 6.67781 47.9023 6.67781H42.1143V22.1705ZM47.9023 9.15667C51.1638 9.15667 53.2932 11.3917 53.2932 14.4238V14.4682C53.2932 17.5004 51.1638 19.691 47.9023 19.691H44.842V9.15667H47.9023ZM59.6131 22.1705H62.3408V6.67846H59.6131V22.1705ZM73.8517 22.4355C76.6006 22.4355 78.7965 21.3283 80.3276 20.0236V13.5167H73.7189V15.8842H77.6889V18.7839C76.7354 19.4922 75.4041 19.9573 73.9394 19.9573C70.7688 19.9573 68.6619 17.6117 68.6619 14.4238V14.3801C68.6619 11.4136 70.8352 8.91283 73.6957 8.91283C75.6697 8.91283 76.845 9.55426 78.0422 10.5727L79.7725 8.51524C78.175 7.16483 76.513 6.41211 73.8059 6.41211C69.1274 6.41211 65.8008 10.087 65.8008 14.4238V14.4682C65.8015 18.9827 68.9946 22.4355 73.8517 22.4355ZM84.032 22.1705H86.7596V6.67846H84.032V22.1705ZM94.7209 22.1705H97.4711V9.20042H102.395V6.67781H89.7968V9.20042H94.7203L94.7209 22.1705ZM101.95 22.1705L108.782 6.56716H111.31L118.141 22.1705H115.257C113.011 16.8338 112.33 15.1971 110.001 9.82061C107.885 14.7494 106.829 17.2893 104.745 22.1705H101.95ZM120.802 22.1705H131.692V19.691H123.53V6.67781H120.802V22.1705Z" fill="black"/>
<path fill-rule="evenodd" clip-rule="evenodd" d="M47.5877 28.084H42.2942V35.3912H47.6412V34.6391H43.1213V32.0811H47.1171V31.3303H43.1213V28.8347H47.5877V28.084ZM59.0045 31.726C59.0045 29.6602 57.4134 28.084 55.1125 28.084H52.5712V35.3912H55.1125C57.4141 35.3906 59.0045 33.7937 59.0045 31.726ZM58.1471 31.7479C58.1471 33.3762 56.9647 34.6288 55.1125 34.6288H53.397V28.8457H55.1125C56.9647 28.845 58.1471 30.1189 58.1471 31.7479ZM70.0016 28.084H69.1745V32.332C69.1745 33.9295 68.3183 34.7433 66.969 34.7433C65.5662 34.7433 64.7294 33.8568 64.7294 32.2793V28.0833H63.9022V32.3314C63.9022 34.3985 65.1381 35.5051 66.9477 35.5051C68.7774 35.5051 70.0016 34.3985 70.0016 32.269V28.084ZM81.5016 34.2319L80.9568 33.6998C80.258 34.3683 79.5978 34.7543 78.594 34.7543C76.9823 34.7543 75.7593 33.4283 75.7593 31.726C75.7593 30.025 76.9726 28.7209 78.594 28.7209C79.5862 28.7209 80.2773 29.1384 80.8956 29.7226L81.4603 29.1172C80.7292 28.4275 79.9324 27.9585 78.6043 27.9585C76.4492 27.9585 74.9019 29.6602 74.9019 31.7479C74.9019 33.8568 76.4601 35.516 78.5734 35.516C79.9015 35.516 80.7383 35.0052 81.5016 34.2319ZM89.6969 28.0312H88.9219L85.5844 35.3912H86.4328L87.3005 33.4598H91.2867L92.1447 35.3912H93.0338L89.6969 28.0312ZM90.9617 32.7187H87.6242L89.2978 28.9917L90.9617 32.7187ZM99.5748 28.845H102.034V28.0833H96.2798V28.845H98.7386V35.3905H99.5754L99.5748 28.845ZM106.922 28.084V35.3912H107.749V28.084H106.922ZM120.304 31.726C120.304 29.7013 118.809 27.9585 116.58 27.9585C114.352 27.9585 112.835 29.7226 112.835 31.7479C112.835 33.7725 114.33 35.516 116.559 35.516C118.788 35.516 120.304 33.7519 120.304 31.726ZM119.446 31.7479C119.446 33.4174 118.254 34.7543 116.58 34.7543C114.907 34.7543 113.692 33.3974 113.692 31.726C113.692 30.0565 114.885 28.7209 116.56 28.7209C118.233 28.7202 119.446 30.0771 119.446 31.7479ZM130.706 33.9391L126.092 28.084H125.318V35.3912H126.124V29.399L130.852 35.3912H131.512V28.084H130.706V33.9391Z" fill="black"/>
<defs>
<linearGradient id="paint0_linear_116_1308" x1="8.23524" y1="35.7964" x2="10.4671" y2="17.5811" gradientUnits="userSpaceOnUse">
<stop stop-color="#007FC3"/>
<stop offset="1" stop-color="#5CAF47"/>
</linearGradient>
<linearGradient id="paint1_linear_116_1308" x1="27.3747" y1="37.9988" x2="28.1674" y2="15.2534" gradientUnits="userSpaceOnUse">
<stop stop-color="#490E4A"/>
<stop offset="1" stop-color="#E41D37"/>
</linearGradient>
<linearGradient id="paint2_linear_116_1308" x1="18.2249" y1="3.76133" x2="18.4654" y2="17.5675" gradientUnits="userSpaceOnUse">
<stop stop-color="#F37C20"/>
<stop offset="1" stop-color="#CD2026"/>
</linearGradient>
</defs>
</svg>
