<svg width="102" height="40" viewBox="0 0 102 40" fill="none" xmlns="http://www.w3.org/2000/svg">
<g clip-path="url(#clip0_116_1331)">
<path fill-rule="evenodd" clip-rule="evenodd" d="M7.76167 15.2424L7.66147 12.6313C7.66147 12.6313 2.32108 10.1117 1.05739 9.42088C-0.206294 8.7301 -0.369303 7.95781 2.72885 6.61648C5.82701 5.27516 13.5014 1.93254 14.765 1.40427C17.8547 0.112641 19.4205 0.112641 22.5107 1.40427C23.7744 1.93254 31.4487 5.27516 34.5469 6.61648C37.645 7.95781 37.482 8.7296 36.2183 9.42088C34.9546 10.1117 29.6142 12.6313 29.6142 12.6313L29.5146 15.2424H7.76167Z" fill="#011C1A"/>
<path d="M2.98363 8.59717H1.92383V14.368H2.98363V8.59717Z" fill="#011C1A"/>
<path fill-rule="evenodd" clip-rule="evenodd" d="M2.51502 13.8403C3.29168 13.8403 3.92128 14.468 3.92128 15.2423C3.92128 16.0166 3.29168 16.6442 2.51502 16.6442C1.73837 16.6442 1.10876 16.0166 1.10876 15.2423C1.10876 14.468 1.73837 13.8403 2.51502 13.8403Z" fill="#011C1A"/>
<path fill-rule="evenodd" clip-rule="evenodd" d="M2.47157 14.7344L0.963623 20.0723C0.963623 20.0723 1.50001 20.866 2.47207 20.866C3.44414 20.866 3.98052 20.0723 3.98052 20.0723L2.47157 14.7344Z" fill="#011C1A"/>
<path fill-rule="evenodd" clip-rule="evenodd" d="M30.5604 43.0264V18.6212C30.5604 18.2559 30.2539 17.9508 29.888 17.9508H7.38833C7.02194 17.9508 6.71586 18.2564 6.71586 18.6212V36.7044C6.71586 37.0692 7.02244 37.3748 7.38833 37.3748H26.6263L27.2041 38.2097C27.89 39.2007 28.5774 40.1907 29.2673 41.1791C29.6975 41.7954 30.1282 42.4111 30.5604 43.0264ZM7.38833 16.0186H29.8875C31.3236 16.0186 32.4981 17.1899 32.4981 18.6212V27.6626V27.6775V27.7217V27.7947V27.8951V28.0224V28.1749V28.3523V28.5536V28.7778V29.0238V29.2906V29.5779V29.884V30.2085V30.5504V30.9088V31.282V31.6701V32.0717V32.4856V32.9111V33.3474V33.7932V34.2479V34.7106V35.1802V35.6558V36.1364V36.6209V36.7034V48.8842C32.4981 49.2042 28.4144 43.3593 25.6084 39.3061H7.38833C5.95217 39.3061 4.77771 38.1347 4.77771 36.7034V18.6212C4.77771 17.1894 5.95267 16.0186 7.38833 16.0186Z" fill="#8CC740"/>
<path fill-rule="evenodd" clip-rule="evenodd" d="M27.5031 22.0108C28.8072 22.0108 30.6666 22.1211 31.541 23.2462C32.4487 24.4151 32.0689 26.4219 31.7683 27.7403C31.2299 30.1024 29.0739 30.7544 26.9 30.7544C25.3352 30.7544 23.8043 30.0636 22.6797 28.9962C21.6827 28.0494 20.8981 26.6803 21.0282 25.2664C21.071 24.8042 21.2111 24.3654 21.4439 23.9638C22.5381 22.0739 25.5774 22.0108 27.5031 22.0108ZM15.8323 23.9633C16.0651 24.3654 16.2052 24.8042 16.2481 25.2659C16.3787 26.6798 15.5936 28.0489 14.5966 28.9957C13.472 30.0632 11.9411 30.7539 10.3763 30.7539C8.20236 30.7539 6.04636 30.1024 5.50799 27.7398C5.2074 26.4214 4.82754 24.4146 5.7353 23.2457C6.60917 22.1206 8.46906 22.0103 9.77312 22.0103C11.6988 22.0108 14.7381 22.0739 15.8323 23.9633Z" fill="white"/>
<path fill-rule="evenodd" clip-rule="evenodd" d="M31.6262 27.7077C31.1078 29.9823 29.0291 30.609 26.9 30.609C23.2535 30.609 19.9853 26.7719 21.5701 24.0356C22.6224 22.2182 25.6049 22.1555 27.5037 22.1555C31.713 22.1555 32.546 23.6743 31.6262 27.7077ZM5.64959 27.7077C6.16803 29.9823 8.24676 30.609 10.3758 30.609C14.0223 30.609 17.2905 26.7719 15.7058 24.0356C14.6534 22.2182 11.6709 22.1555 9.77215 22.1555C5.56335 22.1555 4.73036 23.6743 5.64959 27.7077ZM18.6379 22.2639C16.271 22.2639 13.2073 21.2461 9.77265 21.2461C6.33801 21.2461 3.22839 22.3563 3.22839 23.8835C4.0549 25.3108 4.52797 26.8912 4.76027 27.909C4.99257 28.9268 5.87441 31.5185 10.3763 31.5185C14.8787 31.5185 16.6424 28.0019 17.292 26.1045C17.9425 24.2055 19.3338 24.2055 19.9838 26.1045C20.6339 28.0019 22.3976 31.5185 26.8995 31.5185C31.4019 31.5185 32.2837 28.9273 32.5155 27.909C32.7478 26.8912 33.2209 25.3108 34.0474 23.8835C34.0474 22.3563 30.9378 21.2461 27.5032 21.2461C24.0685 21.2461 21.0053 22.2639 18.6379 22.2639Z" fill="#8CC740"/>
<path fill-rule="evenodd" clip-rule="evenodd" d="M11.3907 24.2305C11.5901 24.2305 11.783 24.2573 11.9664 24.308C11.6544 24.5381 11.4525 24.9073 11.4525 25.3233C11.4525 26.0206 12.0193 26.5856 12.7187 26.5856C13.0352 26.5856 13.3248 26.4698 13.5467 26.2785C13.5482 26.3128 13.5492 26.3471 13.5492 26.3818C13.5492 27.5701 12.5831 28.5332 11.3907 28.5332C10.1983 28.5332 9.23218 27.5701 9.23218 26.3818C9.23218 25.1936 10.1988 24.2305 11.3907 24.2305Z" fill="#011C1A"/>
<path fill-rule="evenodd" clip-rule="evenodd" d="M26.0281 24.2305C26.2275 24.2305 26.4204 24.2573 26.6039 24.308C26.2918 24.5381 26.0899 24.9073 26.0899 25.3233C26.0899 26.0206 26.6567 26.5856 27.3561 26.5856C27.6727 26.5856 27.9623 26.4698 28.1841 26.2785C28.1856 26.3128 28.1866 26.3471 28.1866 26.3818C28.1866 27.5701 27.2205 28.5332 26.0281 28.5332C24.8362 28.5332 23.8696 27.5701 23.8696 26.3818C23.8701 25.1936 24.8362 24.2305 26.0281 24.2305Z" fill="#011C1A"/>
<path fill-rule="evenodd" clip-rule="evenodd" d="M14.785 33.8766C14.785 35.8893 22.4913 35.8893 22.4913 33.8766C22.4913 33.7652 22.3248 33.6708 22.0426 33.5918C20.6803 34.5977 16.5966 34.5977 15.2337 33.5918C14.9515 33.6703 14.785 33.7652 14.785 33.8766Z" fill="#011C1A"/>
<path d="M95.6146 17.113V16.0162H101.792V17.113H99.2776V27.268H98.13V17.113H95.6146ZM85.3366 27.268V16.0157H85.5804L93.0863 24.6222V16.0157H94.2183V27.268H93.9616L86.5001 18.7376V27.268H85.3366ZM77.1259 16.0157H83.5869V17.1125H78.258V20.6385H83.54V21.7358H78.2575V26.1707H83.5395V27.268H77.1259V16.0157ZM66.7143 26.2025H68.0164C69.5727 26.2025 70.6494 26.1056 71.2521 25.9123C72.0986 25.6355 72.7665 25.142 73.2511 24.4264C73.7356 23.7083 73.9769 22.8331 73.9769 21.7989C73.9769 20.715 73.7152 19.7852 73.1883 19.0174C72.6644 18.2471 71.9306 17.7193 70.9929 17.4345C70.288 17.2203 69.1275 17.1135 67.5109 17.1135H66.7143V26.2025ZM65.6296 27.268V16.0157H67.9715C69.6589 16.0157 70.8847 16.1513 71.6474 16.4207C72.7426 16.8048 73.5995 17.4653 74.2152 18.4111C74.8308 19.3538 75.1399 20.477 75.1399 21.783C75.1399 22.9116 74.8961 23.9016 74.4061 24.7579C73.9191 25.6146 73.282 26.2493 72.5038 26.6568C71.7232 27.0643 70.628 27.268 69.2212 27.268H65.6296ZM55.6008 16.0157H56.7329V22.8117C56.7329 23.6163 56.7489 24.1202 56.7798 24.319C56.8346 24.7628 56.9657 25.1341 57.1701 25.4317C57.3745 25.7294 57.689 25.9804 58.1132 26.1812C58.5375 26.3824 58.9647 26.4843 59.3969 26.4843C59.7688 26.4843 60.1277 26.4058 60.4711 26.2468C60.8116 26.0902 61.0997 25.8706 61.3305 25.5888C61.5613 25.3095 61.7288 24.9696 61.836 24.5725C61.9118 24.2852 61.9512 23.7003 61.9512 22.8122V16.0157H63.0828V22.8067C63.0828 23.8121 62.9831 24.6247 62.7866 25.2434C62.5902 25.8626 62.1944 26.4033 61.6052 26.86C61.013 27.3197 60.2977 27.5498 59.4567 27.5498C58.5449 27.5498 57.7643 27.3327 57.1143 26.8993C56.4617 26.4659 56.027 25.8939 55.8072 25.1783C55.6681 24.7395 55.6003 23.9508 55.6003 22.8067V16.0157H55.6008ZM47.9614 17.113V16.0162H54.1392V17.113H51.6243V27.268H50.4768V17.113H47.9614ZM40.3035 25.1629L41.2626 24.5884C41.9385 25.8318 42.7192 26.4535 43.6045 26.4535C43.9844 26.4535 44.3408 26.3646 44.6733 26.1896C45.0058 26.0147 45.26 25.7771 45.433 25.4819C45.6085 25.1867 45.6952 24.8731 45.6952 24.5417C45.6952 24.1655 45.5666 23.7972 45.3099 23.4344C44.9564 22.9355 44.3119 22.3321 43.3712 21.6294C42.4281 20.9193 41.8413 20.4069 41.6105 20.0908C41.2097 19.5605 41.0108 18.986 41.0108 18.3698C41.0108 17.8813 41.1285 17.435 41.3643 17.0325C41.6001 16.6304 41.933 16.3143 42.3623 16.0818C42.792 15.8492 43.2556 15.7344 43.7585 15.7344C44.2929 15.7344 44.7934 15.8651 45.257 16.129C45.7206 16.3899 46.2131 16.8734 46.7321 17.5756L45.8099 18.2729C45.3826 17.7113 45.0187 17.3406 44.7172 17.1627C44.4156 16.9823 44.0886 16.8938 43.7346 16.8938C43.276 16.8938 42.9016 17.0325 42.6105 17.3063C42.3199 17.5831 42.1728 17.92 42.1728 18.3251C42.1728 18.5681 42.2252 18.8056 42.3274 19.0352C42.4296 19.2653 42.618 19.5133 42.8907 19.7852C43.0372 19.9263 43.5272 20.3025 44.3552 20.9083C45.3353 21.6294 46.0083 22.2695 46.3727 22.8281C46.7371 23.3897 46.9205 23.9538 46.9205 24.5208C46.9205 25.3358 46.6089 26.046 45.9878 26.6468C45.3642 27.2502 44.607 27.5508 43.7162 27.5508C43.0297 27.5508 42.4061 27.3679 41.8483 27.0022C41.291 26.6359 40.775 26.0221 40.3035 25.1629Z" fill="#011C1A"/>
<path d="M138.587 37.7777H137.71L133.289 34.0346V37.7777H132.128V32.2222H133.005L137.438 35.9125V32.2222H138.587V37.7777ZM122.973 36.7144V33.247H118.763V36.7144H122.973ZM124.245 36.4647C124.245 36.9901 124.146 37.3403 123.949 37.5155C123.751 37.6906 123.397 37.7777 122.887 37.7777H118.85C118.339 37.7777 117.986 37.6923 117.787 37.5213C117.59 37.3504 117.491 36.9984 117.491 36.4647V33.5361C117.491 33.0015 117.59 32.6495 117.787 32.4786C117.985 32.3076 118.339 32.2222 118.85 32.2222H122.887C123.397 32.2222 123.751 32.3076 123.949 32.4786C124.146 32.6495 124.245 33.0015 124.245 33.5361V36.4647ZM109.607 37.7777H108.335V32.2222H109.607V37.7777ZM101.007 33.221H98.476V37.7777H97.204V33.221H94.6849V32.223H101.006L101.007 33.221ZM87.3564 36.4647C87.3564 36.9901 87.2556 37.3403 87.054 37.5155C86.8524 37.6906 86.4965 37.7777 85.9861 37.7777H82.5286C82.0182 37.7777 81.6646 37.6906 81.467 37.5155C81.2694 37.3403 81.1711 36.9901 81.1711 36.4647V32.2222H82.443V36.7395H86.0733V32.2222H87.3572V36.4647H87.3564ZM73.8177 37.7777H68.4347V32.2222H69.7187V36.7395H73.8177V37.7777ZM59.2783 36.7144V33.247H55.068V36.7144H59.2783ZM60.5502 36.4647C60.5502 36.9901 60.4518 37.3403 60.2542 37.5155C60.0566 37.6906 59.7023 37.7777 59.1927 37.7777H55.1552C54.6448 37.7777 54.2913 37.6923 54.0937 37.5213C53.8961 37.3504 53.7977 36.9984 53.7977 36.4647V33.5361C53.7977 33.0015 53.8961 32.6495 54.0937 32.4786C54.2913 32.3076 54.6456 32.2222 55.1552 32.2222H59.1927C59.7031 32.2222 60.0566 32.3076 60.2542 32.4786C60.4518 32.6495 60.5502 33.0015 60.5502 33.5361V36.4647ZM46.0356 36.4647C46.0356 36.9901 45.9372 37.3403 45.7396 37.5155C45.542 37.6906 45.1884 37.7777 44.678 37.7777H41.283C40.723 37.7777 40.355 37.6797 40.1782 37.4819C40.0014 37.285 39.9126 36.8929 39.9126 36.3063L41.0486 36.0834V36.7404H44.8884V35.4667H41.5053C40.995 35.4667 40.6454 35.3837 40.4558 35.217C40.2422 35.0335 40.135 34.6782 40.135 34.1536V33.5361C40.135 33.0107 40.2422 32.6562 40.4558 32.4727C40.6454 32.306 40.995 32.223 41.5053 32.223H44.6044C45.1316 32.223 45.4916 32.311 45.6844 32.4853C45.878 32.6604 45.9748 33.0199 45.9748 33.562L44.8756 33.8117V33.221H41.283V34.3899H44.6772C45.1876 34.3899 45.5412 34.4754 45.7388 34.6455C45.9364 34.8164 46.0348 35.1684 46.0348 35.703L46.0356 36.4647Z" fill="#8CC740"/>
</g>
<defs>
<clipPath id="clip0_116_1331">
<rect width="102" height="40" fill="white"/>
</clipPath>
</defs>
</svg>
