<svg width="136" height="40" viewBox="0 0 136 40" fill="none" xmlns="http://www.w3.org/2000/svg">
<g clip-path="url(#clip0_116_1274)">
<path d="M36.7539 34.1704C38.7434 31.6244 39.9294 28.4173 39.9294 24.932C39.9294 16.6525 33.2351 9.94043 24.9783 9.94043C16.7216 9.94043 10.0273 16.6525 10.0273 24.932C10.0273 33.2121 16.7216 39.9242 24.9783 39.9242C28.3881 39.9242 31.5305 38.7788 34.0459 36.8521L38.9791 39.523C39.2182 39.6527 39.5354 39.3333 39.4061 39.0949L36.7539 34.1704ZM17.4052 26.8134C16.3007 26.8134 15.4043 25.9146 15.4043 24.807C15.4043 23.6988 16.3007 22.8006 17.4052 22.8006C18.5103 22.8006 19.406 23.6988 19.406 24.807C19.406 25.9146 18.5103 26.8134 17.4052 26.8134ZM24.9783 26.8134C23.8732 26.8134 22.9775 25.9146 22.9775 24.807C22.9775 23.6988 23.8732 22.8006 24.9783 22.8006C26.0835 22.8006 26.9792 23.6988 26.9792 24.807C26.9799 25.9146 26.0842 26.8134 24.9783 26.8134ZM32.5522 26.8134C31.447 26.8134 30.5513 25.9146 30.5513 24.807C30.5513 23.6988 31.447 22.8006 32.5522 22.8006C33.6567 22.8006 34.553 23.6988 34.553 24.807C34.553 25.9146 33.6567 26.8134 32.5522 26.8134Z" fill="#F7941E"/>
<path d="M49.036 13.6588V22.3158H45.9515L46.854 14.6232L40.1482 17.544C37.4086 11.9111 31.6383 8.02054 24.979 8.02054C18.3197 8.02054 12.5494 11.9111 9.80978 17.544L1.07016 13.7385C-0.523937 13.0409 -0.523937 10.7772 1.07016 10.0796L23.1869 0.449476C24.3318 -0.0489138 25.6269 -0.0489138 26.7724 0.449476L48.8892 10.0796C50.4308 10.7536 50.4792 12.8896 49.036 13.6588Z" fill="#F15A29"/>
<path d="M70.8032 17.6627C70.8032 21.8639 67.4264 25.1034 63.028 25.1034C58.6296 25.1034 55.2528 21.8639 55.2528 17.6627C55.2528 13.4406 58.6296 10.2632 63.028 10.2632C67.4264 10.2632 70.8032 13.4615 70.8032 17.6627ZM58.109 17.6627C58.109 20.4221 60.3813 22.5953 63.0698 22.5953C65.7381 22.5953 67.9477 20.4214 67.9477 17.6627C67.9477 14.904 65.7381 12.7713 63.0698 12.7713C60.3604 12.7713 58.109 14.9033 58.109 17.6627Z" fill="black"/>
<path d="M76.1189 10.3472L83.6436 20.3595V10.3472H86.3536V24.9788H83.7062L76.2024 14.9873V24.9788H73.4715V10.3472H76.1189Z" fill="black"/>
<path d="M92.9415 10.3472V22.4497H99.2364V24.9788H90.1479V10.3472H92.9415Z" fill="black"/>
<path d="M104.427 10.3472V24.9788H101.634V10.3472H104.427Z" fill="black"/>
<path d="M110.868 10.3472L118.393 20.3595V10.3472H121.103V24.9788H118.455L110.951 14.9873V24.9788H108.22V10.3472H110.868Z" fill="black"/>
<path d="M135.59 10.3472V12.7925H127.69V16.4089H134.777V18.8542H127.69V22.5327H135.84V24.9781H124.897V10.3472H135.59Z" fill="black"/>
<path d="M62.4199 28.3511V29.1128H58.3649V31.5325H61.9888V32.2842H58.3649V34.7964H62.5532V35.5581H57.5433V28.3511H62.4199Z" fill="black"/>
<path d="M72.8822 31.9546C72.8822 34.0035 71.2706 35.5575 69.1552 35.5575H66.2809V28.3511H69.1862C71.28 28.3511 72.8822 29.9057 72.8822 31.9546ZM72.0505 31.9647C72.0505 30.3379 70.7776 29.1128 69.1653 29.1128H67.1018V34.7957H69.1963C70.7978 34.7957 72.0505 33.5808 72.0505 31.9647Z" fill="black"/>
<path d="M79.299 34.8369C80.6642 34.8369 81.4858 34.013 81.4858 32.5928V28.3511H82.3074V32.5928C82.3074 34.4769 81.178 35.5885 79.2997 35.5885C77.4106 35.5885 76.2711 34.4769 76.2711 32.5928V28.3511H77.0928V32.5928C77.0921 34.013 77.9339 34.8369 79.299 34.8369Z" fill="black"/>
<path d="M89.4529 29.0817C87.8305 29.0817 86.5274 30.3479 86.5274 31.9437C86.5274 33.5294 87.8312 34.8159 89.4529 34.8159C90.2436 34.8159 91.0134 34.4863 91.5784 33.9508L92.0815 34.4965C91.373 35.1657 90.4079 35.5878 89.4125 35.5878C87.3389 35.5878 85.6963 33.9819 85.6963 31.9437C85.6963 29.9259 87.3598 28.3301 89.4435 28.3301C90.4288 28.3301 91.3838 28.7312 92.0714 29.3802L91.5784 29.9772C91.0241 29.4214 90.2436 29.0817 89.4529 29.0817Z" fill="black"/>
<path d="M100.121 33.7145H96.2092L95.4084 35.5575H94.5356L97.7595 28.3511H98.6114L101.825 35.5575H100.932L100.121 33.7145ZM99.792 32.9527L98.1596 29.2466L96.5479 32.9527H99.792Z" fill="black"/>
<path d="M108.878 28.3511V29.1128H106.527V35.5575H105.706V29.1128H103.365V28.3511H108.878Z" fill="black"/>
<path d="M112.944 28.3511V35.5575H112.123V28.3511H112.944Z" fill="black"/>
<path d="M124.022 31.9544C124.022 33.9824 122.359 35.5883 120.265 35.5883C118.16 35.5883 116.497 33.9824 116.497 31.9544C116.497 29.9264 118.16 28.3306 120.265 28.3306C122.359 28.3306 124.022 29.9264 124.022 31.9544ZM117.329 31.9544C117.329 33.5502 118.663 34.8366 120.265 34.8366C121.866 34.8366 123.18 33.5495 123.18 31.9544C123.18 30.3592 121.866 29.0923 120.265 29.0923C118.663 29.0923 117.329 30.3586 117.329 31.9544Z" fill="black"/>
<path d="M128.427 28.3511L132.739 34.2088V28.3511H133.55V35.5575H132.708L128.396 29.7098V35.5575H127.575V28.3511H128.427Z" fill="black"/>
</g>
<defs>
<clipPath id="clip0_116_1274">
<rect width="135.714" height="40" fill="white"/>
</clipPath>
</defs>
</svg>
