<svg width="130" height="40" viewBox="0 0 130 40" fill="none" xmlns="http://www.w3.org/2000/svg">
<g clip-path="url(#clip0_116_1319)">
<path fill-rule="evenodd" clip-rule="evenodd" d="M12.9505 33.9425L14.1516 31.8537L18.9035 23.6553H9.45182H0.00012207L4.69986 31.8537L5.95313 33.9425H12.9505Z" fill="#FACB8F"/>
<path fill-rule="evenodd" clip-rule="evenodd" d="M9.45183 40L12.1672 35.3003H6.6842L9.45183 40Z" fill="#011C1A"/>
<path fill-rule="evenodd" clip-rule="evenodd" d="M0.00012207 22.2979H5.16984V7.25869C5.16984 6.63206 4.64764 6.10986 4.07323 6.10986H1.09673C0.470096 6.10986 0.00012207 6.63206 0.00012207 7.25869V22.2979Z" fill="#ECC469"/>
<path fill-rule="evenodd" clip-rule="evenodd" d="M6.84088 22.2979H12.0106V7.25869C12.0106 6.63206 11.4884 6.10986 10.8618 6.10986H7.98971C7.36307 6.10986 6.84088 6.63206 6.84088 7.25869V22.2979Z" fill="#E7745D"/>
<path fill-rule="evenodd" clip-rule="evenodd" d="M13.7338 22.2979H18.9035V7.25869C18.9035 6.63206 18.3813 6.10986 17.7547 6.10986H14.8827C14.256 6.10986 13.786 6.63206 13.786 7.25869V22.2979H13.7338Z" fill="#24A192"/>
<path fill-rule="evenodd" clip-rule="evenodd" d="M2.55887 0C3.96879 0 5.11762 1.14883 5.11762 2.55875C5.11762 3.96867 3.96879 5.11749 2.55887 5.11749C1.14895 5.16971 0.00012207 4.02089 0.00012207 2.55875C0.00012207 1.14883 1.14895 0 2.55887 0Z" fill="#ECC469"/>
<path fill-rule="evenodd" clip-rule="evenodd" d="M9.45181 0C10.8617 0 12.0628 1.14883 12.0628 2.55875C12.0628 3.96867 10.9139 5.11749 9.45181 5.11749C8.04189 5.11749 6.89306 3.96867 6.89306 2.55875C6.84084 1.14883 8.04189 0 9.45181 0Z" fill="#E7745D"/>
<path fill-rule="evenodd" clip-rule="evenodd" d="M16.2926 0C17.7025 0 18.8513 1.14883 18.8513 2.55875C18.8513 3.96867 17.7025 5.11749 16.2926 5.11749C14.8827 5.11749 13.7338 3.96867 13.7338 2.55875C13.7338 1.14883 14.8827 0 16.2926 0Z" fill="#24A192"/>
<path d="M25.3265 16.0312C26.2142 16.5012 27.5197 16.8667 28.9296 16.8667C32.115 16.8667 33.786 15.3001 33.786 13.1069C33.7338 11.3837 32.7938 10.2871 30.6006 9.50377C29.0863 8.98158 28.5119 8.61604 28.5119 7.88497C28.5119 7.1539 29.0863 6.57949 30.1829 6.57949C31.2273 6.57949 32.1672 6.99724 32.6894 7.25834L33.2638 5.16957C32.585 4.75181 31.4361 4.4385 30.0784 4.4385C27.3108 4.4385 25.5876 6.05729 25.5876 8.14607C25.5876 9.55599 26.5275 10.8615 28.8774 11.6448C30.3395 12.167 30.8617 12.5847 30.8617 13.368C30.8617 14.1513 30.2873 14.6735 28.9296 14.6735C27.833 14.6735 26.5275 14.2035 25.9009 13.7858L25.3265 16.0312ZM36.9714 16.6056H39.8957V9.55599C39.8957 9.19045 39.9479 8.87714 40.0523 8.56382C40.3134 7.72831 41.0967 6.8928 42.2455 6.8928C43.6032 6.8928 44.2821 8.04163 44.2821 9.71265V16.6056H47.2064V9.50377C47.2064 9.13823 47.2586 8.7727 47.363 8.45938C47.6763 7.62387 48.4596 6.8928 49.4518 6.8928C50.8617 6.8928 51.5406 8.04163 51.5406 10.026V16.6056H54.4649V9.55599C54.4649 5.74398 52.4805 4.4385 50.4962 4.4385C49.504 4.4385 48.7207 4.69959 48.0419 5.16957C47.5197 5.5351 46.9975 6.00508 46.632 6.63171H46.5797C46.0575 5.32622 44.8565 4.4385 43.2899 4.4385C41.2534 4.4385 40.209 5.5351 39.6346 6.42283H39.5824L39.4779 4.69959H36.8669C36.9192 5.74398 36.9714 6.8928 36.9714 8.25051V16.6056ZM67.6764 9.50377C67.6764 6.8928 66.5797 4.4385 62.7677 4.4385C60.8878 4.4385 59.3735 4.96069 58.4857 5.48288L59.0602 7.415C59.8957 6.8928 61.0967 6.52727 62.2455 6.52727C64.3343 6.52727 64.6476 7.83275 64.6476 8.61604V8.82492C60.2612 8.7727 57.598 10.3393 57.598 13.3158C57.598 15.1435 58.9035 16.8667 61.3578 16.8667C62.9244 16.8667 64.1254 16.2401 64.8565 15.2479H64.9087L65.1698 16.5534H67.8852C67.7286 15.8223 67.6764 14.7779 67.6764 13.6813V9.50377ZM64.7521 12.4281C64.7521 12.6891 64.7521 12.8458 64.6998 13.1069C64.4388 13.9424 63.551 14.7257 62.35 14.7257C61.41 14.7257 60.6267 14.2035 60.6267 13.0025C60.6267 11.1748 62.6633 10.757 64.8043 10.757V12.4281H64.7521ZM71.645 16.6056H74.6737V10.4437C74.6737 10.0782 74.6737 9.81709 74.726 9.50377C74.9871 8.14607 75.9792 7.20612 77.4414 7.20612C77.8069 7.20612 78.068 7.25834 78.3291 7.25834V4.49072C78.068 4.4385 77.9113 4.4385 77.598 4.4385C76.2925 4.4385 74.9348 5.27401 74.3082 6.94502H74.256L74.1515 4.69959H71.5406C71.5928 5.74398 71.5928 6.8928 71.5928 8.5116V16.6056H71.645ZM82.1411 2.45416V4.69959H80.4701V6.94502H82.1411V12.5325C82.1411 14.0991 82.4544 15.1957 83.0811 15.8745C83.6555 16.5012 84.5432 16.8667 85.692 16.8667C86.632 16.8667 87.4153 16.71 87.8852 16.5534L87.833 14.2557C87.4675 14.3602 87.2064 14.3602 86.632 14.3602C85.4831 14.3602 85.1176 13.6291 85.1176 12.167V6.94502H87.9897V4.69959H85.1176V1.61865L82.1411 2.45416Z" fill="#011C1A"/>
<path d="M31.9061 27.6242C31.9061 27.4676 31.9584 27.2065 31.9584 26.8931C31.9584 25.3266 31.2273 23.4467 28.9296 23.4467C26.6842 23.4467 25.4832 25.2743 25.4832 27.2065C25.4832 29.3474 26.8409 30.7574 29.1385 30.7574C30.1307 30.7574 30.9662 30.5485 31.5928 30.2874L31.3317 29.0864C30.8095 29.243 30.1829 29.3997 29.3996 29.3997C28.2508 29.3997 27.3108 28.8775 27.2064 27.572H31.9061V27.6242ZM27.2064 26.3187C27.3108 25.5877 27.7286 24.5955 28.8252 24.5955C30.0262 24.5955 30.2873 25.6399 30.2873 26.3187H27.2064ZM38.1725 20.3657V24.3344H38.1202C37.8069 23.8122 37.1281 23.3944 36.1359 23.3944C34.4649 23.3944 32.9505 24.8044 33.0027 27.1542C33.0027 29.3474 34.3082 30.7574 35.9792 30.7574C37.0236 30.7574 37.8591 30.2874 38.2769 29.5041H38.3291L38.4335 30.6007H40.0001C39.9479 30.1307 39.9479 29.3474 39.9479 28.6164V20.3657H38.1725ZM38.1725 27.572C38.1725 27.7286 38.1725 27.9375 38.1202 28.0942C37.9636 28.8775 37.3369 29.3474 36.6059 29.3474C35.457 29.3474 34.8826 28.4075 34.8826 27.102C34.8826 25.7965 35.5093 24.8044 36.6581 24.8044C37.4936 24.8044 38.0158 25.3266 38.1725 26.0054C38.2247 26.1621 38.2247 26.3709 38.2247 26.4754V27.572H38.1725ZM48.2508 23.6033H46.4753V27.8853C46.4753 28.042 46.4231 28.2508 46.3709 28.4075C46.2142 28.8253 45.7443 29.3474 45.0132 29.3474C44.0732 29.3474 43.7077 28.6164 43.7077 27.4153V23.6033H41.9322V27.6764C41.9322 29.9741 43.0811 30.7574 44.3866 30.7574C45.6398 30.7574 46.3187 30.0263 46.632 29.5563H46.6842L46.7364 30.6007H48.2508C48.2508 30.0263 48.1986 29.3474 48.1986 28.5119V23.6033H48.2508ZM55.1437 29.0864C54.7782 29.243 54.3604 29.3474 53.7338 29.3474C52.5328 29.3474 51.5928 28.5119 51.5928 27.102C51.5928 25.7965 52.3761 24.8044 53.7338 24.8044C54.3604 24.8044 54.7782 24.961 55.0915 25.0655L55.4048 23.76C54.9871 23.6033 54.3604 23.3944 53.6816 23.3944C51.1751 23.3944 49.7651 25.0132 49.7651 27.1542C49.7651 29.3474 51.1751 30.7574 53.3683 30.7574C54.256 30.7574 54.9871 30.5485 55.3526 30.3918L55.1437 29.0864ZM62.2978 26.4232C62.2978 24.8566 61.6711 23.4467 59.4257 23.4467C58.2769 23.4467 57.4414 23.76 56.867 24.0733L57.2325 25.2221C57.7025 24.9088 58.4335 24.6999 59.1646 24.6999C60.3657 24.6999 60.5745 25.4832 60.5745 25.901V26.0576C57.9636 26.0054 56.397 26.9454 56.397 28.7208C56.397 29.7652 57.2325 30.8096 58.5902 30.8096C59.5302 30.8096 60.2612 30.4441 60.679 29.8696H60.7312L60.8356 30.6529H62.4544C62.4022 30.2352 62.35 29.6085 62.35 28.9819V26.4232H62.2978ZM60.5745 28.1464C60.5745 28.3031 60.5745 28.4075 60.5223 28.5119C60.3657 29.0341 59.8435 29.5041 59.1124 29.5041C58.538 29.5041 58.068 29.1386 58.068 28.4597C58.068 27.4153 59.2691 27.1542 60.5223 27.1542V28.1464H60.5745ZM64.4388 22.2456V23.5511H63.4466V24.8566H64.4388V28.1986C64.4388 29.1386 64.5954 29.7652 64.961 30.183C65.3265 30.5485 65.8487 30.7574 66.4753 30.7574C66.9975 30.7574 67.5197 30.6529 67.7808 30.5485L67.7286 29.243C67.5197 29.2952 67.363 29.2952 67.0497 29.2952C66.3709 29.2952 66.1098 28.8775 66.1098 27.9897V24.9088H67.833V23.6033H66.1098V21.7756L64.4388 22.2456ZM71.1228 30.6007V23.6033H69.3474V30.6007H71.1228ZM70.2351 20.6268C69.6607 20.6268 69.243 21.0446 69.243 21.5668C69.243 22.089 69.6085 22.5067 70.2351 22.5067C70.8617 22.5067 71.2273 22.089 71.2273 21.5668C71.2273 21.0446 70.8095 20.6268 70.2351 20.6268ZM76.2926 23.3944C74.2038 23.3944 72.6372 24.8044 72.6372 27.1542C72.6372 29.3997 74.1516 30.7574 76.1359 30.7574C77.9636 30.7574 79.739 29.6085 79.739 26.9976C79.7912 24.8566 78.3813 23.3944 76.2926 23.3944ZM76.2926 24.6999C77.4936 24.6999 78.0158 25.9532 78.0158 27.0498C78.0158 28.4597 77.2847 29.4519 76.2926 29.4519C75.2482 29.4519 74.5693 28.4075 74.5693 27.0498C74.5171 25.9532 75.0393 24.6999 76.2926 24.6999ZM81.3578 30.6007H83.1333V26.4754C83.1333 26.2665 83.1855 26.0576 83.2377 25.901C83.3944 25.3788 83.8644 24.8566 84.5954 24.8566C85.5876 24.8566 85.9531 25.5877 85.9531 26.632V30.6007H87.7286V26.4232C87.7286 24.23 86.4231 23.3944 85.2221 23.3944C84.0732 23.3944 83.2899 24.0733 82.9766 24.5955H82.9244L82.8722 23.5511H81.3056C81.3578 24.1777 81.3578 24.8566 81.3578 25.6399V30.6007ZM99.0602 25.5877C99.0602 24.6477 99.1124 24.0733 99.1124 23.6033H97.598L97.5458 24.5433H97.4936C97.1281 24.0211 96.5537 23.4467 95.457 23.4467C93.786 23.4467 92.2717 24.8566 92.2717 27.1542C92.2717 29.1386 93.4727 30.6007 95.2482 30.6007C96.1881 30.6007 96.9192 30.183 97.3369 29.5563V30.1307C97.3369 31.6451 96.5014 32.2717 95.3526 32.2717C94.5171 32.2717 93.7338 32.0106 93.3161 31.7495L92.8983 33.055C93.5249 33.4206 94.4649 33.6294 95.3526 33.6294C96.3448 33.6294 97.3369 33.4206 98.068 32.7939C98.7991 32.1151 99.1124 31.0707 99.1124 29.6085V25.5877H99.0602ZM97.2847 27.5198C97.2847 27.7286 97.2325 27.9375 97.1803 28.1464C96.9714 28.773 96.4492 29.243 95.7704 29.243C94.6215 29.243 94.0471 28.3031 94.0471 27.0498C94.0471 25.6399 94.7782 24.7521 95.7704 24.7521C96.5536 24.7521 97.0236 25.2743 97.2325 25.901C97.2847 26.0576 97.2847 26.1621 97.2847 26.3709V27.5198ZM100.992 30.6007H102.768V26.9454C102.768 26.7887 102.768 26.5798 102.82 26.4232C102.977 25.6399 103.551 25.1177 104.439 25.1177C104.648 25.1177 104.804 25.1177 104.961 25.1699V23.4989C104.804 23.4467 104.7 23.4467 104.543 23.4467C103.812 23.4467 102.924 23.9689 102.611 24.961H102.559L102.507 23.6555H100.992C101.045 24.2822 101.045 24.961 101.045 25.901V30.6007H100.992ZM109.243 23.3944C107.154 23.3944 105.588 24.8044 105.588 27.1542C105.588 29.3997 107.154 30.7574 109.139 30.7574C110.914 30.7574 112.742 29.6085 112.742 26.9976C112.794 24.8566 111.384 23.3944 109.243 23.3944ZM109.243 24.6999C110.444 24.6999 110.966 25.9532 110.966 27.0498C110.966 28.4597 110.235 29.4519 109.243 29.4519C108.199 29.4519 107.52 28.4075 107.52 27.0498C107.467 25.9532 107.99 24.6999 109.243 24.6999ZM120.627 23.6033H118.851V27.8853C118.851 28.042 118.799 28.2508 118.747 28.4075C118.59 28.8253 118.12 29.3474 117.389 29.3474C116.449 29.3474 116.084 28.6164 116.084 27.4153V23.6033H114.256V27.6764C114.256 29.9741 115.457 30.7574 116.71 30.7574C117.964 30.7574 118.695 30.0263 119.008 29.5563H119.06L119.112 30.6007H120.679C120.627 30.0263 120.627 29.3474 120.627 28.5119V23.6033ZM122.611 33.4728H124.387V29.8174H124.439C124.804 30.3918 125.535 30.7574 126.423 30.7574C128.042 30.7574 129.608 29.5563 129.608 26.9976C129.608 24.8044 128.303 23.4467 126.632 23.4467C125.588 23.4467 124.752 23.8644 124.23 24.6999H124.178L124.073 23.6033H122.507C122.559 24.23 122.559 25.0132 122.559 25.9532V33.4728H122.611ZM124.387 26.5798C124.387 26.4232 124.439 26.2665 124.439 26.1621C124.595 25.3788 125.274 24.8566 126.058 24.8566C127.206 24.8566 127.781 25.901 127.781 27.102C127.781 28.5119 127.154 29.4519 126.005 29.4519C125.222 29.4519 124.595 28.9297 124.439 28.1986C124.387 28.042 124.387 27.8853 124.387 27.7286V26.5798Z" fill="#011C1A"/>
</g>
<defs>
<clipPath id="clip0_116_1319">
<rect width="129.608" height="40" fill="white"/>
</clipPath>
</defs>
</svg>
