<svg width="101" height="92" viewBox="0 0 101 92" fill="none" xmlns="http://www.w3.org/2000/svg">
<g clip-path="url(#clip0_30_560)">
<path d="M54.7012 24.6245C46.1274 27.5316 41.8405 42.9219 53.3294 44.974C62.0748 46.171 66.8761 34.5427 61.9033 28.0446C62.0748 28.2156 62.0748 28.3866 62.2462 28.5576C61.7318 27.5316 61.0459 26.5056 60.017 26.1636C58.6452 24.7955 56.5875 23.9405 54.7012 24.6245ZM56.2445 28.5576C56.759 28.7286 57.1019 29.0706 57.6163 29.2416C57.9593 29.7546 58.4737 29.9256 58.6452 30.4387C58.6452 30.2677 58.4737 30.2677 58.4737 30.0966C65.1613 48.052 38.9253 40.0149 56.2445 28.5576ZM56.0731 28.5576H55.9016C55.9016 28.5576 55.9016 28.5576 56.0731 28.5576Z" fill="#EED8C1"/>
<path d="M28.4652 15.5612C27.7793 10.4311 24.5213 4.44599 18.691 4.617C1.37185 0.341903 -6.17314 21.2044 5.83026 32.3196C17.1477 40.6988 30.3515 27.7025 28.4652 15.5612ZM23.4924 22.7434C10.4601 48.565 -9.60268 5.13001 18.0051 8.37908C24.6927 9.4051 25.2072 17.4423 23.4924 22.7434Z" fill="#EED8C1"/>
<path d="M90.8828 66.5204C88.6536 42.4089 54.0153 59.3382 56.073 77.8066C59.1596 105.167 94.4839 88.0669 90.8828 66.5204ZM84.0238 67.7174C83.8523 75.9256 76.3073 90.1189 66.7046 85.6728C57.1019 75.9256 69.2767 61.7323 80.2513 60.8773C84.1952 60.3643 84.1952 64.9814 84.0238 67.7174Z" fill="#EED8C1"/>
<path d="M45.0985 65.4944C44.7556 59.8512 39.2683 55.7472 34.124 54.5501C16.6333 46.513 1.20039 69.2564 16.1189 82.0817C26.579 90.2899 45.27 77.6356 45.0985 65.4944ZM32.7522 60.3643C35.8388 60.8773 37.2106 63.1003 39.0968 64.9814C40.4686 73.7025 27.7793 84.6468 20.2343 77.6356C10.2887 69.5985 21.4347 54.0371 32.7522 60.3643Z" fill="#EED8C1"/>
<path d="M100.829 10.7732C100.486 9.06319 99.7997 7.35316 99.1138 5.81412C99.2853 5.98513 99.2853 6.15613 99.4568 6.32713C99.2853 6.15613 99.2853 5.98513 99.1138 5.64312C98.9423 5.30111 98.7709 4.9591 98.4279 4.44609C90.8829 -7.01116 71.3345 5.64312 75.6214 17.7844C80.9372 32.1487 102.715 25.3085 100.829 10.7732ZM93.9695 15.9033C81.1087 29.0706 75.2785 4.10408 92.5977 5.30111C95.8557 7.69516 96.3702 12.8253 93.9695 15.9033Z" fill="#EED8C1"/>
</g>
<defs>
<clipPath id="clip0_30_560">
<rect width="101" height="92" fill="white"/>
</clipPath>
</defs>
</svg>
