<svg width="37" height="41" viewBox="0 0 37 41" fill="none" xmlns="http://www.w3.org/2000/svg">
<path d="M29.5912 23.7047C25.1447 22.8263 20.6804 22.0292 16.2172 21.2278C17.6073 18.8262 18.6741 16.3096 19.4786 13.5909C19.8831 12.2249 18.7605 10.6261 17.2721 10.7124C14.0728 10.9004 10.8745 11.0879 7.67523 11.2759C9.5328 8.73434 11.5082 6.30148 13.5372 3.84486C15.3466 1.65446 12.4671 -1.33206 10.3637 0.745542C6.75281 4.31144 3.7661 8.46668 1.06081 12.73C0.149747 14.1661 1.31932 16.2872 3.05307 16.1807C6.66954 15.9586 10.2856 15.7379 13.9021 15.5157C13.0052 17.695 11.8893 19.7471 10.5093 21.7509C9.72142 22.8958 10.4902 24.8252 11.8778 25.0495C16.3658 25.7753 20.852 26.5106 25.3471 27.1998C22.9688 30.4483 20.8009 33.8195 18.9572 37.4111C18.3733 38.5489 19.0578 40.3958 20.5783 40.2188C25.5653 39.6406 30.6829 39.2587 35.5628 38.003C36.7222 37.7051 36.49 36.0058 35.3229 35.9788C31.5619 35.8912 27.7839 36.1705 24.0117 36.337C25.9924 33.1461 28.0981 30.0825 30.5046 27.1267C31.4182 26.0065 31.2581 24.0335 29.5912 23.7047Z" fill="#AAC3E9"/>
</svg>
