<svg width="37" height="41" viewBox="0 0 37 41" fill="none" xmlns="http://www.w3.org/2000/svg">
<path d="M29.4344 23.9403C24.988 23.0619 20.5236 22.2648 16.0604 21.4634C17.4506 19.0618 18.5174 16.5452 19.3218 13.8265C19.7263 12.4605 18.6038 10.8617 17.1153 10.948C13.9161 11.136 10.7178 11.3235 7.51849 11.5115C9.37606 8.96994 11.3514 6.53708 13.3804 4.08046C15.1899 1.89005 12.3104 -1.09647 10.207 0.981138C6.59607 4.54703 3.60936 8.70228 0.90407 12.9656C-0.00699154 14.4017 1.16258 16.5228 2.89634 16.4163C6.5128 16.1942 10.1289 15.9735 13.7453 15.7513C12.8485 17.9306 11.7325 19.9827 10.3526 21.9865C9.56468 23.1314 10.3335 25.0607 11.7211 25.2851C16.2091 26.0109 20.6952 26.7462 25.1903 27.4354C22.8121 30.6839 20.6442 34.0551 18.8005 37.6467C18.2165 38.7845 18.901 40.6314 20.4215 40.4544C25.4086 39.8762 30.5262 39.4943 35.406 38.2386C36.5655 37.9407 36.3333 36.2414 35.1661 36.2144C31.4051 36.1268 27.6271 36.4061 23.855 36.5726C25.8357 33.3817 27.9414 30.3181 30.3479 27.3623C31.2614 26.2421 31.1013 24.2691 29.4344 23.9403Z" fill="#AAC3E9"/>
</svg>
