<svg width="87" height="59" viewBox="0 0 87 59" fill="none" xmlns="http://www.w3.org/2000/svg">
<path d="M46.9923 21.1882C39.6293 23.6847 35.9478 36.9015 45.8142 38.6637C53.3245 39.6917 57.4477 29.7057 53.1772 24.1252C53.3245 24.2721 53.3245 24.419 53.4717 24.5658C53.0299 23.6847 52.4409 22.8036 51.5574 22.5099C50.3793 21.335 48.6122 20.6008 46.9923 21.1882ZM48.3176 24.5658C48.7594 24.7127 49.0539 25.0064 49.4957 25.1532C49.7902 25.5938 50.232 25.7406 50.3793 26.1812C50.3793 26.0343 50.232 26.0343 50.232 25.8875C55.9751 41.3071 33.4444 34.405 48.3176 24.5658ZM48.1704 24.5658H48.0231C48.0231 24.5658 48.0231 24.5658 48.1704 24.5658Z" fill="#EED8C1" fill-opacity="0.11"/>
<path d="M24.4616 13.4047C23.8725 8.99914 21.0746 3.85928 16.0678 4.00613C1.19457 0.334806 -5.28485 18.2509 5.02332 27.7963C14.7424 34.9921 26.0814 23.8313 24.4616 13.4047ZM20.1911 19.5726C8.99933 41.7474 -8.23005 4.44669 15.4787 7.2369C21.2219 8.11802 21.6637 15.0201 20.1911 19.5726Z" fill="#EED8C1" fill-opacity="0.11"/>
<path d="M78.0641 57.1671C76.1497 36.4609 46.4033 50.9993 48.1704 66.8594C50.8211 90.3559 81.1566 75.6706 78.0641 57.1671ZM72.1737 58.1951C72.0265 65.2441 65.547 77.4329 57.3005 73.6147C49.054 65.2441 59.5094 53.0552 68.934 52.321C72.321 51.8804 72.321 55.8455 72.1737 58.1951Z" fill="#EED8C1" fill-opacity="0.11"/>
<path d="M38.7458 56.2861C38.4513 51.4399 33.739 47.9155 29.3212 46.8875C14.3007 39.9854 1.04735 59.5169 13.8589 70.5308C22.8418 77.5798 38.8931 66.7127 38.7458 56.2861ZM28.1431 51.8805C30.7938 52.3211 31.9719 54.2302 33.5917 55.8455C34.7698 63.335 23.8726 72.7336 17.3932 66.7127C8.8521 59.8106 18.424 46.4469 28.1431 51.8805Z" fill="#EED8C1" fill-opacity="0.11"/>
<path d="M86.6051 9.29304C86.3106 7.82451 85.7216 6.35598 85.1325 5.03431C85.2798 5.18116 85.2798 5.32801 85.427 5.47486C85.2798 5.32801 85.2798 5.18116 85.1325 4.88745C84.9853 4.59375 84.838 4.30004 84.5435 3.85948C78.0641 -5.97968 61.2765 4.88745 64.958 15.314C69.523 27.6497 88.225 21.7756 86.6051 9.29304ZM80.7147 13.6986C69.6703 25.0063 64.6634 3.56577 79.5367 4.59375C82.3346 6.64969 82.7764 11.0553 80.7147 13.6986Z" fill="#EED8C1" fill-opacity="0.11"/>
</svg>
