<svg width="137" height="159" viewBox="0 0 137 159" fill="none" xmlns="http://www.w3.org/2000/svg">
<circle cx="68.5" cy="90.1317" r="63.5" stroke="#FFCD20" stroke-width="10"/>
<path d="M70.3649 41.0121C66.8182 44.6476 61.6905 46.7237 57.5043 42.5862C52.7503 37.8899 56.0229 32.1751 58.537 27.3663C58.9905 26.4994 57.979 25.1599 57.0459 25.8769C56.9969 25.9144 56.9529 25.9584 56.9039 25.9975C56.3558 25.1615 55.3475 24.7232 54.2741 25.4907C50.8431 27.9432 44.5311 34.2462 40.9338 28.4027C38.0005 23.6363 41.7968 18.2132 43.9014 13.9959C44.4104 12.9758 43.3451 11.8449 42.4103 12.2653C41.7903 11.6217 40.7446 11.3104 39.875 11.752C35.7132 13.8704 30.7406 19.7042 26.3047 14.4408C22.5704 10.0084 26.0225 4.99758 29.6002 1.88516C30.447 1.1486 29.5464 -0.256068 28.5251 0.0405086C21.3142 2.14099 18.1574 11.1507 22.7531 17.1849C26.4989 22.1029 32.6412 21.8503 37.4735 19.0915C35.5077 23.2957 35.0558 28.0295 38.2648 31.9649C41.9257 36.4575 47.4595 35.6444 51.9297 32.9752C50.4255 37.3782 51.1205 42.332 54.8614 45.9903C60.1994 51.2114 70.1463 50.5563 73.8839 43.7237C75.0814 41.5352 72.1839 39.1463 70.3649 41.0121Z" fill="#011C1A"/>
</svg>
