<svg width="101" height="92" viewBox="0 0 101 92" fill="none" xmlns="http://www.w3.org/2000/svg">
<g clip-path="url(#clip0_63_1547)">
<path d="M54.7012 24.625C46.1274 27.5321 41.8405 42.9224 53.3294 44.9745C62.0748 46.1715 66.8761 34.5432 61.9033 28.0451C62.0748 28.2161 62.0748 28.3871 62.2462 28.5581C61.7318 27.5321 61.0459 26.5061 60.017 26.1641C58.6452 24.796 56.5875 23.941 54.7012 24.625ZM56.2445 28.5581C56.759 28.7291 57.1019 29.0711 57.6163 29.2421C57.9593 29.7551 58.4737 29.9261 58.6452 30.4391C58.6452 30.2681 58.4737 30.2681 58.4737 30.0971C65.1613 48.0525 38.9253 40.0154 56.2445 28.5581ZM56.0731 28.5581H55.9016C55.9016 28.5581 55.9016 28.5581 56.0731 28.5581Z" fill="#EED8C1"/>
<path d="M28.4652 15.5615C27.7793 10.4314 24.5213 4.44624 18.691 4.61724C1.37185 0.342147 -6.17314 21.2046 5.83026 32.3198C17.1477 40.699 30.3515 27.7027 28.4652 15.5615ZM23.4924 22.7436C10.4601 48.5652 -9.60268 5.13025 18.0051 8.37932C24.6927 9.40534 25.2072 17.4425 23.4924 22.7436Z" fill="#EED8C1"/>
<path d="M90.8828 66.5209C88.6536 42.4094 54.0153 59.3387 56.073 77.8071C59.1596 105.168 94.4839 88.0674 90.8828 66.5209ZM84.0238 67.7179C83.8523 75.9261 76.3073 90.1194 66.7046 85.6733C57.1019 75.9261 69.2767 61.7328 80.2513 60.8778C84.1952 60.3647 84.1952 64.9818 84.0238 67.7179Z" fill="#EED8C1"/>
<path d="M45.0985 65.4946C44.7556 59.8515 39.2683 55.7474 34.124 54.5504C16.6333 46.5132 1.20039 69.2567 16.1189 82.082C26.579 90.2902 45.27 77.6359 45.0985 65.4946ZM32.7522 60.3645C35.8388 60.8775 37.2106 63.1006 39.0968 64.9816C40.4686 73.7028 27.7793 84.647 20.2343 77.6359C10.2887 69.5987 21.4347 54.0374 32.7522 60.3645Z" fill="#EED8C1"/>
<path d="M100.829 10.7735C100.486 9.06344 99.7997 7.3534 99.1138 5.81437C99.2853 5.98537 99.2853 6.15637 99.4568 6.32738C99.2853 6.15637 99.2853 5.98537 99.1138 5.64336C98.9423 5.30136 98.7709 4.95935 98.4279 4.44634C90.8829 -7.01091 71.3345 5.64336 75.6214 17.7846C80.9372 32.1489 102.715 25.3088 100.829 10.7735ZM93.9695 15.9036C81.1087 29.0709 75.2785 4.10433 92.5977 5.30136C95.8557 7.69541 96.3702 12.8255 93.9695 15.9036Z" fill="#EED8C1"/>
</g>
<defs>
<clipPath id="clip0_63_1547">
<rect width="101" height="92" fill="white"/>
</clipPath>
</defs>
</svg>
