<svg width="119" height="121" viewBox="0 0 119 121" fill="none" xmlns="http://www.w3.org/2000/svg">
<path d="M2.06489 114.749C-11.8098 114.144 -26.169 110.23 -35.7455 99.567C-44.7612 89.5272 -46.8395 73.5755 -46.1496 60.5534C-44.5095 29.5702 -12.387 19.8722 13.6534 18.6152C33.8394 17.6411 79.3609 17.8164 80.3237 47.0931C80.8933 64.4346 61.8942 64.1817 49.5169 64.208C42.9064 64.2217 31.8951 65.8168 33.8144 75.1342C34.339 77.6845 36.1731 79.8442 37.3938 82.0678C39.2581 85.4619 40.6277 89.1065 41.4415 92.8938C43.0691 100.472 42.9226 110.615 33.9207 113.084C26.9546 114.994 18.7015 114.58 11.5225 114.486C2.77479 114.371 -5.91662 113.551 -14.5467 112.128C-18.0798 111.546 -19.5997 116.953 -16.0391 117.539C-0.0773131 120.169 17.5308 121.863 33.5702 118.878C46.1866 116.53 49.1439 104.709 47.2346 93.4209C46.6211 89.7951 45.5519 86.2795 44.0582 82.9179C42.5821 79.5938 37.3738 73.951 41.9673 70.5844C44.6541 68.615 51.2209 69.847 54.3522 69.8733C58.6803 69.9096 63.0298 69.8695 67.2903 69.0094C78.9702 66.6481 86.8779 57.5636 85.8287 45.4155C83.1669 14.5962 40.2797 12.1924 17.3017 12.8597C-10.1697 13.6572 -45.6075 22.2848 -51.06 54.2045C-53.5677 68.8842 -51.2177 88.3979 -42.0781 100.541C-31.649 114.398 -14.6581 119.458 2.06237 119.392C5.06466 119.381 5.04214 114.879 2.06489 114.749Z" fill="#6FC081" fill-opacity="0.42"/>
<path d="M107.7 19.494C96.8989 8.52652 81.5431 3.25184 66.5942 1.23111C49.2065 -1.12014 30.2437 -0.169857 13.3254 4.65535C-0.954904 8.72811 -14.4953 16.776 -22.4956 29.6127C-31.2083 43.5925 -30.4207 61.4861 -23.9604 76.2372C-17.4901 91.0108 -4.01854 100.2 11.2809 104.138C25.4873 107.795 44.5077 109.137 55.509 97.57C55.6918 97.3784 55.6605 97.1469 55.5403 96.9803C58.6277 93.3996 59.5717 88.831 56.7209 84.6343C52.8047 78.8689 45.4479 77.985 39.2443 76.5101C36.6 75.8816 33.8068 75.1855 31.4618 73.7582C28.1065 71.7162 24.6159 67.1577 25.6876 62.9322C26.842 58.3812 32.4509 56.2815 36.55 56.0975C39.7138 55.956 42.9339 56.572 46.0326 57.0941C55.9985 58.7756 65.709 61.7027 75.6862 63.3341C88.2939 65.3949 105.874 66.2525 114.731 54.8931C123.454 43.7052 116.398 28.3256 107.7 19.494ZM98.9522 62.6981C82.1591 66.2938 64.9178 59.7108 48.5729 56.6083C41.3451 55.2362 22.2834 53.0038 24.6497 66.2475C25.5574 71.3231 30.1873 74.6071 34.712 76.2484C38.9087 77.7709 43.4648 77.9988 47.674 79.4774C55.0521 82.0703 61.2607 89.5873 54.4235 96.8263C54.2545 97.0041 54.2695 97.2169 54.3672 97.3809C43.7677 107.94 25.9055 106.752 12.4352 103.467C-2.19188 99.9 -15.4682 91.5767 -22.2365 77.7471C-29.7735 62.3488 -30.5372 43.0266 -20.6689 28.5322C-11.5794 15.1796 3.41703 7.68893 18.8179 4.22715C47.2671 -2.16806 87.1108 -1.8588 108.296 21.4885C114.207 28.0027 118.855 36.9469 117.447 45.9726C115.949 55.5617 107.861 60.79 98.9522 62.6981Z" fill="#3C3C3B"/>
</svg>
