<svg width="80" height="84" viewBox="0 0 80 84" fill="none" xmlns="http://www.w3.org/2000/svg">
<path d="M10.3197 0.552152C7.13257 5.77518 3.81501 10.9267 0.250761 15.9013C-0.478533 16.9202 0.504599 18.3251 1.63965 18.3233C6.53379 18.3108 11.8748 18.8059 16.6867 17.8782C18.1078 17.603 18.1703 15.1648 16.6867 14.9432C11.8337 14.2175 6.53736 14.9146 1.63965 15.1059C2.10261 15.912 2.56558 16.72 3.02854 17.5261C6.41583 12.4157 9.53139 7.18015 12.2716 1.69435C12.9187 0.398428 11.0847 -0.702663 10.3197 0.552152Z" fill="#3D3D3D"/>
<path d="M79.3938 82.6745C73.0822 70.8592 66.1879 56.0302 52.4815 51.6009C43.746 48.7784 31.4285 47.3824 24.7772 55.3832C19.5095 61.718 24.4215 67.3182 31.1032 68.9627C40.4731 71.2703 49.4588 66.9607 54.5871 58.9349C64.9921 42.6509 50.7994 19.7479 31.3015 22.9475C25.5047 23.8984 19.2235 29.983 22.062 36.4698C24.5431 42.1415 33.9327 41.7893 38.2423 38.8007C47.1923 32.5963 45.4924 17.1774 38.7893 10.0936C28.177 -1.11746 13.4785 6.92621 3.29343 14.0529C1.7991 15.0986 3.23984 17.5796 4.7306 16.5125C12.667 10.8408 23.2847 3.54252 33.2535 9.23923C41.9353 14.2013 46.6989 34.8038 33.6717 37.8068C25.9712 39.5818 22.4857 28.301 30.692 26.0219C32.551 25.5053 34.7371 25.618 36.6444 25.8307C45.8195 26.8549 53.3538 33.8869 55.0358 42.928C56.8626 52.7413 50.3258 63.9738 40.2622 66.3279C37.4559 66.9839 32.4759 67.1376 29.977 65.5736C21.1755 60.0646 27.9804 55.41 32.9282 53.4616C53.8614 45.2106 69.5662 67.9492 78.6002 83.1374C78.9023 83.6504 79.6727 83.1982 79.3938 82.6745Z" fill="#3D3D3D"/>
</svg>
