<svg width="87" height="146" viewBox="0 0 87 146" fill="none" xmlns="http://www.w3.org/2000/svg">
<mask id="mask0_513_6493" style="mask-type:alpha" maskUnits="userSpaceOnUse" x="-59" y="0" width="146" height="146">
<circle cx="14" cy="73" r="73" fill="#D9D9D9"/>
</mask>
<g mask="url(#mask0_513_6493)">
<circle cx="1" cy="6" r="2" transform="rotate(90 1 6)" fill="#6FC081"/>
<circle cx="15" cy="6" r="2" transform="rotate(90 15 6)" fill="#6FC081"/>
<circle cx="29" cy="6" r="2" transform="rotate(90 29 6)" fill="#6FC081"/>
<circle cx="43" cy="6" r="2" transform="rotate(90 43 6)" fill="#6FC081"/>
<circle cx="57" cy="6" r="2" transform="rotate(90 57 6)" fill="#6FC081"/>
<circle cx="71" cy="6" r="2" transform="rotate(90 71 6)" fill="#6FC081"/>
<circle cx="85" cy="6" r="2" transform="rotate(90 85 6)" fill="#6FC081"/>
<circle cx="1" cy="21" r="2" transform="rotate(90 1 21)" fill="#6FC081"/>
<circle cx="15" cy="21" r="2" transform="rotate(90 15 21)" fill="#6FC081"/>
<circle cx="29" cy="21" r="2" transform="rotate(90 29 21)" fill="#6FC081"/>
<circle cx="43" cy="21" r="2" transform="rotate(90 43 21)" fill="#6FC081"/>
<circle cx="57" cy="21" r="2" transform="rotate(90 57 21)" fill="#6FC081"/>
<circle cx="71" cy="21" r="2" transform="rotate(90 71 21)" fill="#6FC081"/>
<circle cx="85" cy="21" r="2" transform="rotate(90 85 21)" fill="#6FC081"/>
<circle cx="1" cy="36" r="2" transform="rotate(90 1 36)" fill="#6FC081"/>
<circle cx="15" cy="36" r="2" transform="rotate(90 15 36)" fill="#6FC081"/>
<circle cx="29" cy="36" r="2" transform="rotate(90 29 36)" fill="#6FC081"/>
<circle cx="43" cy="36" r="2" transform="rotate(90 43 36)" fill="#6FC081"/>
<circle cx="57" cy="36" r="2" transform="rotate(90 57 36)" fill="#6FC081"/>
<circle cx="71" cy="36" r="2" transform="rotate(90 71 36)" fill="#6FC081"/>
<circle cx="85" cy="36" r="2" transform="rotate(90 85 36)" fill="#6FC081"/>
<circle cx="1" cy="51" r="2" transform="rotate(90 1 51)" fill="#6FC081"/>
<circle cx="15" cy="51" r="2" transform="rotate(90 15 51)" fill="#6FC081"/>
<circle cx="29" cy="51" r="2" transform="rotate(90 29 51)" fill="#6FC081"/>
<circle cx="43" cy="51" r="2" transform="rotate(90 43 51)" fill="#6FC081"/>
<circle cx="57" cy="51" r="2" transform="rotate(90 57 51)" fill="#6FC081"/>
<circle cx="71" cy="51" r="2" transform="rotate(90 71 51)" fill="#6FC081"/>
<circle cx="85" cy="51" r="2" transform="rotate(90 85 51)" fill="#6FC081"/>
<circle cx="1" cy="66" r="2" transform="rotate(90 1 66)" fill="#6FC081"/>
<circle cx="15" cy="66" r="2" transform="rotate(90 15 66)" fill="#6FC081"/>
<circle cx="29" cy="66" r="2" transform="rotate(90 29 66)" fill="#6FC081"/>
<circle cx="43" cy="66" r="2" transform="rotate(90 43 66)" fill="#6FC081"/>
<circle cx="57" cy="66" r="2" transform="rotate(90 57 66)" fill="#6FC081"/>
<circle cx="71" cy="66" r="2" transform="rotate(90 71 66)" fill="#6FC081"/>
<circle cx="85" cy="66" r="2" transform="rotate(90 85 66)" fill="#6FC081"/>
<circle cx="1" cy="81" r="2" transform="rotate(90 1 81)" fill="#6FC081"/>
<circle cx="15" cy="81" r="2" transform="rotate(90 15 81)" fill="#6FC081"/>
<circle cx="29" cy="81" r="2" transform="rotate(90 29 81)" fill="#6FC081"/>
<circle cx="43" cy="81" r="2" transform="rotate(90 43 81)" fill="#6FC081"/>
<circle cx="57" cy="81" r="2" transform="rotate(90 57 81)" fill="#6FC081"/>
<circle cx="71" cy="81" r="2" transform="rotate(90 71 81)" fill="#6FC081"/>
<circle cx="85" cy="81" r="2" transform="rotate(90 85 81)" fill="#6FC081"/>
<circle cx="1" cy="96" r="2" transform="rotate(90 1 96)" fill="#6FC081"/>
<circle cx="15" cy="96" r="2" transform="rotate(90 15 96)" fill="#6FC081"/>
<circle cx="29" cy="96" r="2" transform="rotate(90 29 96)" fill="#6FC081"/>
<circle cx="43" cy="96" r="2" transform="rotate(90 43 96)" fill="#6FC081"/>
<circle cx="57" cy="96" r="2" transform="rotate(90 57 96)" fill="#6FC081"/>
<circle cx="71" cy="96" r="2" transform="rotate(90 71 96)" fill="#6FC081"/>
<circle cx="85" cy="96" r="2" transform="rotate(90 85 96)" fill="#6FC081"/>
<circle cx="1" cy="111" r="2" transform="rotate(90 1 111)" fill="#6FC081"/>
<circle cx="15" cy="111" r="2" transform="rotate(90 15 111)" fill="#6FC081"/>
<circle cx="29" cy="111" r="2" transform="rotate(90 29 111)" fill="#6FC081"/>
<circle cx="43" cy="111" r="2" transform="rotate(90 43 111)" fill="#6FC081"/>
<circle cx="57" cy="111" r="2" transform="rotate(90 57 111)" fill="#6FC081"/>
<circle cx="71" cy="111" r="2" transform="rotate(90 71 111)" fill="#6FC081"/>
<circle cx="85" cy="111" r="2" transform="rotate(90 85 111)" fill="#6FC081"/>
<circle cx="1" cy="126" r="2" transform="rotate(90 1 126)" fill="#6FC081"/>
<circle cx="15" cy="126" r="2" transform="rotate(90 15 126)" fill="#6FC081"/>
<circle cx="29" cy="126" r="2" transform="rotate(90 29 126)" fill="#6FC081"/>
<circle cx="43" cy="126" r="2" transform="rotate(90 43 126)" fill="#6FC081"/>
<circle cx="57" cy="126" r="2" transform="rotate(90 57 126)" fill="#6FC081"/>
<circle cx="71" cy="126" r="2" transform="rotate(90 71 126)" fill="#6FC081"/>
<circle cx="85" cy="126" r="2" transform="rotate(90 85 126)" fill="#6FC081"/>
<circle cx="1" cy="141" r="2" transform="rotate(90 1 141)" fill="#6FC081"/>
<circle cx="15" cy="141" r="2" transform="rotate(90 15 141)" fill="#6FC081"/>
<circle cx="29" cy="141" r="2" transform="rotate(90 29 141)" fill="#6FC081"/>
<circle cx="43" cy="141" r="2" transform="rotate(90 43 141)" fill="#6FC081"/>
<circle cx="57" cy="141" r="2" transform="rotate(90 57 141)" fill="#6FC081"/>
<circle cx="71" cy="141" r="2" transform="rotate(90 71 141)" fill="#6FC081"/>
<circle cx="85" cy="141" r="2" transform="rotate(90 85 141)" fill="#6FC081"/>
</g>
</svg>
