<svg width="25" height="25" viewBox="0 0 25 25" fill="none" xmlns="http://www.w3.org/2000/svg">
<path d="M0 8.23559C0.0390625 8.07283 0.0651042 7.90356 0.110677 7.7408C0.351562 6.88142 0.839844 6.19132 1.55599 5.66397C1.77083 5.50121 2.01172 5.47517 2.28516 5.55981C2.2526 5.27335 2.20052 5.01293 2.19401 4.75251C2.10286 2.23298 4.36198 0.47517 6.79036 1.18481C7.08984 1.26944 7.27214 1.45173 7.3763 1.7447C8.09896 3.84757 6.9401 5.98949 4.8112 6.45173C4.52474 6.51684 4.22526 6.52335 3.89974 6.56241C4.54427 7.28507 4.88281 8.11189 4.85026 9.06892C4.81771 10.0325 4.42708 10.8398 3.75 11.5299C5.42969 12.4999 5.99609 13.9387 5.58594 15.8137C5.61849 15.8267 5.66406 15.8528 5.70963 15.8658C6.88802 16.2304 7.64974 17.0247 8.09896 18.1575C8.14453 18.2747 8.24219 18.3983 8.35286 18.4504C11.1198 19.8437 13.8867 19.8437 16.6471 18.4374C16.7318 18.3918 16.8229 18.3072 16.849 18.2226C17.2852 17.0312 18.0794 16.2239 19.3034 15.8463C19.3229 15.8398 19.349 15.8267 19.3685 15.8137C18.9518 13.9582 19.5117 12.5129 21.2044 11.5364C20.5404 10.8528 20.1432 10.0455 20.1107 9.08845C20.0781 8.12491 20.4036 7.29158 21.0742 6.5559C20.8073 6.52986 20.5729 6.52335 20.3385 6.48429C18.125 6.14574 16.7904 3.88663 17.6237 1.64705C17.7148 1.39965 17.9036 1.26293 18.151 1.18481C20.8203 0.377514 23.2747 2.63012 22.6953 5.35147C22.6823 5.40356 22.6758 5.46215 22.6628 5.5533C23.1445 5.37751 23.4505 5.65746 23.75 5.9309C25.3451 7.37621 25.3646 9.71345 23.8021 11.1913C23.776 11.2174 23.75 11.2434 23.6979 11.302C24.1016 11.4127 24.2253 11.7317 24.3359 12.0572C24.9349 13.8345 24.2383 15.5793 22.5846 16.4517C22.5586 16.4648 22.5326 16.4843 22.4805 16.5168C22.6693 16.7056 22.8516 16.8879 23.0273 17.0637C23.2812 17.3241 23.3203 17.6171 23.2161 17.9622C22.7604 19.453 21.5495 20.4491 20.0065 20.5663C19.1081 20.6314 18.3073 20.345 17.6042 19.7916C17.474 19.6939 17.3893 19.6809 17.2461 19.759C16.263 20.2799 15.2214 20.6249 14.1211 20.7942C14.0885 20.8007 14.0625 20.8137 14.0039 20.8267C14.0625 20.8918 14.1081 20.9504 14.1536 20.996C14.7396 21.5689 15.3255 22.1418 15.9049 22.7213C16.1263 22.9361 16.2044 23.203 16.0938 23.5025C15.9961 23.7825 15.7878 23.9387 15.5013 23.9843C15.2409 24.0233 15.026 23.9127 14.8437 23.7369C14.1211 23.0207 13.3984 22.3111 12.6693 21.6015C12.6107 21.5429 12.5521 21.4908 12.4414 21.3866C12.3438 21.5038 12.2591 21.6275 12.1615 21.7252C11.4779 22.4023 10.7878 23.0858 10.0911 23.7564C9.64844 24.1796 8.98437 23.9973 8.84766 23.4244C8.77604 23.1379 8.88021 22.897 9.08854 22.6952C9.64844 22.1418 10.2148 21.5885 10.7747 21.0416C10.8398 20.983 10.918 20.9374 10.9896 20.8853C10.9766 20.8658 10.9635 20.8398 10.9505 20.8202C10.638 20.7551 10.319 20.6965 10.013 20.6184C9.20573 20.4231 8.43099 20.1301 7.70182 19.7395C7.57161 19.6679 7.49349 19.6939 7.38281 19.772C5.29948 21.3736 2.44141 20.4166 1.73177 17.884C1.65365 17.5976 1.69271 17.3372 1.89453 17.1158C2.08333 16.914 2.27214 16.7122 2.47396 16.5038C2.41536 16.4713 2.35677 16.4387 2.29818 16.4062C0.559896 15.4947 -0.0195313 13.4439 0.77474 11.7187C0.859375 11.5364 1.05469 11.4062 1.21094 11.2369C0.800781 10.8658 0.436198 10.4036 0.240885 9.83715C0.143229 9.56371 0.0846354 9.27725 0.00651042 8.99731C0 8.75642 0 8.496 0 8.23559ZM3.64583 4.6158C3.64583 4.66788 3.63281 4.78507 3.67188 4.88923C3.69792 4.96085 3.78255 5.04548 3.85417 5.0585C5.18229 5.20824 6.28255 4.08194 6.11979 2.76033C6.09375 2.54548 5.99609 2.49991 5.8138 2.4934C4.60938 2.43481 3.65234 3.34626 3.64583 4.6158ZM21.3021 4.57673C21.3086 3.34626 20.3255 2.41527 19.1146 2.4934C18.9453 2.50642 18.8607 2.54548 18.8346 2.7408C18.6719 3.95824 19.5768 5.03897 20.8073 5.07153C21.2956 5.08455 21.3021 5.07804 21.3021 4.57673ZM4.90885 17.1939C4.23177 17.1939 3.77604 17.3827 3.3724 17.7082C3.26823 17.7929 3.26172 17.858 3.32031 17.9752C3.91927 19.1926 5.48828 19.5051 6.52344 18.6262C6.61458 18.5481 6.66016 18.4895 6.58854 18.3658C6.1849 17.6366 5.59245 17.2265 4.90885 17.1939ZM1.45833 8.66528C1.49089 9.43351 1.88151 10.0194 2.55859 10.4296C2.66927 10.4947 2.73438 10.4817 2.82552 10.384C3.75 9.38793 3.48958 7.81241 2.29818 7.16137C2.17448 7.09626 2.10286 7.10278 2.01172 7.21345C1.66667 7.6171 1.47135 8.08585 1.45833 8.66528ZM23.4896 8.74991C23.4896 8.1184 23.2682 7.57152 22.9362 7.20043C22.8385 7.09626 22.7669 7.08975 22.6497 7.15486C21.4583 7.81241 21.1979 9.39444 22.1354 10.371C22.181 10.4231 22.3177 10.4491 22.3698 10.4166C23.0729 10.0325 23.457 9.4335 23.4896 8.74991ZM19.8503 19.134C20.5599 19.134 21.2956 18.6653 21.6406 17.9752C21.6992 17.858 21.6732 17.7929 21.582 17.7082C20.5729 16.8163 18.9844 17.1353 18.3789 18.3463C18.3138 18.47 18.3333 18.5416 18.444 18.6327C18.8346 18.9452 19.2839 19.121 19.8503 19.134ZM20.7812 15.3385C22.194 15.5273 23.3724 14.1991 23.0273 12.8385C22.9883 12.6887 22.9167 12.6757 22.7865 12.6757C21.3672 12.6497 20.3776 13.9582 20.7812 15.3385ZM1.88151 13.3072C1.875 14.4921 2.8125 15.397 3.9974 15.3645C4.14062 15.358 4.19271 15.3124 4.21875 15.1757C4.47917 14.0364 3.74349 12.9036 2.58464 12.7148C1.875 12.5976 1.93359 12.6041 1.88151 13.3072Z" fill="#DE1EF9"/>
<path d="M8.87363 13.6392C8.87363 13.1834 8.88014 12.7277 8.86712 12.2785C8.86712 12.1678 8.82805 12.0376 8.75644 11.953C8.22258 11.2694 7.68222 10.5858 7.14186 9.90869C6.71868 9.37484 6.90097 8.81494 7.55201 8.63265C8.38535 8.40479 9.22519 8.17692 10.0585 7.93604C10.1692 7.90348 10.2929 7.81885 10.358 7.72119C10.8398 7.01156 11.315 6.2889 11.7903 5.57275C12.1874 4.98031 12.7603 4.98031 13.1575 5.57275C13.6262 6.28239 14.095 6.99854 14.5768 7.70166C14.6484 7.81234 14.7851 7.90348 14.9088 7.94255C15.7226 8.18343 16.5494 8.40479 17.3697 8.63265C18.0533 8.82796 18.2291 9.37484 17.7864 9.93473C17.2525 10.6118 16.7122 11.2824 16.1848 11.9595C16.1197 12.0441 16.0741 12.1743 16.0741 12.285C16.1002 13.1639 16.1458 14.0363 16.1718 14.9152C16.1913 15.5988 15.7226 15.9243 15.0781 15.6899C14.2773 15.397 13.483 15.0845 12.6822 14.8045C12.552 14.759 12.3762 14.759 12.246 14.8045C11.4518 15.0845 10.6575 15.3709 9.87623 15.6899C9.21868 15.9569 8.68482 15.5077 8.74993 14.8957C8.78899 14.4855 8.75644 14.0688 8.75644 13.6522C8.80852 13.6392 8.84107 13.6392 8.87363 13.6392ZM14.6744 13.9647C14.6484 13.3006 14.6288 12.6756 14.5963 12.0506C14.5768 11.7576 14.6484 11.5168 14.8372 11.2889C15.2018 10.8527 15.5468 10.4035 15.8984 9.95426C15.9439 9.90218 15.9765 9.84359 16.0221 9.77197C15.957 9.75244 15.9179 9.73942 15.8788 9.7264C15.3059 9.57015 14.7395 9.40739 14.1666 9.25114C13.8997 9.17952 13.6978 9.04281 13.5546 8.80843C13.2812 8.37874 12.9947 7.95557 12.7083 7.52588C12.6366 7.4152 12.5585 7.30452 12.4674 7.18083C12.233 7.5389 12.0182 7.86442 11.8033 8.18343C11.0416 9.30973 11.3932 9.06234 10.0455 9.44645C9.68092 9.55062 9.30982 9.65478 8.91269 9.76546C9.32284 10.2798 9.69394 10.7681 10.0911 11.2433C10.2929 11.4907 10.371 11.7511 10.358 12.0701C10.3385 12.6821 10.3515 13.3006 10.3515 13.9191C10.384 13.9061 10.4622 13.8866 10.5338 13.854C11.0611 13.6587 11.582 13.4699 12.1028 13.2681C12.3632 13.1639 12.5976 13.1704 12.858 13.2681C13.4439 13.5155 14.0364 13.7238 14.6744 13.9647Z" fill="#DE1EF9"/>
</svg>
