<svg width="25" height="25" viewBox="0 0 25 25" fill="none" xmlns="http://www.w3.org/2000/svg">
<g clip-path="url(#clip0_79_978)">
<path d="M25 23.584C25 23.877 25 24.1699 25 24.4629C24.8828 24.7021 24.7021 24.8828 24.4629 25C16.4893 25 8.51074 25 0.537109 25C0.297852 24.8828 0.117188 24.707 0 24.4629C0 24.1699 0 23.877 0 23.584C0.00976563 23.5645 0.0292969 23.5449 0.0341797 23.5205C0.200195 22.6855 0.698242 22.1436 1.47949 21.8164C3.44727 20.9912 5.41016 20.1416 7.37793 19.3115C7.51953 19.2529 7.57324 19.1846 7.57324 19.0283C7.56348 18.6377 7.57812 18.2471 7.56348 17.8564C7.55859 17.7441 7.50977 17.627 7.45605 17.5244C7.20215 17.0459 6.9043 16.5869 6.68945 16.0889C6.51367 15.6836 6.43555 15.2393 6.30859 14.7949C5.9082 14.7949 5.49316 14.7998 5.07812 14.7949C3.85254 14.7803 2.89063 13.833 2.88086 12.6123C2.87109 11.5527 2.87109 10.498 2.88086 9.43848C2.88574 8.41309 3.57422 7.55859 4.57031 7.31445C4.63867 7.2998 4.70703 7.27539 4.73145 7.26563C4.81934 6.63086 4.87305 6.02051 4.98535 5.4248C5.52246 2.62207 7.35352 0.78125 10.1318 0.234375C10.6543 0.136719 11.1914 0.078125 11.7188 0C12.2412 0 12.7588 0 13.2812 0C13.6572 0.0488281 14.0381 0.0927734 14.4141 0.146484C17.3779 0.566406 19.3359 2.36328 19.9756 5.2832C20.1172 5.93262 20.1758 6.59668 20.2734 7.27539C20.2734 7.27539 20.3027 7.29004 20.332 7.29492C21.5186 7.6123 22.1143 8.39355 22.1191 9.61426C22.1191 10.5566 22.1191 11.5039 22.1191 12.4463C22.1191 13.8818 21.2012 14.7998 19.7754 14.7998C19.4043 14.7998 19.0332 14.7998 18.6523 14.7998C18.54 15.5664 18.374 16.3086 17.9297 16.9043C17.4658 17.5293 17.373 18.1885 17.4316 18.9111C17.4365 18.96 17.4414 19.0088 17.4316 19.0576C17.4072 19.1992 17.4805 19.2578 17.6025 19.3066C17.9395 19.4434 18.2764 19.5898 18.6133 19.7363C20.2637 20.4395 21.9141 21.1426 23.5693 21.8408C24.3164 22.1582 24.7998 22.6953 24.9609 23.5059C24.9658 23.5254 24.9854 23.5547 25 23.584ZM16.8848 15.7471C16.4307 15.9473 15.9766 16.1914 15.498 16.3525C14.6875 16.6211 13.8379 16.5137 13.0029 16.5039C12.8857 16.5039 12.7539 16.4258 12.6563 16.3477C12.4121 16.167 12.3291 15.8398 12.4268 15.5566C12.5293 15.2588 12.7881 15.0684 13.1348 15.0586C13.5254 15.0488 13.916 15.0537 14.3066 15.0586C14.8926 15.0635 15.4248 14.8975 15.9131 14.5654C16.2891 14.3115 16.665 14.0527 17.0508 13.8086C17.1875 13.7207 17.2412 13.623 17.2412 13.457C17.2363 11.8359 17.2266 10.2197 17.2412 8.59863C17.2461 7.68555 16.9336 6.875 16.4746 6.11816C16.1133 5.51758 15.6934 5.36621 15.0195 5.55664C14.5313 5.69824 14.0527 5.88379 13.5742 6.06934C12.8613 6.34766 12.1533 6.35254 11.4355 6.0791C10.9277 5.88379 10.415 5.70312 9.89258 5.54687C9.40918 5.40039 8.9502 5.46387 8.61816 5.89844C8.10547 6.57227 7.80273 7.3584 7.77832 8.17383C7.71973 10.1562 7.75391 12.1436 7.76367 14.126C7.76855 15.0439 8.05176 15.8887 8.6084 16.626C9.49219 17.7979 10.6982 18.3838 12.1436 18.4717C13.7207 18.5693 15.0928 18.0908 16.1719 16.8896C16.4893 16.5527 16.7334 16.1572 16.8848 15.7471ZM18.7842 7.22656C18.7256 6.75781 18.6865 6.28906 18.5986 5.83008C18.2031 3.67188 16.9824 2.25586 14.8193 1.72852C13.5156 1.41113 12.1924 1.3916 10.8691 1.5918C9.86816 1.74316 8.92578 2.06055 8.125 2.70508C7.11914 3.51074 6.62598 4.60449 6.40137 5.83496C6.31348 6.30371 6.2793 6.77734 6.21582 7.25098C6.25488 7.26563 6.29395 7.28516 6.33301 7.2998C6.38672 7.22656 6.46973 7.16309 6.49414 7.08496C6.69922 6.39648 6.93848 5.72754 7.36816 5.1416C8.04199 4.22363 8.9502 3.85254 10.0586 4.10645C10.6982 4.25293 11.3135 4.49219 11.9287 4.7168C12.3047 4.85352 12.666 4.87305 13.042 4.72168C13.418 4.56543 13.7988 4.42871 14.1797 4.29199C14.7705 4.08203 15.3711 3.9502 15.9961 4.08203C16.7871 4.24805 17.3682 4.72656 17.749 5.41016C18.042 5.9375 18.2422 6.51855 18.4766 7.08008C18.5303 7.19238 18.5547 7.30957 18.7842 7.22656ZM15.957 19.0234C13.6475 20.2832 11.3525 20.2881 9.04297 19.0234C8.98926 20.0098 9.05762 20.9619 9.50195 21.8555C9.91211 22.6855 10.5664 23.2275 11.4746 23.418C11.9092 23.5059 12.3633 23.5449 12.8027 23.5254C14.0381 23.4668 15 22.9395 15.5371 21.7725C15.9424 20.8984 16.0107 19.9756 15.957 19.0234ZM16.1377 23.5156C18.5889 23.5156 20.9912 23.5156 23.3936 23.5156C23.4033 23.4961 23.4131 23.4717 23.4229 23.4521C23.2715 23.3594 23.125 23.2422 22.9639 23.1738C21.3135 22.4658 19.6631 21.7627 18.0127 21.0596C17.7979 20.9668 17.583 20.8838 17.3535 20.7861C17.1729 21.8066 16.8213 22.7197 16.1377 23.5156ZM7.65137 20.8154C7.6123 20.8105 7.60742 20.8057 7.59766 20.8105C5.69824 21.6162 3.80371 22.4219 1.90918 23.2324C1.78711 23.2861 1.68945 23.3936 1.58203 23.4766C1.5918 23.4912 1.60645 23.5059 1.61621 23.5205C4.01855 23.5205 6.4209 23.5205 8.8623 23.5205C8.17871 22.7197 7.82715 21.8066 7.65137 20.8154ZM6.28906 8.73535C5.83496 8.73535 5.40527 8.7207 4.97559 8.74023C4.62402 8.75977 4.3457 9.06738 4.3457 9.43359C4.33594 10.498 4.34082 11.5625 4.3457 12.6318C4.3457 12.9639 4.58008 13.2813 4.90234 13.3105C5.35645 13.3496 5.82031 13.3203 6.28906 13.3203C6.28906 11.7871 6.28906 10.2783 6.28906 8.73535ZM18.7109 13.3301C19.1602 13.3301 19.5898 13.3496 20.0195 13.3252C20.3711 13.3057 20.6494 12.9932 20.6494 12.6318C20.6592 11.5674 20.6592 10.5029 20.6494 9.43359C20.6494 9.09668 20.4102 8.7793 20.0928 8.75488C19.6387 8.7207 19.1748 8.74512 18.7061 8.74512C18.7109 10.2734 18.7109 11.7871 18.7109 13.3301Z" fill="#DF4343"/>
</g>
<defs>
<clipPath id="clip0_79_978">
<rect width="25" height="25" fill="white"/>
</clipPath>
</defs>
</svg>
