<svg width="79" height="50" viewBox="0 0 79 50" fill="none" xmlns="http://www.w3.org/2000/svg">
<ellipse cx="2" cy="2.75694" rx="2" ry="2.00156" fill="#6FC081"/>
<ellipse cx="17" cy="2.75694" rx="2" ry="2.00156" fill="#6FC081"/>
<ellipse cx="32" cy="2.75694" rx="2" ry="2.00156" fill="#6FC081"/>
<ellipse cx="2" cy="17.7687" rx="2" ry="2.00156" fill="#6FC081"/>
<ellipse cx="17" cy="17.7687" rx="2" ry="2.00156" fill="#6FC081"/>
<ellipse cx="32" cy="17.7687" rx="2" ry="2.00156" fill="#6FC081"/>
<ellipse cx="2" cy="32.7804" rx="2" ry="2.00156" fill="#6FC081"/>
<ellipse cx="17" cy="32.7804" rx="2" ry="2.00156" fill="#6FC081"/>
<ellipse cx="32" cy="32.7804" rx="2" ry="2.00156" fill="#6FC081"/>
<ellipse cx="2" cy="47.7921" rx="2" ry="2.00156" fill="#6FC081"/>
<ellipse cx="17" cy="47.7921" rx="2" ry="2.00156" fill="#6FC081"/>
<ellipse cx="32" cy="47.7921" rx="2" ry="2.00156" fill="#6FC081"/>
<ellipse cx="47" cy="2.75694" rx="2" ry="2.00156" fill="#6FC081"/>
<ellipse cx="62" cy="2.75694" rx="2" ry="2.00156" fill="#6FC081"/>
<ellipse cx="77" cy="2.75694" rx="2" ry="2.00156" fill="#6FC081"/>
<ellipse cx="47" cy="17.7687" rx="2" ry="2.00156" fill="#6FC081"/>
<ellipse cx="62" cy="17.7687" rx="2" ry="2.00156" fill="#6FC081"/>
<ellipse cx="77" cy="17.7687" rx="2" ry="2.00156" fill="#6FC081"/>
<ellipse cx="47" cy="32.7804" rx="2" ry="2.00156" fill="#6FC081"/>
<ellipse cx="62" cy="32.7804" rx="2" ry="2.00156" fill="#6FC081"/>
<ellipse cx="77" cy="32.7804" rx="2" ry="2.00156" fill="#6FC081"/>
<ellipse cx="47" cy="47.7921" rx="2" ry="2.00156" fill="#6FC081"/>
<ellipse cx="62" cy="47.7921" rx="2" ry="2.00156" fill="#6FC081"/>
<ellipse cx="77" cy="47.7921" rx="2" ry="2.00156" fill="#6FC081"/>
</svg>
