<svg width="70" height="55" viewBox="0 0 70 55" fill="none" xmlns="http://www.w3.org/2000/svg">
<path d="M28.4008 1.65554C29.3776 5.70301 31.1285 9.54232 33.5232 12.9969C34.5673 14.4952 36.2861 17.7458 38.5425 16.9788C40.8096 16.2088 40.6868 13.0214 40.8585 11.1187C41.1523 7.83112 41.3251 4.5304 41.396 1.23267C37.0609 1.3776 32.7317 1.53506 28.4008 1.65554Z" fill="#619FC9"/>
<path d="M46.3152 1.09639C46.143 4.3297 45.7485 7.54871 45.1084 10.7313C44.2472 15.0227 42.908 21.7095 37.4918 22.1884C34.68 22.4383 33.0702 20.1026 31.7591 17.9775C30.5045 15.9442 29.3937 13.8233 28.4306 11.6427C27.0121 8.43741 25.9793 5.11701 25.1145 1.74233C24.7182 1.75068 24.3207 1.75247 23.9238 1.76023C24.6312 5.9246 26.0246 9.97981 27.8155 13.7959C29.6398 17.6757 32.3569 24.1835 37.5973 23.7404C42.7602 23.3073 44.9749 18.0879 46.0435 13.7189C47.0584 9.56469 47.6568 5.32278 47.8815 1.05762C47.3588 1.06716 46.8373 1.08446 46.3152 1.09639Z" fill="#EDB4AE"/>
<path d="M64.6004 0.659301C61.5294 0.789326 58.4589 0.857917 55.3878 0.915772C55.5976 4.5845 55.3747 8.27469 54.6685 11.8993C53.6982 16.8838 51.9794 22.0579 48.521 25.8996C44.7955 30.0329 39.3823 31.2741 34.3069 28.812C29.3615 26.4131 26.3143 21.5974 24.0609 16.7674C21.8403 12.0066 20.1989 6.97087 19.1089 1.82654C15.3495 1.85278 11.5817 1.89215 7.82406 1.78479C5.31142 1.71321 2.46682 1.82535 0.000666893 1.04997C-0.0178084 2.53631 0.352886 4.18786 0.454798 5.27816C0.728947 8.21564 1.10143 11.1454 1.63245 14.0477C3.67486 25.2161 8.47606 35.5858 16.9151 43.3384C24.9292 50.7081 36.0817 56.0015 47.1675 54.5205C52.0849 53.8591 56.8718 51.8365 60.5412 48.4565C64.2035 45.0866 66.4325 40.4928 67.6483 35.726C69.1877 29.6936 69.311 23.3653 69.2967 17.1778C69.2866 11.6034 69.0095 6.03683 68.4922 0.491699C67.1953 0.548361 65.8979 0.604428 64.6004 0.659301Z" fill="#FEBF51"/>
<path d="M12.3809 6.31523C11.5882 5.50526 10.3665 5.27742 9.38191 5.83689C7.71914 6.25798 6.59691 8.11172 7.55762 9.83127C8.77163 12.0053 11.885 11.8216 12.9161 9.58971C13.4197 8.49822 13.2301 7.18365 12.3809 6.31523Z" fill="#152232"/>
<path d="M15.8846 20.0917C15.4597 19.958 15.027 19.9473 14.6092 20.0189C12.2593 19.9115 10.7002 22.8794 12.1752 24.8847C13.9387 27.2818 17.9711 26.2965 18.0957 23.1902C18.1511 21.8184 17.1826 20.5008 15.8846 20.0917Z" fill="#152232"/>
<path d="M29.8598 35.7021C29.8544 35.6973 29.852 35.6908 29.8467 35.6866C28.9759 34.9846 27.7703 34.9798 26.828 35.578C25.7779 36.2455 25.3518 37.4616 25.6039 38.6605C26.1427 41.2246 29.712 41.8801 31.0815 39.6112C31.9493 38.1738 31.1471 36.4017 29.8598 35.7021Z" fill="#152232"/>
<path d="M51.418 41.6552C51.2523 40.3007 50.0473 39.3488 48.7731 39.0649C47.2724 38.7302 45.6144 39.3565 44.8891 40.522C44.4504 41.0719 44.193 41.7721 44.2615 42.5212C44.5089 45.2279 47.652 46.3856 49.7833 44.9172C50.828 44.1972 51.5766 42.9531 51.418 41.6552Z" fill="#152232"/>
<path d="M63.2279 23.8146C62.7887 22.8883 61.9263 22.2698 60.9614 22.1207C60.8362 21.9877 60.6563 21.906 60.4137 21.9328C59.1562 22.07 58.0954 22.7249 57.6251 23.9554C57.1489 25.2025 57.6013 26.5946 58.6329 27.4159C61.018 29.315 64.5546 26.6143 63.2279 23.8146Z" fill="#152232"/>
<path d="M61.6515 6.13589C60.8761 6.2182 60.1955 6.80092 59.8648 7.51308C59.413 8.48647 59.599 9.6221 60.369 10.3784C62.015 11.9942 64.753 10.787 64.7452 8.50317C64.7399 6.83671 63.0956 5.82634 61.6515 6.13589Z" fill="#152232"/>
</svg>
