<svg width="112" height="107" viewBox="0 0 112 107" fill="none" xmlns="http://www.w3.org/2000/svg">
<path d="M109.926 5.62286C107.097 2.74576 102.671 7.17408 105.499 10.0487C104.578 9.11218 99.924 12.5151 98.3852 12.9496C96.3507 13.5255 94.2586 13.702 92.1553 13.7421C87.0133 13.841 81.9339 12.6791 76.797 12.624C69.4853 12.5464 64.5612 15.6213 65.3074 23.4438C65.6667 27.2011 66.92 30.7267 68.3986 34.1634C70.2478 38.4603 71.9518 43.3005 65.6079 44.5137C63.5984 44.8981 61.2446 44.0467 59.2515 43.8289C52.7961 43.1215 46.3684 44.8843 44.2851 51.7152C41.6872 60.2338 47.5365 66.6316 50.0293 74.2124C50.7003 76.2532 51.2524 78.5882 50.6628 80.7391C49.1666 86.2003 44.4966 84.8381 40.3212 84.1596C35.5185 83.3796 30.6858 82.6834 25.8155 82.5219C18.9258 82.2928 11.3237 83.6963 8.62187 90.9567C6.30442 97.1841 9.35428 103.495 15.0747 106.441C18.6504 108.283 21.8204 102.883 18.2334 101.037C14.853 99.295 12.7059 95.564 15.0721 91.9458C16.875 89.1889 20.9491 88.807 23.8287 88.7269C29.5278 88.5679 35.337 89.6458 40.9109 90.6224C47.3086 91.7429 53.1079 91.1695 55.9387 84.6103C58.9322 77.6742 55.5769 71.2039 52.5796 64.9576C50.7679 61.1841 47.5803 54.0302 52.254 50.6723C55.8535 48.0869 62.8634 51.1431 67.1753 50.6736C72.8093 50.0601 77.4493 46.3692 77.0587 40.2669C76.7832 35.9663 74.0376 32.189 72.733 28.1927C72.2272 26.6414 70.9952 23.5114 71.4196 21.8225C72.5001 17.5181 78.2894 18.9203 81.1815 19.1557C88.8938 19.783 96.864 21.1038 104.092 17.4455C108.032 15.4548 114.342 10.1125 109.926 5.62286Z" fill="#F39200"/>
<path d="M97.4466 0.233032C90.5606 12.9496 77.4834 -0.678424 67.9807 1.27219C61.8434 2.5317 59.5247 9.21738 60.1945 14.7725C60.4574 16.961 61.3727 18.8102 61.901 20.9061C62.5008 23.2886 63.8517 28.2841 62.4982 30.6629C59.7764 35.4493 50.2549 32.5522 45.9493 33.4123C40.2827 34.5441 36.7884 39.2979 36.0284 44.8819C34.7727 54.1166 41.4784 59.4689 44.2917 67.4066C48.0464 77.9998 36.5055 76.4886 30.3531 76.277C25.3577 76.1055 20.3384 75.7712 15.3392 75.805C9.19184 75.8451 3.63545 77.5265 1.11768 83.6563C-1.82327 90.8127 1.56084 98.2045 5.24422 104.348C5.55472 104.865 6.36728 104.394 6.05553 103.874C2.80158 98.4474 -0.324662 92.1937 1.43565 85.6645C3.32867 78.6445 9.72765 76.7177 16.2506 76.744C24.0067 76.7741 33.0487 78.8123 40.6646 77.1446C44.9514 76.2057 47.1725 73.0907 45.9405 68.7375C44.9589 65.2669 42.3072 62.3135 40.5969 59.216C37.4306 53.4818 35.1946 46.4794 38.426 40.2244C43.5918 30.2234 54.5054 37.5426 61.9286 32.3218C65.8386 29.5724 65.0936 26.316 63.5812 22.4635C60.937 15.7278 58.4367 2.38772 69.9789 2.06471C75.5829 1.90821 80.8788 5.91962 86.464 6.35406C91.3568 6.73467 95.854 5.14087 98.2566 0.703784C98.5445 0.17544 97.7345 -0.299068 97.4466 0.233032Z" fill="#3C3C3B"/>
</svg>
