<svg width="108" height="67" viewBox="0 0 108 67" fill="none" xmlns="http://www.w3.org/2000/svg">
<circle cx="3.14462" cy="2.87936" r="2.87936" fill="white" fill-opacity="0.22"/>
<circle cx="24.74" cy="2.87936" r="2.87936" fill="white" fill-opacity="0.22"/>
<circle cx="46.335" cy="2.87936" r="2.87936" fill="white" fill-opacity="0.22"/>
<circle cx="3.14462" cy="24.4746" r="2.87936" fill="white" fill-opacity="0.22"/>
<circle cx="24.74" cy="24.4746" r="2.87936" fill="white" fill-opacity="0.22"/>
<circle cx="46.335" cy="24.4746" r="2.87936" fill="white" fill-opacity="0.22"/>
<circle cx="3.14462" cy="46.0698" r="2.87936" fill="white" fill-opacity="0.22"/>
<circle cx="24.74" cy="46.0698" r="2.87936" fill="white" fill-opacity="0.22"/>
<circle cx="46.335" cy="46.0698" r="2.87936" fill="white" fill-opacity="0.22"/>
<circle cx="3.14462" cy="67.665" r="2.87936" fill="white" fill-opacity="0.22"/>
<circle cx="24.74" cy="67.665" r="2.87936" fill="white" fill-opacity="0.22"/>
<circle cx="46.335" cy="67.665" r="2.87936" fill="white" fill-opacity="0.22"/>
<circle cx="67.9303" cy="2.87936" r="2.87936" fill="white" fill-opacity="0.22"/>
<circle cx="89.5255" cy="2.87936" r="2.87936" fill="white" fill-opacity="0.22"/>
<circle cx="67.9303" cy="24.4746" r="2.87936" fill="white" fill-opacity="0.22"/>
<circle cx="89.5255" cy="24.4746" r="2.87936" fill="white" fill-opacity="0.22"/>
<circle cx="67.9303" cy="46.0698" r="2.87936" fill="white" fill-opacity="0.22"/>
<circle cx="89.5255" cy="46.0698" r="2.87936" fill="white" fill-opacity="0.22"/>
<circle cx="67.9303" cy="67.665" r="2.87936" fill="white" fill-opacity="0.22"/>
<circle cx="89.5255" cy="67.665" r="2.87936" fill="white" fill-opacity="0.22"/>
</svg>
