<svg width="44" height="37" viewBox="0 0 44 37" fill="none" xmlns="http://www.w3.org/2000/svg">
<path d="M5.1207 27.7749C2.80211 28.5659 0.565895 31.313 0.0550015 33.7191C-0.423961 35.9739 2.34683 37.0224 3.64982 35.2343C4.17513 34.5143 4.52121 33.9118 5.16704 33.2958C5.79844 32.6922 6.61113 32.3173 7.36408 31.6282C9.03066 30.1048 7.29612 27.0312 5.1207 27.7749Z" fill="#FFCD20" fill-opacity="0.31"/>
<path d="M18.5318 26.1389C17.9642 25.4261 17.0042 25.043 16.0978 25.3087C14.8906 25.663 14.0223 26.7178 13.2261 27.6469C12.4278 28.579 11.6563 29.5349 11.2124 30.6855C10.8807 31.5455 11.4339 32.6332 12.1827 33.071C13.052 33.5798 14.0017 33.3347 14.7423 32.7404C15.4231 32.1944 15.9639 31.4425 16.5933 30.8338C17.2865 30.1632 18.2804 29.5833 18.713 28.7099C19.1302 27.8673 19.1405 26.9032 18.5318 26.1389Z" fill="#FFCD20" fill-opacity="0.31"/>
<path d="M14.5063 16.3548C14.0366 15.5524 12.8583 14.9416 11.9354 15.3083C9.37783 16.3259 7.1993 19.3357 6.38249 21.9056C5.86748 23.5268 8.22624 25.0482 9.36236 23.6401C10.0494 22.7883 10.723 21.9231 11.51 21.1578C12.3175 20.3729 13.3795 19.9032 14.151 19.1142C14.8565 18.3911 15.0203 17.2334 14.5063 16.3548Z" fill="#FFCD20" fill-opacity="0.31"/>
<path d="M28.146 13.0874C26.2662 12.7465 24.7253 13.9197 23.2668 15.0023C21.938 15.987 20.5331 17.1107 19.8244 18.6475C19.123 20.1689 20.5753 21.853 22.1708 20.9939C23.3976 20.3337 24.4317 19.3613 25.6338 18.6517C26.9872 17.8534 28.5158 17.6062 29.4377 16.262C30.1813 15.1763 29.4665 13.3264 28.146 13.0874Z" fill="#FFCD20" fill-opacity="0.31"/>
<path d="M38.7934 14.5277C37.7047 14.0776 36.4151 14.7502 35.8753 15.7143C35.8053 15.8389 35.7765 15.979 35.7311 16.1129C35.0184 16.7639 34.2386 17.3623 33.5176 17.9855C32.5535 18.8178 31.2536 19.685 30.9879 20.9942C30.7695 22.0675 31.4503 22.9739 32.5484 23.0419C34.1181 23.1397 35.6343 21.7111 36.8714 20.8727C38.1342 20.0157 40.1942 19.1144 40.4528 17.4488C40.668 16.0532 40.0995 15.0685 38.7934 14.5277Z" fill="#FFCD20" fill-opacity="0.31"/>
<path d="M27.7741 0.370899C25.612 1.82324 22.9947 3.15196 21.2509 5.11829C20.2054 6.29767 21.1943 8.74912 22.9566 8.04973C25.438 7.06503 27.6278 5.40051 30.0721 4.30353C32.7192 3.11488 30.2503 -1.29362 27.7741 0.370899Z" fill="#FFCD20" fill-opacity="0.31"/>
<path d="M40.3332 3.20346C38.1495 4.23555 35.7352 5.45612 33.809 6.91155C32.2413 8.09608 33.0622 10.8617 35.2273 10.2766C37.7179 9.60301 40.3538 8.3402 42.6507 7.16906C45.3051 5.81663 42.9773 1.95507 40.3332 3.20346Z" fill="#FFCD20" fill-opacity="0.31"/>
</svg>
