<svg width="155" height="155" viewBox="0 0 155 155" fill="none" xmlns="http://www.w3.org/2000/svg">
<path d="M81.7057 5.04159C77.6705 5.00795 77.6723 11.2687 81.7049 11.3015C80.3911 11.2909 79.5067 16.9878 78.7258 18.383C77.6945 20.2288 76.3399 21.833 74.881 23.3486C71.315 27.0545 66.9018 29.8246 63.2304 33.418C58.0054 38.5333 56.6979 44.1894 62.7568 49.1931C65.6677 51.5958 69.0469 53.2026 72.5226 54.5872C76.8685 56.318 81.4959 58.5357 77.868 63.8793C76.7189 65.572 74.4525 66.6344 72.889 67.8897C67.8243 71.9541 64.5257 77.7457 67.8827 84.0491C72.0693 91.9096 80.7293 92.2974 87.8524 95.8952C89.7699 96.8637 91.8114 98.1244 92.9154 100.062C95.7191 104.982 91.4537 107.321 88.0214 109.794C84.0739 112.638 80.1644 115.563 76.6064 118.893C71.5726 123.602 67.1895 129.97 70.4129 137.015C73.1777 143.057 79.7971 145.363 85.9251 143.401C89.7558 142.175 88.179 136.115 84.3368 137.346C80.7151 138.505 76.5586 137.385 75.6733 133.153C74.9987 129.929 77.6095 126.778 79.589 124.685C83.5065 120.543 88.3765 117.197 93.0083 113.946C98.3245 110.215 102.02 105.709 99.3834 99.069C96.5955 92.0477 89.6477 89.8451 83.1116 87.5477C79.1623 86.1605 71.8497 83.3559 72.7802 77.6767C73.4973 73.3033 80.615 70.5076 83.332 67.1266C86.882 62.709 87.5531 56.8182 82.962 52.7795C79.7262 49.9332 75.1138 49.2038 71.3655 47.3004C69.9109 46.5611 66.8265 45.219 65.9324 43.7247C63.6527 39.917 68.7379 36.8149 70.9494 34.9363C76.8463 29.9264 83.4161 25.2246 85.9401 17.5269C87.3185 13.3333 88.0028 5.09382 81.7057 5.04159Z" fill="#F39200"/>
<path d="M69.0699 10.0551C73.1927 23.9162 54.3093 23.5267 48.9692 31.6254C45.5201 36.8557 48.608 43.2228 53.0097 46.6772C54.7431 48.0388 56.6979 48.6992 58.5535 49.8076C60.6622 51.0682 65.1498 53.6454 65.8749 56.2844C67.3347 61.5936 58.5534 66.2777 56.1171 69.9304C52.9106 74.7376 53.8011 80.5699 57.2122 85.0557C62.8542 92.4736 71.3805 91.5166 78.9826 95.1401C89.1281 99.9756 79.8989 107.068 75.3989 111.268C71.7453 114.68 67.9597 117.992 64.4487 121.551C60.1302 125.926 57.3902 131.044 59.9443 137.159C62.9251 144.299 70.5448 147.133 77.4935 148.872C78.0787 149.019 78.3204 148.111 77.7316 147.963C71.5939 146.427 64.9612 144.216 61.5891 138.354C57.9638 132.052 61.1261 126.165 65.7571 121.571C71.2628 116.108 79.0977 111.155 83.3037 104.591C85.671 100.895 85.0389 97.1224 81.0896 94.9153C77.9414 93.1553 73.978 92.942 70.5784 91.9611C64.2848 90.1453 57.7523 86.775 55.6143 80.0671C52.1953 69.3426 65.0878 66.8009 66.6451 57.8603C67.4657 53.1514 64.6363 51.3755 60.8428 49.7208C54.2102 46.8277 43.0094 39.1628 50.9425 30.7728C54.7945 26.6996 61.3758 25.7913 65.6323 22.1491C69.3611 18.9585 71.4141 14.6516 69.9755 9.81517C69.8056 9.23796 68.8973 9.4752 69.0699 10.0551Z" fill="#3C3C3B"/>
</svg>
