<svg width="30" height="30" viewBox="0 0 30 30" fill="none" xmlns="http://www.w3.org/2000/svg">
<path d="M0 25.8517C0 19.2414 0 12.631 0 6.02067C0.237931 5.51378 0.631034 5.36895 1.17931 5.36895C3.61034 5.38964 6.05172 5.37929 8.48276 5.37929C8.59655 5.37929 8.71035 5.37929 8.82414 5.37929C8.82414 5.0586 8.81379 4.78964 8.82414 4.51033C8.86552 3.02067 9.94138 1.89309 11.431 1.8724C13.7793 1.84136 16.1276 1.84136 18.4759 1.8724C19.8724 1.88274 20.9069 2.84481 21.0724 4.24136C21.1138 4.61378 21.0828 4.98619 21.0828 5.37929C21.269 5.37929 21.3828 5.37929 21.4966 5.37929C23.969 5.37929 26.4414 5.37929 28.9241 5.37929C29.6069 5.37929 29.9379 5.69998 29.9379 6.3724C29.9379 12.7345 29.9483 19.0965 29.9276 25.4586C29.9276 25.8621 29.8345 26.3069 29.6586 26.6689C29.1621 27.7138 28.2828 28.1793 27.1345 28.1793C21.8276 28.1793 16.5103 28.1793 11.2034 28.1793C8.4 28.1793 5.58621 28.1793 2.78276 28.1793C1.85172 28.1793 1.04483 27.8689 0.517241 27.0827C0.27931 26.731 0.175862 26.2655 0 25.8517ZM10.5828 17.6586C8.96897 17.6586 7.39655 17.6586 5.83448 17.6586C4.44828 17.6586 3.53793 16.9965 3.0931 15.6827C2.7 14.5034 2.3069 13.3241 1.91379 12.1345C1.88276 12.031 1.84138 11.9276 1.8 11.8241C1.78966 11.8241 1.76897 11.8345 1.75862 11.8345C1.75862 11.9276 1.75862 12.0207 1.75862 12.1138C1.75862 16.5207 1.75862 20.9276 1.75862 25.3241C1.75862 26.1207 2.06897 26.431 2.87586 26.431C10.9448 26.431 19.0138 26.431 27.0828 26.431C27.8897 26.431 28.1897 26.1207 28.1897 25.3138C28.1897 20.9172 28.1897 16.5207 28.1897 12.1345C28.1897 12.031 28.1897 11.9379 28.1897 11.8345C28.1172 11.8965 28.0862 11.9689 28.0655 12.0414C27.6621 13.2621 27.2483 14.4724 26.8448 15.6931C26.4103 16.9862 25.4897 17.6586 24.1241 17.6586C22.6448 17.6586 21.1655 17.6586 19.6759 17.6586C19.5724 17.6586 19.469 17.6586 19.3448 17.6586C19.3448 17.9586 19.3448 18.2172 19.3448 18.4862C19.3345 19.0448 18.9828 19.4172 18.4345 19.4172C16.1172 19.4276 13.8 19.4276 11.4724 19.4172C10.9345 19.4172 10.5828 19.0448 10.5724 18.5069C10.5828 18.2379 10.5828 17.9586 10.5828 17.6586ZM19.3552 15.9103C19.4897 15.9103 19.5931 15.9103 19.6966 15.9103C21.1345 15.9103 22.5828 15.9103 24.0207 15.9103C24.7448 15.9103 24.9724 15.7448 25.2 15.0724C26.0172 12.6414 26.8241 10.2 27.6414 7.76895C27.7035 7.5724 27.7655 7.3655 27.8379 7.16895C19.2517 7.16895 10.6862 7.16895 2.11034 7.16895C2.13103 7.23102 2.14138 7.28274 2.16207 7.32412C3.04138 9.95171 3.91034 12.5896 4.78966 15.2172C4.96552 15.7345 5.24483 15.9207 5.7931 15.9207C7.30345 15.9207 8.81379 15.9207 10.3241 15.9207C10.4069 15.9207 10.4897 15.9103 10.5828 15.9C10.5828 15.6 10.5724 15.331 10.5828 15.0517C10.5931 14.5345 10.9552 14.1621 11.4724 14.1621C13.8 14.1517 16.1276 14.1517 18.4552 14.1621C18.9724 14.1621 19.3345 14.5345 19.3448 15.0517C19.3655 15.3103 19.3552 15.5896 19.3552 15.9103ZM19.3552 5.36895C19.3552 5.11033 19.3552 4.88274 19.3552 4.6655C19.3552 3.96205 19.0241 3.63102 18.3103 3.63102C16.9345 3.63102 15.569 3.63102 14.1931 3.63102C13.2931 3.63102 12.4034 3.63102 11.5034 3.63102C11.0586 3.63102 10.7069 3.8586 10.6345 4.26205C10.5621 4.62412 10.5828 5.00688 10.5621 5.36895C13.531 5.36895 16.4276 5.36895 19.3552 5.36895ZM12.3414 17.6483C14.1 17.6483 15.8379 17.6483 17.5759 17.6483C17.5759 17.0586 17.5759 16.5 17.5759 15.931C15.8172 15.931 14.0793 15.931 12.3414 15.931C12.3414 16.5 12.3414 17.0586 12.3414 17.6483Z" fill="#DE1EF9"/>
</svg>
