<svg width="30" height="30" viewBox="0 0 30 30" fill="none" xmlns="http://www.w3.org/2000/svg">
<g clip-path="url(#clip0_76_676)">
<path d="M2.52175 30C1.89523 30 1.27393 30 0.647404 30C0.360248 29.8591 0.140965 29.645 0.00521851 29.3578C0.00521851 28.7365 0.00521851 28.11 0.00521851 27.4887C0.0208816 27.4052 0.0469867 27.3216 0.0574287 27.2329C0.375911 23.9489 1.7647 21.1974 4.20292 18.9732C4.44309 18.7539 4.69892 18.5451 4.95997 18.3258C4.69892 17.9708 4.73025 17.621 4.8921 17.2555C5.06961 16.8535 5.2158 16.441 5.39332 16.039C5.67525 15.3916 5.97285 14.7494 6.27045 14.0968C6.16603 14.0394 6.07205 13.9924 5.97807 13.9454C4.67281 13.2927 3.36234 12.6401 2.05708 11.9875C1.35224 11.6325 1.24782 10.9903 1.80647 10.4264C2.26592 9.96173 2.73059 9.50228 3.19526 9.04283C5.79533 6.43754 8.92795 5.14795 12.614 5.19494C12.7497 5.19494 12.922 5.12706 13.0212 5.03831C15.094 3.12219 17.48 1.73862 20.174 0.898036C23.0456 -0.00520105 25.9798 -0.182716 28.9558 0.344608C29.3578 0.417702 29.6241 0.678753 29.6972 1.07033C29.7494 1.3366 29.7859 1.6081 29.8225 1.87959C29.8851 2.35992 29.9373 2.84548 29.9948 3.32581C29.9948 4.00977 29.9948 4.6885 29.9948 5.37245C29.9373 5.84235 29.8904 6.31746 29.8277 6.78735C29.3004 10.677 27.7027 14.0655 25.0452 16.9579C24.8938 17.1198 24.8416 17.2816 24.8416 17.5009C24.8886 20.4717 24.0324 23.1553 22.1737 25.4786C21.3958 26.4497 20.4769 27.306 19.6102 28.1988C19.0463 28.7783 18.3989 28.6582 18.0334 27.9273C17.3756 26.622 16.7229 25.3168 16.0703 24.0115C16.0233 23.9175 15.9711 23.8288 15.9398 23.7661C14.9165 24.2047 13.9245 24.6276 12.9325 25.0557C12.5148 25.2332 12.1076 25.3742 11.7003 25.0453C11.6116 25.1497 11.5489 25.2176 11.4862 25.2959C9.59624 27.6036 7.19979 29.0916 4.27602 29.7129C3.69648 29.8382 3.10651 29.906 2.52175 30ZM8.99582 19.8817C9.06369 19.772 9.11068 19.6676 9.18378 19.5945C10.4995 18.2736 11.8204 16.9579 13.1361 15.6422C13.2196 15.5587 13.2979 15.4699 13.3919 15.402C13.6791 15.1984 13.9871 15.1671 14.3056 15.3185C14.6136 15.4647 14.7703 15.7257 14.7912 16.0651C14.8068 16.3679 14.6659 16.6029 14.457 16.8117C13.11 18.1535 11.763 19.5005 10.4159 20.8423C10.3428 20.9154 10.275 20.9938 10.1967 21.0773C10.9067 21.7821 11.6011 22.4661 12.2851 23.1657C12.4313 23.3171 12.5461 23.3328 12.7393 23.2545C16.18 21.8552 19.2812 19.9182 22.0484 17.4435C23.6147 16.0442 25.0296 14.5145 26.0372 12.661C26.4758 11.8517 26.8517 11.0112 27.2642 10.1654C23.244 9.22035 20.811 6.78735 19.8764 2.84548C19.8242 2.86114 19.7772 2.87158 19.7302 2.88725C18.1483 3.48244 16.6864 4.2917 15.3602 5.33591C13.6373 6.68815 12.2015 8.32233 10.8754 10.0505C9.17334 12.2746 7.81065 14.6972 6.76122 17.2973C6.71945 17.3965 6.71945 17.5844 6.78211 17.6471C7.48695 18.3832 8.20745 19.0933 8.99582 19.8817ZM6.19735 19.6154C3.07518 21.8187 1.66028 25.6091 1.80647 28.2562C5.38287 28.1205 8.24921 26.6377 10.4107 23.8444C9.89906 23.3328 9.4135 22.8472 8.8914 22.3303C8.83919 22.393 8.78176 22.4817 8.70344 22.5548C8.17612 23.0874 7.64358 23.6199 7.11103 24.1473C6.84476 24.4083 6.52628 24.5023 6.17125 24.377C5.8371 24.2621 5.64915 24.0115 5.59693 23.6669C5.54995 23.3432 5.69091 23.0822 5.91542 22.8577C6.51061 22.2729 7.10059 21.6777 7.6749 21.1034C7.17368 20.5917 6.69335 20.1114 6.19735 19.6154ZM27.7289 8.40587C27.7445 8.3641 27.7602 8.33799 27.7654 8.30667C28.2457 6.31746 28.3502 4.30736 28.1152 2.27639C28.0839 1.98923 27.9273 1.94746 27.7027 1.92136C26.2043 1.74384 24.7059 1.7595 23.2127 1.98401C22.6801 2.06755 22.1476 2.18241 21.6203 2.28161C22.0014 5.44033 24.7007 8.05084 27.7289 8.40587ZM11.1103 6.99619C8.10825 7.36166 5.75357 8.71913 3.82701 10.912C4.92864 11.4602 6.01462 12.0032 7.11625 12.5514C8.25444 10.5674 9.56491 8.75046 11.1103 6.99619ZM23.0352 18.9106C21.2809 20.4508 19.4588 21.7612 17.4748 22.8994C18.0282 24.0011 18.5712 25.087 19.1194 26.1835C21.3227 24.2412 22.6801 21.8918 23.0352 18.9106Z" fill="#42AC98"/>
<path d="M22.2781 11.5437C22.2833 13.6478 20.576 15.3655 18.472 15.3603C16.3836 15.3551 14.6711 13.653 14.6658 11.5646C14.6554 9.47619 16.3522 7.76891 18.4511 7.75847C20.5708 7.74803 22.2729 9.42398 22.2781 11.5437ZM18.4772 9.51273C17.3442 9.51273 16.4253 10.4212 16.4253 11.5489C16.4253 12.6715 17.3495 13.5956 18.4772 13.5956C19.6102 13.5956 20.5186 12.6819 20.5186 11.5489C20.5186 10.416 19.6206 9.51273 18.4772 9.51273Z" fill="#42AC98"/>
</g>
<defs>
<clipPath id="clip0_76_676">
<rect width="30" height="30" fill="white"/>
</clipPath>
</defs>
</svg>
