<svg width="30" height="30" viewBox="0 0 30 30" fill="none" xmlns="http://www.w3.org/2000/svg">
<path d="M25.3828 0C25.5625 0.046875 25.7422 0.09375 25.9141 0.148438C27.7734 0.78125 28.4219 3.10156 27.1406 4.59375C26.7344 5.0625 26.2656 5.48438 25.8281 5.92969C25.7578 6 25.6875 6.07812 25.6094 6.17188C25.8984 6.21094 26.1562 6.22656 26.4062 6.28906C27.5859 6.58594 28.3516 7.59375 28.3516 8.88281C28.3594 11.3516 28.3516 13.8125 28.3516 16.2812C28.3516 17.8906 28.3594 19.5 28.3516 21.1094C28.3438 22.4453 27.5078 23.4766 26.2422 23.7188C26.0156 23.7656 25.7734 23.7578 25.5469 23.7578C23.1875 23.7578 20.8281 23.7578 18.4688 23.7578C18.3516 23.7578 18.2344 23.7578 18.0859 23.7578C18.1953 25.2344 18.3047 26.6875 18.4219 28.1875C18.9297 28.1875 19.4219 28.1797 19.9141 28.1875C20.3828 28.1953 20.7422 28.5234 20.7812 28.9688C20.8281 29.4766 20.4688 29.9141 19.9531 29.9375C19.7422 29.9531 19.5234 29.9375 19.3125 29.9375C16.2656 29.9375 13.2109 29.9375 10.1641 29.9375C9.66406 29.9375 9.30469 29.7031 9.19531 29.2969C9.04687 28.7422 9.44531 28.1953 10.0234 28.1797C10.5156 28.1641 11.0156 28.1797 11.5312 28.1797C11.6406 26.6953 11.7578 25.2422 11.8672 23.75C11.7266 23.75 11.6094 23.75 11.5 23.75C9.10156 23.75 6.70312 23.75 4.30469 23.75C2.97656 23.75 1.96875 22.9922 1.67969 21.7812C1.625 21.5391 1.60156 21.2813 1.60156 21.0312C1.59375 17 1.59375 12.9609 1.60156 8.92969C1.60156 7.29688 2.70312 6.20312 4.34375 6.20312C8.6875 6.20312 13.0391 6.20312 17.3828 6.21094C17.5938 6.21094 17.7422 6.14844 17.8906 6C19.4375 4.4375 21.0078 2.88281 22.5469 1.3125C23.1328 0.695312 23.75 0.164062 24.6172 0C24.875 0 25.125 0 25.3828 0ZM15.875 8.04688C15.8594 8.02344 15.8438 8 15.8281 7.97656C15.7891 7.97656 15.7578 7.96875 15.7188 7.96875C11.8984 7.96875 8.07812 7.96875 4.25781 7.96875C3.67188 7.96875 3.35156 8.28906 3.35156 8.88281C3.34375 12.9531 3.34375 17.0312 3.35156 21.1016C3.35156 21.6953 3.67188 22 4.25781 22C11.3906 22 18.5234 22 25.6562 22C26.2656 22 26.5781 21.6953 26.5781 21.0781C26.5781 17.0156 26.5781 12.9531 26.5781 8.89062C26.5781 8.28906 26.2578 7.97656 25.6562 7.96875C25.1016 7.96094 24.5469 7.96094 23.9922 7.97656C23.8828 7.97656 23.7422 8.02344 23.6641 8.10156C21.75 9.99219 19.8516 11.8906 17.9531 13.7969C17.8828 13.8672 17.8281 14 17.8359 14.1016C17.8828 16.2578 16.9219 17.7109 14.9062 18.5C13.0625 19.2188 11.1172 19.5391 9.16406 19.7734C8.34375 19.875 7.95312 19.4375 8.0625 18.6016C8.07031 18.5469 8.07031 18.4844 8.07812 18.4297C8.30469 16.6875 8.60156 14.9609 9.1875 13.3047C9.44531 12.5703 9.73437 11.8359 10.3047 11.2734C11.2266 10.3672 12.3438 9.94531 13.6406 10C13.75 10.0078 13.8984 10 13.9609 9.9375C14.6016 9.30469 15.2344 8.67188 15.875 8.04688ZM15.7734 10.5625C16.2812 11.0703 16.7422 11.5391 17.2109 12.0078C17.25 11.9688 17.3203 11.9062 17.3906 11.8359C19.4062 9.82812 21.4219 7.82031 23.4375 5.8125C24.1953 5.05469 24.9531 4.29688 25.7109 3.53906C26.0156 3.23438 26.1016 2.86719 25.9766 2.46875C25.8516 2.07031 25.5625 1.83594 25.1562 1.77344C24.7656 1.71094 24.4609 1.86719 24.1875 2.14062C21.8828 4.45312 19.5859 6.76562 17.2812 9.07812C16.7812 9.58594 16.2578 10.0859 15.7734 10.5625ZM9.89844 17.8906C11.4844 17.625 13 17.3594 14.4297 16.7812C14.7266 16.6641 15.0234 16.5078 15.25 16.2969C16.0156 15.625 16.2578 14.4375 15.8906 13.4531C15.5156 12.4453 14.5469 11.7656 13.4687 11.7422C12.3594 11.7188 11.4531 12.2656 11.0625 13.2891C10.7734 14.0469 10.5547 14.8359 10.3594 15.625C10.1719 16.3516 10.0547 17.0938 9.89844 17.8906ZM16.3125 23.7812C15.3984 23.7812 14.5234 23.7812 13.625 23.7812C13.5156 25.25 13.4062 26.7031 13.2969 28.1641C14.4297 28.1641 15.5312 28.1641 16.6484 28.1641C16.5312 26.6875 16.4219 25.2422 16.3125 23.7812Z" fill="#DF4343"/>
</svg>
