<svg width="30" height="30" viewBox="0 0 30 30" fill="none" xmlns="http://www.w3.org/2000/svg">
<g clip-path="url(#clip0_76_659)">
<path d="M5.80468 30C5.64843 29.9531 5.48437 29.914 5.32812 29.8672C3.67187 29.3125 3 27.2656 4.01562 25.8437C4.07031 25.7656 4.13281 25.6875 4.19531 25.5937C3.85156 25.1797 3.625 24.7187 3.55468 24.1797C3.35156 22.75 4.42187 21.3437 5.86718 21.2265C6.70312 21.1562 7.54687 21.1953 8.38281 21.1875C8.50781 21.1875 8.63281 21.1875 8.82031 21.1875C5.04687 18.5 3.19531 14.9219 3.60156 10.3359C3.88281 7.21092 5.32031 4.6406 7.75 2.64842C12.6406 -1.3594 19.7891 -0.648459 23.8516 4.22654C28.1562 9.39842 27.0781 17.3906 21.1797 21.1719C21.3359 21.1797 21.4375 21.1875 21.5312 21.1875C22.3672 21.1953 23.2109 21.164 24.0469 21.2187C25.0859 21.2812 25.8203 21.8437 26.2344 22.7812C26.6484 23.7187 26.5312 24.625 25.9141 25.4531C25.8828 25.4922 25.8516 25.5312 25.8125 25.5859C25.8672 25.664 25.9141 25.7422 25.9687 25.8203C27.0859 27.375 26.2422 29.5469 24.3672 29.9531C24.3125 29.9687 24.2578 29.9922 24.2031 30.0078C18.0703 30 11.9375 30 5.80468 30ZM5.28906 11.4844C5.25781 16.7969 9.60937 21.164 14.9766 21.1875C20.3125 21.2187 24.6797 16.8828 24.7109 11.5234C24.7422 6.21873 20.3984 1.85154 15.0547 1.81248C9.70312 1.78123 5.32812 6.11717 5.28906 11.4844ZM15 22.9531C12.1484 22.9531 9.29687 22.9531 6.44531 22.9531C6.32031 22.9531 6.1875 22.9531 6.0625 22.9687C5.70312 23.0078 5.40625 23.2656 5.32031 23.6172C5.16406 24.2344 5.60937 24.7187 6.35937 24.7187C12.1172 24.7187 17.875 24.7187 23.6406 24.7187C23.7891 24.7187 23.9375 24.7109 24.0781 24.6719C24.4453 24.5781 24.7031 24.2265 24.7109 23.8515C24.7187 23.4844 24.4609 23.1094 24.1094 23.0078C23.9531 22.9609 23.7812 22.9609 23.6172 22.9609C20.7422 22.9531 17.8672 22.9531 15 22.9531ZM15.0234 26.4844C12.1719 26.4844 9.32031 26.4844 6.46875 26.4844C6.34375 26.4844 6.21093 26.4844 6.08593 26.4922C5.5625 26.539 5.19531 27.039 5.3125 27.5547C5.41406 27.9922 5.76562 28.25 6.29687 28.25C12.0937 28.25 17.8906 28.25 23.6953 28.25C23.7656 28.25 23.8359 28.25 23.8984 28.2422C24.4922 28.1719 24.8594 27.5703 24.6328 27.039C24.4531 26.6328 24.125 26.4844 23.6875 26.4844C20.8047 26.4844 17.9141 26.4844 15.0234 26.4844Z" fill="#543EE8"/>
<path d="M14.1172 6.93749C14.1172 6.62499 14.1172 6.34374 14.1172 6.0703C14.125 5.55468 14.5 5.16405 14.9844 5.15624C15.4844 5.14843 15.8672 5.54687 15.875 6.07812C15.8828 6.35937 15.875 6.64062 15.875 6.92187C16.1563 6.96093 16.4063 6.97655 16.6484 7.03124C17.4609 7.22655 18.1016 7.67187 18.5703 8.36718C18.8672 8.8203 18.7813 9.35155 18.3594 9.6328C17.9531 9.90624 17.4297 9.80468 17.125 9.37499C16.7969 8.92187 16.375 8.6953 15.8047 8.70312C15.2109 8.71874 14.6172 8.70312 14.0156 8.71093C13.4297 8.71093 13.0078 9.10937 13 9.65624C12.9922 10.1953 13.4063 10.6172 13.9922 10.6328C14.7031 10.6484 15.4141 10.625 16.1328 10.6406C17.2422 10.6641 18.2188 11.3906 18.5938 12.4531C18.9688 13.5078 18.6563 14.6875 17.8125 15.3984C17.2656 15.8594 16.625 16.0469 15.875 16.0781C15.875 16.2031 15.875 16.3281 15.875 16.4453C15.875 17.4375 15.625 17.8437 15 17.8437C14.3672 17.8516 14.1094 17.4375 14.1094 16.4297C14.1094 16.3203 14.1094 16.2187 14.1094 16.1016C13.7813 16.0547 13.4609 16.0234 13.1484 15.9609C12.4609 15.8281 11.9063 15.4609 11.4609 14.9297C11.1406 14.5391 11.1719 14.0156 11.5313 13.6953C11.8828 13.375 12.4219 13.3906 12.7656 13.7578C13.1328 14.1562 13.5625 14.3203 14.0938 14.3047C14.7266 14.2891 15.3594 14.3125 16 14.2969C16.5313 14.2891 16.9297 13.9297 16.9766 13.4297C17.0234 12.9687 16.7266 12.5312 16.2734 12.4141C16.1328 12.375 15.9844 12.3828 15.8359 12.375C15.0781 12.3594 14.3047 12.4062 13.5547 12.3203C12.1484 12.1562 11.1797 10.9219 11.2344 9.48437C11.2891 8.14843 12.3906 7.04687 13.7656 6.9453C13.8828 6.95312 13.9766 6.9453 14.1172 6.93749Z" fill="#543EE8"/>
</g>
<defs>
<clipPath id="clip0_76_659">
<rect width="30" height="30" fill="white"/>
</clipPath>
</defs>
</svg>
