<svg width="30" height="30" viewBox="0 0 30 30" fill="none" xmlns="http://www.w3.org/2000/svg">
<path d="M0 15.3222C0.210938 14.8183 0.597656 14.6132 1.13672 14.6601C1.37109 14.6777 1.60547 14.666 1.86914 14.666C1.83984 14.5605 1.81641 14.4843 1.78711 14.4023C0.65625 11.3203 1.03711 8.43161 3.12305 5.88864C5.0918 3.49215 7.71094 2.5195 10.793 2.8945C12.2637 3.07614 13.5879 3.65036 14.7539 4.55856C14.918 4.68747 15.0117 4.67575 15.1758 4.55856C18.0352 2.4902 21.0938 2.19137 24.2227 3.78512C26.7422 5.06833 28.207 7.20114 28.6523 10.0136C28.8926 11.5312 28.6992 13.0019 28.1309 14.4257C28.1133 14.4726 28.0957 14.5195 28.084 14.5605C28.0781 14.5781 28.084 14.5957 28.0898 14.6601C28.3828 14.6601 28.6816 14.6543 28.9746 14.6601C29.5488 14.6718 29.9355 15.0293 29.9297 15.539C29.9238 16.0371 29.5488 16.4004 28.9863 16.4121C28.3945 16.4238 27.7969 16.4062 27.2051 16.4238C27.0879 16.4297 26.9531 16.5 26.8652 16.582C26.625 16.8222 26.4141 17.0918 26.1738 17.332C23.2031 20.3203 20.2148 23.3027 17.2324 26.2851C16.4941 27.0293 15.6152 27.3867 14.5664 27.2519C13.9102 27.1699 13.3301 26.8945 12.8613 26.4257C9.70898 23.2793 6.55078 20.1386 3.43359 16.957C3.0293 16.5468 2.67188 16.3418 2.11523 16.4062C1.78711 16.4472 1.45312 16.4004 1.125 16.4179C0.585938 16.4472 0.193359 16.2539 0 15.7324C0 15.5918 0 15.457 0 15.3222ZM16.5645 17.5605C16.6465 17.4433 16.6992 17.3437 16.7695 17.2675C17.4961 16.5351 18.2344 15.8144 18.9551 15.0703C19.2305 14.7832 19.541 14.6543 19.9395 14.6601C21.8906 14.6718 23.8359 14.6601 25.7871 14.6718C25.998 14.6718 26.1152 14.6191 26.2148 14.4199C26.9121 13.0722 27.1523 11.6543 26.9121 10.1484C26.2207 5.83004 21.4746 3.32223 17.5137 5.18551C16.8105 5.5195 16.1953 5.96481 15.6211 6.49215C15.1934 6.89059 14.7598 6.87887 14.3203 6.49801C14.2559 6.43942 14.1914 6.38083 14.127 6.32223C12.4512 4.82809 10.4883 4.28317 8.30273 4.70504C3.9082 5.55465 1.59961 10.5293 3.74414 14.4492C3.83789 14.6191 3.9375 14.6777 4.13086 14.6718C5.32031 14.6601 6.50977 14.6718 7.69922 14.6601C7.85156 14.6601 8.03906 14.5781 8.15039 14.4726C9.06445 13.582 9.96094 12.6738 10.8633 11.7715C11.4844 11.1504 11.9941 11.1914 12.5039 11.8945C13.4648 13.2304 14.4199 14.5722 15.3809 15.9082C15.75 16.4297 16.1309 16.957 16.5645 17.5605ZM5.34375 16.4179C5.44922 16.5293 5.49609 16.5879 5.54883 16.6406C8.36133 19.4531 11.168 22.2656 13.9805 25.0722C14.6074 25.6992 15.3398 25.6992 15.9609 25.0722C18.7734 22.2656 21.5801 19.4531 24.3926 16.6406C24.4512 16.582 24.498 16.5175 24.5625 16.4414C24.498 16.4297 24.4746 16.4179 24.4453 16.4179C23.0508 16.4179 21.6562 16.4121 20.2676 16.4238C20.1504 16.4238 20.0156 16.5117 19.9277 16.5937C18.9961 17.5078 18.0762 18.4394 17.1562 19.3593C16.6113 19.8984 16.0605 19.8574 15.6094 19.2363C15.0059 18.3984 14.4082 17.5605 13.8047 16.7226C13.0547 15.6797 12.3105 14.6367 11.502 13.5175C11.4199 13.6347 11.373 13.7343 11.2969 13.8105C10.5762 14.5371 9.84375 15.2519 9.13477 15.9843C8.83594 16.2949 8.50195 16.4355 8.07422 16.4297C7.18945 16.4062 6.29883 16.4179 5.34375 16.4179Z" fill="#543EE8"/>
</svg>
