<svg width="30" height="30" viewBox="0 0 30 30" fill="none" xmlns="http://www.w3.org/2000/svg">
<g clip-path="url(#clip0_76_735)">
<path d="M14.6777 30C13.875 29.7657 13.0664 29.5606 12.2754 29.2911C9.60938 28.3946 7.14844 27.1289 5.07422 25.1895C3.57422 23.7891 2.47266 22.1368 2.08008 20.086C1.98633 19.5996 1.93945 19.1016 1.93359 18.6036C1.92187 13.9336 1.92773 9.26371 1.92773 4.59965C1.92773 3.94926 2.25586 3.60941 2.91211 3.5977C5.34375 3.56254 7.75195 3.31645 10.1074 2.68363C11.4961 2.30863 12.8379 1.82231 13.9805 0.908243C14.209 0.726602 14.4082 0.509805 14.6191 0.304727C14.9824 -0.0409761 15.5391 -0.0526948 15.8379 0.334024C16.5996 1.31254 17.6309 1.86918 18.7559 2.29105C20.3262 2.88285 21.9551 3.19926 23.6191 3.36918C24.75 3.48637 25.8926 3.52152 27.0293 3.58598C27.627 3.62113 27.9609 3.9434 27.9609 4.55277C27.9609 9.22855 27.9668 13.9102 27.9609 18.586C27.9609 20.9473 27 22.9043 25.4121 24.5918C23.7949 26.3086 21.8203 27.5039 19.6875 28.459C18.2461 29.1036 16.7637 29.6426 15.2109 29.9414C15.1875 29.9473 15.1641 29.9707 15.1406 29.9883C14.9883 30 14.8359 30 14.6777 30ZM3.69727 5.36137C3.69141 5.45512 3.67969 5.52543 3.67969 5.6016C3.67969 9.95512 3.67969 14.3145 3.67969 18.668C3.67969 19.4942 3.85547 20.2911 4.17773 21.0528C4.85742 22.6582 6.0293 23.8536 7.41211 24.8555C9.63867 26.461 12.1406 27.4571 14.7656 28.1778C14.8945 28.2129 15.0586 28.2012 15.1875 28.1602C16.1777 27.8438 17.1797 27.5508 18.1465 27.17C20.2266 26.3555 22.1777 25.3067 23.8066 23.7422C25.3008 22.3008 26.2148 20.5899 26.209 18.4454C26.1973 14.1856 26.2031 9.92582 26.2031 5.67191C26.2031 5.57231 26.1914 5.46684 26.1855 5.34965C25.998 5.33793 25.8457 5.33793 25.6934 5.32621C24.3574 5.19145 23.0156 5.10356 21.6914 4.89848C19.9336 4.62895 18.2344 4.12504 16.6758 3.23441C16.1484 2.92973 15.6562 2.56645 15.1523 2.23246C11.7246 4.63481 7.76953 5.18559 3.69727 5.36137Z" fill="#DF4343"/>
<path d="M12.3457 14.1621C12.4746 14.1621 12.5918 14.1621 12.7031 14.1621C15.1406 14.1621 17.5723 14.1621 20.0098 14.1621C20.7656 14.1621 21.0938 14.4902 21.0938 15.252C21.0938 17.461 21.0938 19.6758 21.0938 21.8848C21.0938 22.6465 20.7656 22.9746 20.0156 22.9746C16.6348 22.9746 13.2539 22.9746 9.87305 22.9746C9.14648 22.9746 8.81836 22.6465 8.81836 21.9258C8.81836 19.6875 8.81836 17.4434 8.81836 15.2051C8.81836 14.4961 9.15234 14.1621 9.84961 14.1621C10.0781 14.1621 10.3125 14.1621 10.5762 14.1621C10.5762 13.6348 10.5586 13.1426 10.582 12.6445C10.6113 11.918 10.5645 11.168 10.7168 10.4649C11.1738 8.34377 13.1191 6.98439 15.3691 7.13673C17.4023 7.2715 19.125 8.9883 19.3125 11.0742C19.3301 11.2676 19.3477 11.4668 19.3125 11.6543C19.2422 12.0938 18.8437 12.3985 18.416 12.375C17.9766 12.3457 17.6426 12.0176 17.5898 11.5723C17.5547 11.2852 17.5371 10.9863 17.4551 10.711C17.0859 9.49806 15.8613 8.73048 14.6191 8.90627C13.3008 9.09377 12.3574 10.1192 12.334 11.4258C12.3164 12.2754 12.3281 13.1192 12.3281 13.9688C12.3281 14.0215 12.3398 14.0742 12.3457 14.1621ZM19.3242 15.9434C16.3887 15.9434 13.4941 15.9434 10.5879 15.9434C10.5879 17.707 10.5879 19.4473 10.5879 21.1934C13.5059 21.1934 16.4062 21.1934 19.3242 21.1934C19.3242 19.4414 19.3242 17.7012 19.3242 15.9434Z" fill="#DF4343"/>
<path d="M14.0801 18.5625C14.0801 18.082 14.4668 17.6895 14.9473 17.6895C15.4219 17.6895 15.8203 18.082 15.832 18.5566C15.8379 19.0371 15.4277 19.4531 14.9414 19.4473C14.4668 19.4414 14.0801 19.0488 14.0801 18.5625Z" fill="#DF4343"/>
</g>
<defs>
<clipPath id="clip0_76_735">
<rect width="30" height="30" fill="white"/>
</clipPath>
</defs>
</svg>
