<svg width="30" height="30" viewBox="0 0 30 30" fill="none" xmlns="http://www.w3.org/2000/svg">
<g clip-path="url(#clip0_76_756)">
<path d="M25.793 30C18.5801 30 11.3672 30 4.14844 30C4.0957 29.9824 4.04297 29.959 3.98438 29.9472C2.17383 29.6425 0.931641 28.6289 0.275391 26.9121C0.146484 26.5722 0.0878906 26.2031 -0.00585938 25.8457C0 18.6328 0 11.4199 0 4.207C0.0175781 4.14254 0.046875 4.07809 0.0527344 4.01364C0.427734 1.68746 2.32031 0.0644174 4.69922 0.0585581C11.5488 0.0526987 18.4043 0.0526987 25.2539 0.0702768C25.7695 0.0702768 26.3145 0.152308 26.8008 0.32223C28.7578 0.990199 29.9473 2.71286 29.9473 4.81051C29.9531 9.22262 29.9473 13.6406 29.9473 18.0527C29.9473 20.4668 29.9707 22.8867 29.9414 25.3007C29.918 27.2871 28.9863 28.7343 27.1875 29.584C26.7539 29.789 26.2617 29.8652 25.793 30ZM1.76953 9.33981C1.76367 9.45114 1.75781 9.53903 1.75781 9.62106C1.75781 14.8359 1.75781 20.0507 1.75781 25.2656C1.75781 26.9882 3.02344 28.2422 4.75781 28.2422C11.5723 28.2422 18.3867 28.2422 25.2012 28.2422C26.9473 28.2422 28.2012 26.9824 28.2012 25.2363C28.2012 20.039 28.2012 14.8476 28.2012 9.65036C28.2012 9.55075 28.2012 9.44528 28.2012 9.33395C19.3652 9.33981 10.582 9.33981 1.76953 9.33981ZM1.76367 7.55856C10.5879 7.55856 19.3828 7.55856 28.1953 7.55856C28.1953 6.65036 28.1953 5.76559 28.1953 4.88082C28.1953 3.0527 26.959 1.81637 25.1367 1.81637C22.0488 1.81637 18.9609 1.81637 15.8672 1.81637C12.1465 1.81637 8.41992 1.81051 4.69922 1.81637C3.1582 1.81637 1.875 2.93551 1.77539 4.43551C1.71094 5.4609 1.76367 6.49801 1.76367 7.55856Z" fill="#DE1EF9"/>
<path d="M5.8008 16.9218C5.95314 17.0272 6.04689 17.08 6.12306 17.1562C7.06642 18.0995 8.01564 19.037 8.95314 19.9862C9.35744 20.3905 9.37501 20.9237 9.01173 21.287C8.65431 21.6444 8.11525 21.6269 7.71095 21.2226C6.50392 20.0214 5.29689 18.8144 4.09572 17.6073C3.64455 17.1562 3.64455 16.6698 4.084 16.2245C5.29103 15.0116 6.50392 13.7987 7.72267 12.5858C8.06251 12.2519 8.44337 12.1874 8.81251 12.3866C9.15822 12.5741 9.35158 12.9608 9.23439 13.3476C9.18166 13.5351 9.05861 13.7167 8.91798 13.8573C7.99806 14.7948 7.06056 15.7206 6.12892 16.6523C6.05861 16.7226 5.96486 16.787 5.8008 16.9218Z" fill="#DE1EF9"/>
<path d="M22.1895 16.9159C22.0957 16.8163 22.0254 16.7402 21.9492 16.664C21.0117 15.7265 20.0742 14.789 19.1367 13.8515C18.709 13.4238 18.6856 12.9023 19.0547 12.5331C19.4239 12.164 19.9512 12.1991 20.3731 12.6152C21.5742 13.8105 22.7696 15.0116 23.9707 16.2128C24.416 16.664 24.4219 17.1503 23.9824 17.5956C22.7813 18.8027 21.5742 20.0097 20.3672 21.2109C19.9512 21.6269 19.4063 21.6445 19.0489 21.2753C18.6914 20.9062 18.7149 20.3906 19.1309 19.9745C20.1328 18.9609 21.1524 17.9531 22.1895 16.9159Z" fill="#DE1EF9"/>
<path d="M12.1523 21.5332C11.5605 21.5332 11.1445 20.9649 11.3262 20.4024C11.3496 20.3262 11.3789 20.2559 11.4141 20.1856C12.6387 17.7305 13.8691 15.2813 15.0937 12.8262C15.2578 12.4981 15.5098 12.2871 15.8906 12.2754C16.5058 12.2578 16.9394 12.8496 16.7344 13.4356C16.7051 13.5176 16.664 13.5996 16.6289 13.6758C15.4277 16.084 14.2207 18.4922 13.0195 20.9063C12.8379 21.2754 12.5859 21.5332 12.1523 21.5332Z" fill="#DE1EF9"/>
<path d="M12.1582 5.56055C11.6719 5.56055 11.2852 5.17969 11.2852 4.69336C11.2852 4.21289 11.6777 3.81445 12.1523 3.80859C12.6211 3.80859 13.0312 4.21289 13.0371 4.68164C13.0371 5.16797 12.6445 5.56055 12.1582 5.56055Z" fill="#DE1EF9"/>
<path d="M5.50782 4.69916C5.50196 5.18549 5.1211 5.56049 4.62891 5.56049C4.14844 5.55463 3.75 5.16205 3.75586 4.68158C3.76172 4.20697 4.17188 3.80268 4.64063 3.80853C5.12696 3.82025 5.50782 4.21283 5.50782 4.69916Z" fill="#DE1EF9"/>
<path d="M8.39063 5.56049C7.9043 5.56049 7.52344 5.17377 7.5293 4.68158C7.53516 4.20111 7.92774 3.80268 8.40821 3.80854C8.88282 3.81439 9.2754 4.21283 9.2754 4.6933C9.26368 5.18549 8.87696 5.56635 8.39063 5.56049Z" fill="#DE1EF9"/>
</g>
<defs>
<clipPath id="clip0_76_756">
<rect width="30" height="30" fill="white"/>
</clipPath>
</defs>
</svg>
