<svg width="30" height="30" viewBox="0 0 30 30" fill="none" xmlns="http://www.w3.org/2000/svg">
<g clip-path="url(#clip0_76_715)">
<path d="M30 21.7559C29.8828 22.2247 29.8125 22.7169 29.6484 23.1622C28.7754 25.4825 27.082 26.8126 24.6387 27.1758C24.3516 27.2169 24.0527 27.2169 23.7656 27.2169C17.9473 27.2169 12.1289 27.2227 6.31055 27.2169C3.92578 27.2169 2.0918 26.2032 0.861327 24.1524C0.304686 23.2325 0.0585927 22.2129 0.0585927 21.1407C0.0585927 17.9532 0.0175771 14.7657 0.0703115 11.584C0.117186 8.98248 1.39453 7.13092 3.75586 6.03522C3.91406 5.95904 3.99023 5.87115 4.02539 5.70123C4.3418 4.16608 5.69531 2.98248 7.23633 2.87701C8.83594 2.76568 10.3242 3.7442 10.8398 5.25592C10.9219 5.49029 11.0273 5.56061 11.2676 5.56061C13.2246 5.54889 15.1875 5.55475 17.1445 5.55475C17.25 5.55475 17.3555 5.55475 17.4844 5.55475C17.4902 5.42584 17.502 5.32623 17.502 5.22076C17.502 4.75201 17.4961 4.28326 17.5078 3.82037C17.5254 3.22272 17.8711 2.87701 18.4629 2.87701C20.7012 2.87115 22.9453 2.87115 25.1836 2.87701C25.793 2.87701 26.1328 3.22858 26.1387 3.84381C26.1445 4.4649 26.1445 5.09186 26.1328 5.71295C26.127 5.88873 26.1738 5.98248 26.3496 6.06451C28.4062 7.01959 29.6133 8.6192 29.9414 10.8692C29.9531 10.9337 29.9766 10.9981 29.9941 11.0626C30 14.6192 30 18.1876 30 21.7559ZM15.0117 25.4649C17.918 25.4649 20.8184 25.4356 23.7246 25.4766C26.3848 25.5176 28.2949 23.4317 28.2539 20.9532C28.207 17.8829 28.2539 14.8126 28.2305 11.7422C28.2246 11.2442 28.1602 10.7227 28.0078 10.254C27.416 8.42584 25.8047 7.3067 23.8242 7.3067C19.9629 7.30084 16.1074 7.3067 12.2461 7.3067C10.1484 7.3067 8.05664 7.28326 5.95898 7.31842C3.72656 7.35358 1.8457 9.19928 1.82226 11.4258C1.78125 14.7364 1.80469 18.0528 1.81641 21.3633C1.82226 22.2012 2.10351 22.9688 2.60156 23.6485C3.51562 24.8965 4.75781 25.4766 6.29883 25.4708C9.20508 25.4649 12.1113 25.4649 15.0117 25.4649ZM24.375 4.64068C22.6582 4.64068 20.9707 4.64068 19.2773 4.64068C19.2773 4.95123 19.2773 5.23834 19.2773 5.53131C20.9824 5.53131 22.6699 5.53131 24.375 5.53131C24.375 5.22662 24.375 4.93951 24.375 4.64068ZM9.07617 5.53717C8.63086 4.88092 8.06836 4.57037 7.3418 4.63483C6.73828 4.68756 6.27539 4.98053 5.94141 5.53717C7.00195 5.53717 8.0039 5.53717 9.07617 5.53717Z" fill="#42AC98"/>
<path d="M3.52149 16.8282C3.50391 12.6681 6.89649 9.26379 11.0977 9.22864C15.2637 9.18762 18.709 12.6212 18.7148 16.8107C18.7266 20.9943 15.2988 24.422 11.1152 24.4161C6.93751 24.4044 3.53907 21.006 3.52149 16.8282ZM11.1328 22.6583C14.3789 22.6407 16.9863 20.0099 16.9629 16.7872C16.9395 13.5646 14.3027 10.9513 11.0977 10.9806C7.86329 11.0099 5.25001 13.6407 5.27344 16.8341C5.29688 20.0568 7.9336 22.6759 11.1328 22.6583Z" fill="#42AC98"/>
<path d="M24.0703 22.8691C23.6777 22.8691 23.291 22.875 22.8984 22.8691C22.377 22.8574 21.9902 22.4824 21.9902 21.9961C21.9902 21.5215 22.3652 21.1348 22.8691 21.123C23.666 21.1055 24.4688 21.1055 25.2656 21.123C25.7871 21.1348 26.1504 21.5273 26.1328 22.0312C26.1211 22.5176 25.752 22.8574 25.2305 22.875C25.2129 22.875 25.1895 22.875 25.1719 22.875C24.8145 22.875 24.4453 22.875 24.0703 22.8691Z" fill="#42AC98"/>
<path d="M14.8125 16.8223C14.8067 18.8672 13.1426 20.5254 11.1094 20.5195C9.07619 20.5078 7.41798 18.8379 7.42384 16.7988C7.43556 14.7774 9.09377 13.1192 11.1152 13.1192C13.1543 13.1133 14.8184 14.7832 14.8125 16.8223ZM13.0547 16.8106C13.0547 15.7442 12.1875 14.877 11.127 14.8711C10.0781 14.8653 9.18752 15.7442 9.18166 16.8047C9.1758 17.8711 10.0723 18.7735 11.1328 18.7617C12.1992 18.75 13.0606 17.877 13.0547 16.8106Z" fill="#42AC98"/>
</g>
<defs>
<clipPath id="clip0_76_715">
<rect width="30" height="30" fill="white"/>
</clipPath>
</defs>
</svg>
